G75*
G70*
%OFA0B0*%
%FSLAX24Y24*%
%IPPOS*%
%LPD*%
%AMOC8*
5,1,8,0,0,1.08239X$1,22.5*
%
%ADD10R,0.0157X0.0630*%
%ADD11R,0.0394X0.0315*%
%ADD12R,0.0315X0.0394*%
D10*
X007031Y004712D03*
X007287Y004712D03*
X007543Y004712D03*
X007799Y004712D03*
X008055Y004712D03*
X008311Y004712D03*
X008567Y004712D03*
X008822Y004712D03*
X012031Y004712D03*
X012287Y004712D03*
X012543Y004712D03*
X012799Y004712D03*
X013055Y004712D03*
X013311Y004712D03*
X013567Y004712D03*
X013822Y004712D03*
X017031Y004712D03*
X017287Y004712D03*
X017543Y004712D03*
X017799Y004712D03*
X018055Y004712D03*
X018311Y004712D03*
X018567Y004712D03*
X018822Y004712D03*
X022031Y004712D03*
X022287Y004712D03*
X022543Y004712D03*
X022799Y004712D03*
X023055Y004712D03*
X023311Y004712D03*
X023567Y004712D03*
X023822Y004712D03*
X027031Y004712D03*
X027287Y004712D03*
X027543Y004712D03*
X027799Y004712D03*
X028055Y004712D03*
X028311Y004712D03*
X028567Y004712D03*
X028822Y004712D03*
X032031Y004712D03*
X032287Y004712D03*
X032543Y004712D03*
X032799Y004712D03*
X033055Y004712D03*
X033311Y004712D03*
X033567Y004712D03*
X033822Y004712D03*
X037031Y004712D03*
X037287Y004712D03*
X037543Y004712D03*
X037799Y004712D03*
X038055Y004712D03*
X038311Y004712D03*
X038567Y004712D03*
X038822Y004712D03*
X042031Y004712D03*
X042287Y004712D03*
X042543Y004712D03*
X042799Y004712D03*
X043055Y004712D03*
X043311Y004712D03*
X043567Y004712D03*
X043822Y004712D03*
X043822Y007034D03*
X043567Y007034D03*
X043311Y007034D03*
X043055Y007034D03*
X042799Y007034D03*
X042543Y007034D03*
X042287Y007034D03*
X042031Y007034D03*
X038822Y007034D03*
X038567Y007034D03*
X038311Y007034D03*
X038055Y007034D03*
X037799Y007034D03*
X037543Y007034D03*
X037287Y007034D03*
X037031Y007034D03*
X033822Y007034D03*
X033567Y007034D03*
X033311Y007034D03*
X033055Y007034D03*
X032799Y007034D03*
X032543Y007034D03*
X032287Y007034D03*
X032031Y007034D03*
X028822Y007034D03*
X028567Y007034D03*
X028311Y007034D03*
X028055Y007034D03*
X027799Y007034D03*
X027543Y007034D03*
X027287Y007034D03*
X027031Y007034D03*
X023822Y007034D03*
X023567Y007034D03*
X023311Y007034D03*
X023055Y007034D03*
X022799Y007034D03*
X022543Y007034D03*
X022287Y007034D03*
X022031Y007034D03*
X018822Y007034D03*
X018567Y007034D03*
X018311Y007034D03*
X018055Y007034D03*
X017799Y007034D03*
X017543Y007034D03*
X017287Y007034D03*
X017031Y007034D03*
X013822Y007034D03*
X013567Y007034D03*
X013311Y007034D03*
X013055Y007034D03*
X012799Y007034D03*
X012543Y007034D03*
X012287Y007034D03*
X012031Y007034D03*
X008822Y007034D03*
X008567Y007034D03*
X008311Y007034D03*
X008055Y007034D03*
X007799Y007034D03*
X007543Y007034D03*
X007287Y007034D03*
X007031Y007034D03*
D11*
X006324Y006351D03*
X006324Y005682D03*
X011324Y005682D03*
X011324Y006351D03*
X016324Y006351D03*
X016324Y005682D03*
X021324Y005682D03*
X021324Y006351D03*
X026324Y006351D03*
X026324Y005682D03*
X031324Y005682D03*
X031324Y006351D03*
X036324Y006351D03*
X036324Y005682D03*
X041324Y005682D03*
X041324Y006351D03*
D12*
X005998Y004475D03*
X006667Y004475D03*
X010998Y004475D03*
X011667Y004475D03*
X015998Y004475D03*
X016667Y004475D03*
X020998Y004475D03*
X021667Y004475D03*
X025998Y004475D03*
X026667Y004475D03*
X030998Y004475D03*
X031667Y004475D03*
X035998Y004475D03*
X036667Y004475D03*
X040998Y004475D03*
X041667Y004475D03*
M02*
