G75*
G70*
%OFA0B0*%
%FSLAX24Y24*%
%IPPOS*%
%LPD*%
%AMOC8*
5,1,8,0,0,1.08239X$1,22.5*
%
%ADD10C,0.0413*%
%ADD11R,0.0250X0.0500*%
%ADD12C,0.0740*%
%ADD13R,0.0157X0.0630*%
%ADD14C,0.0531*%
%ADD15R,0.0394X0.0315*%
%ADD16R,0.0315X0.0394*%
%ADD17C,0.0394*%
%ADD18C,0.0197*%
%ADD19C,0.0394*%
%ADD20C,0.0118*%
%ADD21C,0.0315*%
%ADD22C,0.0126*%
%ADD23C,0.0157*%
%ADD24C,0.0236*%
D10*
X009300Y004084D03*
X010312Y004084D03*
X010312Y004584D03*
X009300Y004584D03*
X009300Y005084D03*
X010312Y005084D03*
X010312Y005584D03*
X009300Y005584D03*
X009300Y006084D03*
X010312Y006084D03*
X010312Y006584D03*
X009300Y006584D03*
X009300Y007084D03*
X010312Y007084D03*
X010312Y007584D03*
X009300Y007584D03*
X014312Y007584D03*
X015312Y007584D03*
X015312Y007084D03*
X014312Y007084D03*
X014312Y006584D03*
X015312Y006584D03*
X015312Y006084D03*
X014312Y006084D03*
X014312Y005584D03*
X015312Y005584D03*
X015312Y005084D03*
X014312Y005084D03*
X014312Y004584D03*
X015312Y004584D03*
X015312Y004084D03*
X014312Y004084D03*
X019312Y004084D03*
X020312Y004084D03*
X020312Y004584D03*
X019312Y004584D03*
X019312Y005084D03*
X020312Y005084D03*
X020312Y005584D03*
X019312Y005584D03*
X019312Y006084D03*
X020312Y006084D03*
X020312Y006584D03*
X019312Y006584D03*
X019312Y007084D03*
X020312Y007084D03*
X020312Y007584D03*
X019312Y007584D03*
X024312Y007584D03*
X025312Y007584D03*
X025312Y007084D03*
X024312Y007084D03*
X024312Y006584D03*
X025312Y006584D03*
X025312Y006084D03*
X024312Y006084D03*
X024312Y005584D03*
X025312Y005584D03*
X025312Y005084D03*
X024312Y005084D03*
X024312Y004584D03*
X025312Y004584D03*
X025312Y004084D03*
X024312Y004084D03*
X029312Y004084D03*
X030312Y004084D03*
X030312Y004584D03*
X029312Y004584D03*
X029312Y005084D03*
X030312Y005084D03*
X030312Y005584D03*
X029312Y005584D03*
X029312Y006084D03*
X030312Y006084D03*
X030312Y006584D03*
X029312Y006584D03*
X029312Y007084D03*
X030312Y007084D03*
X030312Y007584D03*
X029312Y007584D03*
X034312Y007584D03*
X035312Y007584D03*
X035312Y007084D03*
X034312Y007084D03*
X034312Y006584D03*
X035312Y006584D03*
X035312Y006084D03*
X034312Y006084D03*
X034312Y005584D03*
X035312Y005584D03*
X035312Y005084D03*
X034312Y005084D03*
X034312Y004584D03*
X035312Y004584D03*
X035312Y004084D03*
X034312Y004084D03*
X039312Y004084D03*
X040312Y004084D03*
X040312Y004584D03*
X039312Y004584D03*
X039312Y005084D03*
X040312Y005084D03*
X040312Y005584D03*
X039312Y005584D03*
X039312Y006084D03*
X040312Y006084D03*
X040312Y006584D03*
X039312Y006584D03*
X039312Y007084D03*
X040312Y007084D03*
X040312Y007584D03*
X039312Y007584D03*
X044312Y007584D03*
X045312Y007584D03*
X045312Y007084D03*
X044312Y007084D03*
X044312Y006584D03*
X045312Y006584D03*
X045312Y006084D03*
X044312Y006084D03*
X044312Y005584D03*
X045312Y005584D03*
X045312Y005084D03*
X044312Y005084D03*
X044312Y004584D03*
X045312Y004584D03*
X045312Y004084D03*
X044312Y004084D03*
X049312Y004084D03*
X050300Y004084D03*
X050300Y004584D03*
X049312Y004584D03*
X049312Y005084D03*
X050300Y005084D03*
X050300Y005584D03*
X049312Y005584D03*
X049312Y006084D03*
X050300Y006084D03*
X050300Y006584D03*
X049312Y006584D03*
X049312Y007084D03*
X050300Y007084D03*
X050300Y007584D03*
X049312Y007584D03*
D11*
X052123Y008255D03*
X052477Y008255D03*
X052477Y003353D03*
X052123Y003353D03*
X007477Y003353D03*
X007123Y003353D03*
X007123Y008314D03*
X007477Y008314D03*
D12*
X007800Y007334D03*
X006800Y007334D03*
X006800Y006334D03*
X007800Y006334D03*
X007800Y005334D03*
X006800Y005334D03*
X006800Y004334D03*
X007800Y004334D03*
X051800Y004334D03*
X052800Y004334D03*
X052800Y005334D03*
X051800Y005334D03*
X051800Y006334D03*
X052800Y006334D03*
X052800Y007334D03*
X051800Y007334D03*
D13*
X048680Y007034D03*
X048424Y007034D03*
X048168Y007034D03*
X047912Y007034D03*
X047656Y007034D03*
X047400Y007034D03*
X047144Y007034D03*
X046888Y007034D03*
X043680Y007034D03*
X043424Y007034D03*
X043168Y007034D03*
X042912Y007034D03*
X042656Y007034D03*
X042400Y007034D03*
X042144Y007034D03*
X041888Y007034D03*
X038680Y007034D03*
X038424Y007034D03*
X038168Y007034D03*
X037912Y007034D03*
X037656Y007034D03*
X037400Y007034D03*
X037144Y007034D03*
X036888Y007034D03*
X033680Y007034D03*
X033424Y007034D03*
X033168Y007034D03*
X032912Y007034D03*
X032656Y007034D03*
X032400Y007034D03*
X032144Y007034D03*
X031888Y007034D03*
X028680Y007034D03*
X028424Y007034D03*
X028168Y007034D03*
X027912Y007034D03*
X027656Y007034D03*
X027400Y007034D03*
X027144Y007034D03*
X026888Y007034D03*
X023680Y007034D03*
X023424Y007034D03*
X023168Y007034D03*
X022912Y007034D03*
X022656Y007034D03*
X022400Y007034D03*
X022144Y007034D03*
X021888Y007034D03*
X018680Y007034D03*
X018424Y007034D03*
X018168Y007034D03*
X017912Y007034D03*
X017656Y007034D03*
X017400Y007034D03*
X017144Y007034D03*
X016888Y007034D03*
X013680Y007034D03*
X013424Y007034D03*
X013168Y007034D03*
X012912Y007034D03*
X012656Y007034D03*
X012400Y007034D03*
X012144Y007034D03*
X011888Y007034D03*
X011888Y004712D03*
X012144Y004712D03*
X012400Y004712D03*
X012656Y004712D03*
X012912Y004712D03*
X013168Y004712D03*
X013424Y004712D03*
X013680Y004712D03*
X016888Y004712D03*
X017144Y004712D03*
X017400Y004712D03*
X017656Y004712D03*
X017912Y004712D03*
X018168Y004712D03*
X018424Y004712D03*
X018680Y004712D03*
X021888Y004712D03*
X022144Y004712D03*
X022400Y004712D03*
X022656Y004712D03*
X022912Y004712D03*
X023168Y004712D03*
X023424Y004712D03*
X023680Y004712D03*
X026888Y004712D03*
X027144Y004712D03*
X027400Y004712D03*
X027656Y004712D03*
X027912Y004712D03*
X028168Y004712D03*
X028424Y004712D03*
X028680Y004712D03*
X031888Y004712D03*
X032144Y004712D03*
X032400Y004712D03*
X032656Y004712D03*
X032912Y004712D03*
X033168Y004712D03*
X033424Y004712D03*
X033680Y004712D03*
X036888Y004712D03*
X037144Y004712D03*
X037400Y004712D03*
X037656Y004712D03*
X037912Y004712D03*
X038168Y004712D03*
X038424Y004712D03*
X038680Y004712D03*
X041888Y004712D03*
X042144Y004712D03*
X042400Y004712D03*
X042656Y004712D03*
X042912Y004712D03*
X043168Y004712D03*
X043424Y004712D03*
X043680Y004712D03*
X046888Y004712D03*
X047144Y004712D03*
X047400Y004712D03*
X047656Y004712D03*
X047912Y004712D03*
X048168Y004712D03*
X048424Y004712D03*
X048680Y004712D03*
D14*
X010312Y002834D03*
X011312Y002834D03*
X012312Y002834D03*
X013312Y002834D03*
X014312Y002834D03*
X015312Y002834D03*
X016312Y002834D03*
X017312Y002834D03*
X018312Y002834D03*
X019312Y002834D03*
X020312Y002834D03*
X021312Y002834D03*
X022312Y002834D03*
X023312Y002834D03*
X024312Y002834D03*
X025312Y002834D03*
X026312Y002834D03*
X027312Y002834D03*
X028312Y002834D03*
X029312Y002834D03*
X030312Y002834D03*
X031312Y002834D03*
X032312Y002834D03*
X033312Y002834D03*
X034312Y002834D03*
X035312Y002834D03*
X036312Y002834D03*
X037312Y002834D03*
X038312Y002834D03*
X039312Y002834D03*
X040312Y002834D03*
X041312Y002834D03*
X042312Y002834D03*
X043312Y002834D03*
X044312Y002834D03*
X045312Y002834D03*
X046312Y002834D03*
X047312Y002834D03*
X048312Y002834D03*
X049312Y002834D03*
X049312Y008834D03*
X048312Y008834D03*
X047312Y008834D03*
X046312Y008834D03*
X045312Y008834D03*
X044312Y008834D03*
X043312Y008834D03*
X042312Y008834D03*
X041312Y008834D03*
X040312Y008834D03*
X039312Y008834D03*
X038312Y008834D03*
X037312Y008834D03*
X036312Y008834D03*
X035312Y008834D03*
X034312Y008834D03*
X033312Y008834D03*
X032312Y008834D03*
X031312Y008834D03*
X030312Y008834D03*
X029312Y008834D03*
X028312Y008834D03*
X027312Y008834D03*
X026312Y008834D03*
X025312Y008834D03*
X024312Y008834D03*
X023312Y008834D03*
X022312Y008834D03*
X021312Y008834D03*
X020312Y008834D03*
X019312Y008834D03*
X018312Y008834D03*
X017312Y008834D03*
X016312Y008834D03*
X015312Y008834D03*
X014312Y008834D03*
X013312Y008834D03*
X012312Y008834D03*
X011312Y008834D03*
X010312Y008834D03*
D15*
X011182Y006351D03*
X011182Y005682D03*
X016182Y005682D03*
X016182Y006351D03*
X021182Y006351D03*
X021182Y005682D03*
X026182Y005682D03*
X026182Y006351D03*
X031182Y006351D03*
X031182Y005682D03*
X036182Y005682D03*
X036182Y006351D03*
X041182Y006351D03*
X041182Y005682D03*
X046182Y005682D03*
X046182Y006351D03*
D16*
X045855Y004475D03*
X046524Y004475D03*
X041524Y004475D03*
X040855Y004475D03*
X036524Y004475D03*
X035855Y004475D03*
X031524Y004475D03*
X030855Y004475D03*
X026524Y004475D03*
X025855Y004475D03*
X021524Y004475D03*
X020855Y004475D03*
X016524Y004475D03*
X015855Y004475D03*
X011524Y004475D03*
X010855Y004475D03*
D17*
X014312Y003459D03*
X019312Y003459D03*
X024312Y003459D03*
X029312Y003459D03*
X034312Y003459D03*
X039312Y003459D03*
X044312Y003459D03*
X049312Y003459D03*
D18*
X051910Y003353D02*
X052123Y003353D01*
X052477Y003353D02*
X052737Y003353D01*
X050312Y004084D02*
X049312Y004084D01*
X049312Y004584D02*
X050312Y004584D01*
X050312Y005084D02*
X049312Y005084D01*
X049312Y005584D02*
X050312Y005584D01*
X050312Y006084D02*
X049312Y006084D01*
X049312Y006584D02*
X050312Y006584D01*
X050312Y007084D02*
X049312Y007084D01*
X049312Y007584D02*
X050312Y007584D01*
X046888Y007034D02*
X045973Y007034D01*
X045717Y006779D01*
X045717Y005243D01*
X045835Y005125D01*
X045835Y004495D01*
X045747Y004584D02*
X045312Y004584D01*
X044312Y004584D01*
X044312Y005084D02*
X045312Y005084D01*
X046308Y005084D02*
X046603Y005084D01*
X046603Y004712D01*
X046760Y004712D01*
X046603Y004712D02*
X046603Y004554D01*
X046524Y004475D01*
X045312Y004084D02*
X044312Y004084D01*
X041760Y004712D02*
X041603Y004712D01*
X041603Y005084D01*
X041308Y005084D01*
X040835Y005125D02*
X040717Y005243D01*
X040717Y006779D01*
X040973Y007034D01*
X041888Y007034D01*
X040312Y007084D02*
X039312Y007084D01*
X039312Y007584D02*
X040312Y007584D01*
X036888Y007034D02*
X035973Y007034D01*
X035717Y006779D01*
X035717Y005243D01*
X035835Y005125D01*
X035835Y004495D01*
X035747Y004584D02*
X035312Y004584D01*
X034312Y004584D01*
X034312Y005084D02*
X035312Y005084D01*
X036308Y005084D02*
X036603Y005084D01*
X036603Y004712D01*
X036760Y004712D01*
X036603Y004712D02*
X036603Y004554D01*
X036524Y004475D01*
X035312Y004084D02*
X034312Y004084D01*
X031760Y004712D02*
X031603Y004712D01*
X031603Y005084D01*
X031308Y005084D01*
X030835Y005125D02*
X030717Y005243D01*
X030717Y006779D01*
X030973Y007034D01*
X031888Y007034D01*
X030312Y007084D02*
X029312Y007084D01*
X029312Y007584D02*
X030312Y007584D01*
X026888Y007034D02*
X025973Y007034D01*
X025717Y006779D01*
X025717Y005243D01*
X025835Y005125D01*
X025835Y004495D01*
X025747Y004584D02*
X025312Y004584D01*
X024312Y004584D01*
X024312Y005084D02*
X025312Y005084D01*
X026308Y005084D02*
X026603Y005084D01*
X026603Y004712D01*
X026760Y004712D01*
X026603Y004712D02*
X026603Y004554D01*
X026524Y004475D01*
X025312Y004084D02*
X024312Y004084D01*
X021760Y004712D02*
X021603Y004712D01*
X021603Y005084D01*
X021308Y005084D01*
X020835Y005125D02*
X020835Y004495D01*
X020747Y004584D02*
X020312Y004584D01*
X019312Y004584D01*
X019312Y005084D02*
X020312Y005084D01*
X020717Y005243D02*
X020835Y005125D01*
X020717Y005243D02*
X020717Y006779D01*
X020973Y007034D01*
X021888Y007034D01*
X020312Y007084D02*
X019312Y007084D01*
X019312Y007584D02*
X020312Y007584D01*
X016888Y007034D02*
X015973Y007034D01*
X015717Y006779D01*
X015717Y005243D01*
X015835Y005125D01*
X015835Y004495D01*
X015747Y004584D02*
X015312Y004584D01*
X014312Y004584D01*
X014312Y005084D02*
X015312Y005084D01*
X016308Y005084D02*
X016603Y005084D01*
X016603Y004712D01*
X016760Y004712D01*
X016603Y004712D02*
X016603Y004554D01*
X016524Y004475D01*
X015312Y004084D02*
X014312Y004084D01*
X011760Y004712D02*
X011603Y004712D01*
X011603Y005084D01*
X011308Y005084D01*
X010835Y005125D02*
X010717Y005243D01*
X010717Y006779D01*
X010973Y007034D01*
X011888Y007034D01*
X010300Y007084D02*
X009300Y007084D01*
X009300Y007584D02*
X010300Y007584D01*
X014312Y007584D02*
X015312Y007584D01*
X015312Y007084D02*
X014312Y007084D01*
X014312Y006584D02*
X015312Y006584D01*
X015312Y006084D02*
X014312Y006084D01*
X014312Y005584D02*
X015312Y005584D01*
X011603Y004712D02*
X011603Y004554D01*
X011524Y004475D01*
X010835Y004495D02*
X010835Y005125D01*
X010300Y005084D02*
X009300Y005084D01*
X009300Y005584D02*
X010300Y005584D01*
X010300Y006084D02*
X009300Y006084D01*
X009300Y006584D02*
X010300Y006584D01*
X010300Y004584D02*
X009300Y004584D01*
X010312Y004584D02*
X010747Y004584D01*
X010300Y004084D02*
X009300Y004084D01*
X007713Y003353D02*
X007477Y003353D01*
X007123Y003353D02*
X006886Y003353D01*
X019312Y004084D02*
X020312Y004084D01*
X021524Y004475D02*
X021603Y004554D01*
X021603Y004712D01*
X020312Y005584D02*
X019312Y005584D01*
X019312Y006084D02*
X020312Y006084D01*
X020312Y006584D02*
X019312Y006584D01*
X024312Y006584D02*
X025312Y006584D01*
X025312Y007084D02*
X024312Y007084D01*
X024312Y007584D02*
X025312Y007584D01*
X029312Y006584D02*
X030312Y006584D01*
X030312Y006084D02*
X029312Y006084D01*
X029312Y005584D02*
X030312Y005584D01*
X030312Y005084D02*
X029312Y005084D01*
X030835Y005125D02*
X030835Y004495D01*
X030747Y004584D02*
X030312Y004584D01*
X029312Y004584D01*
X029312Y004084D02*
X030312Y004084D01*
X031524Y004475D02*
X031603Y004554D01*
X031603Y004712D01*
X034312Y005584D02*
X035312Y005584D01*
X035312Y006084D02*
X034312Y006084D01*
X034312Y006584D02*
X035312Y006584D01*
X035312Y007084D02*
X034312Y007084D01*
X034312Y007584D02*
X035312Y007584D01*
X039312Y006584D02*
X040312Y006584D01*
X040312Y006084D02*
X039312Y006084D01*
X039312Y005584D02*
X040312Y005584D01*
X040312Y005084D02*
X039312Y005084D01*
X040835Y005125D02*
X040835Y004495D01*
X040747Y004584D02*
X040312Y004584D01*
X039312Y004584D01*
X039312Y004084D02*
X040312Y004084D01*
X041524Y004475D02*
X041603Y004554D01*
X041603Y004712D01*
X044312Y005584D02*
X045312Y005584D01*
X045312Y006084D02*
X044312Y006084D01*
X044312Y006584D02*
X045312Y006584D01*
X045312Y007084D02*
X044312Y007084D01*
X044312Y007584D02*
X045312Y007584D01*
X025312Y006084D02*
X024312Y006084D01*
X024312Y005584D02*
X025312Y005584D01*
D19*
X009300Y005084D02*
X008050Y005084D01*
X007800Y005334D01*
X008050Y004584D02*
X007800Y004334D01*
X007800Y003440D01*
X007713Y003353D01*
X006886Y003353D02*
X006800Y003440D01*
X006800Y003767D01*
X006800Y004334D01*
X008050Y004584D02*
X009300Y004584D01*
X050300Y004084D02*
X051550Y004084D01*
X051800Y004334D01*
X051800Y003464D01*
X051910Y003353D01*
X052737Y003353D02*
X052800Y003416D01*
X052800Y004334D01*
D20*
X051800Y005334D02*
X051550Y005584D01*
X050300Y005584D01*
X051306Y006084D02*
X051556Y005834D01*
X052300Y005834D01*
X052800Y006334D01*
X052304Y006838D02*
X051800Y006334D01*
X051550Y006584D01*
X050300Y006584D01*
X049312Y006584D02*
X047447Y006584D01*
X047400Y006631D01*
X047400Y007034D01*
X047144Y007034D02*
X047144Y006670D01*
X046825Y006351D01*
X046182Y006351D01*
X047134Y006306D02*
X047193Y006365D01*
X047134Y006306D02*
X047134Y004721D01*
X047144Y004712D01*
X047400Y004712D02*
X047400Y006054D01*
X047430Y006084D01*
X046182Y005682D02*
X046182Y005210D01*
X046308Y005084D01*
X047656Y004712D02*
X047656Y005574D01*
X047666Y005584D01*
X050300Y006084D02*
X051306Y006084D01*
X052304Y006838D02*
X052304Y007763D01*
X052477Y007936D01*
X052477Y008255D01*
X052123Y008255D02*
X052111Y007645D01*
X051800Y007334D01*
X051550Y007084D01*
X050300Y007084D01*
X047656Y007034D02*
X047656Y007556D01*
X047548Y007664D01*
X044312Y006584D02*
X042447Y006584D01*
X042400Y006631D01*
X042400Y007034D01*
X042144Y007034D02*
X042144Y006670D01*
X041825Y006351D01*
X041182Y006351D01*
X042134Y006306D02*
X042193Y006365D01*
X042134Y006306D02*
X042134Y004721D01*
X042144Y004712D01*
X042400Y004712D02*
X042400Y006054D01*
X042430Y006084D01*
X041182Y005682D02*
X041182Y005210D01*
X041308Y005084D01*
X042656Y004712D02*
X042656Y005574D01*
X042666Y005584D01*
X039312Y006584D02*
X037447Y006584D01*
X037400Y006631D01*
X037400Y007034D01*
X037144Y007034D02*
X037144Y006670D01*
X036825Y006351D01*
X036182Y006351D01*
X037134Y006306D02*
X037193Y006365D01*
X037134Y006306D02*
X037134Y004721D01*
X037144Y004712D01*
X037400Y004712D02*
X037400Y006054D01*
X037430Y006084D01*
X036182Y005682D02*
X036182Y005210D01*
X036308Y005084D01*
X037656Y004712D02*
X037656Y005574D01*
X037666Y005584D01*
X034312Y006584D02*
X032447Y006584D01*
X032400Y006631D01*
X032400Y007034D01*
X032144Y007034D02*
X032144Y006670D01*
X031825Y006351D01*
X031182Y006351D01*
X032134Y006306D02*
X032193Y006365D01*
X032134Y006306D02*
X032134Y004721D01*
X032144Y004712D01*
X032400Y004712D02*
X032400Y006054D01*
X032430Y006084D01*
X031182Y005682D02*
X031182Y005210D01*
X031308Y005084D01*
X032656Y004712D02*
X032656Y005574D01*
X032666Y005584D01*
X029312Y006584D02*
X027447Y006584D01*
X027400Y006631D01*
X027400Y007034D01*
X027144Y007034D02*
X027144Y006670D01*
X026825Y006351D01*
X026182Y006351D01*
X027134Y006306D02*
X027193Y006365D01*
X027134Y006306D02*
X027134Y004721D01*
X027144Y004712D01*
X027400Y004712D02*
X027400Y006054D01*
X027430Y006084D01*
X026182Y005682D02*
X026182Y005210D01*
X026308Y005084D01*
X027656Y004712D02*
X027656Y005574D01*
X027666Y005584D01*
X024312Y006584D02*
X022447Y006584D01*
X022400Y006631D01*
X022400Y007034D01*
X022144Y007034D02*
X022144Y006670D01*
X021825Y006351D01*
X021182Y006351D01*
X022134Y006306D02*
X022193Y006365D01*
X022134Y006306D02*
X022134Y004721D01*
X022144Y004712D01*
X022400Y004712D02*
X022400Y006054D01*
X022430Y006084D01*
X021182Y005682D02*
X021182Y005210D01*
X021308Y005084D01*
X022656Y004712D02*
X022656Y005574D01*
X022666Y005584D01*
X019312Y006584D02*
X017447Y006584D01*
X017400Y006631D01*
X017400Y007034D01*
X017144Y007034D02*
X017144Y006670D01*
X016825Y006351D01*
X016182Y006351D01*
X017134Y006306D02*
X017193Y006365D01*
X017134Y006306D02*
X017134Y004721D01*
X017144Y004712D01*
X017400Y004712D02*
X017400Y006054D01*
X017430Y006084D01*
X016182Y005682D02*
X016182Y005210D01*
X016308Y005084D01*
X017656Y004712D02*
X017656Y005574D01*
X017666Y005584D01*
X014312Y006584D02*
X012447Y006584D01*
X012400Y006631D01*
X012400Y007034D01*
X012144Y007034D02*
X012144Y006670D01*
X011825Y006351D01*
X011182Y006351D01*
X012134Y006306D02*
X012193Y006365D01*
X012134Y006306D02*
X012134Y004721D01*
X012144Y004712D01*
X012400Y004712D02*
X012400Y006054D01*
X012430Y006084D01*
X011182Y005682D02*
X011182Y005210D01*
X011308Y005084D01*
X012656Y004712D02*
X012656Y005574D01*
X012666Y005584D01*
X009300Y005584D02*
X008377Y005584D01*
X008127Y005834D01*
X007300Y005834D01*
X006800Y005334D01*
X007800Y006334D02*
X008050Y006084D01*
X009300Y006084D01*
X009300Y006584D02*
X008321Y006584D01*
X008067Y006838D01*
X007304Y006838D01*
X007304Y007668D01*
X007477Y007842D01*
X007477Y008314D01*
X007123Y008314D02*
X007123Y007656D01*
X006800Y007334D01*
X007800Y007334D02*
X008050Y007584D01*
X009300Y007584D01*
X012548Y007664D02*
X012656Y007556D01*
X012656Y007034D01*
X017548Y007664D02*
X017656Y007556D01*
X017656Y007034D01*
X022548Y007664D02*
X022656Y007556D01*
X022656Y007034D01*
X027548Y007664D02*
X027656Y007556D01*
X027656Y007034D01*
X032548Y007664D02*
X032656Y007556D01*
X032656Y007034D01*
X037548Y007664D02*
X037656Y007556D01*
X037656Y007034D01*
X042548Y007664D02*
X042656Y007556D01*
X042656Y007034D01*
X007800Y004389D02*
X007800Y004334D01*
X006800Y003767D02*
X006780Y003786D01*
X006800Y006334D02*
X007304Y006838D01*
D21*
X050300Y005084D02*
X050947Y005084D01*
X051201Y004830D01*
X051378Y004830D01*
X052205Y004830D02*
X052296Y004830D01*
X052800Y005334D01*
D22*
X052205Y004830D02*
X051378Y004830D01*
D23*
X048680Y004712D02*
X048680Y003466D01*
X049312Y002834D01*
X048424Y002946D02*
X048312Y002834D01*
X048424Y002946D02*
X048424Y004712D01*
X048168Y004712D02*
X048168Y003678D01*
X047784Y003294D01*
X046772Y003294D01*
X046312Y002834D01*
X045772Y003294D02*
X045312Y002834D01*
X044312Y002834D02*
X043680Y003466D01*
X043680Y004712D01*
X043424Y004712D02*
X043424Y002946D01*
X043312Y002834D01*
X042784Y003294D02*
X041772Y003294D01*
X041312Y002834D01*
X040772Y003294D02*
X040312Y002834D01*
X039312Y002834D02*
X038680Y003466D01*
X038680Y004712D01*
X038424Y004712D02*
X038424Y002946D01*
X038312Y002834D01*
X036772Y003294D02*
X036312Y002834D01*
X035772Y003294D02*
X035312Y002834D01*
X034312Y002834D02*
X033680Y003466D01*
X033680Y004712D01*
X033424Y004712D02*
X033424Y002946D01*
X033312Y002834D01*
X031772Y003294D02*
X031312Y002834D01*
X030772Y003294D02*
X030312Y002834D01*
X029312Y002834D02*
X028680Y003466D01*
X028680Y004712D01*
X028424Y004712D02*
X028424Y002946D01*
X028312Y002834D01*
X026772Y003294D02*
X026312Y002834D01*
X025772Y003294D02*
X025312Y002834D01*
X024312Y002834D02*
X023680Y003466D01*
X023680Y004712D01*
X023424Y004712D02*
X023424Y002946D01*
X023312Y002834D01*
X022784Y003294D02*
X021772Y003294D01*
X021312Y002834D01*
X020772Y003294D02*
X020312Y002834D01*
X019312Y002834D02*
X018680Y003466D01*
X018680Y004712D01*
X018424Y004712D02*
X018424Y002946D01*
X018312Y002834D01*
X017784Y003294D02*
X016772Y003294D01*
X016312Y002834D01*
X015772Y003294D02*
X015312Y002834D01*
X014312Y002834D02*
X013680Y003466D01*
X013680Y004712D01*
X013424Y004712D02*
X013424Y002946D01*
X013312Y002834D01*
X012784Y003294D02*
X011772Y003294D01*
X011312Y002834D01*
X010772Y003294D02*
X010312Y002834D01*
X010772Y003294D02*
X011249Y003294D01*
X011544Y003590D01*
X012666Y003590D01*
X012912Y003836D01*
X012912Y004712D01*
X013168Y004712D02*
X013168Y003678D01*
X012784Y003294D01*
X015772Y003294D02*
X016249Y003294D01*
X016544Y003590D01*
X017666Y003590D01*
X017912Y003836D01*
X017912Y004712D01*
X018168Y004712D02*
X018168Y003678D01*
X017784Y003294D01*
X020772Y003294D02*
X021249Y003294D01*
X021544Y003590D01*
X022666Y003590D01*
X022912Y003836D01*
X022912Y004712D01*
X023168Y004712D02*
X023168Y003678D01*
X022784Y003294D01*
X025772Y003294D02*
X026249Y003294D01*
X026544Y003590D01*
X027666Y003590D01*
X027912Y003836D01*
X027912Y004712D01*
X028168Y004712D02*
X028168Y003678D01*
X027784Y003294D01*
X026772Y003294D01*
X030772Y003294D02*
X031249Y003294D01*
X031544Y003590D01*
X032666Y003590D01*
X032912Y003836D01*
X032912Y004712D01*
X033168Y004712D02*
X033168Y003678D01*
X032784Y003294D01*
X031772Y003294D01*
X035772Y003294D02*
X036249Y003294D01*
X036544Y003590D01*
X037666Y003590D01*
X037912Y003836D01*
X037912Y004712D01*
X038168Y004712D02*
X038168Y003678D01*
X037784Y003294D01*
X036772Y003294D01*
X040772Y003294D02*
X041249Y003294D01*
X041544Y003590D01*
X042666Y003590D01*
X042912Y003836D01*
X042912Y004712D01*
X043168Y004712D02*
X043168Y003678D01*
X042784Y003294D01*
X045772Y003294D02*
X046249Y003294D01*
X046544Y003590D01*
X047666Y003590D01*
X047912Y003836D01*
X047912Y004712D01*
X046888Y004712D02*
X046760Y004712D01*
X045855Y004613D02*
X045855Y004475D01*
X045835Y004495D01*
X045855Y004475D02*
X045747Y004584D01*
X041888Y004712D02*
X041760Y004712D01*
X040855Y004613D02*
X040855Y004475D01*
X040835Y004495D01*
X040855Y004475D02*
X040747Y004584D01*
X036888Y004712D02*
X036760Y004712D01*
X035855Y004613D02*
X035855Y004475D01*
X035835Y004495D01*
X035855Y004475D02*
X035747Y004584D01*
X031888Y004712D02*
X031760Y004712D01*
X030855Y004613D02*
X030855Y004475D01*
X030835Y004495D01*
X030855Y004475D02*
X030747Y004584D01*
X026888Y004712D02*
X026760Y004712D01*
X025855Y004613D02*
X025855Y004475D01*
X025835Y004495D01*
X025855Y004475D02*
X025747Y004584D01*
X021888Y004712D02*
X021760Y004712D01*
X020855Y004613D02*
X020855Y004475D01*
X020835Y004495D01*
X020855Y004475D02*
X020747Y004584D01*
X016888Y004712D02*
X016760Y004712D01*
X015855Y004613D02*
X015855Y004475D01*
X015835Y004495D01*
X015855Y004475D02*
X015747Y004584D01*
X011888Y004712D02*
X011760Y004712D01*
X010855Y004613D02*
X010855Y004475D01*
X010835Y004495D01*
X010855Y004475D02*
X010747Y004584D01*
X012912Y007034D02*
X012912Y007773D01*
X012607Y008078D01*
X011603Y008078D01*
X011367Y008314D01*
X010831Y008314D01*
X010312Y008834D01*
X011312Y008834D02*
X011772Y008373D01*
X012784Y008373D01*
X013168Y007989D01*
X013168Y007034D01*
X013424Y007034D02*
X013424Y008721D01*
X013312Y008834D01*
X013680Y008202D02*
X014312Y008834D01*
X015312Y008834D02*
X015831Y008314D01*
X016367Y008314D01*
X016603Y008078D01*
X017607Y008078D01*
X017912Y007773D01*
X017912Y007034D01*
X018168Y007034D02*
X018168Y007989D01*
X017784Y008373D01*
X016772Y008373D01*
X016312Y008834D01*
X018312Y008834D02*
X018424Y008721D01*
X018424Y007034D01*
X018680Y007034D02*
X018680Y008202D01*
X019312Y008834D01*
X020312Y008834D02*
X020831Y008314D01*
X021367Y008314D01*
X021603Y008078D01*
X022607Y008078D01*
X022912Y007773D01*
X022912Y007034D01*
X023168Y007034D02*
X023168Y007989D01*
X022784Y008373D01*
X021772Y008373D01*
X021312Y008834D01*
X023312Y008834D02*
X023424Y008721D01*
X023424Y007034D01*
X023680Y007034D02*
X023680Y008202D01*
X024312Y008834D01*
X025312Y008834D02*
X025831Y008314D01*
X026367Y008314D01*
X026603Y008078D01*
X027607Y008078D01*
X027912Y007773D01*
X027912Y007034D01*
X028168Y007034D02*
X028168Y007989D01*
X027784Y008373D01*
X026772Y008373D01*
X026312Y008834D01*
X028312Y008834D02*
X028424Y008721D01*
X028424Y007034D01*
X028680Y007034D02*
X028680Y008202D01*
X029312Y008834D01*
X030312Y008834D02*
X030831Y008314D01*
X031367Y008314D01*
X031603Y008078D01*
X032607Y008078D01*
X032912Y007773D01*
X032912Y007034D01*
X033168Y007034D02*
X033168Y007989D01*
X032784Y008373D01*
X031772Y008373D01*
X031312Y008834D01*
X033312Y008834D02*
X033424Y008721D01*
X033424Y007034D01*
X033680Y007034D02*
X033680Y008202D01*
X034312Y008834D01*
X035312Y008834D02*
X035831Y008314D01*
X036367Y008314D01*
X036603Y008078D01*
X037607Y008078D01*
X037912Y007773D01*
X037912Y007034D01*
X038168Y007034D02*
X038168Y007989D01*
X037784Y008373D01*
X036772Y008373D01*
X036312Y008834D01*
X038312Y008834D02*
X038424Y008721D01*
X038424Y007034D01*
X038680Y007034D02*
X038680Y008202D01*
X039312Y008834D01*
X040312Y008834D02*
X040831Y008314D01*
X041367Y008314D01*
X041603Y008078D01*
X042607Y008078D01*
X042912Y007773D01*
X042912Y007034D01*
X043168Y007034D02*
X043168Y007989D01*
X042784Y008373D01*
X041772Y008373D01*
X041312Y008834D01*
X043312Y008834D02*
X043424Y008721D01*
X043424Y007034D01*
X043680Y007034D02*
X043680Y008202D01*
X044312Y008834D01*
X045312Y008834D02*
X045831Y008314D01*
X046367Y008314D01*
X046603Y008078D01*
X047607Y008078D01*
X047912Y007773D01*
X047912Y007034D01*
X048168Y007034D02*
X048168Y007989D01*
X047784Y008373D01*
X046772Y008373D01*
X046312Y008834D01*
X048312Y008834D02*
X048424Y008721D01*
X048424Y007034D01*
X048680Y007034D02*
X048680Y008202D01*
X049312Y008834D01*
X013680Y008202D02*
X013680Y007034D01*
D24*
X012548Y007664D03*
X017548Y007664D03*
X022548Y007664D03*
X027548Y007664D03*
X032548Y007664D03*
X037548Y007664D03*
X042548Y007664D03*
X047548Y007664D03*
X047193Y006365D03*
X047430Y006084D03*
X047666Y005584D03*
X046603Y005084D03*
X046308Y005084D03*
X042666Y005584D03*
X041603Y005084D03*
X041308Y005084D03*
X037666Y005584D03*
X036603Y005084D03*
X036308Y005084D03*
X032666Y005584D03*
X031603Y005084D03*
X031308Y005084D03*
X027666Y005584D03*
X026603Y005084D03*
X026308Y005084D03*
X022666Y005584D03*
X021603Y005084D03*
X021308Y005084D03*
X017666Y005584D03*
X016603Y005084D03*
X016308Y005084D03*
X012666Y005584D03*
X011603Y005084D03*
X011308Y005084D03*
X012430Y006084D03*
X012193Y006365D03*
X017193Y006365D03*
X017430Y006084D03*
X022193Y006365D03*
X022430Y006084D03*
X027193Y006365D03*
X027430Y006084D03*
X032193Y006365D03*
X032430Y006084D03*
X037193Y006365D03*
X037430Y006084D03*
X042193Y006365D03*
X042430Y006084D03*
M02*
