G75*
G70*
%OFA0B0*%
%FSLAX24Y24*%
%IPPOS*%
%LPD*%
%AMOC8*
5,1,8,0,0,1.08239X$1,22.5*
%
%ADD10C,0.0000*%
D10*
X006119Y001345D02*
X006119Y001700D01*
X006117Y001739D01*
X006111Y001777D01*
X006102Y001814D01*
X006089Y001851D01*
X006072Y001886D01*
X006053Y001919D01*
X006030Y001950D01*
X006004Y001979D01*
X005975Y002005D01*
X005944Y002028D01*
X005911Y002047D01*
X005876Y002064D01*
X005839Y002077D01*
X005802Y002086D01*
X005764Y002092D01*
X005725Y002094D01*
X005351Y002094D01*
X005351Y002093D02*
X005312Y002095D01*
X005274Y002101D01*
X005237Y002110D01*
X005200Y002123D01*
X005165Y002140D01*
X005132Y002159D01*
X005101Y002182D01*
X005072Y002208D01*
X005046Y002237D01*
X005023Y002268D01*
X005004Y002301D01*
X004987Y002336D01*
X004974Y002373D01*
X004965Y002410D01*
X004959Y002448D01*
X004957Y002487D01*
X004957Y009180D01*
X004959Y009219D01*
X004965Y009257D01*
X004974Y009294D01*
X004987Y009331D01*
X005004Y009366D01*
X005023Y009399D01*
X005046Y009430D01*
X005072Y009459D01*
X005101Y009485D01*
X005132Y009508D01*
X005165Y009527D01*
X005200Y009544D01*
X005237Y009557D01*
X005274Y009566D01*
X005312Y009572D01*
X005351Y009574D01*
X005725Y009574D01*
X005764Y009576D01*
X005802Y009582D01*
X005839Y009591D01*
X005876Y009604D01*
X005911Y009621D01*
X005944Y009640D01*
X005975Y009663D01*
X006004Y009689D01*
X006030Y009718D01*
X006053Y009749D01*
X006072Y009782D01*
X006089Y009817D01*
X006102Y009854D01*
X006111Y009891D01*
X006117Y009929D01*
X006119Y009968D01*
X006119Y010381D01*
X006670Y010361D02*
X006672Y010411D01*
X006678Y010461D01*
X006688Y010510D01*
X006702Y010558D01*
X006719Y010605D01*
X006740Y010650D01*
X006765Y010694D01*
X006793Y010735D01*
X006825Y010774D01*
X006859Y010811D01*
X006896Y010845D01*
X006936Y010875D01*
X006978Y010902D01*
X007022Y010926D01*
X007068Y010947D01*
X007115Y010963D01*
X007163Y010976D01*
X007213Y010985D01*
X007262Y010990D01*
X007313Y010991D01*
X007363Y010988D01*
X007412Y010981D01*
X007461Y010970D01*
X007509Y010955D01*
X007555Y010937D01*
X007600Y010915D01*
X007643Y010889D01*
X007684Y010860D01*
X007723Y010828D01*
X007759Y010793D01*
X007791Y010755D01*
X007821Y010715D01*
X007848Y010672D01*
X007871Y010628D01*
X007890Y010582D01*
X007906Y010534D01*
X007918Y010485D01*
X007926Y010436D01*
X007930Y010386D01*
X007930Y010336D01*
X007926Y010286D01*
X007918Y010237D01*
X007906Y010188D01*
X007890Y010140D01*
X007871Y010094D01*
X007848Y010050D01*
X007821Y010007D01*
X007791Y009967D01*
X007759Y009929D01*
X007723Y009894D01*
X007684Y009862D01*
X007643Y009833D01*
X007600Y009807D01*
X007555Y009785D01*
X007509Y009767D01*
X007461Y009752D01*
X007412Y009741D01*
X007363Y009734D01*
X007313Y009731D01*
X007262Y009732D01*
X007213Y009737D01*
X007163Y009746D01*
X007115Y009759D01*
X007068Y009775D01*
X007022Y009796D01*
X006978Y009820D01*
X006936Y009847D01*
X006896Y009877D01*
X006859Y009911D01*
X006825Y009948D01*
X006793Y009987D01*
X006765Y010028D01*
X006740Y010072D01*
X006719Y010117D01*
X006702Y010164D01*
X006688Y010212D01*
X006678Y010261D01*
X006672Y010311D01*
X006670Y010361D01*
X006119Y010381D02*
X006123Y010448D01*
X006130Y010515D01*
X006142Y010582D01*
X006157Y010648D01*
X006176Y010713D01*
X006198Y010776D01*
X006224Y010839D01*
X006254Y010900D01*
X006287Y010958D01*
X006324Y011015D01*
X006363Y011070D01*
X006406Y011123D01*
X006452Y011173D01*
X006500Y011220D01*
X006551Y011264D01*
X006604Y011305D01*
X006660Y011344D01*
X006718Y011379D01*
X006778Y011410D01*
X006839Y011438D01*
X006902Y011463D01*
X006967Y011484D01*
X007032Y011501D01*
X007098Y011515D01*
X007165Y011524D01*
X007232Y011530D01*
X007300Y011532D01*
X007368Y011530D01*
X007435Y011524D01*
X007502Y011515D01*
X007568Y011501D01*
X007633Y011484D01*
X007698Y011463D01*
X007761Y011438D01*
X007822Y011410D01*
X007882Y011379D01*
X007940Y011344D01*
X007996Y011305D01*
X008049Y011264D01*
X008100Y011220D01*
X008148Y011173D01*
X008194Y011123D01*
X008237Y011070D01*
X008276Y011015D01*
X008313Y010958D01*
X008346Y010900D01*
X008376Y010839D01*
X008402Y010776D01*
X008424Y010713D01*
X008443Y010648D01*
X008458Y010582D01*
X008470Y010515D01*
X008477Y010448D01*
X008481Y010381D01*
X008481Y009968D01*
X008483Y009929D01*
X008489Y009891D01*
X008498Y009854D01*
X008511Y009817D01*
X008528Y009782D01*
X008547Y009749D01*
X008570Y009718D01*
X008596Y009689D01*
X008625Y009663D01*
X008656Y009640D01*
X008689Y009621D01*
X008724Y009604D01*
X008761Y009591D01*
X008798Y009582D01*
X008836Y009576D01*
X008875Y009574D01*
X009249Y009574D01*
X010363Y009574D02*
X011367Y009574D01*
X011389Y009576D01*
X011411Y009580D01*
X011432Y009588D01*
X011452Y009599D01*
X011470Y009612D01*
X011486Y009628D01*
X011499Y009646D01*
X011510Y009666D01*
X011518Y009687D01*
X011522Y009709D01*
X011524Y009731D01*
X011524Y010361D01*
X011899Y010361D02*
X011901Y010401D01*
X011907Y010442D01*
X011917Y010481D01*
X011930Y010519D01*
X011948Y010556D01*
X011969Y010590D01*
X011993Y010623D01*
X012020Y010653D01*
X012050Y010680D01*
X012083Y010704D01*
X012117Y010725D01*
X012154Y010743D01*
X012192Y010756D01*
X012231Y010766D01*
X012272Y010772D01*
X012312Y010774D01*
X012352Y010772D01*
X012393Y010766D01*
X012432Y010756D01*
X012470Y010743D01*
X012507Y010725D01*
X012541Y010704D01*
X012574Y010680D01*
X012604Y010653D01*
X012631Y010623D01*
X012655Y010590D01*
X012676Y010556D01*
X012694Y010519D01*
X012707Y010481D01*
X012717Y010442D01*
X012723Y010401D01*
X012725Y010361D01*
X012723Y010321D01*
X012717Y010280D01*
X012707Y010241D01*
X012694Y010203D01*
X012676Y010166D01*
X012655Y010132D01*
X012631Y010099D01*
X012604Y010069D01*
X012574Y010042D01*
X012541Y010018D01*
X012507Y009997D01*
X012470Y009979D01*
X012432Y009966D01*
X012393Y009956D01*
X012352Y009950D01*
X012312Y009948D01*
X012272Y009950D01*
X012231Y009956D01*
X012192Y009966D01*
X012154Y009979D01*
X012117Y009997D01*
X012083Y010018D01*
X012050Y010042D01*
X012020Y010069D01*
X011993Y010099D01*
X011969Y010132D01*
X011948Y010166D01*
X011930Y010203D01*
X011917Y010241D01*
X011907Y010280D01*
X011901Y010321D01*
X011899Y010361D01*
X011525Y010361D02*
X011527Y010416D01*
X011533Y010471D01*
X011542Y010525D01*
X011555Y010578D01*
X011572Y010630D01*
X011593Y010681D01*
X011617Y010730D01*
X011645Y010778D01*
X011675Y010824D01*
X011709Y010867D01*
X011746Y010908D01*
X011785Y010946D01*
X011827Y010981D01*
X011872Y011013D01*
X011918Y011043D01*
X011967Y011068D01*
X012017Y011091D01*
X012069Y011109D01*
X012122Y011125D01*
X012175Y011136D01*
X012230Y011144D01*
X012285Y011148D01*
X012339Y011148D01*
X012394Y011144D01*
X012449Y011136D01*
X012502Y011125D01*
X012555Y011109D01*
X012607Y011091D01*
X012657Y011068D01*
X012706Y011043D01*
X012752Y011013D01*
X012797Y010981D01*
X012839Y010946D01*
X012878Y010908D01*
X012915Y010867D01*
X012949Y010824D01*
X012979Y010778D01*
X013007Y010730D01*
X013031Y010681D01*
X013052Y010630D01*
X013069Y010578D01*
X013082Y010525D01*
X013091Y010471D01*
X013097Y010416D01*
X013099Y010361D01*
X013099Y009731D01*
X013101Y009709D01*
X013105Y009687D01*
X013113Y009666D01*
X013124Y009646D01*
X013137Y009628D01*
X013153Y009612D01*
X013171Y009599D01*
X013191Y009588D01*
X013212Y009580D01*
X013234Y009576D01*
X013256Y009574D01*
X014260Y009574D01*
X015363Y009574D02*
X016367Y009574D01*
X016389Y009576D01*
X016411Y009580D01*
X016432Y009588D01*
X016452Y009599D01*
X016470Y009612D01*
X016486Y009628D01*
X016499Y009646D01*
X016510Y009666D01*
X016518Y009687D01*
X016522Y009709D01*
X016524Y009731D01*
X016524Y010361D01*
X016899Y010361D02*
X016901Y010401D01*
X016907Y010442D01*
X016917Y010481D01*
X016930Y010519D01*
X016948Y010556D01*
X016969Y010590D01*
X016993Y010623D01*
X017020Y010653D01*
X017050Y010680D01*
X017083Y010704D01*
X017117Y010725D01*
X017154Y010743D01*
X017192Y010756D01*
X017231Y010766D01*
X017272Y010772D01*
X017312Y010774D01*
X017352Y010772D01*
X017393Y010766D01*
X017432Y010756D01*
X017470Y010743D01*
X017507Y010725D01*
X017541Y010704D01*
X017574Y010680D01*
X017604Y010653D01*
X017631Y010623D01*
X017655Y010590D01*
X017676Y010556D01*
X017694Y010519D01*
X017707Y010481D01*
X017717Y010442D01*
X017723Y010401D01*
X017725Y010361D01*
X017723Y010321D01*
X017717Y010280D01*
X017707Y010241D01*
X017694Y010203D01*
X017676Y010166D01*
X017655Y010132D01*
X017631Y010099D01*
X017604Y010069D01*
X017574Y010042D01*
X017541Y010018D01*
X017507Y009997D01*
X017470Y009979D01*
X017432Y009966D01*
X017393Y009956D01*
X017352Y009950D01*
X017312Y009948D01*
X017272Y009950D01*
X017231Y009956D01*
X017192Y009966D01*
X017154Y009979D01*
X017117Y009997D01*
X017083Y010018D01*
X017050Y010042D01*
X017020Y010069D01*
X016993Y010099D01*
X016969Y010132D01*
X016948Y010166D01*
X016930Y010203D01*
X016917Y010241D01*
X016907Y010280D01*
X016901Y010321D01*
X016899Y010361D01*
X016525Y010361D02*
X016527Y010416D01*
X016533Y010471D01*
X016542Y010525D01*
X016555Y010578D01*
X016572Y010630D01*
X016593Y010681D01*
X016617Y010730D01*
X016645Y010778D01*
X016675Y010824D01*
X016709Y010867D01*
X016746Y010908D01*
X016785Y010946D01*
X016827Y010981D01*
X016872Y011013D01*
X016918Y011043D01*
X016967Y011068D01*
X017017Y011091D01*
X017069Y011109D01*
X017122Y011125D01*
X017175Y011136D01*
X017230Y011144D01*
X017285Y011148D01*
X017339Y011148D01*
X017394Y011144D01*
X017449Y011136D01*
X017502Y011125D01*
X017555Y011109D01*
X017607Y011091D01*
X017657Y011068D01*
X017706Y011043D01*
X017752Y011013D01*
X017797Y010981D01*
X017839Y010946D01*
X017878Y010908D01*
X017915Y010867D01*
X017949Y010824D01*
X017979Y010778D01*
X018007Y010730D01*
X018031Y010681D01*
X018052Y010630D01*
X018069Y010578D01*
X018082Y010525D01*
X018091Y010471D01*
X018097Y010416D01*
X018099Y010361D01*
X018099Y009731D01*
X018101Y009709D01*
X018105Y009687D01*
X018113Y009666D01*
X018124Y009646D01*
X018137Y009628D01*
X018153Y009612D01*
X018171Y009599D01*
X018191Y009588D01*
X018212Y009580D01*
X018234Y009576D01*
X018256Y009574D01*
X019260Y009574D01*
X020363Y009574D02*
X021367Y009574D01*
X021389Y009576D01*
X021411Y009580D01*
X021432Y009588D01*
X021452Y009599D01*
X021470Y009612D01*
X021486Y009628D01*
X021499Y009646D01*
X021510Y009666D01*
X021518Y009687D01*
X021522Y009709D01*
X021524Y009731D01*
X021524Y010361D01*
X021899Y010361D02*
X021901Y010401D01*
X021907Y010442D01*
X021917Y010481D01*
X021930Y010519D01*
X021948Y010556D01*
X021969Y010590D01*
X021993Y010623D01*
X022020Y010653D01*
X022050Y010680D01*
X022083Y010704D01*
X022117Y010725D01*
X022154Y010743D01*
X022192Y010756D01*
X022231Y010766D01*
X022272Y010772D01*
X022312Y010774D01*
X022352Y010772D01*
X022393Y010766D01*
X022432Y010756D01*
X022470Y010743D01*
X022507Y010725D01*
X022541Y010704D01*
X022574Y010680D01*
X022604Y010653D01*
X022631Y010623D01*
X022655Y010590D01*
X022676Y010556D01*
X022694Y010519D01*
X022707Y010481D01*
X022717Y010442D01*
X022723Y010401D01*
X022725Y010361D01*
X022723Y010321D01*
X022717Y010280D01*
X022707Y010241D01*
X022694Y010203D01*
X022676Y010166D01*
X022655Y010132D01*
X022631Y010099D01*
X022604Y010069D01*
X022574Y010042D01*
X022541Y010018D01*
X022507Y009997D01*
X022470Y009979D01*
X022432Y009966D01*
X022393Y009956D01*
X022352Y009950D01*
X022312Y009948D01*
X022272Y009950D01*
X022231Y009956D01*
X022192Y009966D01*
X022154Y009979D01*
X022117Y009997D01*
X022083Y010018D01*
X022050Y010042D01*
X022020Y010069D01*
X021993Y010099D01*
X021969Y010132D01*
X021948Y010166D01*
X021930Y010203D01*
X021917Y010241D01*
X021907Y010280D01*
X021901Y010321D01*
X021899Y010361D01*
X021525Y010361D02*
X021527Y010416D01*
X021533Y010471D01*
X021542Y010525D01*
X021555Y010578D01*
X021572Y010630D01*
X021593Y010681D01*
X021617Y010730D01*
X021645Y010778D01*
X021675Y010824D01*
X021709Y010867D01*
X021746Y010908D01*
X021785Y010946D01*
X021827Y010981D01*
X021872Y011013D01*
X021918Y011043D01*
X021967Y011068D01*
X022017Y011091D01*
X022069Y011109D01*
X022122Y011125D01*
X022175Y011136D01*
X022230Y011144D01*
X022285Y011148D01*
X022339Y011148D01*
X022394Y011144D01*
X022449Y011136D01*
X022502Y011125D01*
X022555Y011109D01*
X022607Y011091D01*
X022657Y011068D01*
X022706Y011043D01*
X022752Y011013D01*
X022797Y010981D01*
X022839Y010946D01*
X022878Y010908D01*
X022915Y010867D01*
X022949Y010824D01*
X022979Y010778D01*
X023007Y010730D01*
X023031Y010681D01*
X023052Y010630D01*
X023069Y010578D01*
X023082Y010525D01*
X023091Y010471D01*
X023097Y010416D01*
X023099Y010361D01*
X023099Y009731D01*
X023101Y009709D01*
X023105Y009687D01*
X023113Y009666D01*
X023124Y009646D01*
X023137Y009628D01*
X023153Y009612D01*
X023171Y009599D01*
X023191Y009588D01*
X023212Y009580D01*
X023234Y009576D01*
X023256Y009574D01*
X024260Y009574D01*
X025363Y009574D02*
X026367Y009574D01*
X026389Y009576D01*
X026411Y009580D01*
X026432Y009588D01*
X026452Y009599D01*
X026470Y009612D01*
X026486Y009628D01*
X026499Y009646D01*
X026510Y009666D01*
X026518Y009687D01*
X026522Y009709D01*
X026524Y009731D01*
X026524Y010361D01*
X026899Y010361D02*
X026901Y010401D01*
X026907Y010442D01*
X026917Y010481D01*
X026930Y010519D01*
X026948Y010556D01*
X026969Y010590D01*
X026993Y010623D01*
X027020Y010653D01*
X027050Y010680D01*
X027083Y010704D01*
X027117Y010725D01*
X027154Y010743D01*
X027192Y010756D01*
X027231Y010766D01*
X027272Y010772D01*
X027312Y010774D01*
X027352Y010772D01*
X027393Y010766D01*
X027432Y010756D01*
X027470Y010743D01*
X027507Y010725D01*
X027541Y010704D01*
X027574Y010680D01*
X027604Y010653D01*
X027631Y010623D01*
X027655Y010590D01*
X027676Y010556D01*
X027694Y010519D01*
X027707Y010481D01*
X027717Y010442D01*
X027723Y010401D01*
X027725Y010361D01*
X027723Y010321D01*
X027717Y010280D01*
X027707Y010241D01*
X027694Y010203D01*
X027676Y010166D01*
X027655Y010132D01*
X027631Y010099D01*
X027604Y010069D01*
X027574Y010042D01*
X027541Y010018D01*
X027507Y009997D01*
X027470Y009979D01*
X027432Y009966D01*
X027393Y009956D01*
X027352Y009950D01*
X027312Y009948D01*
X027272Y009950D01*
X027231Y009956D01*
X027192Y009966D01*
X027154Y009979D01*
X027117Y009997D01*
X027083Y010018D01*
X027050Y010042D01*
X027020Y010069D01*
X026993Y010099D01*
X026969Y010132D01*
X026948Y010166D01*
X026930Y010203D01*
X026917Y010241D01*
X026907Y010280D01*
X026901Y010321D01*
X026899Y010361D01*
X026525Y010361D02*
X026527Y010416D01*
X026533Y010471D01*
X026542Y010525D01*
X026555Y010578D01*
X026572Y010630D01*
X026593Y010681D01*
X026617Y010730D01*
X026645Y010778D01*
X026675Y010824D01*
X026709Y010867D01*
X026746Y010908D01*
X026785Y010946D01*
X026827Y010981D01*
X026872Y011013D01*
X026918Y011043D01*
X026967Y011068D01*
X027017Y011091D01*
X027069Y011109D01*
X027122Y011125D01*
X027175Y011136D01*
X027230Y011144D01*
X027285Y011148D01*
X027339Y011148D01*
X027394Y011144D01*
X027449Y011136D01*
X027502Y011125D01*
X027555Y011109D01*
X027607Y011091D01*
X027657Y011068D01*
X027706Y011043D01*
X027752Y011013D01*
X027797Y010981D01*
X027839Y010946D01*
X027878Y010908D01*
X027915Y010867D01*
X027949Y010824D01*
X027979Y010778D01*
X028007Y010730D01*
X028031Y010681D01*
X028052Y010630D01*
X028069Y010578D01*
X028082Y010525D01*
X028091Y010471D01*
X028097Y010416D01*
X028099Y010361D01*
X028099Y009731D01*
X028101Y009709D01*
X028105Y009687D01*
X028113Y009666D01*
X028124Y009646D01*
X028137Y009628D01*
X028153Y009612D01*
X028171Y009599D01*
X028191Y009588D01*
X028212Y009580D01*
X028234Y009576D01*
X028256Y009574D01*
X029260Y009574D01*
X030363Y009574D02*
X031367Y009574D01*
X031389Y009576D01*
X031411Y009580D01*
X031432Y009588D01*
X031452Y009599D01*
X031470Y009612D01*
X031486Y009628D01*
X031499Y009646D01*
X031510Y009666D01*
X031518Y009687D01*
X031522Y009709D01*
X031524Y009731D01*
X031524Y010361D01*
X031899Y010361D02*
X031901Y010401D01*
X031907Y010442D01*
X031917Y010481D01*
X031930Y010519D01*
X031948Y010556D01*
X031969Y010590D01*
X031993Y010623D01*
X032020Y010653D01*
X032050Y010680D01*
X032083Y010704D01*
X032117Y010725D01*
X032154Y010743D01*
X032192Y010756D01*
X032231Y010766D01*
X032272Y010772D01*
X032312Y010774D01*
X032352Y010772D01*
X032393Y010766D01*
X032432Y010756D01*
X032470Y010743D01*
X032507Y010725D01*
X032541Y010704D01*
X032574Y010680D01*
X032604Y010653D01*
X032631Y010623D01*
X032655Y010590D01*
X032676Y010556D01*
X032694Y010519D01*
X032707Y010481D01*
X032717Y010442D01*
X032723Y010401D01*
X032725Y010361D01*
X032723Y010321D01*
X032717Y010280D01*
X032707Y010241D01*
X032694Y010203D01*
X032676Y010166D01*
X032655Y010132D01*
X032631Y010099D01*
X032604Y010069D01*
X032574Y010042D01*
X032541Y010018D01*
X032507Y009997D01*
X032470Y009979D01*
X032432Y009966D01*
X032393Y009956D01*
X032352Y009950D01*
X032312Y009948D01*
X032272Y009950D01*
X032231Y009956D01*
X032192Y009966D01*
X032154Y009979D01*
X032117Y009997D01*
X032083Y010018D01*
X032050Y010042D01*
X032020Y010069D01*
X031993Y010099D01*
X031969Y010132D01*
X031948Y010166D01*
X031930Y010203D01*
X031917Y010241D01*
X031907Y010280D01*
X031901Y010321D01*
X031899Y010361D01*
X031525Y010361D02*
X031527Y010416D01*
X031533Y010471D01*
X031542Y010525D01*
X031555Y010578D01*
X031572Y010630D01*
X031593Y010681D01*
X031617Y010730D01*
X031645Y010778D01*
X031675Y010824D01*
X031709Y010867D01*
X031746Y010908D01*
X031785Y010946D01*
X031827Y010981D01*
X031872Y011013D01*
X031918Y011043D01*
X031967Y011068D01*
X032017Y011091D01*
X032069Y011109D01*
X032122Y011125D01*
X032175Y011136D01*
X032230Y011144D01*
X032285Y011148D01*
X032339Y011148D01*
X032394Y011144D01*
X032449Y011136D01*
X032502Y011125D01*
X032555Y011109D01*
X032607Y011091D01*
X032657Y011068D01*
X032706Y011043D01*
X032752Y011013D01*
X032797Y010981D01*
X032839Y010946D01*
X032878Y010908D01*
X032915Y010867D01*
X032949Y010824D01*
X032979Y010778D01*
X033007Y010730D01*
X033031Y010681D01*
X033052Y010630D01*
X033069Y010578D01*
X033082Y010525D01*
X033091Y010471D01*
X033097Y010416D01*
X033099Y010361D01*
X033099Y009731D01*
X033101Y009709D01*
X033105Y009687D01*
X033113Y009666D01*
X033124Y009646D01*
X033137Y009628D01*
X033153Y009612D01*
X033171Y009599D01*
X033191Y009588D01*
X033212Y009580D01*
X033234Y009576D01*
X033256Y009574D01*
X034260Y009574D01*
X035363Y009574D02*
X036367Y009574D01*
X036389Y009576D01*
X036411Y009580D01*
X036432Y009588D01*
X036452Y009599D01*
X036470Y009612D01*
X036486Y009628D01*
X036499Y009646D01*
X036510Y009666D01*
X036518Y009687D01*
X036522Y009709D01*
X036524Y009731D01*
X036524Y010361D01*
X036899Y010361D02*
X036901Y010401D01*
X036907Y010442D01*
X036917Y010481D01*
X036930Y010519D01*
X036948Y010556D01*
X036969Y010590D01*
X036993Y010623D01*
X037020Y010653D01*
X037050Y010680D01*
X037083Y010704D01*
X037117Y010725D01*
X037154Y010743D01*
X037192Y010756D01*
X037231Y010766D01*
X037272Y010772D01*
X037312Y010774D01*
X037352Y010772D01*
X037393Y010766D01*
X037432Y010756D01*
X037470Y010743D01*
X037507Y010725D01*
X037541Y010704D01*
X037574Y010680D01*
X037604Y010653D01*
X037631Y010623D01*
X037655Y010590D01*
X037676Y010556D01*
X037694Y010519D01*
X037707Y010481D01*
X037717Y010442D01*
X037723Y010401D01*
X037725Y010361D01*
X037723Y010321D01*
X037717Y010280D01*
X037707Y010241D01*
X037694Y010203D01*
X037676Y010166D01*
X037655Y010132D01*
X037631Y010099D01*
X037604Y010069D01*
X037574Y010042D01*
X037541Y010018D01*
X037507Y009997D01*
X037470Y009979D01*
X037432Y009966D01*
X037393Y009956D01*
X037352Y009950D01*
X037312Y009948D01*
X037272Y009950D01*
X037231Y009956D01*
X037192Y009966D01*
X037154Y009979D01*
X037117Y009997D01*
X037083Y010018D01*
X037050Y010042D01*
X037020Y010069D01*
X036993Y010099D01*
X036969Y010132D01*
X036948Y010166D01*
X036930Y010203D01*
X036917Y010241D01*
X036907Y010280D01*
X036901Y010321D01*
X036899Y010361D01*
X036525Y010361D02*
X036527Y010416D01*
X036533Y010471D01*
X036542Y010525D01*
X036555Y010578D01*
X036572Y010630D01*
X036593Y010681D01*
X036617Y010730D01*
X036645Y010778D01*
X036675Y010824D01*
X036709Y010867D01*
X036746Y010908D01*
X036785Y010946D01*
X036827Y010981D01*
X036872Y011013D01*
X036918Y011043D01*
X036967Y011068D01*
X037017Y011091D01*
X037069Y011109D01*
X037122Y011125D01*
X037175Y011136D01*
X037230Y011144D01*
X037285Y011148D01*
X037339Y011148D01*
X037394Y011144D01*
X037449Y011136D01*
X037502Y011125D01*
X037555Y011109D01*
X037607Y011091D01*
X037657Y011068D01*
X037706Y011043D01*
X037752Y011013D01*
X037797Y010981D01*
X037839Y010946D01*
X037878Y010908D01*
X037915Y010867D01*
X037949Y010824D01*
X037979Y010778D01*
X038007Y010730D01*
X038031Y010681D01*
X038052Y010630D01*
X038069Y010578D01*
X038082Y010525D01*
X038091Y010471D01*
X038097Y010416D01*
X038099Y010361D01*
X038099Y009731D01*
X038101Y009709D01*
X038105Y009687D01*
X038113Y009666D01*
X038124Y009646D01*
X038137Y009628D01*
X038153Y009612D01*
X038171Y009599D01*
X038191Y009588D01*
X038212Y009580D01*
X038234Y009576D01*
X038256Y009574D01*
X039260Y009574D01*
X040363Y009574D02*
X041367Y009574D01*
X041389Y009576D01*
X041411Y009580D01*
X041432Y009588D01*
X041452Y009599D01*
X041470Y009612D01*
X041486Y009628D01*
X041499Y009646D01*
X041510Y009666D01*
X041518Y009687D01*
X041522Y009709D01*
X041524Y009731D01*
X041524Y010361D01*
X041899Y010361D02*
X041901Y010401D01*
X041907Y010442D01*
X041917Y010481D01*
X041930Y010519D01*
X041948Y010556D01*
X041969Y010590D01*
X041993Y010623D01*
X042020Y010653D01*
X042050Y010680D01*
X042083Y010704D01*
X042117Y010725D01*
X042154Y010743D01*
X042192Y010756D01*
X042231Y010766D01*
X042272Y010772D01*
X042312Y010774D01*
X042352Y010772D01*
X042393Y010766D01*
X042432Y010756D01*
X042470Y010743D01*
X042507Y010725D01*
X042541Y010704D01*
X042574Y010680D01*
X042604Y010653D01*
X042631Y010623D01*
X042655Y010590D01*
X042676Y010556D01*
X042694Y010519D01*
X042707Y010481D01*
X042717Y010442D01*
X042723Y010401D01*
X042725Y010361D01*
X042723Y010321D01*
X042717Y010280D01*
X042707Y010241D01*
X042694Y010203D01*
X042676Y010166D01*
X042655Y010132D01*
X042631Y010099D01*
X042604Y010069D01*
X042574Y010042D01*
X042541Y010018D01*
X042507Y009997D01*
X042470Y009979D01*
X042432Y009966D01*
X042393Y009956D01*
X042352Y009950D01*
X042312Y009948D01*
X042272Y009950D01*
X042231Y009956D01*
X042192Y009966D01*
X042154Y009979D01*
X042117Y009997D01*
X042083Y010018D01*
X042050Y010042D01*
X042020Y010069D01*
X041993Y010099D01*
X041969Y010132D01*
X041948Y010166D01*
X041930Y010203D01*
X041917Y010241D01*
X041907Y010280D01*
X041901Y010321D01*
X041899Y010361D01*
X041525Y010361D02*
X041527Y010416D01*
X041533Y010471D01*
X041542Y010525D01*
X041555Y010578D01*
X041572Y010630D01*
X041593Y010681D01*
X041617Y010730D01*
X041645Y010778D01*
X041675Y010824D01*
X041709Y010867D01*
X041746Y010908D01*
X041785Y010946D01*
X041827Y010981D01*
X041872Y011013D01*
X041918Y011043D01*
X041967Y011068D01*
X042017Y011091D01*
X042069Y011109D01*
X042122Y011125D01*
X042175Y011136D01*
X042230Y011144D01*
X042285Y011148D01*
X042339Y011148D01*
X042394Y011144D01*
X042449Y011136D01*
X042502Y011125D01*
X042555Y011109D01*
X042607Y011091D01*
X042657Y011068D01*
X042706Y011043D01*
X042752Y011013D01*
X042797Y010981D01*
X042839Y010946D01*
X042878Y010908D01*
X042915Y010867D01*
X042949Y010824D01*
X042979Y010778D01*
X043007Y010730D01*
X043031Y010681D01*
X043052Y010630D01*
X043069Y010578D01*
X043082Y010525D01*
X043091Y010471D01*
X043097Y010416D01*
X043099Y010361D01*
X043099Y009731D01*
X043101Y009709D01*
X043105Y009687D01*
X043113Y009666D01*
X043124Y009646D01*
X043137Y009628D01*
X043153Y009612D01*
X043171Y009599D01*
X043191Y009588D01*
X043212Y009580D01*
X043234Y009576D01*
X043256Y009574D01*
X044260Y009574D01*
X045363Y009574D02*
X046367Y009574D01*
X046389Y009576D01*
X046411Y009580D01*
X046432Y009588D01*
X046452Y009599D01*
X046470Y009612D01*
X046486Y009628D01*
X046499Y009646D01*
X046510Y009666D01*
X046518Y009687D01*
X046522Y009709D01*
X046524Y009731D01*
X046524Y010361D01*
X046899Y010361D02*
X046901Y010401D01*
X046907Y010442D01*
X046917Y010481D01*
X046930Y010519D01*
X046948Y010556D01*
X046969Y010590D01*
X046993Y010623D01*
X047020Y010653D01*
X047050Y010680D01*
X047083Y010704D01*
X047117Y010725D01*
X047154Y010743D01*
X047192Y010756D01*
X047231Y010766D01*
X047272Y010772D01*
X047312Y010774D01*
X047352Y010772D01*
X047393Y010766D01*
X047432Y010756D01*
X047470Y010743D01*
X047507Y010725D01*
X047541Y010704D01*
X047574Y010680D01*
X047604Y010653D01*
X047631Y010623D01*
X047655Y010590D01*
X047676Y010556D01*
X047694Y010519D01*
X047707Y010481D01*
X047717Y010442D01*
X047723Y010401D01*
X047725Y010361D01*
X047723Y010321D01*
X047717Y010280D01*
X047707Y010241D01*
X047694Y010203D01*
X047676Y010166D01*
X047655Y010132D01*
X047631Y010099D01*
X047604Y010069D01*
X047574Y010042D01*
X047541Y010018D01*
X047507Y009997D01*
X047470Y009979D01*
X047432Y009966D01*
X047393Y009956D01*
X047352Y009950D01*
X047312Y009948D01*
X047272Y009950D01*
X047231Y009956D01*
X047192Y009966D01*
X047154Y009979D01*
X047117Y009997D01*
X047083Y010018D01*
X047050Y010042D01*
X047020Y010069D01*
X046993Y010099D01*
X046969Y010132D01*
X046948Y010166D01*
X046930Y010203D01*
X046917Y010241D01*
X046907Y010280D01*
X046901Y010321D01*
X046899Y010361D01*
X046525Y010361D02*
X046527Y010416D01*
X046533Y010471D01*
X046542Y010525D01*
X046555Y010578D01*
X046572Y010630D01*
X046593Y010681D01*
X046617Y010730D01*
X046645Y010778D01*
X046675Y010824D01*
X046709Y010867D01*
X046746Y010908D01*
X046785Y010946D01*
X046827Y010981D01*
X046872Y011013D01*
X046918Y011043D01*
X046967Y011068D01*
X047017Y011091D01*
X047069Y011109D01*
X047122Y011125D01*
X047175Y011136D01*
X047230Y011144D01*
X047285Y011148D01*
X047339Y011148D01*
X047394Y011144D01*
X047449Y011136D01*
X047502Y011125D01*
X047555Y011109D01*
X047607Y011091D01*
X047657Y011068D01*
X047706Y011043D01*
X047752Y011013D01*
X047797Y010981D01*
X047839Y010946D01*
X047878Y010908D01*
X047915Y010867D01*
X047949Y010824D01*
X047979Y010778D01*
X048007Y010730D01*
X048031Y010681D01*
X048052Y010630D01*
X048069Y010578D01*
X048082Y010525D01*
X048091Y010471D01*
X048097Y010416D01*
X048099Y010361D01*
X048099Y009731D01*
X048101Y009709D01*
X048105Y009687D01*
X048113Y009666D01*
X048124Y009646D01*
X048137Y009628D01*
X048153Y009612D01*
X048171Y009599D01*
X048191Y009588D01*
X048212Y009580D01*
X048234Y009576D01*
X048256Y009574D01*
X049260Y009574D01*
X050351Y009574D02*
X050725Y009574D01*
X050764Y009576D01*
X050802Y009582D01*
X050839Y009591D01*
X050876Y009604D01*
X050911Y009621D01*
X050944Y009640D01*
X050975Y009663D01*
X051004Y009689D01*
X051030Y009718D01*
X051053Y009749D01*
X051072Y009782D01*
X051089Y009817D01*
X051102Y009854D01*
X051111Y009891D01*
X051117Y009929D01*
X051119Y009968D01*
X051119Y010381D01*
X051123Y010448D01*
X051130Y010515D01*
X051142Y010582D01*
X051157Y010648D01*
X051176Y010713D01*
X051198Y010776D01*
X051224Y010839D01*
X051254Y010900D01*
X051287Y010958D01*
X051324Y011015D01*
X051363Y011070D01*
X051406Y011123D01*
X051452Y011173D01*
X051500Y011220D01*
X051551Y011264D01*
X051604Y011305D01*
X051660Y011344D01*
X051718Y011379D01*
X051778Y011410D01*
X051839Y011438D01*
X051902Y011463D01*
X051967Y011484D01*
X052032Y011501D01*
X052098Y011515D01*
X052165Y011524D01*
X052232Y011530D01*
X052300Y011532D01*
X052368Y011530D01*
X052435Y011524D01*
X052502Y011515D01*
X052568Y011501D01*
X052633Y011484D01*
X052698Y011463D01*
X052761Y011438D01*
X052822Y011410D01*
X052882Y011379D01*
X052940Y011344D01*
X052996Y011305D01*
X053049Y011264D01*
X053100Y011220D01*
X053148Y011173D01*
X053194Y011123D01*
X053237Y011070D01*
X053276Y011015D01*
X053313Y010958D01*
X053346Y010900D01*
X053376Y010839D01*
X053402Y010776D01*
X053424Y010713D01*
X053443Y010648D01*
X053458Y010582D01*
X053470Y010515D01*
X053477Y010448D01*
X053481Y010381D01*
X053481Y009968D01*
X053483Y009929D01*
X053489Y009891D01*
X053498Y009854D01*
X053511Y009817D01*
X053528Y009782D01*
X053547Y009749D01*
X053570Y009718D01*
X053596Y009689D01*
X053625Y009663D01*
X053656Y009640D01*
X053689Y009621D01*
X053724Y009604D01*
X053761Y009591D01*
X053798Y009582D01*
X053836Y009576D01*
X053875Y009574D01*
X054249Y009574D01*
X054288Y009572D01*
X054326Y009566D01*
X054363Y009557D01*
X054400Y009544D01*
X054435Y009527D01*
X054468Y009508D01*
X054499Y009485D01*
X054528Y009459D01*
X054554Y009430D01*
X054577Y009399D01*
X054596Y009366D01*
X054613Y009331D01*
X054626Y009294D01*
X054635Y009257D01*
X054641Y009219D01*
X054643Y009180D01*
X054642Y009180D02*
X054642Y002487D01*
X054643Y002487D02*
X054641Y002448D01*
X054635Y002410D01*
X054626Y002373D01*
X054613Y002336D01*
X054596Y002301D01*
X054577Y002268D01*
X054554Y002237D01*
X054528Y002208D01*
X054499Y002182D01*
X054468Y002159D01*
X054435Y002140D01*
X054400Y002123D01*
X054363Y002110D01*
X054326Y002101D01*
X054288Y002095D01*
X054249Y002093D01*
X054249Y002094D02*
X053875Y002094D01*
X053836Y002092D01*
X053798Y002086D01*
X053761Y002077D01*
X053724Y002064D01*
X053689Y002047D01*
X053656Y002028D01*
X053625Y002005D01*
X053596Y001979D01*
X053570Y001950D01*
X053547Y001919D01*
X053528Y001886D01*
X053511Y001851D01*
X053498Y001814D01*
X053489Y001777D01*
X053483Y001739D01*
X053481Y001700D01*
X053481Y001345D01*
X053481Y001286D02*
X053477Y001219D01*
X053470Y001152D01*
X053458Y001086D01*
X053443Y001020D01*
X053424Y000955D01*
X053402Y000891D01*
X053376Y000829D01*
X053346Y000769D01*
X053314Y000710D01*
X053277Y000653D01*
X053238Y000598D01*
X053195Y000546D01*
X053150Y000496D01*
X053102Y000449D01*
X053051Y000404D01*
X052998Y000363D01*
X052942Y000325D01*
X052884Y000290D01*
X052825Y000258D01*
X052764Y000230D01*
X052701Y000205D01*
X052637Y000184D01*
X052572Y000167D01*
X052506Y000153D01*
X052439Y000143D01*
X052372Y000137D01*
X052304Y000135D01*
X052237Y000137D01*
X052170Y000142D01*
X052103Y000152D01*
X052037Y000165D01*
X051971Y000182D01*
X051907Y000202D01*
X051844Y000227D01*
X051783Y000254D01*
X051723Y000286D01*
X051665Y000320D01*
X051609Y000358D01*
X051556Y000399D01*
X051505Y000443D01*
X051456Y000490D01*
X051410Y000539D01*
X051367Y000591D01*
X051328Y000646D01*
X051291Y000703D01*
X051257Y000761D01*
X051227Y000822D01*
X051201Y000884D01*
X051178Y000947D01*
X051159Y001012D01*
X051143Y001077D01*
X051132Y001144D01*
X051124Y001211D01*
X051120Y001278D01*
X051119Y001346D01*
X051119Y001286D02*
X051119Y001700D01*
X051117Y001739D01*
X051111Y001777D01*
X051102Y001814D01*
X051089Y001851D01*
X051072Y001886D01*
X051053Y001919D01*
X051030Y001950D01*
X051004Y001979D01*
X050975Y002005D01*
X050944Y002028D01*
X050911Y002047D01*
X050876Y002064D01*
X050839Y002077D01*
X050802Y002086D01*
X050764Y002092D01*
X050725Y002094D01*
X050351Y002094D01*
X049260Y002094D02*
X048256Y002094D01*
X048256Y002093D02*
X048234Y002091D01*
X048212Y002087D01*
X048191Y002079D01*
X048171Y002068D01*
X048153Y002055D01*
X048137Y002039D01*
X048124Y002021D01*
X048113Y002001D01*
X048105Y001980D01*
X048101Y001958D01*
X048099Y001936D01*
X048099Y001306D01*
X046899Y001306D02*
X046901Y001346D01*
X046907Y001387D01*
X046917Y001426D01*
X046930Y001464D01*
X046948Y001501D01*
X046969Y001535D01*
X046993Y001568D01*
X047020Y001598D01*
X047050Y001625D01*
X047083Y001649D01*
X047117Y001670D01*
X047154Y001688D01*
X047192Y001701D01*
X047231Y001711D01*
X047272Y001717D01*
X047312Y001719D01*
X047352Y001717D01*
X047393Y001711D01*
X047432Y001701D01*
X047470Y001688D01*
X047507Y001670D01*
X047541Y001649D01*
X047574Y001625D01*
X047604Y001598D01*
X047631Y001568D01*
X047655Y001535D01*
X047676Y001501D01*
X047694Y001464D01*
X047707Y001426D01*
X047717Y001387D01*
X047723Y001346D01*
X047725Y001306D01*
X047723Y001266D01*
X047717Y001225D01*
X047707Y001186D01*
X047694Y001148D01*
X047676Y001111D01*
X047655Y001077D01*
X047631Y001044D01*
X047604Y001014D01*
X047574Y000987D01*
X047541Y000963D01*
X047507Y000942D01*
X047470Y000924D01*
X047432Y000911D01*
X047393Y000901D01*
X047352Y000895D01*
X047312Y000893D01*
X047272Y000895D01*
X047231Y000901D01*
X047192Y000911D01*
X047154Y000924D01*
X047117Y000942D01*
X047083Y000963D01*
X047050Y000987D01*
X047020Y001014D01*
X046993Y001044D01*
X046969Y001077D01*
X046948Y001111D01*
X046930Y001148D01*
X046917Y001186D01*
X046907Y001225D01*
X046901Y001266D01*
X046899Y001306D01*
X046524Y001306D02*
X046524Y001936D01*
X046522Y001958D01*
X046518Y001980D01*
X046510Y002001D01*
X046499Y002021D01*
X046486Y002039D01*
X046470Y002055D01*
X046452Y002068D01*
X046432Y002079D01*
X046411Y002087D01*
X046389Y002091D01*
X046367Y002093D01*
X046367Y002094D02*
X045363Y002094D01*
X044260Y002094D02*
X043256Y002094D01*
X043256Y002093D02*
X043234Y002091D01*
X043212Y002087D01*
X043191Y002079D01*
X043171Y002068D01*
X043153Y002055D01*
X043137Y002039D01*
X043124Y002021D01*
X043113Y002001D01*
X043105Y001980D01*
X043101Y001958D01*
X043099Y001936D01*
X043099Y001306D01*
X041899Y001306D02*
X041901Y001346D01*
X041907Y001387D01*
X041917Y001426D01*
X041930Y001464D01*
X041948Y001501D01*
X041969Y001535D01*
X041993Y001568D01*
X042020Y001598D01*
X042050Y001625D01*
X042083Y001649D01*
X042117Y001670D01*
X042154Y001688D01*
X042192Y001701D01*
X042231Y001711D01*
X042272Y001717D01*
X042312Y001719D01*
X042352Y001717D01*
X042393Y001711D01*
X042432Y001701D01*
X042470Y001688D01*
X042507Y001670D01*
X042541Y001649D01*
X042574Y001625D01*
X042604Y001598D01*
X042631Y001568D01*
X042655Y001535D01*
X042676Y001501D01*
X042694Y001464D01*
X042707Y001426D01*
X042717Y001387D01*
X042723Y001346D01*
X042725Y001306D01*
X042723Y001266D01*
X042717Y001225D01*
X042707Y001186D01*
X042694Y001148D01*
X042676Y001111D01*
X042655Y001077D01*
X042631Y001044D01*
X042604Y001014D01*
X042574Y000987D01*
X042541Y000963D01*
X042507Y000942D01*
X042470Y000924D01*
X042432Y000911D01*
X042393Y000901D01*
X042352Y000895D01*
X042312Y000893D01*
X042272Y000895D01*
X042231Y000901D01*
X042192Y000911D01*
X042154Y000924D01*
X042117Y000942D01*
X042083Y000963D01*
X042050Y000987D01*
X042020Y001014D01*
X041993Y001044D01*
X041969Y001077D01*
X041948Y001111D01*
X041930Y001148D01*
X041917Y001186D01*
X041907Y001225D01*
X041901Y001266D01*
X041899Y001306D01*
X041524Y001306D02*
X041524Y001936D01*
X041522Y001958D01*
X041518Y001980D01*
X041510Y002001D01*
X041499Y002021D01*
X041486Y002039D01*
X041470Y002055D01*
X041452Y002068D01*
X041432Y002079D01*
X041411Y002087D01*
X041389Y002091D01*
X041367Y002093D01*
X041367Y002094D02*
X040363Y002094D01*
X039260Y002094D02*
X038256Y002094D01*
X038256Y002093D02*
X038234Y002091D01*
X038212Y002087D01*
X038191Y002079D01*
X038171Y002068D01*
X038153Y002055D01*
X038137Y002039D01*
X038124Y002021D01*
X038113Y002001D01*
X038105Y001980D01*
X038101Y001958D01*
X038099Y001936D01*
X038099Y001306D01*
X036899Y001306D02*
X036901Y001346D01*
X036907Y001387D01*
X036917Y001426D01*
X036930Y001464D01*
X036948Y001501D01*
X036969Y001535D01*
X036993Y001568D01*
X037020Y001598D01*
X037050Y001625D01*
X037083Y001649D01*
X037117Y001670D01*
X037154Y001688D01*
X037192Y001701D01*
X037231Y001711D01*
X037272Y001717D01*
X037312Y001719D01*
X037352Y001717D01*
X037393Y001711D01*
X037432Y001701D01*
X037470Y001688D01*
X037507Y001670D01*
X037541Y001649D01*
X037574Y001625D01*
X037604Y001598D01*
X037631Y001568D01*
X037655Y001535D01*
X037676Y001501D01*
X037694Y001464D01*
X037707Y001426D01*
X037717Y001387D01*
X037723Y001346D01*
X037725Y001306D01*
X037723Y001266D01*
X037717Y001225D01*
X037707Y001186D01*
X037694Y001148D01*
X037676Y001111D01*
X037655Y001077D01*
X037631Y001044D01*
X037604Y001014D01*
X037574Y000987D01*
X037541Y000963D01*
X037507Y000942D01*
X037470Y000924D01*
X037432Y000911D01*
X037393Y000901D01*
X037352Y000895D01*
X037312Y000893D01*
X037272Y000895D01*
X037231Y000901D01*
X037192Y000911D01*
X037154Y000924D01*
X037117Y000942D01*
X037083Y000963D01*
X037050Y000987D01*
X037020Y001014D01*
X036993Y001044D01*
X036969Y001077D01*
X036948Y001111D01*
X036930Y001148D01*
X036917Y001186D01*
X036907Y001225D01*
X036901Y001266D01*
X036899Y001306D01*
X036524Y001306D02*
X036524Y001936D01*
X036522Y001958D01*
X036518Y001980D01*
X036510Y002001D01*
X036499Y002021D01*
X036486Y002039D01*
X036470Y002055D01*
X036452Y002068D01*
X036432Y002079D01*
X036411Y002087D01*
X036389Y002091D01*
X036367Y002093D01*
X036367Y002094D02*
X035363Y002094D01*
X034260Y002094D02*
X033256Y002094D01*
X033256Y002093D02*
X033234Y002091D01*
X033212Y002087D01*
X033191Y002079D01*
X033171Y002068D01*
X033153Y002055D01*
X033137Y002039D01*
X033124Y002021D01*
X033113Y002001D01*
X033105Y001980D01*
X033101Y001958D01*
X033099Y001936D01*
X033099Y001306D01*
X031899Y001306D02*
X031901Y001346D01*
X031907Y001387D01*
X031917Y001426D01*
X031930Y001464D01*
X031948Y001501D01*
X031969Y001535D01*
X031993Y001568D01*
X032020Y001598D01*
X032050Y001625D01*
X032083Y001649D01*
X032117Y001670D01*
X032154Y001688D01*
X032192Y001701D01*
X032231Y001711D01*
X032272Y001717D01*
X032312Y001719D01*
X032352Y001717D01*
X032393Y001711D01*
X032432Y001701D01*
X032470Y001688D01*
X032507Y001670D01*
X032541Y001649D01*
X032574Y001625D01*
X032604Y001598D01*
X032631Y001568D01*
X032655Y001535D01*
X032676Y001501D01*
X032694Y001464D01*
X032707Y001426D01*
X032717Y001387D01*
X032723Y001346D01*
X032725Y001306D01*
X032723Y001266D01*
X032717Y001225D01*
X032707Y001186D01*
X032694Y001148D01*
X032676Y001111D01*
X032655Y001077D01*
X032631Y001044D01*
X032604Y001014D01*
X032574Y000987D01*
X032541Y000963D01*
X032507Y000942D01*
X032470Y000924D01*
X032432Y000911D01*
X032393Y000901D01*
X032352Y000895D01*
X032312Y000893D01*
X032272Y000895D01*
X032231Y000901D01*
X032192Y000911D01*
X032154Y000924D01*
X032117Y000942D01*
X032083Y000963D01*
X032050Y000987D01*
X032020Y001014D01*
X031993Y001044D01*
X031969Y001077D01*
X031948Y001111D01*
X031930Y001148D01*
X031917Y001186D01*
X031907Y001225D01*
X031901Y001266D01*
X031899Y001306D01*
X031524Y001306D02*
X031524Y001936D01*
X031522Y001958D01*
X031518Y001980D01*
X031510Y002001D01*
X031499Y002021D01*
X031486Y002039D01*
X031470Y002055D01*
X031452Y002068D01*
X031432Y002079D01*
X031411Y002087D01*
X031389Y002091D01*
X031367Y002093D01*
X031367Y002094D02*
X030363Y002094D01*
X029260Y002094D02*
X028256Y002094D01*
X028256Y002093D02*
X028234Y002091D01*
X028212Y002087D01*
X028191Y002079D01*
X028171Y002068D01*
X028153Y002055D01*
X028137Y002039D01*
X028124Y002021D01*
X028113Y002001D01*
X028105Y001980D01*
X028101Y001958D01*
X028099Y001936D01*
X028099Y001306D01*
X026899Y001306D02*
X026901Y001346D01*
X026907Y001387D01*
X026917Y001426D01*
X026930Y001464D01*
X026948Y001501D01*
X026969Y001535D01*
X026993Y001568D01*
X027020Y001598D01*
X027050Y001625D01*
X027083Y001649D01*
X027117Y001670D01*
X027154Y001688D01*
X027192Y001701D01*
X027231Y001711D01*
X027272Y001717D01*
X027312Y001719D01*
X027352Y001717D01*
X027393Y001711D01*
X027432Y001701D01*
X027470Y001688D01*
X027507Y001670D01*
X027541Y001649D01*
X027574Y001625D01*
X027604Y001598D01*
X027631Y001568D01*
X027655Y001535D01*
X027676Y001501D01*
X027694Y001464D01*
X027707Y001426D01*
X027717Y001387D01*
X027723Y001346D01*
X027725Y001306D01*
X027723Y001266D01*
X027717Y001225D01*
X027707Y001186D01*
X027694Y001148D01*
X027676Y001111D01*
X027655Y001077D01*
X027631Y001044D01*
X027604Y001014D01*
X027574Y000987D01*
X027541Y000963D01*
X027507Y000942D01*
X027470Y000924D01*
X027432Y000911D01*
X027393Y000901D01*
X027352Y000895D01*
X027312Y000893D01*
X027272Y000895D01*
X027231Y000901D01*
X027192Y000911D01*
X027154Y000924D01*
X027117Y000942D01*
X027083Y000963D01*
X027050Y000987D01*
X027020Y001014D01*
X026993Y001044D01*
X026969Y001077D01*
X026948Y001111D01*
X026930Y001148D01*
X026917Y001186D01*
X026907Y001225D01*
X026901Y001266D01*
X026899Y001306D01*
X026524Y001306D02*
X026524Y001936D01*
X026522Y001958D01*
X026518Y001980D01*
X026510Y002001D01*
X026499Y002021D01*
X026486Y002039D01*
X026470Y002055D01*
X026452Y002068D01*
X026432Y002079D01*
X026411Y002087D01*
X026389Y002091D01*
X026367Y002093D01*
X026367Y002094D02*
X025363Y002094D01*
X024260Y002094D02*
X023256Y002094D01*
X023256Y002093D02*
X023234Y002091D01*
X023212Y002087D01*
X023191Y002079D01*
X023171Y002068D01*
X023153Y002055D01*
X023137Y002039D01*
X023124Y002021D01*
X023113Y002001D01*
X023105Y001980D01*
X023101Y001958D01*
X023099Y001936D01*
X023099Y001306D01*
X021899Y001306D02*
X021901Y001346D01*
X021907Y001387D01*
X021917Y001426D01*
X021930Y001464D01*
X021948Y001501D01*
X021969Y001535D01*
X021993Y001568D01*
X022020Y001598D01*
X022050Y001625D01*
X022083Y001649D01*
X022117Y001670D01*
X022154Y001688D01*
X022192Y001701D01*
X022231Y001711D01*
X022272Y001717D01*
X022312Y001719D01*
X022352Y001717D01*
X022393Y001711D01*
X022432Y001701D01*
X022470Y001688D01*
X022507Y001670D01*
X022541Y001649D01*
X022574Y001625D01*
X022604Y001598D01*
X022631Y001568D01*
X022655Y001535D01*
X022676Y001501D01*
X022694Y001464D01*
X022707Y001426D01*
X022717Y001387D01*
X022723Y001346D01*
X022725Y001306D01*
X022723Y001266D01*
X022717Y001225D01*
X022707Y001186D01*
X022694Y001148D01*
X022676Y001111D01*
X022655Y001077D01*
X022631Y001044D01*
X022604Y001014D01*
X022574Y000987D01*
X022541Y000963D01*
X022507Y000942D01*
X022470Y000924D01*
X022432Y000911D01*
X022393Y000901D01*
X022352Y000895D01*
X022312Y000893D01*
X022272Y000895D01*
X022231Y000901D01*
X022192Y000911D01*
X022154Y000924D01*
X022117Y000942D01*
X022083Y000963D01*
X022050Y000987D01*
X022020Y001014D01*
X021993Y001044D01*
X021969Y001077D01*
X021948Y001111D01*
X021930Y001148D01*
X021917Y001186D01*
X021907Y001225D01*
X021901Y001266D01*
X021899Y001306D01*
X021524Y001306D02*
X021524Y001936D01*
X021522Y001958D01*
X021518Y001980D01*
X021510Y002001D01*
X021499Y002021D01*
X021486Y002039D01*
X021470Y002055D01*
X021452Y002068D01*
X021432Y002079D01*
X021411Y002087D01*
X021389Y002091D01*
X021367Y002093D01*
X021367Y002094D02*
X020363Y002094D01*
X019260Y002094D02*
X018256Y002094D01*
X018256Y002093D02*
X018234Y002091D01*
X018212Y002087D01*
X018191Y002079D01*
X018171Y002068D01*
X018153Y002055D01*
X018137Y002039D01*
X018124Y002021D01*
X018113Y002001D01*
X018105Y001980D01*
X018101Y001958D01*
X018099Y001936D01*
X018099Y001306D01*
X016899Y001306D02*
X016901Y001346D01*
X016907Y001387D01*
X016917Y001426D01*
X016930Y001464D01*
X016948Y001501D01*
X016969Y001535D01*
X016993Y001568D01*
X017020Y001598D01*
X017050Y001625D01*
X017083Y001649D01*
X017117Y001670D01*
X017154Y001688D01*
X017192Y001701D01*
X017231Y001711D01*
X017272Y001717D01*
X017312Y001719D01*
X017352Y001717D01*
X017393Y001711D01*
X017432Y001701D01*
X017470Y001688D01*
X017507Y001670D01*
X017541Y001649D01*
X017574Y001625D01*
X017604Y001598D01*
X017631Y001568D01*
X017655Y001535D01*
X017676Y001501D01*
X017694Y001464D01*
X017707Y001426D01*
X017717Y001387D01*
X017723Y001346D01*
X017725Y001306D01*
X017723Y001266D01*
X017717Y001225D01*
X017707Y001186D01*
X017694Y001148D01*
X017676Y001111D01*
X017655Y001077D01*
X017631Y001044D01*
X017604Y001014D01*
X017574Y000987D01*
X017541Y000963D01*
X017507Y000942D01*
X017470Y000924D01*
X017432Y000911D01*
X017393Y000901D01*
X017352Y000895D01*
X017312Y000893D01*
X017272Y000895D01*
X017231Y000901D01*
X017192Y000911D01*
X017154Y000924D01*
X017117Y000942D01*
X017083Y000963D01*
X017050Y000987D01*
X017020Y001014D01*
X016993Y001044D01*
X016969Y001077D01*
X016948Y001111D01*
X016930Y001148D01*
X016917Y001186D01*
X016907Y001225D01*
X016901Y001266D01*
X016899Y001306D01*
X016524Y001306D02*
X016524Y001936D01*
X016522Y001958D01*
X016518Y001980D01*
X016510Y002001D01*
X016499Y002021D01*
X016486Y002039D01*
X016470Y002055D01*
X016452Y002068D01*
X016432Y002079D01*
X016411Y002087D01*
X016389Y002091D01*
X016367Y002093D01*
X016367Y002094D02*
X015363Y002094D01*
X014260Y002094D02*
X013256Y002094D01*
X013256Y002093D02*
X013234Y002091D01*
X013212Y002087D01*
X013191Y002079D01*
X013171Y002068D01*
X013153Y002055D01*
X013137Y002039D01*
X013124Y002021D01*
X013113Y002001D01*
X013105Y001980D01*
X013101Y001958D01*
X013099Y001936D01*
X013099Y001306D01*
X011899Y001306D02*
X011901Y001346D01*
X011907Y001387D01*
X011917Y001426D01*
X011930Y001464D01*
X011948Y001501D01*
X011969Y001535D01*
X011993Y001568D01*
X012020Y001598D01*
X012050Y001625D01*
X012083Y001649D01*
X012117Y001670D01*
X012154Y001688D01*
X012192Y001701D01*
X012231Y001711D01*
X012272Y001717D01*
X012312Y001719D01*
X012352Y001717D01*
X012393Y001711D01*
X012432Y001701D01*
X012470Y001688D01*
X012507Y001670D01*
X012541Y001649D01*
X012574Y001625D01*
X012604Y001598D01*
X012631Y001568D01*
X012655Y001535D01*
X012676Y001501D01*
X012694Y001464D01*
X012707Y001426D01*
X012717Y001387D01*
X012723Y001346D01*
X012725Y001306D01*
X012723Y001266D01*
X012717Y001225D01*
X012707Y001186D01*
X012694Y001148D01*
X012676Y001111D01*
X012655Y001077D01*
X012631Y001044D01*
X012604Y001014D01*
X012574Y000987D01*
X012541Y000963D01*
X012507Y000942D01*
X012470Y000924D01*
X012432Y000911D01*
X012393Y000901D01*
X012352Y000895D01*
X012312Y000893D01*
X012272Y000895D01*
X012231Y000901D01*
X012192Y000911D01*
X012154Y000924D01*
X012117Y000942D01*
X012083Y000963D01*
X012050Y000987D01*
X012020Y001014D01*
X011993Y001044D01*
X011969Y001077D01*
X011948Y001111D01*
X011930Y001148D01*
X011917Y001186D01*
X011907Y001225D01*
X011901Y001266D01*
X011899Y001306D01*
X011524Y001306D02*
X011524Y001936D01*
X011522Y001958D01*
X011518Y001980D01*
X011510Y002001D01*
X011499Y002021D01*
X011486Y002039D01*
X011470Y002055D01*
X011452Y002068D01*
X011432Y002079D01*
X011411Y002087D01*
X011389Y002091D01*
X011367Y002093D01*
X011367Y002094D02*
X010363Y002094D01*
X009249Y002094D02*
X008875Y002094D01*
X008836Y002092D01*
X008798Y002086D01*
X008761Y002077D01*
X008724Y002064D01*
X008689Y002047D01*
X008656Y002028D01*
X008625Y002005D01*
X008596Y001979D01*
X008570Y001950D01*
X008547Y001919D01*
X008528Y001886D01*
X008511Y001851D01*
X008498Y001814D01*
X008489Y001777D01*
X008483Y001739D01*
X008481Y001700D01*
X008481Y001286D01*
X006670Y001306D02*
X006672Y001356D01*
X006678Y001406D01*
X006688Y001455D01*
X006702Y001503D01*
X006719Y001550D01*
X006740Y001595D01*
X006765Y001639D01*
X006793Y001680D01*
X006825Y001719D01*
X006859Y001756D01*
X006896Y001790D01*
X006936Y001820D01*
X006978Y001847D01*
X007022Y001871D01*
X007068Y001892D01*
X007115Y001908D01*
X007163Y001921D01*
X007213Y001930D01*
X007262Y001935D01*
X007313Y001936D01*
X007363Y001933D01*
X007412Y001926D01*
X007461Y001915D01*
X007509Y001900D01*
X007555Y001882D01*
X007600Y001860D01*
X007643Y001834D01*
X007684Y001805D01*
X007723Y001773D01*
X007759Y001738D01*
X007791Y001700D01*
X007821Y001660D01*
X007848Y001617D01*
X007871Y001573D01*
X007890Y001527D01*
X007906Y001479D01*
X007918Y001430D01*
X007926Y001381D01*
X007930Y001331D01*
X007930Y001281D01*
X007926Y001231D01*
X007918Y001182D01*
X007906Y001133D01*
X007890Y001085D01*
X007871Y001039D01*
X007848Y000995D01*
X007821Y000952D01*
X007791Y000912D01*
X007759Y000874D01*
X007723Y000839D01*
X007684Y000807D01*
X007643Y000778D01*
X007600Y000752D01*
X007555Y000730D01*
X007509Y000712D01*
X007461Y000697D01*
X007412Y000686D01*
X007363Y000679D01*
X007313Y000676D01*
X007262Y000677D01*
X007213Y000682D01*
X007163Y000691D01*
X007115Y000704D01*
X007068Y000720D01*
X007022Y000741D01*
X006978Y000765D01*
X006936Y000792D01*
X006896Y000822D01*
X006859Y000856D01*
X006825Y000893D01*
X006793Y000932D01*
X006765Y000973D01*
X006740Y001017D01*
X006719Y001062D01*
X006702Y001109D01*
X006688Y001157D01*
X006678Y001206D01*
X006672Y001256D01*
X006670Y001306D01*
X006119Y001286D02*
X006123Y001219D01*
X006130Y001152D01*
X006142Y001086D01*
X006157Y001020D01*
X006176Y000955D01*
X006198Y000891D01*
X006224Y000829D01*
X006254Y000769D01*
X006286Y000710D01*
X006323Y000653D01*
X006362Y000598D01*
X006405Y000546D01*
X006450Y000496D01*
X006498Y000449D01*
X006549Y000404D01*
X006602Y000363D01*
X006658Y000325D01*
X006716Y000290D01*
X006775Y000258D01*
X006836Y000230D01*
X006899Y000205D01*
X006963Y000184D01*
X007028Y000167D01*
X007094Y000153D01*
X007161Y000143D01*
X007228Y000137D01*
X007296Y000135D01*
X007363Y000137D01*
X007430Y000142D01*
X007497Y000152D01*
X007563Y000165D01*
X007629Y000182D01*
X007693Y000202D01*
X007756Y000227D01*
X007817Y000254D01*
X007877Y000286D01*
X007935Y000320D01*
X007991Y000358D01*
X008044Y000399D01*
X008095Y000443D01*
X008144Y000490D01*
X008190Y000539D01*
X008233Y000591D01*
X008272Y000646D01*
X008309Y000703D01*
X008343Y000761D01*
X008373Y000822D01*
X008399Y000884D01*
X008422Y000947D01*
X008441Y001012D01*
X008457Y001077D01*
X008468Y001144D01*
X008476Y001211D01*
X008480Y001278D01*
X008481Y001346D01*
X011426Y002192D02*
X011428Y002211D01*
X011433Y002230D01*
X011443Y002246D01*
X011455Y002261D01*
X011470Y002273D01*
X011486Y002283D01*
X011505Y002288D01*
X011524Y002290D01*
X011543Y002288D01*
X011562Y002283D01*
X011578Y002273D01*
X011593Y002261D01*
X011605Y002246D01*
X011615Y002230D01*
X011620Y002211D01*
X011622Y002192D01*
X011620Y002173D01*
X011615Y002154D01*
X011605Y002138D01*
X011593Y002123D01*
X011578Y002111D01*
X011562Y002101D01*
X011543Y002096D01*
X011524Y002094D01*
X011505Y002096D01*
X011486Y002101D01*
X011470Y002111D01*
X011455Y002123D01*
X011443Y002138D01*
X011433Y002154D01*
X011428Y002173D01*
X011426Y002192D01*
X011820Y002192D02*
X011822Y002211D01*
X011827Y002230D01*
X011837Y002246D01*
X011849Y002261D01*
X011864Y002273D01*
X011880Y002283D01*
X011899Y002288D01*
X011918Y002290D01*
X011937Y002288D01*
X011956Y002283D01*
X011972Y002273D01*
X011987Y002261D01*
X011999Y002246D01*
X012009Y002230D01*
X012014Y002211D01*
X012016Y002192D01*
X012014Y002173D01*
X012009Y002154D01*
X011999Y002138D01*
X011987Y002123D01*
X011972Y002111D01*
X011956Y002101D01*
X011937Y002096D01*
X011918Y002094D01*
X011899Y002096D01*
X011880Y002101D01*
X011864Y002111D01*
X011849Y002123D01*
X011837Y002138D01*
X011827Y002154D01*
X011822Y002173D01*
X011820Y002192D01*
X012214Y002192D02*
X012216Y002211D01*
X012221Y002230D01*
X012231Y002246D01*
X012243Y002261D01*
X012258Y002273D01*
X012274Y002283D01*
X012293Y002288D01*
X012312Y002290D01*
X012331Y002288D01*
X012350Y002283D01*
X012366Y002273D01*
X012381Y002261D01*
X012393Y002246D01*
X012403Y002230D01*
X012408Y002211D01*
X012410Y002192D01*
X012408Y002173D01*
X012403Y002154D01*
X012393Y002138D01*
X012381Y002123D01*
X012366Y002111D01*
X012350Y002101D01*
X012331Y002096D01*
X012312Y002094D01*
X012293Y002096D01*
X012274Y002101D01*
X012258Y002111D01*
X012243Y002123D01*
X012231Y002138D01*
X012221Y002154D01*
X012216Y002173D01*
X012214Y002192D01*
X012607Y002192D02*
X012609Y002211D01*
X012614Y002230D01*
X012624Y002246D01*
X012636Y002261D01*
X012651Y002273D01*
X012667Y002283D01*
X012686Y002288D01*
X012705Y002290D01*
X012724Y002288D01*
X012743Y002283D01*
X012759Y002273D01*
X012774Y002261D01*
X012786Y002246D01*
X012796Y002230D01*
X012801Y002211D01*
X012803Y002192D01*
X012801Y002173D01*
X012796Y002154D01*
X012786Y002138D01*
X012774Y002123D01*
X012759Y002111D01*
X012743Y002101D01*
X012724Y002096D01*
X012705Y002094D01*
X012686Y002096D01*
X012667Y002101D01*
X012651Y002111D01*
X012636Y002123D01*
X012624Y002138D01*
X012614Y002154D01*
X012609Y002173D01*
X012607Y002192D01*
X013001Y002192D02*
X013003Y002211D01*
X013008Y002230D01*
X013018Y002246D01*
X013030Y002261D01*
X013045Y002273D01*
X013061Y002283D01*
X013080Y002288D01*
X013099Y002290D01*
X013118Y002288D01*
X013137Y002283D01*
X013153Y002273D01*
X013168Y002261D01*
X013180Y002246D01*
X013190Y002230D01*
X013195Y002211D01*
X013197Y002192D01*
X013195Y002173D01*
X013190Y002154D01*
X013180Y002138D01*
X013168Y002123D01*
X013153Y002111D01*
X013137Y002101D01*
X013118Y002096D01*
X013099Y002094D01*
X013080Y002096D01*
X013061Y002101D01*
X013045Y002111D01*
X013030Y002123D01*
X013018Y002138D01*
X013008Y002154D01*
X013003Y002173D01*
X013001Y002192D01*
X014260Y002093D02*
X014299Y002095D01*
X014337Y002101D01*
X014374Y002110D01*
X014411Y002123D01*
X014446Y002140D01*
X014479Y002159D01*
X014510Y002182D01*
X014539Y002208D01*
X014565Y002237D01*
X014588Y002268D01*
X014607Y002301D01*
X014624Y002336D01*
X014637Y002373D01*
X014646Y002410D01*
X014652Y002448D01*
X014654Y002487D01*
X014654Y003676D01*
X014812Y003833D02*
X014834Y003831D01*
X014856Y003827D01*
X014877Y003819D01*
X014897Y003808D01*
X014915Y003795D01*
X014931Y003779D01*
X014944Y003761D01*
X014955Y003741D01*
X014963Y003720D01*
X014967Y003698D01*
X014969Y003676D01*
X014969Y002487D01*
X014971Y002448D01*
X014977Y002410D01*
X014986Y002373D01*
X014999Y002336D01*
X015016Y002301D01*
X015035Y002268D01*
X015058Y002237D01*
X015084Y002208D01*
X015113Y002182D01*
X015144Y002159D01*
X015177Y002140D01*
X015212Y002123D01*
X015249Y002110D01*
X015286Y002101D01*
X015324Y002095D01*
X015363Y002093D01*
X016426Y002192D02*
X016428Y002211D01*
X016433Y002230D01*
X016443Y002246D01*
X016455Y002261D01*
X016470Y002273D01*
X016486Y002283D01*
X016505Y002288D01*
X016524Y002290D01*
X016543Y002288D01*
X016562Y002283D01*
X016578Y002273D01*
X016593Y002261D01*
X016605Y002246D01*
X016615Y002230D01*
X016620Y002211D01*
X016622Y002192D01*
X016620Y002173D01*
X016615Y002154D01*
X016605Y002138D01*
X016593Y002123D01*
X016578Y002111D01*
X016562Y002101D01*
X016543Y002096D01*
X016524Y002094D01*
X016505Y002096D01*
X016486Y002101D01*
X016470Y002111D01*
X016455Y002123D01*
X016443Y002138D01*
X016433Y002154D01*
X016428Y002173D01*
X016426Y002192D01*
X016820Y002192D02*
X016822Y002211D01*
X016827Y002230D01*
X016837Y002246D01*
X016849Y002261D01*
X016864Y002273D01*
X016880Y002283D01*
X016899Y002288D01*
X016918Y002290D01*
X016937Y002288D01*
X016956Y002283D01*
X016972Y002273D01*
X016987Y002261D01*
X016999Y002246D01*
X017009Y002230D01*
X017014Y002211D01*
X017016Y002192D01*
X017014Y002173D01*
X017009Y002154D01*
X016999Y002138D01*
X016987Y002123D01*
X016972Y002111D01*
X016956Y002101D01*
X016937Y002096D01*
X016918Y002094D01*
X016899Y002096D01*
X016880Y002101D01*
X016864Y002111D01*
X016849Y002123D01*
X016837Y002138D01*
X016827Y002154D01*
X016822Y002173D01*
X016820Y002192D01*
X017214Y002192D02*
X017216Y002211D01*
X017221Y002230D01*
X017231Y002246D01*
X017243Y002261D01*
X017258Y002273D01*
X017274Y002283D01*
X017293Y002288D01*
X017312Y002290D01*
X017331Y002288D01*
X017350Y002283D01*
X017366Y002273D01*
X017381Y002261D01*
X017393Y002246D01*
X017403Y002230D01*
X017408Y002211D01*
X017410Y002192D01*
X017408Y002173D01*
X017403Y002154D01*
X017393Y002138D01*
X017381Y002123D01*
X017366Y002111D01*
X017350Y002101D01*
X017331Y002096D01*
X017312Y002094D01*
X017293Y002096D01*
X017274Y002101D01*
X017258Y002111D01*
X017243Y002123D01*
X017231Y002138D01*
X017221Y002154D01*
X017216Y002173D01*
X017214Y002192D01*
X017607Y002192D02*
X017609Y002211D01*
X017614Y002230D01*
X017624Y002246D01*
X017636Y002261D01*
X017651Y002273D01*
X017667Y002283D01*
X017686Y002288D01*
X017705Y002290D01*
X017724Y002288D01*
X017743Y002283D01*
X017759Y002273D01*
X017774Y002261D01*
X017786Y002246D01*
X017796Y002230D01*
X017801Y002211D01*
X017803Y002192D01*
X017801Y002173D01*
X017796Y002154D01*
X017786Y002138D01*
X017774Y002123D01*
X017759Y002111D01*
X017743Y002101D01*
X017724Y002096D01*
X017705Y002094D01*
X017686Y002096D01*
X017667Y002101D01*
X017651Y002111D01*
X017636Y002123D01*
X017624Y002138D01*
X017614Y002154D01*
X017609Y002173D01*
X017607Y002192D01*
X018001Y002192D02*
X018003Y002211D01*
X018008Y002230D01*
X018018Y002246D01*
X018030Y002261D01*
X018045Y002273D01*
X018061Y002283D01*
X018080Y002288D01*
X018099Y002290D01*
X018118Y002288D01*
X018137Y002283D01*
X018153Y002273D01*
X018168Y002261D01*
X018180Y002246D01*
X018190Y002230D01*
X018195Y002211D01*
X018197Y002192D01*
X018195Y002173D01*
X018190Y002154D01*
X018180Y002138D01*
X018168Y002123D01*
X018153Y002111D01*
X018137Y002101D01*
X018118Y002096D01*
X018099Y002094D01*
X018080Y002096D01*
X018061Y002101D01*
X018045Y002111D01*
X018030Y002123D01*
X018018Y002138D01*
X018008Y002154D01*
X018003Y002173D01*
X018001Y002192D01*
X019260Y002093D02*
X019299Y002095D01*
X019337Y002101D01*
X019374Y002110D01*
X019411Y002123D01*
X019446Y002140D01*
X019479Y002159D01*
X019510Y002182D01*
X019539Y002208D01*
X019565Y002237D01*
X019588Y002268D01*
X019607Y002301D01*
X019624Y002336D01*
X019637Y002373D01*
X019646Y002410D01*
X019652Y002448D01*
X019654Y002487D01*
X019654Y003676D01*
X019812Y003833D02*
X019834Y003831D01*
X019856Y003827D01*
X019877Y003819D01*
X019897Y003808D01*
X019915Y003795D01*
X019931Y003779D01*
X019944Y003761D01*
X019955Y003741D01*
X019963Y003720D01*
X019967Y003698D01*
X019969Y003676D01*
X019969Y002487D01*
X019971Y002448D01*
X019977Y002410D01*
X019986Y002373D01*
X019999Y002336D01*
X020016Y002301D01*
X020035Y002268D01*
X020058Y002237D01*
X020084Y002208D01*
X020113Y002182D01*
X020144Y002159D01*
X020177Y002140D01*
X020212Y002123D01*
X020249Y002110D01*
X020286Y002101D01*
X020324Y002095D01*
X020363Y002093D01*
X021426Y002192D02*
X021428Y002211D01*
X021433Y002230D01*
X021443Y002246D01*
X021455Y002261D01*
X021470Y002273D01*
X021486Y002283D01*
X021505Y002288D01*
X021524Y002290D01*
X021543Y002288D01*
X021562Y002283D01*
X021578Y002273D01*
X021593Y002261D01*
X021605Y002246D01*
X021615Y002230D01*
X021620Y002211D01*
X021622Y002192D01*
X021620Y002173D01*
X021615Y002154D01*
X021605Y002138D01*
X021593Y002123D01*
X021578Y002111D01*
X021562Y002101D01*
X021543Y002096D01*
X021524Y002094D01*
X021505Y002096D01*
X021486Y002101D01*
X021470Y002111D01*
X021455Y002123D01*
X021443Y002138D01*
X021433Y002154D01*
X021428Y002173D01*
X021426Y002192D01*
X021820Y002192D02*
X021822Y002211D01*
X021827Y002230D01*
X021837Y002246D01*
X021849Y002261D01*
X021864Y002273D01*
X021880Y002283D01*
X021899Y002288D01*
X021918Y002290D01*
X021937Y002288D01*
X021956Y002283D01*
X021972Y002273D01*
X021987Y002261D01*
X021999Y002246D01*
X022009Y002230D01*
X022014Y002211D01*
X022016Y002192D01*
X022014Y002173D01*
X022009Y002154D01*
X021999Y002138D01*
X021987Y002123D01*
X021972Y002111D01*
X021956Y002101D01*
X021937Y002096D01*
X021918Y002094D01*
X021899Y002096D01*
X021880Y002101D01*
X021864Y002111D01*
X021849Y002123D01*
X021837Y002138D01*
X021827Y002154D01*
X021822Y002173D01*
X021820Y002192D01*
X022214Y002192D02*
X022216Y002211D01*
X022221Y002230D01*
X022231Y002246D01*
X022243Y002261D01*
X022258Y002273D01*
X022274Y002283D01*
X022293Y002288D01*
X022312Y002290D01*
X022331Y002288D01*
X022350Y002283D01*
X022366Y002273D01*
X022381Y002261D01*
X022393Y002246D01*
X022403Y002230D01*
X022408Y002211D01*
X022410Y002192D01*
X022408Y002173D01*
X022403Y002154D01*
X022393Y002138D01*
X022381Y002123D01*
X022366Y002111D01*
X022350Y002101D01*
X022331Y002096D01*
X022312Y002094D01*
X022293Y002096D01*
X022274Y002101D01*
X022258Y002111D01*
X022243Y002123D01*
X022231Y002138D01*
X022221Y002154D01*
X022216Y002173D01*
X022214Y002192D01*
X022607Y002192D02*
X022609Y002211D01*
X022614Y002230D01*
X022624Y002246D01*
X022636Y002261D01*
X022651Y002273D01*
X022667Y002283D01*
X022686Y002288D01*
X022705Y002290D01*
X022724Y002288D01*
X022743Y002283D01*
X022759Y002273D01*
X022774Y002261D01*
X022786Y002246D01*
X022796Y002230D01*
X022801Y002211D01*
X022803Y002192D01*
X022801Y002173D01*
X022796Y002154D01*
X022786Y002138D01*
X022774Y002123D01*
X022759Y002111D01*
X022743Y002101D01*
X022724Y002096D01*
X022705Y002094D01*
X022686Y002096D01*
X022667Y002101D01*
X022651Y002111D01*
X022636Y002123D01*
X022624Y002138D01*
X022614Y002154D01*
X022609Y002173D01*
X022607Y002192D01*
X023001Y002192D02*
X023003Y002211D01*
X023008Y002230D01*
X023018Y002246D01*
X023030Y002261D01*
X023045Y002273D01*
X023061Y002283D01*
X023080Y002288D01*
X023099Y002290D01*
X023118Y002288D01*
X023137Y002283D01*
X023153Y002273D01*
X023168Y002261D01*
X023180Y002246D01*
X023190Y002230D01*
X023195Y002211D01*
X023197Y002192D01*
X023195Y002173D01*
X023190Y002154D01*
X023180Y002138D01*
X023168Y002123D01*
X023153Y002111D01*
X023137Y002101D01*
X023118Y002096D01*
X023099Y002094D01*
X023080Y002096D01*
X023061Y002101D01*
X023045Y002111D01*
X023030Y002123D01*
X023018Y002138D01*
X023008Y002154D01*
X023003Y002173D01*
X023001Y002192D01*
X024260Y002093D02*
X024299Y002095D01*
X024337Y002101D01*
X024374Y002110D01*
X024411Y002123D01*
X024446Y002140D01*
X024479Y002159D01*
X024510Y002182D01*
X024539Y002208D01*
X024565Y002237D01*
X024588Y002268D01*
X024607Y002301D01*
X024624Y002336D01*
X024637Y002373D01*
X024646Y002410D01*
X024652Y002448D01*
X024654Y002487D01*
X024654Y003676D01*
X024812Y003833D02*
X024834Y003831D01*
X024856Y003827D01*
X024877Y003819D01*
X024897Y003808D01*
X024915Y003795D01*
X024931Y003779D01*
X024944Y003761D01*
X024955Y003741D01*
X024963Y003720D01*
X024967Y003698D01*
X024969Y003676D01*
X024969Y002487D01*
X024971Y002448D01*
X024977Y002410D01*
X024986Y002373D01*
X024999Y002336D01*
X025016Y002301D01*
X025035Y002268D01*
X025058Y002237D01*
X025084Y002208D01*
X025113Y002182D01*
X025144Y002159D01*
X025177Y002140D01*
X025212Y002123D01*
X025249Y002110D01*
X025286Y002101D01*
X025324Y002095D01*
X025363Y002093D01*
X026426Y002192D02*
X026428Y002211D01*
X026433Y002230D01*
X026443Y002246D01*
X026455Y002261D01*
X026470Y002273D01*
X026486Y002283D01*
X026505Y002288D01*
X026524Y002290D01*
X026543Y002288D01*
X026562Y002283D01*
X026578Y002273D01*
X026593Y002261D01*
X026605Y002246D01*
X026615Y002230D01*
X026620Y002211D01*
X026622Y002192D01*
X026620Y002173D01*
X026615Y002154D01*
X026605Y002138D01*
X026593Y002123D01*
X026578Y002111D01*
X026562Y002101D01*
X026543Y002096D01*
X026524Y002094D01*
X026505Y002096D01*
X026486Y002101D01*
X026470Y002111D01*
X026455Y002123D01*
X026443Y002138D01*
X026433Y002154D01*
X026428Y002173D01*
X026426Y002192D01*
X026820Y002192D02*
X026822Y002211D01*
X026827Y002230D01*
X026837Y002246D01*
X026849Y002261D01*
X026864Y002273D01*
X026880Y002283D01*
X026899Y002288D01*
X026918Y002290D01*
X026937Y002288D01*
X026956Y002283D01*
X026972Y002273D01*
X026987Y002261D01*
X026999Y002246D01*
X027009Y002230D01*
X027014Y002211D01*
X027016Y002192D01*
X027014Y002173D01*
X027009Y002154D01*
X026999Y002138D01*
X026987Y002123D01*
X026972Y002111D01*
X026956Y002101D01*
X026937Y002096D01*
X026918Y002094D01*
X026899Y002096D01*
X026880Y002101D01*
X026864Y002111D01*
X026849Y002123D01*
X026837Y002138D01*
X026827Y002154D01*
X026822Y002173D01*
X026820Y002192D01*
X027214Y002192D02*
X027216Y002211D01*
X027221Y002230D01*
X027231Y002246D01*
X027243Y002261D01*
X027258Y002273D01*
X027274Y002283D01*
X027293Y002288D01*
X027312Y002290D01*
X027331Y002288D01*
X027350Y002283D01*
X027366Y002273D01*
X027381Y002261D01*
X027393Y002246D01*
X027403Y002230D01*
X027408Y002211D01*
X027410Y002192D01*
X027408Y002173D01*
X027403Y002154D01*
X027393Y002138D01*
X027381Y002123D01*
X027366Y002111D01*
X027350Y002101D01*
X027331Y002096D01*
X027312Y002094D01*
X027293Y002096D01*
X027274Y002101D01*
X027258Y002111D01*
X027243Y002123D01*
X027231Y002138D01*
X027221Y002154D01*
X027216Y002173D01*
X027214Y002192D01*
X027607Y002192D02*
X027609Y002211D01*
X027614Y002230D01*
X027624Y002246D01*
X027636Y002261D01*
X027651Y002273D01*
X027667Y002283D01*
X027686Y002288D01*
X027705Y002290D01*
X027724Y002288D01*
X027743Y002283D01*
X027759Y002273D01*
X027774Y002261D01*
X027786Y002246D01*
X027796Y002230D01*
X027801Y002211D01*
X027803Y002192D01*
X027801Y002173D01*
X027796Y002154D01*
X027786Y002138D01*
X027774Y002123D01*
X027759Y002111D01*
X027743Y002101D01*
X027724Y002096D01*
X027705Y002094D01*
X027686Y002096D01*
X027667Y002101D01*
X027651Y002111D01*
X027636Y002123D01*
X027624Y002138D01*
X027614Y002154D01*
X027609Y002173D01*
X027607Y002192D01*
X028001Y002192D02*
X028003Y002211D01*
X028008Y002230D01*
X028018Y002246D01*
X028030Y002261D01*
X028045Y002273D01*
X028061Y002283D01*
X028080Y002288D01*
X028099Y002290D01*
X028118Y002288D01*
X028137Y002283D01*
X028153Y002273D01*
X028168Y002261D01*
X028180Y002246D01*
X028190Y002230D01*
X028195Y002211D01*
X028197Y002192D01*
X028195Y002173D01*
X028190Y002154D01*
X028180Y002138D01*
X028168Y002123D01*
X028153Y002111D01*
X028137Y002101D01*
X028118Y002096D01*
X028099Y002094D01*
X028080Y002096D01*
X028061Y002101D01*
X028045Y002111D01*
X028030Y002123D01*
X028018Y002138D01*
X028008Y002154D01*
X028003Y002173D01*
X028001Y002192D01*
X029260Y002093D02*
X029299Y002095D01*
X029337Y002101D01*
X029374Y002110D01*
X029411Y002123D01*
X029446Y002140D01*
X029479Y002159D01*
X029510Y002182D01*
X029539Y002208D01*
X029565Y002237D01*
X029588Y002268D01*
X029607Y002301D01*
X029624Y002336D01*
X029637Y002373D01*
X029646Y002410D01*
X029652Y002448D01*
X029654Y002487D01*
X029654Y003676D01*
X029812Y003833D02*
X029834Y003831D01*
X029856Y003827D01*
X029877Y003819D01*
X029897Y003808D01*
X029915Y003795D01*
X029931Y003779D01*
X029944Y003761D01*
X029955Y003741D01*
X029963Y003720D01*
X029967Y003698D01*
X029969Y003676D01*
X029969Y002487D01*
X029971Y002448D01*
X029977Y002410D01*
X029986Y002373D01*
X029999Y002336D01*
X030016Y002301D01*
X030035Y002268D01*
X030058Y002237D01*
X030084Y002208D01*
X030113Y002182D01*
X030144Y002159D01*
X030177Y002140D01*
X030212Y002123D01*
X030249Y002110D01*
X030286Y002101D01*
X030324Y002095D01*
X030363Y002093D01*
X031426Y002192D02*
X031428Y002211D01*
X031433Y002230D01*
X031443Y002246D01*
X031455Y002261D01*
X031470Y002273D01*
X031486Y002283D01*
X031505Y002288D01*
X031524Y002290D01*
X031543Y002288D01*
X031562Y002283D01*
X031578Y002273D01*
X031593Y002261D01*
X031605Y002246D01*
X031615Y002230D01*
X031620Y002211D01*
X031622Y002192D01*
X031620Y002173D01*
X031615Y002154D01*
X031605Y002138D01*
X031593Y002123D01*
X031578Y002111D01*
X031562Y002101D01*
X031543Y002096D01*
X031524Y002094D01*
X031505Y002096D01*
X031486Y002101D01*
X031470Y002111D01*
X031455Y002123D01*
X031443Y002138D01*
X031433Y002154D01*
X031428Y002173D01*
X031426Y002192D01*
X031820Y002192D02*
X031822Y002211D01*
X031827Y002230D01*
X031837Y002246D01*
X031849Y002261D01*
X031864Y002273D01*
X031880Y002283D01*
X031899Y002288D01*
X031918Y002290D01*
X031937Y002288D01*
X031956Y002283D01*
X031972Y002273D01*
X031987Y002261D01*
X031999Y002246D01*
X032009Y002230D01*
X032014Y002211D01*
X032016Y002192D01*
X032014Y002173D01*
X032009Y002154D01*
X031999Y002138D01*
X031987Y002123D01*
X031972Y002111D01*
X031956Y002101D01*
X031937Y002096D01*
X031918Y002094D01*
X031899Y002096D01*
X031880Y002101D01*
X031864Y002111D01*
X031849Y002123D01*
X031837Y002138D01*
X031827Y002154D01*
X031822Y002173D01*
X031820Y002192D01*
X032214Y002192D02*
X032216Y002211D01*
X032221Y002230D01*
X032231Y002246D01*
X032243Y002261D01*
X032258Y002273D01*
X032274Y002283D01*
X032293Y002288D01*
X032312Y002290D01*
X032331Y002288D01*
X032350Y002283D01*
X032366Y002273D01*
X032381Y002261D01*
X032393Y002246D01*
X032403Y002230D01*
X032408Y002211D01*
X032410Y002192D01*
X032408Y002173D01*
X032403Y002154D01*
X032393Y002138D01*
X032381Y002123D01*
X032366Y002111D01*
X032350Y002101D01*
X032331Y002096D01*
X032312Y002094D01*
X032293Y002096D01*
X032274Y002101D01*
X032258Y002111D01*
X032243Y002123D01*
X032231Y002138D01*
X032221Y002154D01*
X032216Y002173D01*
X032214Y002192D01*
X032607Y002192D02*
X032609Y002211D01*
X032614Y002230D01*
X032624Y002246D01*
X032636Y002261D01*
X032651Y002273D01*
X032667Y002283D01*
X032686Y002288D01*
X032705Y002290D01*
X032724Y002288D01*
X032743Y002283D01*
X032759Y002273D01*
X032774Y002261D01*
X032786Y002246D01*
X032796Y002230D01*
X032801Y002211D01*
X032803Y002192D01*
X032801Y002173D01*
X032796Y002154D01*
X032786Y002138D01*
X032774Y002123D01*
X032759Y002111D01*
X032743Y002101D01*
X032724Y002096D01*
X032705Y002094D01*
X032686Y002096D01*
X032667Y002101D01*
X032651Y002111D01*
X032636Y002123D01*
X032624Y002138D01*
X032614Y002154D01*
X032609Y002173D01*
X032607Y002192D01*
X033001Y002192D02*
X033003Y002211D01*
X033008Y002230D01*
X033018Y002246D01*
X033030Y002261D01*
X033045Y002273D01*
X033061Y002283D01*
X033080Y002288D01*
X033099Y002290D01*
X033118Y002288D01*
X033137Y002283D01*
X033153Y002273D01*
X033168Y002261D01*
X033180Y002246D01*
X033190Y002230D01*
X033195Y002211D01*
X033197Y002192D01*
X033195Y002173D01*
X033190Y002154D01*
X033180Y002138D01*
X033168Y002123D01*
X033153Y002111D01*
X033137Y002101D01*
X033118Y002096D01*
X033099Y002094D01*
X033080Y002096D01*
X033061Y002101D01*
X033045Y002111D01*
X033030Y002123D01*
X033018Y002138D01*
X033008Y002154D01*
X033003Y002173D01*
X033001Y002192D01*
X034260Y002093D02*
X034299Y002095D01*
X034337Y002101D01*
X034374Y002110D01*
X034411Y002123D01*
X034446Y002140D01*
X034479Y002159D01*
X034510Y002182D01*
X034539Y002208D01*
X034565Y002237D01*
X034588Y002268D01*
X034607Y002301D01*
X034624Y002336D01*
X034637Y002373D01*
X034646Y002410D01*
X034652Y002448D01*
X034654Y002487D01*
X034654Y003676D01*
X034812Y003833D02*
X034834Y003831D01*
X034856Y003827D01*
X034877Y003819D01*
X034897Y003808D01*
X034915Y003795D01*
X034931Y003779D01*
X034944Y003761D01*
X034955Y003741D01*
X034963Y003720D01*
X034967Y003698D01*
X034969Y003676D01*
X034969Y002487D01*
X034971Y002448D01*
X034977Y002410D01*
X034986Y002373D01*
X034999Y002336D01*
X035016Y002301D01*
X035035Y002268D01*
X035058Y002237D01*
X035084Y002208D01*
X035113Y002182D01*
X035144Y002159D01*
X035177Y002140D01*
X035212Y002123D01*
X035249Y002110D01*
X035286Y002101D01*
X035324Y002095D01*
X035363Y002093D01*
X036426Y002192D02*
X036428Y002211D01*
X036433Y002230D01*
X036443Y002246D01*
X036455Y002261D01*
X036470Y002273D01*
X036486Y002283D01*
X036505Y002288D01*
X036524Y002290D01*
X036543Y002288D01*
X036562Y002283D01*
X036578Y002273D01*
X036593Y002261D01*
X036605Y002246D01*
X036615Y002230D01*
X036620Y002211D01*
X036622Y002192D01*
X036620Y002173D01*
X036615Y002154D01*
X036605Y002138D01*
X036593Y002123D01*
X036578Y002111D01*
X036562Y002101D01*
X036543Y002096D01*
X036524Y002094D01*
X036505Y002096D01*
X036486Y002101D01*
X036470Y002111D01*
X036455Y002123D01*
X036443Y002138D01*
X036433Y002154D01*
X036428Y002173D01*
X036426Y002192D01*
X036820Y002192D02*
X036822Y002211D01*
X036827Y002230D01*
X036837Y002246D01*
X036849Y002261D01*
X036864Y002273D01*
X036880Y002283D01*
X036899Y002288D01*
X036918Y002290D01*
X036937Y002288D01*
X036956Y002283D01*
X036972Y002273D01*
X036987Y002261D01*
X036999Y002246D01*
X037009Y002230D01*
X037014Y002211D01*
X037016Y002192D01*
X037014Y002173D01*
X037009Y002154D01*
X036999Y002138D01*
X036987Y002123D01*
X036972Y002111D01*
X036956Y002101D01*
X036937Y002096D01*
X036918Y002094D01*
X036899Y002096D01*
X036880Y002101D01*
X036864Y002111D01*
X036849Y002123D01*
X036837Y002138D01*
X036827Y002154D01*
X036822Y002173D01*
X036820Y002192D01*
X037214Y002192D02*
X037216Y002211D01*
X037221Y002230D01*
X037231Y002246D01*
X037243Y002261D01*
X037258Y002273D01*
X037274Y002283D01*
X037293Y002288D01*
X037312Y002290D01*
X037331Y002288D01*
X037350Y002283D01*
X037366Y002273D01*
X037381Y002261D01*
X037393Y002246D01*
X037403Y002230D01*
X037408Y002211D01*
X037410Y002192D01*
X037408Y002173D01*
X037403Y002154D01*
X037393Y002138D01*
X037381Y002123D01*
X037366Y002111D01*
X037350Y002101D01*
X037331Y002096D01*
X037312Y002094D01*
X037293Y002096D01*
X037274Y002101D01*
X037258Y002111D01*
X037243Y002123D01*
X037231Y002138D01*
X037221Y002154D01*
X037216Y002173D01*
X037214Y002192D01*
X037607Y002192D02*
X037609Y002211D01*
X037614Y002230D01*
X037624Y002246D01*
X037636Y002261D01*
X037651Y002273D01*
X037667Y002283D01*
X037686Y002288D01*
X037705Y002290D01*
X037724Y002288D01*
X037743Y002283D01*
X037759Y002273D01*
X037774Y002261D01*
X037786Y002246D01*
X037796Y002230D01*
X037801Y002211D01*
X037803Y002192D01*
X037801Y002173D01*
X037796Y002154D01*
X037786Y002138D01*
X037774Y002123D01*
X037759Y002111D01*
X037743Y002101D01*
X037724Y002096D01*
X037705Y002094D01*
X037686Y002096D01*
X037667Y002101D01*
X037651Y002111D01*
X037636Y002123D01*
X037624Y002138D01*
X037614Y002154D01*
X037609Y002173D01*
X037607Y002192D01*
X038001Y002192D02*
X038003Y002211D01*
X038008Y002230D01*
X038018Y002246D01*
X038030Y002261D01*
X038045Y002273D01*
X038061Y002283D01*
X038080Y002288D01*
X038099Y002290D01*
X038118Y002288D01*
X038137Y002283D01*
X038153Y002273D01*
X038168Y002261D01*
X038180Y002246D01*
X038190Y002230D01*
X038195Y002211D01*
X038197Y002192D01*
X038195Y002173D01*
X038190Y002154D01*
X038180Y002138D01*
X038168Y002123D01*
X038153Y002111D01*
X038137Y002101D01*
X038118Y002096D01*
X038099Y002094D01*
X038080Y002096D01*
X038061Y002101D01*
X038045Y002111D01*
X038030Y002123D01*
X038018Y002138D01*
X038008Y002154D01*
X038003Y002173D01*
X038001Y002192D01*
X039260Y002093D02*
X039299Y002095D01*
X039337Y002101D01*
X039374Y002110D01*
X039411Y002123D01*
X039446Y002140D01*
X039479Y002159D01*
X039510Y002182D01*
X039539Y002208D01*
X039565Y002237D01*
X039588Y002268D01*
X039607Y002301D01*
X039624Y002336D01*
X039637Y002373D01*
X039646Y002410D01*
X039652Y002448D01*
X039654Y002487D01*
X039654Y003676D01*
X039812Y003833D02*
X039834Y003831D01*
X039856Y003827D01*
X039877Y003819D01*
X039897Y003808D01*
X039915Y003795D01*
X039931Y003779D01*
X039944Y003761D01*
X039955Y003741D01*
X039963Y003720D01*
X039967Y003698D01*
X039969Y003676D01*
X039969Y002487D01*
X039971Y002448D01*
X039977Y002410D01*
X039986Y002373D01*
X039999Y002336D01*
X040016Y002301D01*
X040035Y002268D01*
X040058Y002237D01*
X040084Y002208D01*
X040113Y002182D01*
X040144Y002159D01*
X040177Y002140D01*
X040212Y002123D01*
X040249Y002110D01*
X040286Y002101D01*
X040324Y002095D01*
X040363Y002093D01*
X041426Y002192D02*
X041428Y002211D01*
X041433Y002230D01*
X041443Y002246D01*
X041455Y002261D01*
X041470Y002273D01*
X041486Y002283D01*
X041505Y002288D01*
X041524Y002290D01*
X041543Y002288D01*
X041562Y002283D01*
X041578Y002273D01*
X041593Y002261D01*
X041605Y002246D01*
X041615Y002230D01*
X041620Y002211D01*
X041622Y002192D01*
X041620Y002173D01*
X041615Y002154D01*
X041605Y002138D01*
X041593Y002123D01*
X041578Y002111D01*
X041562Y002101D01*
X041543Y002096D01*
X041524Y002094D01*
X041505Y002096D01*
X041486Y002101D01*
X041470Y002111D01*
X041455Y002123D01*
X041443Y002138D01*
X041433Y002154D01*
X041428Y002173D01*
X041426Y002192D01*
X041820Y002192D02*
X041822Y002211D01*
X041827Y002230D01*
X041837Y002246D01*
X041849Y002261D01*
X041864Y002273D01*
X041880Y002283D01*
X041899Y002288D01*
X041918Y002290D01*
X041937Y002288D01*
X041956Y002283D01*
X041972Y002273D01*
X041987Y002261D01*
X041999Y002246D01*
X042009Y002230D01*
X042014Y002211D01*
X042016Y002192D01*
X042014Y002173D01*
X042009Y002154D01*
X041999Y002138D01*
X041987Y002123D01*
X041972Y002111D01*
X041956Y002101D01*
X041937Y002096D01*
X041918Y002094D01*
X041899Y002096D01*
X041880Y002101D01*
X041864Y002111D01*
X041849Y002123D01*
X041837Y002138D01*
X041827Y002154D01*
X041822Y002173D01*
X041820Y002192D01*
X042214Y002192D02*
X042216Y002211D01*
X042221Y002230D01*
X042231Y002246D01*
X042243Y002261D01*
X042258Y002273D01*
X042274Y002283D01*
X042293Y002288D01*
X042312Y002290D01*
X042331Y002288D01*
X042350Y002283D01*
X042366Y002273D01*
X042381Y002261D01*
X042393Y002246D01*
X042403Y002230D01*
X042408Y002211D01*
X042410Y002192D01*
X042408Y002173D01*
X042403Y002154D01*
X042393Y002138D01*
X042381Y002123D01*
X042366Y002111D01*
X042350Y002101D01*
X042331Y002096D01*
X042312Y002094D01*
X042293Y002096D01*
X042274Y002101D01*
X042258Y002111D01*
X042243Y002123D01*
X042231Y002138D01*
X042221Y002154D01*
X042216Y002173D01*
X042214Y002192D01*
X042607Y002192D02*
X042609Y002211D01*
X042614Y002230D01*
X042624Y002246D01*
X042636Y002261D01*
X042651Y002273D01*
X042667Y002283D01*
X042686Y002288D01*
X042705Y002290D01*
X042724Y002288D01*
X042743Y002283D01*
X042759Y002273D01*
X042774Y002261D01*
X042786Y002246D01*
X042796Y002230D01*
X042801Y002211D01*
X042803Y002192D01*
X042801Y002173D01*
X042796Y002154D01*
X042786Y002138D01*
X042774Y002123D01*
X042759Y002111D01*
X042743Y002101D01*
X042724Y002096D01*
X042705Y002094D01*
X042686Y002096D01*
X042667Y002101D01*
X042651Y002111D01*
X042636Y002123D01*
X042624Y002138D01*
X042614Y002154D01*
X042609Y002173D01*
X042607Y002192D01*
X043001Y002192D02*
X043003Y002211D01*
X043008Y002230D01*
X043018Y002246D01*
X043030Y002261D01*
X043045Y002273D01*
X043061Y002283D01*
X043080Y002288D01*
X043099Y002290D01*
X043118Y002288D01*
X043137Y002283D01*
X043153Y002273D01*
X043168Y002261D01*
X043180Y002246D01*
X043190Y002230D01*
X043195Y002211D01*
X043197Y002192D01*
X043195Y002173D01*
X043190Y002154D01*
X043180Y002138D01*
X043168Y002123D01*
X043153Y002111D01*
X043137Y002101D01*
X043118Y002096D01*
X043099Y002094D01*
X043080Y002096D01*
X043061Y002101D01*
X043045Y002111D01*
X043030Y002123D01*
X043018Y002138D01*
X043008Y002154D01*
X043003Y002173D01*
X043001Y002192D01*
X044260Y002093D02*
X044299Y002095D01*
X044337Y002101D01*
X044374Y002110D01*
X044411Y002123D01*
X044446Y002140D01*
X044479Y002159D01*
X044510Y002182D01*
X044539Y002208D01*
X044565Y002237D01*
X044588Y002268D01*
X044607Y002301D01*
X044624Y002336D01*
X044637Y002373D01*
X044646Y002410D01*
X044652Y002448D01*
X044654Y002487D01*
X044654Y003676D01*
X044812Y003833D02*
X044834Y003831D01*
X044856Y003827D01*
X044877Y003819D01*
X044897Y003808D01*
X044915Y003795D01*
X044931Y003779D01*
X044944Y003761D01*
X044955Y003741D01*
X044963Y003720D01*
X044967Y003698D01*
X044969Y003676D01*
X044969Y002487D01*
X044971Y002448D01*
X044977Y002410D01*
X044986Y002373D01*
X044999Y002336D01*
X045016Y002301D01*
X045035Y002268D01*
X045058Y002237D01*
X045084Y002208D01*
X045113Y002182D01*
X045144Y002159D01*
X045177Y002140D01*
X045212Y002123D01*
X045249Y002110D01*
X045286Y002101D01*
X045324Y002095D01*
X045363Y002093D01*
X046426Y002192D02*
X046428Y002211D01*
X046433Y002230D01*
X046443Y002246D01*
X046455Y002261D01*
X046470Y002273D01*
X046486Y002283D01*
X046505Y002288D01*
X046524Y002290D01*
X046543Y002288D01*
X046562Y002283D01*
X046578Y002273D01*
X046593Y002261D01*
X046605Y002246D01*
X046615Y002230D01*
X046620Y002211D01*
X046622Y002192D01*
X046620Y002173D01*
X046615Y002154D01*
X046605Y002138D01*
X046593Y002123D01*
X046578Y002111D01*
X046562Y002101D01*
X046543Y002096D01*
X046524Y002094D01*
X046505Y002096D01*
X046486Y002101D01*
X046470Y002111D01*
X046455Y002123D01*
X046443Y002138D01*
X046433Y002154D01*
X046428Y002173D01*
X046426Y002192D01*
X046820Y002192D02*
X046822Y002211D01*
X046827Y002230D01*
X046837Y002246D01*
X046849Y002261D01*
X046864Y002273D01*
X046880Y002283D01*
X046899Y002288D01*
X046918Y002290D01*
X046937Y002288D01*
X046956Y002283D01*
X046972Y002273D01*
X046987Y002261D01*
X046999Y002246D01*
X047009Y002230D01*
X047014Y002211D01*
X047016Y002192D01*
X047014Y002173D01*
X047009Y002154D01*
X046999Y002138D01*
X046987Y002123D01*
X046972Y002111D01*
X046956Y002101D01*
X046937Y002096D01*
X046918Y002094D01*
X046899Y002096D01*
X046880Y002101D01*
X046864Y002111D01*
X046849Y002123D01*
X046837Y002138D01*
X046827Y002154D01*
X046822Y002173D01*
X046820Y002192D01*
X047214Y002192D02*
X047216Y002211D01*
X047221Y002230D01*
X047231Y002246D01*
X047243Y002261D01*
X047258Y002273D01*
X047274Y002283D01*
X047293Y002288D01*
X047312Y002290D01*
X047331Y002288D01*
X047350Y002283D01*
X047366Y002273D01*
X047381Y002261D01*
X047393Y002246D01*
X047403Y002230D01*
X047408Y002211D01*
X047410Y002192D01*
X047408Y002173D01*
X047403Y002154D01*
X047393Y002138D01*
X047381Y002123D01*
X047366Y002111D01*
X047350Y002101D01*
X047331Y002096D01*
X047312Y002094D01*
X047293Y002096D01*
X047274Y002101D01*
X047258Y002111D01*
X047243Y002123D01*
X047231Y002138D01*
X047221Y002154D01*
X047216Y002173D01*
X047214Y002192D01*
X047607Y002192D02*
X047609Y002211D01*
X047614Y002230D01*
X047624Y002246D01*
X047636Y002261D01*
X047651Y002273D01*
X047667Y002283D01*
X047686Y002288D01*
X047705Y002290D01*
X047724Y002288D01*
X047743Y002283D01*
X047759Y002273D01*
X047774Y002261D01*
X047786Y002246D01*
X047796Y002230D01*
X047801Y002211D01*
X047803Y002192D01*
X047801Y002173D01*
X047796Y002154D01*
X047786Y002138D01*
X047774Y002123D01*
X047759Y002111D01*
X047743Y002101D01*
X047724Y002096D01*
X047705Y002094D01*
X047686Y002096D01*
X047667Y002101D01*
X047651Y002111D01*
X047636Y002123D01*
X047624Y002138D01*
X047614Y002154D01*
X047609Y002173D01*
X047607Y002192D01*
X048001Y002192D02*
X048003Y002211D01*
X048008Y002230D01*
X048018Y002246D01*
X048030Y002261D01*
X048045Y002273D01*
X048061Y002283D01*
X048080Y002288D01*
X048099Y002290D01*
X048118Y002288D01*
X048137Y002283D01*
X048153Y002273D01*
X048168Y002261D01*
X048180Y002246D01*
X048190Y002230D01*
X048195Y002211D01*
X048197Y002192D01*
X048195Y002173D01*
X048190Y002154D01*
X048180Y002138D01*
X048168Y002123D01*
X048153Y002111D01*
X048137Y002101D01*
X048118Y002096D01*
X048099Y002094D01*
X048080Y002096D01*
X048061Y002101D01*
X048045Y002111D01*
X048030Y002123D01*
X048018Y002138D01*
X048008Y002154D01*
X048003Y002173D01*
X048001Y002192D01*
X049260Y002093D02*
X049299Y002095D01*
X049337Y002101D01*
X049374Y002110D01*
X049411Y002123D01*
X049446Y002140D01*
X049479Y002159D01*
X049510Y002182D01*
X049539Y002208D01*
X049565Y002237D01*
X049588Y002268D01*
X049607Y002301D01*
X049624Y002336D01*
X049637Y002373D01*
X049646Y002410D01*
X049652Y002448D01*
X049654Y002487D01*
X049654Y003676D01*
X049800Y003833D02*
X049822Y003831D01*
X049844Y003827D01*
X049865Y003819D01*
X049885Y003808D01*
X049903Y003795D01*
X049919Y003779D01*
X049932Y003761D01*
X049943Y003741D01*
X049951Y003720D01*
X049955Y003698D01*
X049957Y003676D01*
X049957Y002487D01*
X049959Y002448D01*
X049965Y002410D01*
X049974Y002373D01*
X049987Y002336D01*
X050004Y002301D01*
X050023Y002268D01*
X050046Y002237D01*
X050072Y002208D01*
X050101Y002182D01*
X050132Y002159D01*
X050165Y002140D01*
X050200Y002123D01*
X050237Y002110D01*
X050274Y002101D01*
X050312Y002095D01*
X050351Y002093D01*
X051670Y001306D02*
X051672Y001356D01*
X051678Y001406D01*
X051688Y001455D01*
X051702Y001503D01*
X051719Y001550D01*
X051740Y001595D01*
X051765Y001639D01*
X051793Y001680D01*
X051825Y001719D01*
X051859Y001756D01*
X051896Y001790D01*
X051936Y001820D01*
X051978Y001847D01*
X052022Y001871D01*
X052068Y001892D01*
X052115Y001908D01*
X052163Y001921D01*
X052213Y001930D01*
X052262Y001935D01*
X052313Y001936D01*
X052363Y001933D01*
X052412Y001926D01*
X052461Y001915D01*
X052509Y001900D01*
X052555Y001882D01*
X052600Y001860D01*
X052643Y001834D01*
X052684Y001805D01*
X052723Y001773D01*
X052759Y001738D01*
X052791Y001700D01*
X052821Y001660D01*
X052848Y001617D01*
X052871Y001573D01*
X052890Y001527D01*
X052906Y001479D01*
X052918Y001430D01*
X052926Y001381D01*
X052930Y001331D01*
X052930Y001281D01*
X052926Y001231D01*
X052918Y001182D01*
X052906Y001133D01*
X052890Y001085D01*
X052871Y001039D01*
X052848Y000995D01*
X052821Y000952D01*
X052791Y000912D01*
X052759Y000874D01*
X052723Y000839D01*
X052684Y000807D01*
X052643Y000778D01*
X052600Y000752D01*
X052555Y000730D01*
X052509Y000712D01*
X052461Y000697D01*
X052412Y000686D01*
X052363Y000679D01*
X052313Y000676D01*
X052262Y000677D01*
X052213Y000682D01*
X052163Y000691D01*
X052115Y000704D01*
X052068Y000720D01*
X052022Y000741D01*
X051978Y000765D01*
X051936Y000792D01*
X051896Y000822D01*
X051859Y000856D01*
X051825Y000893D01*
X051793Y000932D01*
X051765Y000973D01*
X051740Y001017D01*
X051719Y001062D01*
X051702Y001109D01*
X051688Y001157D01*
X051678Y001206D01*
X051672Y001256D01*
X051670Y001306D01*
X048099Y001306D02*
X048097Y001251D01*
X048091Y001196D01*
X048082Y001142D01*
X048069Y001089D01*
X048052Y001037D01*
X048031Y000986D01*
X048007Y000937D01*
X047979Y000889D01*
X047949Y000843D01*
X047915Y000800D01*
X047878Y000759D01*
X047839Y000721D01*
X047797Y000686D01*
X047752Y000654D01*
X047706Y000624D01*
X047657Y000599D01*
X047607Y000576D01*
X047555Y000558D01*
X047502Y000542D01*
X047449Y000531D01*
X047394Y000523D01*
X047339Y000519D01*
X047285Y000519D01*
X047230Y000523D01*
X047175Y000531D01*
X047122Y000542D01*
X047069Y000558D01*
X047017Y000576D01*
X046967Y000599D01*
X046919Y000624D01*
X046872Y000654D01*
X046827Y000686D01*
X046785Y000721D01*
X046746Y000759D01*
X046709Y000800D01*
X046675Y000843D01*
X046645Y000889D01*
X046617Y000937D01*
X046593Y000986D01*
X046572Y001037D01*
X046555Y001089D01*
X046542Y001142D01*
X046533Y001196D01*
X046527Y001251D01*
X046525Y001306D01*
X043099Y001306D02*
X043097Y001251D01*
X043091Y001196D01*
X043082Y001142D01*
X043069Y001089D01*
X043052Y001037D01*
X043031Y000986D01*
X043007Y000937D01*
X042979Y000889D01*
X042949Y000843D01*
X042915Y000800D01*
X042878Y000759D01*
X042839Y000721D01*
X042797Y000686D01*
X042752Y000654D01*
X042706Y000624D01*
X042657Y000599D01*
X042607Y000576D01*
X042555Y000558D01*
X042502Y000542D01*
X042449Y000531D01*
X042394Y000523D01*
X042339Y000519D01*
X042285Y000519D01*
X042230Y000523D01*
X042175Y000531D01*
X042122Y000542D01*
X042069Y000558D01*
X042017Y000576D01*
X041967Y000599D01*
X041919Y000624D01*
X041872Y000654D01*
X041827Y000686D01*
X041785Y000721D01*
X041746Y000759D01*
X041709Y000800D01*
X041675Y000843D01*
X041645Y000889D01*
X041617Y000937D01*
X041593Y000986D01*
X041572Y001037D01*
X041555Y001089D01*
X041542Y001142D01*
X041533Y001196D01*
X041527Y001251D01*
X041525Y001306D01*
X038099Y001306D02*
X038097Y001251D01*
X038091Y001196D01*
X038082Y001142D01*
X038069Y001089D01*
X038052Y001037D01*
X038031Y000986D01*
X038007Y000937D01*
X037979Y000889D01*
X037949Y000843D01*
X037915Y000800D01*
X037878Y000759D01*
X037839Y000721D01*
X037797Y000686D01*
X037752Y000654D01*
X037706Y000624D01*
X037657Y000599D01*
X037607Y000576D01*
X037555Y000558D01*
X037502Y000542D01*
X037449Y000531D01*
X037394Y000523D01*
X037339Y000519D01*
X037285Y000519D01*
X037230Y000523D01*
X037175Y000531D01*
X037122Y000542D01*
X037069Y000558D01*
X037017Y000576D01*
X036967Y000599D01*
X036919Y000624D01*
X036872Y000654D01*
X036827Y000686D01*
X036785Y000721D01*
X036746Y000759D01*
X036709Y000800D01*
X036675Y000843D01*
X036645Y000889D01*
X036617Y000937D01*
X036593Y000986D01*
X036572Y001037D01*
X036555Y001089D01*
X036542Y001142D01*
X036533Y001196D01*
X036527Y001251D01*
X036525Y001306D01*
X033099Y001306D02*
X033097Y001251D01*
X033091Y001196D01*
X033082Y001142D01*
X033069Y001089D01*
X033052Y001037D01*
X033031Y000986D01*
X033007Y000937D01*
X032979Y000889D01*
X032949Y000843D01*
X032915Y000800D01*
X032878Y000759D01*
X032839Y000721D01*
X032797Y000686D01*
X032752Y000654D01*
X032706Y000624D01*
X032657Y000599D01*
X032607Y000576D01*
X032555Y000558D01*
X032502Y000542D01*
X032449Y000531D01*
X032394Y000523D01*
X032339Y000519D01*
X032285Y000519D01*
X032230Y000523D01*
X032175Y000531D01*
X032122Y000542D01*
X032069Y000558D01*
X032017Y000576D01*
X031967Y000599D01*
X031919Y000624D01*
X031872Y000654D01*
X031827Y000686D01*
X031785Y000721D01*
X031746Y000759D01*
X031709Y000800D01*
X031675Y000843D01*
X031645Y000889D01*
X031617Y000937D01*
X031593Y000986D01*
X031572Y001037D01*
X031555Y001089D01*
X031542Y001142D01*
X031533Y001196D01*
X031527Y001251D01*
X031525Y001306D01*
X028099Y001306D02*
X028097Y001251D01*
X028091Y001196D01*
X028082Y001142D01*
X028069Y001089D01*
X028052Y001037D01*
X028031Y000986D01*
X028007Y000937D01*
X027979Y000889D01*
X027949Y000843D01*
X027915Y000800D01*
X027878Y000759D01*
X027839Y000721D01*
X027797Y000686D01*
X027752Y000654D01*
X027706Y000624D01*
X027657Y000599D01*
X027607Y000576D01*
X027555Y000558D01*
X027502Y000542D01*
X027449Y000531D01*
X027394Y000523D01*
X027339Y000519D01*
X027285Y000519D01*
X027230Y000523D01*
X027175Y000531D01*
X027122Y000542D01*
X027069Y000558D01*
X027017Y000576D01*
X026967Y000599D01*
X026919Y000624D01*
X026872Y000654D01*
X026827Y000686D01*
X026785Y000721D01*
X026746Y000759D01*
X026709Y000800D01*
X026675Y000843D01*
X026645Y000889D01*
X026617Y000937D01*
X026593Y000986D01*
X026572Y001037D01*
X026555Y001089D01*
X026542Y001142D01*
X026533Y001196D01*
X026527Y001251D01*
X026525Y001306D01*
X023099Y001306D02*
X023097Y001251D01*
X023091Y001196D01*
X023082Y001142D01*
X023069Y001089D01*
X023052Y001037D01*
X023031Y000986D01*
X023007Y000937D01*
X022979Y000889D01*
X022949Y000843D01*
X022915Y000800D01*
X022878Y000759D01*
X022839Y000721D01*
X022797Y000686D01*
X022752Y000654D01*
X022706Y000624D01*
X022657Y000599D01*
X022607Y000576D01*
X022555Y000558D01*
X022502Y000542D01*
X022449Y000531D01*
X022394Y000523D01*
X022339Y000519D01*
X022285Y000519D01*
X022230Y000523D01*
X022175Y000531D01*
X022122Y000542D01*
X022069Y000558D01*
X022017Y000576D01*
X021967Y000599D01*
X021919Y000624D01*
X021872Y000654D01*
X021827Y000686D01*
X021785Y000721D01*
X021746Y000759D01*
X021709Y000800D01*
X021675Y000843D01*
X021645Y000889D01*
X021617Y000937D01*
X021593Y000986D01*
X021572Y001037D01*
X021555Y001089D01*
X021542Y001142D01*
X021533Y001196D01*
X021527Y001251D01*
X021525Y001306D01*
X018099Y001306D02*
X018097Y001251D01*
X018091Y001196D01*
X018082Y001142D01*
X018069Y001089D01*
X018052Y001037D01*
X018031Y000986D01*
X018007Y000937D01*
X017979Y000889D01*
X017949Y000843D01*
X017915Y000800D01*
X017878Y000759D01*
X017839Y000721D01*
X017797Y000686D01*
X017752Y000654D01*
X017706Y000624D01*
X017657Y000599D01*
X017607Y000576D01*
X017555Y000558D01*
X017502Y000542D01*
X017449Y000531D01*
X017394Y000523D01*
X017339Y000519D01*
X017285Y000519D01*
X017230Y000523D01*
X017175Y000531D01*
X017122Y000542D01*
X017069Y000558D01*
X017017Y000576D01*
X016967Y000599D01*
X016919Y000624D01*
X016872Y000654D01*
X016827Y000686D01*
X016785Y000721D01*
X016746Y000759D01*
X016709Y000800D01*
X016675Y000843D01*
X016645Y000889D01*
X016617Y000937D01*
X016593Y000986D01*
X016572Y001037D01*
X016555Y001089D01*
X016542Y001142D01*
X016533Y001196D01*
X016527Y001251D01*
X016525Y001306D01*
X013099Y001306D02*
X013097Y001251D01*
X013091Y001196D01*
X013082Y001142D01*
X013069Y001089D01*
X013052Y001037D01*
X013031Y000986D01*
X013007Y000937D01*
X012979Y000889D01*
X012949Y000843D01*
X012915Y000800D01*
X012878Y000759D01*
X012839Y000721D01*
X012797Y000686D01*
X012752Y000654D01*
X012706Y000624D01*
X012657Y000599D01*
X012607Y000576D01*
X012555Y000558D01*
X012502Y000542D01*
X012449Y000531D01*
X012394Y000523D01*
X012339Y000519D01*
X012285Y000519D01*
X012230Y000523D01*
X012175Y000531D01*
X012122Y000542D01*
X012069Y000558D01*
X012017Y000576D01*
X011967Y000599D01*
X011919Y000624D01*
X011872Y000654D01*
X011827Y000686D01*
X011785Y000721D01*
X011746Y000759D01*
X011709Y000800D01*
X011675Y000843D01*
X011645Y000889D01*
X011617Y000937D01*
X011593Y000986D01*
X011572Y001037D01*
X011555Y001089D01*
X011542Y001142D01*
X011533Y001196D01*
X011527Y001251D01*
X011525Y001306D01*
X010363Y002093D02*
X010324Y002095D01*
X010286Y002101D01*
X010249Y002110D01*
X010212Y002123D01*
X010177Y002140D01*
X010144Y002159D01*
X010113Y002182D01*
X010084Y002208D01*
X010058Y002237D01*
X010035Y002268D01*
X010016Y002301D01*
X009999Y002336D01*
X009986Y002373D01*
X009977Y002410D01*
X009971Y002448D01*
X009969Y002487D01*
X009969Y003676D01*
X009967Y003698D01*
X009963Y003720D01*
X009955Y003741D01*
X009944Y003761D01*
X009931Y003779D01*
X009915Y003795D01*
X009897Y003808D01*
X009877Y003819D01*
X009856Y003827D01*
X009834Y003831D01*
X009812Y003833D01*
X009800Y003833D02*
X009778Y003831D01*
X009756Y003827D01*
X009735Y003819D01*
X009715Y003808D01*
X009697Y003795D01*
X009681Y003779D01*
X009668Y003761D01*
X009657Y003741D01*
X009649Y003720D01*
X009645Y003698D01*
X009643Y003676D01*
X009642Y003676D02*
X009642Y002487D01*
X009643Y002487D02*
X009641Y002448D01*
X009635Y002410D01*
X009626Y002373D01*
X009613Y002336D01*
X009596Y002301D01*
X009577Y002268D01*
X009554Y002237D01*
X009528Y002208D01*
X009499Y002182D01*
X009468Y002159D01*
X009435Y002140D01*
X009400Y002123D01*
X009363Y002110D01*
X009326Y002101D01*
X009288Y002095D01*
X009249Y002093D01*
X014655Y003676D02*
X014657Y003698D01*
X014661Y003720D01*
X014669Y003741D01*
X014680Y003761D01*
X014693Y003779D01*
X014709Y003795D01*
X014727Y003808D01*
X014747Y003819D01*
X014768Y003827D01*
X014790Y003831D01*
X014812Y003833D01*
X014714Y004334D02*
X014716Y004353D01*
X014721Y004372D01*
X014731Y004388D01*
X014743Y004403D01*
X014758Y004415D01*
X014774Y004425D01*
X014793Y004430D01*
X014812Y004432D01*
X014831Y004430D01*
X014850Y004425D01*
X014866Y004415D01*
X014881Y004403D01*
X014893Y004388D01*
X014903Y004372D01*
X014908Y004353D01*
X014910Y004334D01*
X014908Y004315D01*
X014903Y004296D01*
X014893Y004280D01*
X014881Y004265D01*
X014866Y004253D01*
X014850Y004243D01*
X014831Y004238D01*
X014812Y004236D01*
X014793Y004238D01*
X014774Y004243D01*
X014758Y004253D01*
X014743Y004265D01*
X014731Y004280D01*
X014721Y004296D01*
X014716Y004315D01*
X014714Y004334D01*
X014714Y004834D02*
X014716Y004853D01*
X014721Y004872D01*
X014731Y004888D01*
X014743Y004903D01*
X014758Y004915D01*
X014774Y004925D01*
X014793Y004930D01*
X014812Y004932D01*
X014831Y004930D01*
X014850Y004925D01*
X014866Y004915D01*
X014881Y004903D01*
X014893Y004888D01*
X014903Y004872D01*
X014908Y004853D01*
X014910Y004834D01*
X014908Y004815D01*
X014903Y004796D01*
X014893Y004780D01*
X014881Y004765D01*
X014866Y004753D01*
X014850Y004743D01*
X014831Y004738D01*
X014812Y004736D01*
X014793Y004738D01*
X014774Y004743D01*
X014758Y004753D01*
X014743Y004765D01*
X014731Y004780D01*
X014721Y004796D01*
X014716Y004815D01*
X014714Y004834D01*
X014714Y005334D02*
X014716Y005353D01*
X014721Y005372D01*
X014731Y005388D01*
X014743Y005403D01*
X014758Y005415D01*
X014774Y005425D01*
X014793Y005430D01*
X014812Y005432D01*
X014831Y005430D01*
X014850Y005425D01*
X014866Y005415D01*
X014881Y005403D01*
X014893Y005388D01*
X014903Y005372D01*
X014908Y005353D01*
X014910Y005334D01*
X014908Y005315D01*
X014903Y005296D01*
X014893Y005280D01*
X014881Y005265D01*
X014866Y005253D01*
X014850Y005243D01*
X014831Y005238D01*
X014812Y005236D01*
X014793Y005238D01*
X014774Y005243D01*
X014758Y005253D01*
X014743Y005265D01*
X014731Y005280D01*
X014721Y005296D01*
X014716Y005315D01*
X014714Y005334D01*
X014714Y005834D02*
X014716Y005853D01*
X014721Y005872D01*
X014731Y005888D01*
X014743Y005903D01*
X014758Y005915D01*
X014774Y005925D01*
X014793Y005930D01*
X014812Y005932D01*
X014831Y005930D01*
X014850Y005925D01*
X014866Y005915D01*
X014881Y005903D01*
X014893Y005888D01*
X014903Y005872D01*
X014908Y005853D01*
X014910Y005834D01*
X014908Y005815D01*
X014903Y005796D01*
X014893Y005780D01*
X014881Y005765D01*
X014866Y005753D01*
X014850Y005743D01*
X014831Y005738D01*
X014812Y005736D01*
X014793Y005738D01*
X014774Y005743D01*
X014758Y005753D01*
X014743Y005765D01*
X014731Y005780D01*
X014721Y005796D01*
X014716Y005815D01*
X014714Y005834D01*
X014714Y006334D02*
X014716Y006353D01*
X014721Y006372D01*
X014731Y006388D01*
X014743Y006403D01*
X014758Y006415D01*
X014774Y006425D01*
X014793Y006430D01*
X014812Y006432D01*
X014831Y006430D01*
X014850Y006425D01*
X014866Y006415D01*
X014881Y006403D01*
X014893Y006388D01*
X014903Y006372D01*
X014908Y006353D01*
X014910Y006334D01*
X014908Y006315D01*
X014903Y006296D01*
X014893Y006280D01*
X014881Y006265D01*
X014866Y006253D01*
X014850Y006243D01*
X014831Y006238D01*
X014812Y006236D01*
X014793Y006238D01*
X014774Y006243D01*
X014758Y006253D01*
X014743Y006265D01*
X014731Y006280D01*
X014721Y006296D01*
X014716Y006315D01*
X014714Y006334D01*
X014714Y006834D02*
X014716Y006853D01*
X014721Y006872D01*
X014731Y006888D01*
X014743Y006903D01*
X014758Y006915D01*
X014774Y006925D01*
X014793Y006930D01*
X014812Y006932D01*
X014831Y006930D01*
X014850Y006925D01*
X014866Y006915D01*
X014881Y006903D01*
X014893Y006888D01*
X014903Y006872D01*
X014908Y006853D01*
X014910Y006834D01*
X014908Y006815D01*
X014903Y006796D01*
X014893Y006780D01*
X014881Y006765D01*
X014866Y006753D01*
X014850Y006743D01*
X014831Y006738D01*
X014812Y006736D01*
X014793Y006738D01*
X014774Y006743D01*
X014758Y006753D01*
X014743Y006765D01*
X014731Y006780D01*
X014721Y006796D01*
X014716Y006815D01*
X014714Y006834D01*
X014714Y007334D02*
X014716Y007353D01*
X014721Y007372D01*
X014731Y007388D01*
X014743Y007403D01*
X014758Y007415D01*
X014774Y007425D01*
X014793Y007430D01*
X014812Y007432D01*
X014831Y007430D01*
X014850Y007425D01*
X014866Y007415D01*
X014881Y007403D01*
X014893Y007388D01*
X014903Y007372D01*
X014908Y007353D01*
X014910Y007334D01*
X014908Y007315D01*
X014903Y007296D01*
X014893Y007280D01*
X014881Y007265D01*
X014866Y007253D01*
X014850Y007243D01*
X014831Y007238D01*
X014812Y007236D01*
X014793Y007238D01*
X014774Y007243D01*
X014758Y007253D01*
X014743Y007265D01*
X014731Y007280D01*
X014721Y007296D01*
X014716Y007315D01*
X014714Y007334D01*
X014654Y007991D02*
X014654Y009180D01*
X014969Y009180D02*
X014969Y007991D01*
X014967Y007969D01*
X014963Y007947D01*
X014955Y007926D01*
X014944Y007906D01*
X014931Y007888D01*
X014915Y007872D01*
X014897Y007859D01*
X014877Y007848D01*
X014856Y007840D01*
X014834Y007836D01*
X014812Y007834D01*
X014790Y007836D01*
X014768Y007840D01*
X014747Y007848D01*
X014727Y007859D01*
X014709Y007872D01*
X014693Y007888D01*
X014680Y007906D01*
X014669Y007926D01*
X014661Y007947D01*
X014657Y007969D01*
X014655Y007991D01*
X009969Y007991D02*
X009969Y009180D01*
X009642Y009180D02*
X009642Y007991D01*
X009643Y007991D02*
X009645Y007969D01*
X009649Y007947D01*
X009657Y007926D01*
X009668Y007906D01*
X009681Y007888D01*
X009697Y007872D01*
X009715Y007859D01*
X009735Y007848D01*
X009756Y007840D01*
X009778Y007836D01*
X009800Y007834D01*
X009812Y007834D02*
X009834Y007836D01*
X009856Y007840D01*
X009877Y007848D01*
X009897Y007859D01*
X009915Y007872D01*
X009931Y007888D01*
X009944Y007906D01*
X009955Y007926D01*
X009963Y007947D01*
X009967Y007969D01*
X009969Y007991D01*
X009702Y007334D02*
X009704Y007353D01*
X009709Y007372D01*
X009719Y007388D01*
X009731Y007403D01*
X009746Y007415D01*
X009762Y007425D01*
X009781Y007430D01*
X009800Y007432D01*
X009819Y007430D01*
X009838Y007425D01*
X009854Y007415D01*
X009869Y007403D01*
X009881Y007388D01*
X009891Y007372D01*
X009896Y007353D01*
X009898Y007334D01*
X009896Y007315D01*
X009891Y007296D01*
X009881Y007280D01*
X009869Y007265D01*
X009854Y007253D01*
X009838Y007243D01*
X009819Y007238D01*
X009800Y007236D01*
X009781Y007238D01*
X009762Y007243D01*
X009746Y007253D01*
X009731Y007265D01*
X009719Y007280D01*
X009709Y007296D01*
X009704Y007315D01*
X009702Y007334D01*
X009702Y006834D02*
X009704Y006853D01*
X009709Y006872D01*
X009719Y006888D01*
X009731Y006903D01*
X009746Y006915D01*
X009762Y006925D01*
X009781Y006930D01*
X009800Y006932D01*
X009819Y006930D01*
X009838Y006925D01*
X009854Y006915D01*
X009869Y006903D01*
X009881Y006888D01*
X009891Y006872D01*
X009896Y006853D01*
X009898Y006834D01*
X009896Y006815D01*
X009891Y006796D01*
X009881Y006780D01*
X009869Y006765D01*
X009854Y006753D01*
X009838Y006743D01*
X009819Y006738D01*
X009800Y006736D01*
X009781Y006738D01*
X009762Y006743D01*
X009746Y006753D01*
X009731Y006765D01*
X009719Y006780D01*
X009709Y006796D01*
X009704Y006815D01*
X009702Y006834D01*
X009702Y006334D02*
X009704Y006353D01*
X009709Y006372D01*
X009719Y006388D01*
X009731Y006403D01*
X009746Y006415D01*
X009762Y006425D01*
X009781Y006430D01*
X009800Y006432D01*
X009819Y006430D01*
X009838Y006425D01*
X009854Y006415D01*
X009869Y006403D01*
X009881Y006388D01*
X009891Y006372D01*
X009896Y006353D01*
X009898Y006334D01*
X009896Y006315D01*
X009891Y006296D01*
X009881Y006280D01*
X009869Y006265D01*
X009854Y006253D01*
X009838Y006243D01*
X009819Y006238D01*
X009800Y006236D01*
X009781Y006238D01*
X009762Y006243D01*
X009746Y006253D01*
X009731Y006265D01*
X009719Y006280D01*
X009709Y006296D01*
X009704Y006315D01*
X009702Y006334D01*
X009702Y005834D02*
X009704Y005853D01*
X009709Y005872D01*
X009719Y005888D01*
X009731Y005903D01*
X009746Y005915D01*
X009762Y005925D01*
X009781Y005930D01*
X009800Y005932D01*
X009819Y005930D01*
X009838Y005925D01*
X009854Y005915D01*
X009869Y005903D01*
X009881Y005888D01*
X009891Y005872D01*
X009896Y005853D01*
X009898Y005834D01*
X009896Y005815D01*
X009891Y005796D01*
X009881Y005780D01*
X009869Y005765D01*
X009854Y005753D01*
X009838Y005743D01*
X009819Y005738D01*
X009800Y005736D01*
X009781Y005738D01*
X009762Y005743D01*
X009746Y005753D01*
X009731Y005765D01*
X009719Y005780D01*
X009709Y005796D01*
X009704Y005815D01*
X009702Y005834D01*
X009702Y005334D02*
X009704Y005353D01*
X009709Y005372D01*
X009719Y005388D01*
X009731Y005403D01*
X009746Y005415D01*
X009762Y005425D01*
X009781Y005430D01*
X009800Y005432D01*
X009819Y005430D01*
X009838Y005425D01*
X009854Y005415D01*
X009869Y005403D01*
X009881Y005388D01*
X009891Y005372D01*
X009896Y005353D01*
X009898Y005334D01*
X009896Y005315D01*
X009891Y005296D01*
X009881Y005280D01*
X009869Y005265D01*
X009854Y005253D01*
X009838Y005243D01*
X009819Y005238D01*
X009800Y005236D01*
X009781Y005238D01*
X009762Y005243D01*
X009746Y005253D01*
X009731Y005265D01*
X009719Y005280D01*
X009709Y005296D01*
X009704Y005315D01*
X009702Y005334D01*
X009702Y004834D02*
X009704Y004853D01*
X009709Y004872D01*
X009719Y004888D01*
X009731Y004903D01*
X009746Y004915D01*
X009762Y004925D01*
X009781Y004930D01*
X009800Y004932D01*
X009819Y004930D01*
X009838Y004925D01*
X009854Y004915D01*
X009869Y004903D01*
X009881Y004888D01*
X009891Y004872D01*
X009896Y004853D01*
X009898Y004834D01*
X009896Y004815D01*
X009891Y004796D01*
X009881Y004780D01*
X009869Y004765D01*
X009854Y004753D01*
X009838Y004743D01*
X009819Y004738D01*
X009800Y004736D01*
X009781Y004738D01*
X009762Y004743D01*
X009746Y004753D01*
X009731Y004765D01*
X009719Y004780D01*
X009709Y004796D01*
X009704Y004815D01*
X009702Y004834D01*
X009702Y004334D02*
X009704Y004353D01*
X009709Y004372D01*
X009719Y004388D01*
X009731Y004403D01*
X009746Y004415D01*
X009762Y004425D01*
X009781Y004430D01*
X009800Y004432D01*
X009819Y004430D01*
X009838Y004425D01*
X009854Y004415D01*
X009869Y004403D01*
X009881Y004388D01*
X009891Y004372D01*
X009896Y004353D01*
X009898Y004334D01*
X009896Y004315D01*
X009891Y004296D01*
X009881Y004280D01*
X009869Y004265D01*
X009854Y004253D01*
X009838Y004243D01*
X009819Y004238D01*
X009800Y004236D01*
X009781Y004238D01*
X009762Y004243D01*
X009746Y004253D01*
X009731Y004265D01*
X009719Y004280D01*
X009709Y004296D01*
X009704Y004315D01*
X009702Y004334D01*
X019714Y004334D02*
X019716Y004353D01*
X019721Y004372D01*
X019731Y004388D01*
X019743Y004403D01*
X019758Y004415D01*
X019774Y004425D01*
X019793Y004430D01*
X019812Y004432D01*
X019831Y004430D01*
X019850Y004425D01*
X019866Y004415D01*
X019881Y004403D01*
X019893Y004388D01*
X019903Y004372D01*
X019908Y004353D01*
X019910Y004334D01*
X019908Y004315D01*
X019903Y004296D01*
X019893Y004280D01*
X019881Y004265D01*
X019866Y004253D01*
X019850Y004243D01*
X019831Y004238D01*
X019812Y004236D01*
X019793Y004238D01*
X019774Y004243D01*
X019758Y004253D01*
X019743Y004265D01*
X019731Y004280D01*
X019721Y004296D01*
X019716Y004315D01*
X019714Y004334D01*
X019714Y004834D02*
X019716Y004853D01*
X019721Y004872D01*
X019731Y004888D01*
X019743Y004903D01*
X019758Y004915D01*
X019774Y004925D01*
X019793Y004930D01*
X019812Y004932D01*
X019831Y004930D01*
X019850Y004925D01*
X019866Y004915D01*
X019881Y004903D01*
X019893Y004888D01*
X019903Y004872D01*
X019908Y004853D01*
X019910Y004834D01*
X019908Y004815D01*
X019903Y004796D01*
X019893Y004780D01*
X019881Y004765D01*
X019866Y004753D01*
X019850Y004743D01*
X019831Y004738D01*
X019812Y004736D01*
X019793Y004738D01*
X019774Y004743D01*
X019758Y004753D01*
X019743Y004765D01*
X019731Y004780D01*
X019721Y004796D01*
X019716Y004815D01*
X019714Y004834D01*
X019714Y005334D02*
X019716Y005353D01*
X019721Y005372D01*
X019731Y005388D01*
X019743Y005403D01*
X019758Y005415D01*
X019774Y005425D01*
X019793Y005430D01*
X019812Y005432D01*
X019831Y005430D01*
X019850Y005425D01*
X019866Y005415D01*
X019881Y005403D01*
X019893Y005388D01*
X019903Y005372D01*
X019908Y005353D01*
X019910Y005334D01*
X019908Y005315D01*
X019903Y005296D01*
X019893Y005280D01*
X019881Y005265D01*
X019866Y005253D01*
X019850Y005243D01*
X019831Y005238D01*
X019812Y005236D01*
X019793Y005238D01*
X019774Y005243D01*
X019758Y005253D01*
X019743Y005265D01*
X019731Y005280D01*
X019721Y005296D01*
X019716Y005315D01*
X019714Y005334D01*
X019714Y005834D02*
X019716Y005853D01*
X019721Y005872D01*
X019731Y005888D01*
X019743Y005903D01*
X019758Y005915D01*
X019774Y005925D01*
X019793Y005930D01*
X019812Y005932D01*
X019831Y005930D01*
X019850Y005925D01*
X019866Y005915D01*
X019881Y005903D01*
X019893Y005888D01*
X019903Y005872D01*
X019908Y005853D01*
X019910Y005834D01*
X019908Y005815D01*
X019903Y005796D01*
X019893Y005780D01*
X019881Y005765D01*
X019866Y005753D01*
X019850Y005743D01*
X019831Y005738D01*
X019812Y005736D01*
X019793Y005738D01*
X019774Y005743D01*
X019758Y005753D01*
X019743Y005765D01*
X019731Y005780D01*
X019721Y005796D01*
X019716Y005815D01*
X019714Y005834D01*
X019714Y006334D02*
X019716Y006353D01*
X019721Y006372D01*
X019731Y006388D01*
X019743Y006403D01*
X019758Y006415D01*
X019774Y006425D01*
X019793Y006430D01*
X019812Y006432D01*
X019831Y006430D01*
X019850Y006425D01*
X019866Y006415D01*
X019881Y006403D01*
X019893Y006388D01*
X019903Y006372D01*
X019908Y006353D01*
X019910Y006334D01*
X019908Y006315D01*
X019903Y006296D01*
X019893Y006280D01*
X019881Y006265D01*
X019866Y006253D01*
X019850Y006243D01*
X019831Y006238D01*
X019812Y006236D01*
X019793Y006238D01*
X019774Y006243D01*
X019758Y006253D01*
X019743Y006265D01*
X019731Y006280D01*
X019721Y006296D01*
X019716Y006315D01*
X019714Y006334D01*
X019714Y006834D02*
X019716Y006853D01*
X019721Y006872D01*
X019731Y006888D01*
X019743Y006903D01*
X019758Y006915D01*
X019774Y006925D01*
X019793Y006930D01*
X019812Y006932D01*
X019831Y006930D01*
X019850Y006925D01*
X019866Y006915D01*
X019881Y006903D01*
X019893Y006888D01*
X019903Y006872D01*
X019908Y006853D01*
X019910Y006834D01*
X019908Y006815D01*
X019903Y006796D01*
X019893Y006780D01*
X019881Y006765D01*
X019866Y006753D01*
X019850Y006743D01*
X019831Y006738D01*
X019812Y006736D01*
X019793Y006738D01*
X019774Y006743D01*
X019758Y006753D01*
X019743Y006765D01*
X019731Y006780D01*
X019721Y006796D01*
X019716Y006815D01*
X019714Y006834D01*
X019714Y007334D02*
X019716Y007353D01*
X019721Y007372D01*
X019731Y007388D01*
X019743Y007403D01*
X019758Y007415D01*
X019774Y007425D01*
X019793Y007430D01*
X019812Y007432D01*
X019831Y007430D01*
X019850Y007425D01*
X019866Y007415D01*
X019881Y007403D01*
X019893Y007388D01*
X019903Y007372D01*
X019908Y007353D01*
X019910Y007334D01*
X019908Y007315D01*
X019903Y007296D01*
X019893Y007280D01*
X019881Y007265D01*
X019866Y007253D01*
X019850Y007243D01*
X019831Y007238D01*
X019812Y007236D01*
X019793Y007238D01*
X019774Y007243D01*
X019758Y007253D01*
X019743Y007265D01*
X019731Y007280D01*
X019721Y007296D01*
X019716Y007315D01*
X019714Y007334D01*
X019654Y007991D02*
X019654Y009180D01*
X019969Y009180D02*
X019969Y007991D01*
X019967Y007969D01*
X019963Y007947D01*
X019955Y007926D01*
X019944Y007906D01*
X019931Y007888D01*
X019915Y007872D01*
X019897Y007859D01*
X019877Y007848D01*
X019856Y007840D01*
X019834Y007836D01*
X019812Y007834D01*
X019790Y007836D01*
X019768Y007840D01*
X019747Y007848D01*
X019727Y007859D01*
X019709Y007872D01*
X019693Y007888D01*
X019680Y007906D01*
X019669Y007926D01*
X019661Y007947D01*
X019657Y007969D01*
X019655Y007991D01*
X019654Y009180D02*
X019652Y009219D01*
X019646Y009257D01*
X019637Y009294D01*
X019624Y009331D01*
X019607Y009366D01*
X019588Y009399D01*
X019565Y009430D01*
X019539Y009459D01*
X019510Y009485D01*
X019479Y009508D01*
X019446Y009527D01*
X019411Y009544D01*
X019374Y009557D01*
X019337Y009566D01*
X019299Y009572D01*
X019260Y009574D01*
X018001Y009475D02*
X018003Y009494D01*
X018008Y009513D01*
X018018Y009529D01*
X018030Y009544D01*
X018045Y009556D01*
X018061Y009566D01*
X018080Y009571D01*
X018099Y009573D01*
X018118Y009571D01*
X018137Y009566D01*
X018153Y009556D01*
X018168Y009544D01*
X018180Y009529D01*
X018190Y009513D01*
X018195Y009494D01*
X018197Y009475D01*
X018195Y009456D01*
X018190Y009437D01*
X018180Y009421D01*
X018168Y009406D01*
X018153Y009394D01*
X018137Y009384D01*
X018118Y009379D01*
X018099Y009377D01*
X018080Y009379D01*
X018061Y009384D01*
X018045Y009394D01*
X018030Y009406D01*
X018018Y009421D01*
X018008Y009437D01*
X018003Y009456D01*
X018001Y009475D01*
X017607Y009475D02*
X017609Y009494D01*
X017614Y009513D01*
X017624Y009529D01*
X017636Y009544D01*
X017651Y009556D01*
X017667Y009566D01*
X017686Y009571D01*
X017705Y009573D01*
X017724Y009571D01*
X017743Y009566D01*
X017759Y009556D01*
X017774Y009544D01*
X017786Y009529D01*
X017796Y009513D01*
X017801Y009494D01*
X017803Y009475D01*
X017801Y009456D01*
X017796Y009437D01*
X017786Y009421D01*
X017774Y009406D01*
X017759Y009394D01*
X017743Y009384D01*
X017724Y009379D01*
X017705Y009377D01*
X017686Y009379D01*
X017667Y009384D01*
X017651Y009394D01*
X017636Y009406D01*
X017624Y009421D01*
X017614Y009437D01*
X017609Y009456D01*
X017607Y009475D01*
X017214Y009475D02*
X017216Y009494D01*
X017221Y009513D01*
X017231Y009529D01*
X017243Y009544D01*
X017258Y009556D01*
X017274Y009566D01*
X017293Y009571D01*
X017312Y009573D01*
X017331Y009571D01*
X017350Y009566D01*
X017366Y009556D01*
X017381Y009544D01*
X017393Y009529D01*
X017403Y009513D01*
X017408Y009494D01*
X017410Y009475D01*
X017408Y009456D01*
X017403Y009437D01*
X017393Y009421D01*
X017381Y009406D01*
X017366Y009394D01*
X017350Y009384D01*
X017331Y009379D01*
X017312Y009377D01*
X017293Y009379D01*
X017274Y009384D01*
X017258Y009394D01*
X017243Y009406D01*
X017231Y009421D01*
X017221Y009437D01*
X017216Y009456D01*
X017214Y009475D01*
X016820Y009475D02*
X016822Y009494D01*
X016827Y009513D01*
X016837Y009529D01*
X016849Y009544D01*
X016864Y009556D01*
X016880Y009566D01*
X016899Y009571D01*
X016918Y009573D01*
X016937Y009571D01*
X016956Y009566D01*
X016972Y009556D01*
X016987Y009544D01*
X016999Y009529D01*
X017009Y009513D01*
X017014Y009494D01*
X017016Y009475D01*
X017014Y009456D01*
X017009Y009437D01*
X016999Y009421D01*
X016987Y009406D01*
X016972Y009394D01*
X016956Y009384D01*
X016937Y009379D01*
X016918Y009377D01*
X016899Y009379D01*
X016880Y009384D01*
X016864Y009394D01*
X016849Y009406D01*
X016837Y009421D01*
X016827Y009437D01*
X016822Y009456D01*
X016820Y009475D01*
X016426Y009475D02*
X016428Y009494D01*
X016433Y009513D01*
X016443Y009529D01*
X016455Y009544D01*
X016470Y009556D01*
X016486Y009566D01*
X016505Y009571D01*
X016524Y009573D01*
X016543Y009571D01*
X016562Y009566D01*
X016578Y009556D01*
X016593Y009544D01*
X016605Y009529D01*
X016615Y009513D01*
X016620Y009494D01*
X016622Y009475D01*
X016620Y009456D01*
X016615Y009437D01*
X016605Y009421D01*
X016593Y009406D01*
X016578Y009394D01*
X016562Y009384D01*
X016543Y009379D01*
X016524Y009377D01*
X016505Y009379D01*
X016486Y009384D01*
X016470Y009394D01*
X016455Y009406D01*
X016443Y009421D01*
X016433Y009437D01*
X016428Y009456D01*
X016426Y009475D01*
X015363Y009574D02*
X015324Y009572D01*
X015286Y009566D01*
X015249Y009557D01*
X015212Y009544D01*
X015177Y009527D01*
X015144Y009508D01*
X015113Y009485D01*
X015084Y009459D01*
X015058Y009430D01*
X015035Y009399D01*
X015016Y009366D01*
X014999Y009331D01*
X014986Y009294D01*
X014977Y009257D01*
X014971Y009219D01*
X014969Y009180D01*
X014654Y009180D02*
X014652Y009219D01*
X014646Y009257D01*
X014637Y009294D01*
X014624Y009331D01*
X014607Y009366D01*
X014588Y009399D01*
X014565Y009430D01*
X014539Y009459D01*
X014510Y009485D01*
X014479Y009508D01*
X014446Y009527D01*
X014411Y009544D01*
X014374Y009557D01*
X014337Y009566D01*
X014299Y009572D01*
X014260Y009574D01*
X013001Y009475D02*
X013003Y009494D01*
X013008Y009513D01*
X013018Y009529D01*
X013030Y009544D01*
X013045Y009556D01*
X013061Y009566D01*
X013080Y009571D01*
X013099Y009573D01*
X013118Y009571D01*
X013137Y009566D01*
X013153Y009556D01*
X013168Y009544D01*
X013180Y009529D01*
X013190Y009513D01*
X013195Y009494D01*
X013197Y009475D01*
X013195Y009456D01*
X013190Y009437D01*
X013180Y009421D01*
X013168Y009406D01*
X013153Y009394D01*
X013137Y009384D01*
X013118Y009379D01*
X013099Y009377D01*
X013080Y009379D01*
X013061Y009384D01*
X013045Y009394D01*
X013030Y009406D01*
X013018Y009421D01*
X013008Y009437D01*
X013003Y009456D01*
X013001Y009475D01*
X012607Y009475D02*
X012609Y009494D01*
X012614Y009513D01*
X012624Y009529D01*
X012636Y009544D01*
X012651Y009556D01*
X012667Y009566D01*
X012686Y009571D01*
X012705Y009573D01*
X012724Y009571D01*
X012743Y009566D01*
X012759Y009556D01*
X012774Y009544D01*
X012786Y009529D01*
X012796Y009513D01*
X012801Y009494D01*
X012803Y009475D01*
X012801Y009456D01*
X012796Y009437D01*
X012786Y009421D01*
X012774Y009406D01*
X012759Y009394D01*
X012743Y009384D01*
X012724Y009379D01*
X012705Y009377D01*
X012686Y009379D01*
X012667Y009384D01*
X012651Y009394D01*
X012636Y009406D01*
X012624Y009421D01*
X012614Y009437D01*
X012609Y009456D01*
X012607Y009475D01*
X012214Y009475D02*
X012216Y009494D01*
X012221Y009513D01*
X012231Y009529D01*
X012243Y009544D01*
X012258Y009556D01*
X012274Y009566D01*
X012293Y009571D01*
X012312Y009573D01*
X012331Y009571D01*
X012350Y009566D01*
X012366Y009556D01*
X012381Y009544D01*
X012393Y009529D01*
X012403Y009513D01*
X012408Y009494D01*
X012410Y009475D01*
X012408Y009456D01*
X012403Y009437D01*
X012393Y009421D01*
X012381Y009406D01*
X012366Y009394D01*
X012350Y009384D01*
X012331Y009379D01*
X012312Y009377D01*
X012293Y009379D01*
X012274Y009384D01*
X012258Y009394D01*
X012243Y009406D01*
X012231Y009421D01*
X012221Y009437D01*
X012216Y009456D01*
X012214Y009475D01*
X011820Y009475D02*
X011822Y009494D01*
X011827Y009513D01*
X011837Y009529D01*
X011849Y009544D01*
X011864Y009556D01*
X011880Y009566D01*
X011899Y009571D01*
X011918Y009573D01*
X011937Y009571D01*
X011956Y009566D01*
X011972Y009556D01*
X011987Y009544D01*
X011999Y009529D01*
X012009Y009513D01*
X012014Y009494D01*
X012016Y009475D01*
X012014Y009456D01*
X012009Y009437D01*
X011999Y009421D01*
X011987Y009406D01*
X011972Y009394D01*
X011956Y009384D01*
X011937Y009379D01*
X011918Y009377D01*
X011899Y009379D01*
X011880Y009384D01*
X011864Y009394D01*
X011849Y009406D01*
X011837Y009421D01*
X011827Y009437D01*
X011822Y009456D01*
X011820Y009475D01*
X011426Y009475D02*
X011428Y009494D01*
X011433Y009513D01*
X011443Y009529D01*
X011455Y009544D01*
X011470Y009556D01*
X011486Y009566D01*
X011505Y009571D01*
X011524Y009573D01*
X011543Y009571D01*
X011562Y009566D01*
X011578Y009556D01*
X011593Y009544D01*
X011605Y009529D01*
X011615Y009513D01*
X011620Y009494D01*
X011622Y009475D01*
X011620Y009456D01*
X011615Y009437D01*
X011605Y009421D01*
X011593Y009406D01*
X011578Y009394D01*
X011562Y009384D01*
X011543Y009379D01*
X011524Y009377D01*
X011505Y009379D01*
X011486Y009384D01*
X011470Y009394D01*
X011455Y009406D01*
X011443Y009421D01*
X011433Y009437D01*
X011428Y009456D01*
X011426Y009475D01*
X010363Y009574D02*
X010324Y009572D01*
X010286Y009566D01*
X010249Y009557D01*
X010212Y009544D01*
X010177Y009527D01*
X010144Y009508D01*
X010113Y009485D01*
X010084Y009459D01*
X010058Y009430D01*
X010035Y009399D01*
X010016Y009366D01*
X009999Y009331D01*
X009986Y009294D01*
X009977Y009257D01*
X009971Y009219D01*
X009969Y009180D01*
X009643Y009180D02*
X009641Y009219D01*
X009635Y009257D01*
X009626Y009294D01*
X009613Y009331D01*
X009596Y009366D01*
X009577Y009399D01*
X009554Y009430D01*
X009528Y009459D01*
X009499Y009485D01*
X009468Y009508D01*
X009435Y009527D01*
X009400Y009544D01*
X009363Y009557D01*
X009326Y009566D01*
X009288Y009572D01*
X009249Y009574D01*
X019969Y009180D02*
X019971Y009219D01*
X019977Y009257D01*
X019986Y009294D01*
X019999Y009331D01*
X020016Y009366D01*
X020035Y009399D01*
X020058Y009430D01*
X020084Y009459D01*
X020113Y009485D01*
X020144Y009508D01*
X020177Y009527D01*
X020212Y009544D01*
X020249Y009557D01*
X020286Y009566D01*
X020324Y009572D01*
X020363Y009574D01*
X021426Y009475D02*
X021428Y009494D01*
X021433Y009513D01*
X021443Y009529D01*
X021455Y009544D01*
X021470Y009556D01*
X021486Y009566D01*
X021505Y009571D01*
X021524Y009573D01*
X021543Y009571D01*
X021562Y009566D01*
X021578Y009556D01*
X021593Y009544D01*
X021605Y009529D01*
X021615Y009513D01*
X021620Y009494D01*
X021622Y009475D01*
X021620Y009456D01*
X021615Y009437D01*
X021605Y009421D01*
X021593Y009406D01*
X021578Y009394D01*
X021562Y009384D01*
X021543Y009379D01*
X021524Y009377D01*
X021505Y009379D01*
X021486Y009384D01*
X021470Y009394D01*
X021455Y009406D01*
X021443Y009421D01*
X021433Y009437D01*
X021428Y009456D01*
X021426Y009475D01*
X021820Y009475D02*
X021822Y009494D01*
X021827Y009513D01*
X021837Y009529D01*
X021849Y009544D01*
X021864Y009556D01*
X021880Y009566D01*
X021899Y009571D01*
X021918Y009573D01*
X021937Y009571D01*
X021956Y009566D01*
X021972Y009556D01*
X021987Y009544D01*
X021999Y009529D01*
X022009Y009513D01*
X022014Y009494D01*
X022016Y009475D01*
X022014Y009456D01*
X022009Y009437D01*
X021999Y009421D01*
X021987Y009406D01*
X021972Y009394D01*
X021956Y009384D01*
X021937Y009379D01*
X021918Y009377D01*
X021899Y009379D01*
X021880Y009384D01*
X021864Y009394D01*
X021849Y009406D01*
X021837Y009421D01*
X021827Y009437D01*
X021822Y009456D01*
X021820Y009475D01*
X022214Y009475D02*
X022216Y009494D01*
X022221Y009513D01*
X022231Y009529D01*
X022243Y009544D01*
X022258Y009556D01*
X022274Y009566D01*
X022293Y009571D01*
X022312Y009573D01*
X022331Y009571D01*
X022350Y009566D01*
X022366Y009556D01*
X022381Y009544D01*
X022393Y009529D01*
X022403Y009513D01*
X022408Y009494D01*
X022410Y009475D01*
X022408Y009456D01*
X022403Y009437D01*
X022393Y009421D01*
X022381Y009406D01*
X022366Y009394D01*
X022350Y009384D01*
X022331Y009379D01*
X022312Y009377D01*
X022293Y009379D01*
X022274Y009384D01*
X022258Y009394D01*
X022243Y009406D01*
X022231Y009421D01*
X022221Y009437D01*
X022216Y009456D01*
X022214Y009475D01*
X022607Y009475D02*
X022609Y009494D01*
X022614Y009513D01*
X022624Y009529D01*
X022636Y009544D01*
X022651Y009556D01*
X022667Y009566D01*
X022686Y009571D01*
X022705Y009573D01*
X022724Y009571D01*
X022743Y009566D01*
X022759Y009556D01*
X022774Y009544D01*
X022786Y009529D01*
X022796Y009513D01*
X022801Y009494D01*
X022803Y009475D01*
X022801Y009456D01*
X022796Y009437D01*
X022786Y009421D01*
X022774Y009406D01*
X022759Y009394D01*
X022743Y009384D01*
X022724Y009379D01*
X022705Y009377D01*
X022686Y009379D01*
X022667Y009384D01*
X022651Y009394D01*
X022636Y009406D01*
X022624Y009421D01*
X022614Y009437D01*
X022609Y009456D01*
X022607Y009475D01*
X023001Y009475D02*
X023003Y009494D01*
X023008Y009513D01*
X023018Y009529D01*
X023030Y009544D01*
X023045Y009556D01*
X023061Y009566D01*
X023080Y009571D01*
X023099Y009573D01*
X023118Y009571D01*
X023137Y009566D01*
X023153Y009556D01*
X023168Y009544D01*
X023180Y009529D01*
X023190Y009513D01*
X023195Y009494D01*
X023197Y009475D01*
X023195Y009456D01*
X023190Y009437D01*
X023180Y009421D01*
X023168Y009406D01*
X023153Y009394D01*
X023137Y009384D01*
X023118Y009379D01*
X023099Y009377D01*
X023080Y009379D01*
X023061Y009384D01*
X023045Y009394D01*
X023030Y009406D01*
X023018Y009421D01*
X023008Y009437D01*
X023003Y009456D01*
X023001Y009475D01*
X024260Y009574D02*
X024299Y009572D01*
X024337Y009566D01*
X024374Y009557D01*
X024411Y009544D01*
X024446Y009527D01*
X024479Y009508D01*
X024510Y009485D01*
X024539Y009459D01*
X024565Y009430D01*
X024588Y009399D01*
X024607Y009366D01*
X024624Y009331D01*
X024637Y009294D01*
X024646Y009257D01*
X024652Y009219D01*
X024654Y009180D01*
X024654Y007991D01*
X024812Y007834D02*
X024834Y007836D01*
X024856Y007840D01*
X024877Y007848D01*
X024897Y007859D01*
X024915Y007872D01*
X024931Y007888D01*
X024944Y007906D01*
X024955Y007926D01*
X024963Y007947D01*
X024967Y007969D01*
X024969Y007991D01*
X024969Y009180D01*
X024971Y009219D01*
X024977Y009257D01*
X024986Y009294D01*
X024999Y009331D01*
X025016Y009366D01*
X025035Y009399D01*
X025058Y009430D01*
X025084Y009459D01*
X025113Y009485D01*
X025144Y009508D01*
X025177Y009527D01*
X025212Y009544D01*
X025249Y009557D01*
X025286Y009566D01*
X025324Y009572D01*
X025363Y009574D01*
X026426Y009475D02*
X026428Y009494D01*
X026433Y009513D01*
X026443Y009529D01*
X026455Y009544D01*
X026470Y009556D01*
X026486Y009566D01*
X026505Y009571D01*
X026524Y009573D01*
X026543Y009571D01*
X026562Y009566D01*
X026578Y009556D01*
X026593Y009544D01*
X026605Y009529D01*
X026615Y009513D01*
X026620Y009494D01*
X026622Y009475D01*
X026620Y009456D01*
X026615Y009437D01*
X026605Y009421D01*
X026593Y009406D01*
X026578Y009394D01*
X026562Y009384D01*
X026543Y009379D01*
X026524Y009377D01*
X026505Y009379D01*
X026486Y009384D01*
X026470Y009394D01*
X026455Y009406D01*
X026443Y009421D01*
X026433Y009437D01*
X026428Y009456D01*
X026426Y009475D01*
X026820Y009475D02*
X026822Y009494D01*
X026827Y009513D01*
X026837Y009529D01*
X026849Y009544D01*
X026864Y009556D01*
X026880Y009566D01*
X026899Y009571D01*
X026918Y009573D01*
X026937Y009571D01*
X026956Y009566D01*
X026972Y009556D01*
X026987Y009544D01*
X026999Y009529D01*
X027009Y009513D01*
X027014Y009494D01*
X027016Y009475D01*
X027014Y009456D01*
X027009Y009437D01*
X026999Y009421D01*
X026987Y009406D01*
X026972Y009394D01*
X026956Y009384D01*
X026937Y009379D01*
X026918Y009377D01*
X026899Y009379D01*
X026880Y009384D01*
X026864Y009394D01*
X026849Y009406D01*
X026837Y009421D01*
X026827Y009437D01*
X026822Y009456D01*
X026820Y009475D01*
X027214Y009475D02*
X027216Y009494D01*
X027221Y009513D01*
X027231Y009529D01*
X027243Y009544D01*
X027258Y009556D01*
X027274Y009566D01*
X027293Y009571D01*
X027312Y009573D01*
X027331Y009571D01*
X027350Y009566D01*
X027366Y009556D01*
X027381Y009544D01*
X027393Y009529D01*
X027403Y009513D01*
X027408Y009494D01*
X027410Y009475D01*
X027408Y009456D01*
X027403Y009437D01*
X027393Y009421D01*
X027381Y009406D01*
X027366Y009394D01*
X027350Y009384D01*
X027331Y009379D01*
X027312Y009377D01*
X027293Y009379D01*
X027274Y009384D01*
X027258Y009394D01*
X027243Y009406D01*
X027231Y009421D01*
X027221Y009437D01*
X027216Y009456D01*
X027214Y009475D01*
X027607Y009475D02*
X027609Y009494D01*
X027614Y009513D01*
X027624Y009529D01*
X027636Y009544D01*
X027651Y009556D01*
X027667Y009566D01*
X027686Y009571D01*
X027705Y009573D01*
X027724Y009571D01*
X027743Y009566D01*
X027759Y009556D01*
X027774Y009544D01*
X027786Y009529D01*
X027796Y009513D01*
X027801Y009494D01*
X027803Y009475D01*
X027801Y009456D01*
X027796Y009437D01*
X027786Y009421D01*
X027774Y009406D01*
X027759Y009394D01*
X027743Y009384D01*
X027724Y009379D01*
X027705Y009377D01*
X027686Y009379D01*
X027667Y009384D01*
X027651Y009394D01*
X027636Y009406D01*
X027624Y009421D01*
X027614Y009437D01*
X027609Y009456D01*
X027607Y009475D01*
X028001Y009475D02*
X028003Y009494D01*
X028008Y009513D01*
X028018Y009529D01*
X028030Y009544D01*
X028045Y009556D01*
X028061Y009566D01*
X028080Y009571D01*
X028099Y009573D01*
X028118Y009571D01*
X028137Y009566D01*
X028153Y009556D01*
X028168Y009544D01*
X028180Y009529D01*
X028190Y009513D01*
X028195Y009494D01*
X028197Y009475D01*
X028195Y009456D01*
X028190Y009437D01*
X028180Y009421D01*
X028168Y009406D01*
X028153Y009394D01*
X028137Y009384D01*
X028118Y009379D01*
X028099Y009377D01*
X028080Y009379D01*
X028061Y009384D01*
X028045Y009394D01*
X028030Y009406D01*
X028018Y009421D01*
X028008Y009437D01*
X028003Y009456D01*
X028001Y009475D01*
X029260Y009574D02*
X029299Y009572D01*
X029337Y009566D01*
X029374Y009557D01*
X029411Y009544D01*
X029446Y009527D01*
X029479Y009508D01*
X029510Y009485D01*
X029539Y009459D01*
X029565Y009430D01*
X029588Y009399D01*
X029607Y009366D01*
X029624Y009331D01*
X029637Y009294D01*
X029646Y009257D01*
X029652Y009219D01*
X029654Y009180D01*
X029654Y007991D01*
X029812Y007834D02*
X029834Y007836D01*
X029856Y007840D01*
X029877Y007848D01*
X029897Y007859D01*
X029915Y007872D01*
X029931Y007888D01*
X029944Y007906D01*
X029955Y007926D01*
X029963Y007947D01*
X029967Y007969D01*
X029969Y007991D01*
X029969Y009180D01*
X029971Y009219D01*
X029977Y009257D01*
X029986Y009294D01*
X029999Y009331D01*
X030016Y009366D01*
X030035Y009399D01*
X030058Y009430D01*
X030084Y009459D01*
X030113Y009485D01*
X030144Y009508D01*
X030177Y009527D01*
X030212Y009544D01*
X030249Y009557D01*
X030286Y009566D01*
X030324Y009572D01*
X030363Y009574D01*
X031426Y009475D02*
X031428Y009494D01*
X031433Y009513D01*
X031443Y009529D01*
X031455Y009544D01*
X031470Y009556D01*
X031486Y009566D01*
X031505Y009571D01*
X031524Y009573D01*
X031543Y009571D01*
X031562Y009566D01*
X031578Y009556D01*
X031593Y009544D01*
X031605Y009529D01*
X031615Y009513D01*
X031620Y009494D01*
X031622Y009475D01*
X031620Y009456D01*
X031615Y009437D01*
X031605Y009421D01*
X031593Y009406D01*
X031578Y009394D01*
X031562Y009384D01*
X031543Y009379D01*
X031524Y009377D01*
X031505Y009379D01*
X031486Y009384D01*
X031470Y009394D01*
X031455Y009406D01*
X031443Y009421D01*
X031433Y009437D01*
X031428Y009456D01*
X031426Y009475D01*
X031820Y009475D02*
X031822Y009494D01*
X031827Y009513D01*
X031837Y009529D01*
X031849Y009544D01*
X031864Y009556D01*
X031880Y009566D01*
X031899Y009571D01*
X031918Y009573D01*
X031937Y009571D01*
X031956Y009566D01*
X031972Y009556D01*
X031987Y009544D01*
X031999Y009529D01*
X032009Y009513D01*
X032014Y009494D01*
X032016Y009475D01*
X032014Y009456D01*
X032009Y009437D01*
X031999Y009421D01*
X031987Y009406D01*
X031972Y009394D01*
X031956Y009384D01*
X031937Y009379D01*
X031918Y009377D01*
X031899Y009379D01*
X031880Y009384D01*
X031864Y009394D01*
X031849Y009406D01*
X031837Y009421D01*
X031827Y009437D01*
X031822Y009456D01*
X031820Y009475D01*
X032214Y009475D02*
X032216Y009494D01*
X032221Y009513D01*
X032231Y009529D01*
X032243Y009544D01*
X032258Y009556D01*
X032274Y009566D01*
X032293Y009571D01*
X032312Y009573D01*
X032331Y009571D01*
X032350Y009566D01*
X032366Y009556D01*
X032381Y009544D01*
X032393Y009529D01*
X032403Y009513D01*
X032408Y009494D01*
X032410Y009475D01*
X032408Y009456D01*
X032403Y009437D01*
X032393Y009421D01*
X032381Y009406D01*
X032366Y009394D01*
X032350Y009384D01*
X032331Y009379D01*
X032312Y009377D01*
X032293Y009379D01*
X032274Y009384D01*
X032258Y009394D01*
X032243Y009406D01*
X032231Y009421D01*
X032221Y009437D01*
X032216Y009456D01*
X032214Y009475D01*
X032607Y009475D02*
X032609Y009494D01*
X032614Y009513D01*
X032624Y009529D01*
X032636Y009544D01*
X032651Y009556D01*
X032667Y009566D01*
X032686Y009571D01*
X032705Y009573D01*
X032724Y009571D01*
X032743Y009566D01*
X032759Y009556D01*
X032774Y009544D01*
X032786Y009529D01*
X032796Y009513D01*
X032801Y009494D01*
X032803Y009475D01*
X032801Y009456D01*
X032796Y009437D01*
X032786Y009421D01*
X032774Y009406D01*
X032759Y009394D01*
X032743Y009384D01*
X032724Y009379D01*
X032705Y009377D01*
X032686Y009379D01*
X032667Y009384D01*
X032651Y009394D01*
X032636Y009406D01*
X032624Y009421D01*
X032614Y009437D01*
X032609Y009456D01*
X032607Y009475D01*
X033001Y009475D02*
X033003Y009494D01*
X033008Y009513D01*
X033018Y009529D01*
X033030Y009544D01*
X033045Y009556D01*
X033061Y009566D01*
X033080Y009571D01*
X033099Y009573D01*
X033118Y009571D01*
X033137Y009566D01*
X033153Y009556D01*
X033168Y009544D01*
X033180Y009529D01*
X033190Y009513D01*
X033195Y009494D01*
X033197Y009475D01*
X033195Y009456D01*
X033190Y009437D01*
X033180Y009421D01*
X033168Y009406D01*
X033153Y009394D01*
X033137Y009384D01*
X033118Y009379D01*
X033099Y009377D01*
X033080Y009379D01*
X033061Y009384D01*
X033045Y009394D01*
X033030Y009406D01*
X033018Y009421D01*
X033008Y009437D01*
X033003Y009456D01*
X033001Y009475D01*
X034260Y009574D02*
X034299Y009572D01*
X034337Y009566D01*
X034374Y009557D01*
X034411Y009544D01*
X034446Y009527D01*
X034479Y009508D01*
X034510Y009485D01*
X034539Y009459D01*
X034565Y009430D01*
X034588Y009399D01*
X034607Y009366D01*
X034624Y009331D01*
X034637Y009294D01*
X034646Y009257D01*
X034652Y009219D01*
X034654Y009180D01*
X034654Y007991D01*
X034812Y007834D02*
X034834Y007836D01*
X034856Y007840D01*
X034877Y007848D01*
X034897Y007859D01*
X034915Y007872D01*
X034931Y007888D01*
X034944Y007906D01*
X034955Y007926D01*
X034963Y007947D01*
X034967Y007969D01*
X034969Y007991D01*
X034969Y009180D01*
X034971Y009219D01*
X034977Y009257D01*
X034986Y009294D01*
X034999Y009331D01*
X035016Y009366D01*
X035035Y009399D01*
X035058Y009430D01*
X035084Y009459D01*
X035113Y009485D01*
X035144Y009508D01*
X035177Y009527D01*
X035212Y009544D01*
X035249Y009557D01*
X035286Y009566D01*
X035324Y009572D01*
X035363Y009574D01*
X036426Y009475D02*
X036428Y009494D01*
X036433Y009513D01*
X036443Y009529D01*
X036455Y009544D01*
X036470Y009556D01*
X036486Y009566D01*
X036505Y009571D01*
X036524Y009573D01*
X036543Y009571D01*
X036562Y009566D01*
X036578Y009556D01*
X036593Y009544D01*
X036605Y009529D01*
X036615Y009513D01*
X036620Y009494D01*
X036622Y009475D01*
X036620Y009456D01*
X036615Y009437D01*
X036605Y009421D01*
X036593Y009406D01*
X036578Y009394D01*
X036562Y009384D01*
X036543Y009379D01*
X036524Y009377D01*
X036505Y009379D01*
X036486Y009384D01*
X036470Y009394D01*
X036455Y009406D01*
X036443Y009421D01*
X036433Y009437D01*
X036428Y009456D01*
X036426Y009475D01*
X036820Y009475D02*
X036822Y009494D01*
X036827Y009513D01*
X036837Y009529D01*
X036849Y009544D01*
X036864Y009556D01*
X036880Y009566D01*
X036899Y009571D01*
X036918Y009573D01*
X036937Y009571D01*
X036956Y009566D01*
X036972Y009556D01*
X036987Y009544D01*
X036999Y009529D01*
X037009Y009513D01*
X037014Y009494D01*
X037016Y009475D01*
X037014Y009456D01*
X037009Y009437D01*
X036999Y009421D01*
X036987Y009406D01*
X036972Y009394D01*
X036956Y009384D01*
X036937Y009379D01*
X036918Y009377D01*
X036899Y009379D01*
X036880Y009384D01*
X036864Y009394D01*
X036849Y009406D01*
X036837Y009421D01*
X036827Y009437D01*
X036822Y009456D01*
X036820Y009475D01*
X037214Y009475D02*
X037216Y009494D01*
X037221Y009513D01*
X037231Y009529D01*
X037243Y009544D01*
X037258Y009556D01*
X037274Y009566D01*
X037293Y009571D01*
X037312Y009573D01*
X037331Y009571D01*
X037350Y009566D01*
X037366Y009556D01*
X037381Y009544D01*
X037393Y009529D01*
X037403Y009513D01*
X037408Y009494D01*
X037410Y009475D01*
X037408Y009456D01*
X037403Y009437D01*
X037393Y009421D01*
X037381Y009406D01*
X037366Y009394D01*
X037350Y009384D01*
X037331Y009379D01*
X037312Y009377D01*
X037293Y009379D01*
X037274Y009384D01*
X037258Y009394D01*
X037243Y009406D01*
X037231Y009421D01*
X037221Y009437D01*
X037216Y009456D01*
X037214Y009475D01*
X037607Y009475D02*
X037609Y009494D01*
X037614Y009513D01*
X037624Y009529D01*
X037636Y009544D01*
X037651Y009556D01*
X037667Y009566D01*
X037686Y009571D01*
X037705Y009573D01*
X037724Y009571D01*
X037743Y009566D01*
X037759Y009556D01*
X037774Y009544D01*
X037786Y009529D01*
X037796Y009513D01*
X037801Y009494D01*
X037803Y009475D01*
X037801Y009456D01*
X037796Y009437D01*
X037786Y009421D01*
X037774Y009406D01*
X037759Y009394D01*
X037743Y009384D01*
X037724Y009379D01*
X037705Y009377D01*
X037686Y009379D01*
X037667Y009384D01*
X037651Y009394D01*
X037636Y009406D01*
X037624Y009421D01*
X037614Y009437D01*
X037609Y009456D01*
X037607Y009475D01*
X038001Y009475D02*
X038003Y009494D01*
X038008Y009513D01*
X038018Y009529D01*
X038030Y009544D01*
X038045Y009556D01*
X038061Y009566D01*
X038080Y009571D01*
X038099Y009573D01*
X038118Y009571D01*
X038137Y009566D01*
X038153Y009556D01*
X038168Y009544D01*
X038180Y009529D01*
X038190Y009513D01*
X038195Y009494D01*
X038197Y009475D01*
X038195Y009456D01*
X038190Y009437D01*
X038180Y009421D01*
X038168Y009406D01*
X038153Y009394D01*
X038137Y009384D01*
X038118Y009379D01*
X038099Y009377D01*
X038080Y009379D01*
X038061Y009384D01*
X038045Y009394D01*
X038030Y009406D01*
X038018Y009421D01*
X038008Y009437D01*
X038003Y009456D01*
X038001Y009475D01*
X039260Y009574D02*
X039299Y009572D01*
X039337Y009566D01*
X039374Y009557D01*
X039411Y009544D01*
X039446Y009527D01*
X039479Y009508D01*
X039510Y009485D01*
X039539Y009459D01*
X039565Y009430D01*
X039588Y009399D01*
X039607Y009366D01*
X039624Y009331D01*
X039637Y009294D01*
X039646Y009257D01*
X039652Y009219D01*
X039654Y009180D01*
X039654Y007991D01*
X039812Y007834D02*
X039834Y007836D01*
X039856Y007840D01*
X039877Y007848D01*
X039897Y007859D01*
X039915Y007872D01*
X039931Y007888D01*
X039944Y007906D01*
X039955Y007926D01*
X039963Y007947D01*
X039967Y007969D01*
X039969Y007991D01*
X039969Y009180D01*
X039971Y009219D01*
X039977Y009257D01*
X039986Y009294D01*
X039999Y009331D01*
X040016Y009366D01*
X040035Y009399D01*
X040058Y009430D01*
X040084Y009459D01*
X040113Y009485D01*
X040144Y009508D01*
X040177Y009527D01*
X040212Y009544D01*
X040249Y009557D01*
X040286Y009566D01*
X040324Y009572D01*
X040363Y009574D01*
X041426Y009475D02*
X041428Y009494D01*
X041433Y009513D01*
X041443Y009529D01*
X041455Y009544D01*
X041470Y009556D01*
X041486Y009566D01*
X041505Y009571D01*
X041524Y009573D01*
X041543Y009571D01*
X041562Y009566D01*
X041578Y009556D01*
X041593Y009544D01*
X041605Y009529D01*
X041615Y009513D01*
X041620Y009494D01*
X041622Y009475D01*
X041620Y009456D01*
X041615Y009437D01*
X041605Y009421D01*
X041593Y009406D01*
X041578Y009394D01*
X041562Y009384D01*
X041543Y009379D01*
X041524Y009377D01*
X041505Y009379D01*
X041486Y009384D01*
X041470Y009394D01*
X041455Y009406D01*
X041443Y009421D01*
X041433Y009437D01*
X041428Y009456D01*
X041426Y009475D01*
X041820Y009475D02*
X041822Y009494D01*
X041827Y009513D01*
X041837Y009529D01*
X041849Y009544D01*
X041864Y009556D01*
X041880Y009566D01*
X041899Y009571D01*
X041918Y009573D01*
X041937Y009571D01*
X041956Y009566D01*
X041972Y009556D01*
X041987Y009544D01*
X041999Y009529D01*
X042009Y009513D01*
X042014Y009494D01*
X042016Y009475D01*
X042014Y009456D01*
X042009Y009437D01*
X041999Y009421D01*
X041987Y009406D01*
X041972Y009394D01*
X041956Y009384D01*
X041937Y009379D01*
X041918Y009377D01*
X041899Y009379D01*
X041880Y009384D01*
X041864Y009394D01*
X041849Y009406D01*
X041837Y009421D01*
X041827Y009437D01*
X041822Y009456D01*
X041820Y009475D01*
X042214Y009475D02*
X042216Y009494D01*
X042221Y009513D01*
X042231Y009529D01*
X042243Y009544D01*
X042258Y009556D01*
X042274Y009566D01*
X042293Y009571D01*
X042312Y009573D01*
X042331Y009571D01*
X042350Y009566D01*
X042366Y009556D01*
X042381Y009544D01*
X042393Y009529D01*
X042403Y009513D01*
X042408Y009494D01*
X042410Y009475D01*
X042408Y009456D01*
X042403Y009437D01*
X042393Y009421D01*
X042381Y009406D01*
X042366Y009394D01*
X042350Y009384D01*
X042331Y009379D01*
X042312Y009377D01*
X042293Y009379D01*
X042274Y009384D01*
X042258Y009394D01*
X042243Y009406D01*
X042231Y009421D01*
X042221Y009437D01*
X042216Y009456D01*
X042214Y009475D01*
X042607Y009475D02*
X042609Y009494D01*
X042614Y009513D01*
X042624Y009529D01*
X042636Y009544D01*
X042651Y009556D01*
X042667Y009566D01*
X042686Y009571D01*
X042705Y009573D01*
X042724Y009571D01*
X042743Y009566D01*
X042759Y009556D01*
X042774Y009544D01*
X042786Y009529D01*
X042796Y009513D01*
X042801Y009494D01*
X042803Y009475D01*
X042801Y009456D01*
X042796Y009437D01*
X042786Y009421D01*
X042774Y009406D01*
X042759Y009394D01*
X042743Y009384D01*
X042724Y009379D01*
X042705Y009377D01*
X042686Y009379D01*
X042667Y009384D01*
X042651Y009394D01*
X042636Y009406D01*
X042624Y009421D01*
X042614Y009437D01*
X042609Y009456D01*
X042607Y009475D01*
X043001Y009475D02*
X043003Y009494D01*
X043008Y009513D01*
X043018Y009529D01*
X043030Y009544D01*
X043045Y009556D01*
X043061Y009566D01*
X043080Y009571D01*
X043099Y009573D01*
X043118Y009571D01*
X043137Y009566D01*
X043153Y009556D01*
X043168Y009544D01*
X043180Y009529D01*
X043190Y009513D01*
X043195Y009494D01*
X043197Y009475D01*
X043195Y009456D01*
X043190Y009437D01*
X043180Y009421D01*
X043168Y009406D01*
X043153Y009394D01*
X043137Y009384D01*
X043118Y009379D01*
X043099Y009377D01*
X043080Y009379D01*
X043061Y009384D01*
X043045Y009394D01*
X043030Y009406D01*
X043018Y009421D01*
X043008Y009437D01*
X043003Y009456D01*
X043001Y009475D01*
X044260Y009574D02*
X044299Y009572D01*
X044337Y009566D01*
X044374Y009557D01*
X044411Y009544D01*
X044446Y009527D01*
X044479Y009508D01*
X044510Y009485D01*
X044539Y009459D01*
X044565Y009430D01*
X044588Y009399D01*
X044607Y009366D01*
X044624Y009331D01*
X044637Y009294D01*
X044646Y009257D01*
X044652Y009219D01*
X044654Y009180D01*
X044654Y007991D01*
X044812Y007834D02*
X044834Y007836D01*
X044856Y007840D01*
X044877Y007848D01*
X044897Y007859D01*
X044915Y007872D01*
X044931Y007888D01*
X044944Y007906D01*
X044955Y007926D01*
X044963Y007947D01*
X044967Y007969D01*
X044969Y007991D01*
X044969Y009180D01*
X044971Y009219D01*
X044977Y009257D01*
X044986Y009294D01*
X044999Y009331D01*
X045016Y009366D01*
X045035Y009399D01*
X045058Y009430D01*
X045084Y009459D01*
X045113Y009485D01*
X045144Y009508D01*
X045177Y009527D01*
X045212Y009544D01*
X045249Y009557D01*
X045286Y009566D01*
X045324Y009572D01*
X045363Y009574D01*
X046426Y009475D02*
X046428Y009494D01*
X046433Y009513D01*
X046443Y009529D01*
X046455Y009544D01*
X046470Y009556D01*
X046486Y009566D01*
X046505Y009571D01*
X046524Y009573D01*
X046543Y009571D01*
X046562Y009566D01*
X046578Y009556D01*
X046593Y009544D01*
X046605Y009529D01*
X046615Y009513D01*
X046620Y009494D01*
X046622Y009475D01*
X046620Y009456D01*
X046615Y009437D01*
X046605Y009421D01*
X046593Y009406D01*
X046578Y009394D01*
X046562Y009384D01*
X046543Y009379D01*
X046524Y009377D01*
X046505Y009379D01*
X046486Y009384D01*
X046470Y009394D01*
X046455Y009406D01*
X046443Y009421D01*
X046433Y009437D01*
X046428Y009456D01*
X046426Y009475D01*
X046820Y009475D02*
X046822Y009494D01*
X046827Y009513D01*
X046837Y009529D01*
X046849Y009544D01*
X046864Y009556D01*
X046880Y009566D01*
X046899Y009571D01*
X046918Y009573D01*
X046937Y009571D01*
X046956Y009566D01*
X046972Y009556D01*
X046987Y009544D01*
X046999Y009529D01*
X047009Y009513D01*
X047014Y009494D01*
X047016Y009475D01*
X047014Y009456D01*
X047009Y009437D01*
X046999Y009421D01*
X046987Y009406D01*
X046972Y009394D01*
X046956Y009384D01*
X046937Y009379D01*
X046918Y009377D01*
X046899Y009379D01*
X046880Y009384D01*
X046864Y009394D01*
X046849Y009406D01*
X046837Y009421D01*
X046827Y009437D01*
X046822Y009456D01*
X046820Y009475D01*
X047214Y009475D02*
X047216Y009494D01*
X047221Y009513D01*
X047231Y009529D01*
X047243Y009544D01*
X047258Y009556D01*
X047274Y009566D01*
X047293Y009571D01*
X047312Y009573D01*
X047331Y009571D01*
X047350Y009566D01*
X047366Y009556D01*
X047381Y009544D01*
X047393Y009529D01*
X047403Y009513D01*
X047408Y009494D01*
X047410Y009475D01*
X047408Y009456D01*
X047403Y009437D01*
X047393Y009421D01*
X047381Y009406D01*
X047366Y009394D01*
X047350Y009384D01*
X047331Y009379D01*
X047312Y009377D01*
X047293Y009379D01*
X047274Y009384D01*
X047258Y009394D01*
X047243Y009406D01*
X047231Y009421D01*
X047221Y009437D01*
X047216Y009456D01*
X047214Y009475D01*
X047607Y009475D02*
X047609Y009494D01*
X047614Y009513D01*
X047624Y009529D01*
X047636Y009544D01*
X047651Y009556D01*
X047667Y009566D01*
X047686Y009571D01*
X047705Y009573D01*
X047724Y009571D01*
X047743Y009566D01*
X047759Y009556D01*
X047774Y009544D01*
X047786Y009529D01*
X047796Y009513D01*
X047801Y009494D01*
X047803Y009475D01*
X047801Y009456D01*
X047796Y009437D01*
X047786Y009421D01*
X047774Y009406D01*
X047759Y009394D01*
X047743Y009384D01*
X047724Y009379D01*
X047705Y009377D01*
X047686Y009379D01*
X047667Y009384D01*
X047651Y009394D01*
X047636Y009406D01*
X047624Y009421D01*
X047614Y009437D01*
X047609Y009456D01*
X047607Y009475D01*
X048001Y009475D02*
X048003Y009494D01*
X048008Y009513D01*
X048018Y009529D01*
X048030Y009544D01*
X048045Y009556D01*
X048061Y009566D01*
X048080Y009571D01*
X048099Y009573D01*
X048118Y009571D01*
X048137Y009566D01*
X048153Y009556D01*
X048168Y009544D01*
X048180Y009529D01*
X048190Y009513D01*
X048195Y009494D01*
X048197Y009475D01*
X048195Y009456D01*
X048190Y009437D01*
X048180Y009421D01*
X048168Y009406D01*
X048153Y009394D01*
X048137Y009384D01*
X048118Y009379D01*
X048099Y009377D01*
X048080Y009379D01*
X048061Y009384D01*
X048045Y009394D01*
X048030Y009406D01*
X048018Y009421D01*
X048008Y009437D01*
X048003Y009456D01*
X048001Y009475D01*
X049260Y009574D02*
X049299Y009572D01*
X049337Y009566D01*
X049374Y009557D01*
X049411Y009544D01*
X049446Y009527D01*
X049479Y009508D01*
X049510Y009485D01*
X049539Y009459D01*
X049565Y009430D01*
X049588Y009399D01*
X049607Y009366D01*
X049624Y009331D01*
X049637Y009294D01*
X049646Y009257D01*
X049652Y009219D01*
X049654Y009180D01*
X049654Y007991D01*
X049800Y007834D02*
X049822Y007836D01*
X049844Y007840D01*
X049865Y007848D01*
X049885Y007859D01*
X049903Y007872D01*
X049919Y007888D01*
X049932Y007906D01*
X049943Y007926D01*
X049951Y007947D01*
X049955Y007969D01*
X049957Y007991D01*
X049957Y009180D01*
X049959Y009219D01*
X049965Y009257D01*
X049974Y009294D01*
X049987Y009331D01*
X050004Y009366D01*
X050023Y009399D01*
X050046Y009430D01*
X050072Y009459D01*
X050101Y009485D01*
X050132Y009508D01*
X050165Y009527D01*
X050200Y009544D01*
X050237Y009557D01*
X050274Y009566D01*
X050312Y009572D01*
X050351Y009574D01*
X051674Y010361D02*
X051676Y010411D01*
X051682Y010461D01*
X051692Y010510D01*
X051706Y010558D01*
X051723Y010605D01*
X051744Y010650D01*
X051769Y010694D01*
X051797Y010735D01*
X051829Y010774D01*
X051863Y010811D01*
X051900Y010845D01*
X051940Y010875D01*
X051982Y010902D01*
X052026Y010926D01*
X052072Y010947D01*
X052119Y010963D01*
X052167Y010976D01*
X052217Y010985D01*
X052266Y010990D01*
X052317Y010991D01*
X052367Y010988D01*
X052416Y010981D01*
X052465Y010970D01*
X052513Y010955D01*
X052559Y010937D01*
X052604Y010915D01*
X052647Y010889D01*
X052688Y010860D01*
X052727Y010828D01*
X052763Y010793D01*
X052795Y010755D01*
X052825Y010715D01*
X052852Y010672D01*
X052875Y010628D01*
X052894Y010582D01*
X052910Y010534D01*
X052922Y010485D01*
X052930Y010436D01*
X052934Y010386D01*
X052934Y010336D01*
X052930Y010286D01*
X052922Y010237D01*
X052910Y010188D01*
X052894Y010140D01*
X052875Y010094D01*
X052852Y010050D01*
X052825Y010007D01*
X052795Y009967D01*
X052763Y009929D01*
X052727Y009894D01*
X052688Y009862D01*
X052647Y009833D01*
X052604Y009807D01*
X052559Y009785D01*
X052513Y009767D01*
X052465Y009752D01*
X052416Y009741D01*
X052367Y009734D01*
X052317Y009731D01*
X052266Y009732D01*
X052217Y009737D01*
X052167Y009746D01*
X052119Y009759D01*
X052072Y009775D01*
X052026Y009796D01*
X051982Y009820D01*
X051940Y009847D01*
X051900Y009877D01*
X051863Y009911D01*
X051829Y009948D01*
X051797Y009987D01*
X051769Y010028D01*
X051744Y010072D01*
X051723Y010117D01*
X051706Y010164D01*
X051692Y010212D01*
X051682Y010261D01*
X051676Y010311D01*
X051674Y010361D01*
X049655Y007991D02*
X049657Y007969D01*
X049661Y007947D01*
X049669Y007926D01*
X049680Y007906D01*
X049693Y007888D01*
X049709Y007872D01*
X049727Y007859D01*
X049747Y007848D01*
X049768Y007840D01*
X049790Y007836D01*
X049812Y007834D01*
X049714Y007334D02*
X049716Y007353D01*
X049721Y007372D01*
X049731Y007388D01*
X049743Y007403D01*
X049758Y007415D01*
X049774Y007425D01*
X049793Y007430D01*
X049812Y007432D01*
X049831Y007430D01*
X049850Y007425D01*
X049866Y007415D01*
X049881Y007403D01*
X049893Y007388D01*
X049903Y007372D01*
X049908Y007353D01*
X049910Y007334D01*
X049908Y007315D01*
X049903Y007296D01*
X049893Y007280D01*
X049881Y007265D01*
X049866Y007253D01*
X049850Y007243D01*
X049831Y007238D01*
X049812Y007236D01*
X049793Y007238D01*
X049774Y007243D01*
X049758Y007253D01*
X049743Y007265D01*
X049731Y007280D01*
X049721Y007296D01*
X049716Y007315D01*
X049714Y007334D01*
X049714Y006834D02*
X049716Y006853D01*
X049721Y006872D01*
X049731Y006888D01*
X049743Y006903D01*
X049758Y006915D01*
X049774Y006925D01*
X049793Y006930D01*
X049812Y006932D01*
X049831Y006930D01*
X049850Y006925D01*
X049866Y006915D01*
X049881Y006903D01*
X049893Y006888D01*
X049903Y006872D01*
X049908Y006853D01*
X049910Y006834D01*
X049908Y006815D01*
X049903Y006796D01*
X049893Y006780D01*
X049881Y006765D01*
X049866Y006753D01*
X049850Y006743D01*
X049831Y006738D01*
X049812Y006736D01*
X049793Y006738D01*
X049774Y006743D01*
X049758Y006753D01*
X049743Y006765D01*
X049731Y006780D01*
X049721Y006796D01*
X049716Y006815D01*
X049714Y006834D01*
X049714Y006334D02*
X049716Y006353D01*
X049721Y006372D01*
X049731Y006388D01*
X049743Y006403D01*
X049758Y006415D01*
X049774Y006425D01*
X049793Y006430D01*
X049812Y006432D01*
X049831Y006430D01*
X049850Y006425D01*
X049866Y006415D01*
X049881Y006403D01*
X049893Y006388D01*
X049903Y006372D01*
X049908Y006353D01*
X049910Y006334D01*
X049908Y006315D01*
X049903Y006296D01*
X049893Y006280D01*
X049881Y006265D01*
X049866Y006253D01*
X049850Y006243D01*
X049831Y006238D01*
X049812Y006236D01*
X049793Y006238D01*
X049774Y006243D01*
X049758Y006253D01*
X049743Y006265D01*
X049731Y006280D01*
X049721Y006296D01*
X049716Y006315D01*
X049714Y006334D01*
X049714Y005834D02*
X049716Y005853D01*
X049721Y005872D01*
X049731Y005888D01*
X049743Y005903D01*
X049758Y005915D01*
X049774Y005925D01*
X049793Y005930D01*
X049812Y005932D01*
X049831Y005930D01*
X049850Y005925D01*
X049866Y005915D01*
X049881Y005903D01*
X049893Y005888D01*
X049903Y005872D01*
X049908Y005853D01*
X049910Y005834D01*
X049908Y005815D01*
X049903Y005796D01*
X049893Y005780D01*
X049881Y005765D01*
X049866Y005753D01*
X049850Y005743D01*
X049831Y005738D01*
X049812Y005736D01*
X049793Y005738D01*
X049774Y005743D01*
X049758Y005753D01*
X049743Y005765D01*
X049731Y005780D01*
X049721Y005796D01*
X049716Y005815D01*
X049714Y005834D01*
X049714Y005334D02*
X049716Y005353D01*
X049721Y005372D01*
X049731Y005388D01*
X049743Y005403D01*
X049758Y005415D01*
X049774Y005425D01*
X049793Y005430D01*
X049812Y005432D01*
X049831Y005430D01*
X049850Y005425D01*
X049866Y005415D01*
X049881Y005403D01*
X049893Y005388D01*
X049903Y005372D01*
X049908Y005353D01*
X049910Y005334D01*
X049908Y005315D01*
X049903Y005296D01*
X049893Y005280D01*
X049881Y005265D01*
X049866Y005253D01*
X049850Y005243D01*
X049831Y005238D01*
X049812Y005236D01*
X049793Y005238D01*
X049774Y005243D01*
X049758Y005253D01*
X049743Y005265D01*
X049731Y005280D01*
X049721Y005296D01*
X049716Y005315D01*
X049714Y005334D01*
X049714Y004834D02*
X049716Y004853D01*
X049721Y004872D01*
X049731Y004888D01*
X049743Y004903D01*
X049758Y004915D01*
X049774Y004925D01*
X049793Y004930D01*
X049812Y004932D01*
X049831Y004930D01*
X049850Y004925D01*
X049866Y004915D01*
X049881Y004903D01*
X049893Y004888D01*
X049903Y004872D01*
X049908Y004853D01*
X049910Y004834D01*
X049908Y004815D01*
X049903Y004796D01*
X049893Y004780D01*
X049881Y004765D01*
X049866Y004753D01*
X049850Y004743D01*
X049831Y004738D01*
X049812Y004736D01*
X049793Y004738D01*
X049774Y004743D01*
X049758Y004753D01*
X049743Y004765D01*
X049731Y004780D01*
X049721Y004796D01*
X049716Y004815D01*
X049714Y004834D01*
X049714Y004334D02*
X049716Y004353D01*
X049721Y004372D01*
X049731Y004388D01*
X049743Y004403D01*
X049758Y004415D01*
X049774Y004425D01*
X049793Y004430D01*
X049812Y004432D01*
X049831Y004430D01*
X049850Y004425D01*
X049866Y004415D01*
X049881Y004403D01*
X049893Y004388D01*
X049903Y004372D01*
X049908Y004353D01*
X049910Y004334D01*
X049908Y004315D01*
X049903Y004296D01*
X049893Y004280D01*
X049881Y004265D01*
X049866Y004253D01*
X049850Y004243D01*
X049831Y004238D01*
X049812Y004236D01*
X049793Y004238D01*
X049774Y004243D01*
X049758Y004253D01*
X049743Y004265D01*
X049731Y004280D01*
X049721Y004296D01*
X049716Y004315D01*
X049714Y004334D01*
X049812Y003833D02*
X049790Y003831D01*
X049768Y003827D01*
X049747Y003819D01*
X049727Y003808D01*
X049709Y003795D01*
X049693Y003779D01*
X049680Y003761D01*
X049669Y003741D01*
X049661Y003720D01*
X049657Y003698D01*
X049655Y003676D01*
X044812Y003833D02*
X044790Y003831D01*
X044768Y003827D01*
X044747Y003819D01*
X044727Y003808D01*
X044709Y003795D01*
X044693Y003779D01*
X044680Y003761D01*
X044669Y003741D01*
X044661Y003720D01*
X044657Y003698D01*
X044655Y003676D01*
X044714Y004334D02*
X044716Y004353D01*
X044721Y004372D01*
X044731Y004388D01*
X044743Y004403D01*
X044758Y004415D01*
X044774Y004425D01*
X044793Y004430D01*
X044812Y004432D01*
X044831Y004430D01*
X044850Y004425D01*
X044866Y004415D01*
X044881Y004403D01*
X044893Y004388D01*
X044903Y004372D01*
X044908Y004353D01*
X044910Y004334D01*
X044908Y004315D01*
X044903Y004296D01*
X044893Y004280D01*
X044881Y004265D01*
X044866Y004253D01*
X044850Y004243D01*
X044831Y004238D01*
X044812Y004236D01*
X044793Y004238D01*
X044774Y004243D01*
X044758Y004253D01*
X044743Y004265D01*
X044731Y004280D01*
X044721Y004296D01*
X044716Y004315D01*
X044714Y004334D01*
X044714Y004834D02*
X044716Y004853D01*
X044721Y004872D01*
X044731Y004888D01*
X044743Y004903D01*
X044758Y004915D01*
X044774Y004925D01*
X044793Y004930D01*
X044812Y004932D01*
X044831Y004930D01*
X044850Y004925D01*
X044866Y004915D01*
X044881Y004903D01*
X044893Y004888D01*
X044903Y004872D01*
X044908Y004853D01*
X044910Y004834D01*
X044908Y004815D01*
X044903Y004796D01*
X044893Y004780D01*
X044881Y004765D01*
X044866Y004753D01*
X044850Y004743D01*
X044831Y004738D01*
X044812Y004736D01*
X044793Y004738D01*
X044774Y004743D01*
X044758Y004753D01*
X044743Y004765D01*
X044731Y004780D01*
X044721Y004796D01*
X044716Y004815D01*
X044714Y004834D01*
X044714Y005334D02*
X044716Y005353D01*
X044721Y005372D01*
X044731Y005388D01*
X044743Y005403D01*
X044758Y005415D01*
X044774Y005425D01*
X044793Y005430D01*
X044812Y005432D01*
X044831Y005430D01*
X044850Y005425D01*
X044866Y005415D01*
X044881Y005403D01*
X044893Y005388D01*
X044903Y005372D01*
X044908Y005353D01*
X044910Y005334D01*
X044908Y005315D01*
X044903Y005296D01*
X044893Y005280D01*
X044881Y005265D01*
X044866Y005253D01*
X044850Y005243D01*
X044831Y005238D01*
X044812Y005236D01*
X044793Y005238D01*
X044774Y005243D01*
X044758Y005253D01*
X044743Y005265D01*
X044731Y005280D01*
X044721Y005296D01*
X044716Y005315D01*
X044714Y005334D01*
X044714Y005834D02*
X044716Y005853D01*
X044721Y005872D01*
X044731Y005888D01*
X044743Y005903D01*
X044758Y005915D01*
X044774Y005925D01*
X044793Y005930D01*
X044812Y005932D01*
X044831Y005930D01*
X044850Y005925D01*
X044866Y005915D01*
X044881Y005903D01*
X044893Y005888D01*
X044903Y005872D01*
X044908Y005853D01*
X044910Y005834D01*
X044908Y005815D01*
X044903Y005796D01*
X044893Y005780D01*
X044881Y005765D01*
X044866Y005753D01*
X044850Y005743D01*
X044831Y005738D01*
X044812Y005736D01*
X044793Y005738D01*
X044774Y005743D01*
X044758Y005753D01*
X044743Y005765D01*
X044731Y005780D01*
X044721Y005796D01*
X044716Y005815D01*
X044714Y005834D01*
X044714Y006334D02*
X044716Y006353D01*
X044721Y006372D01*
X044731Y006388D01*
X044743Y006403D01*
X044758Y006415D01*
X044774Y006425D01*
X044793Y006430D01*
X044812Y006432D01*
X044831Y006430D01*
X044850Y006425D01*
X044866Y006415D01*
X044881Y006403D01*
X044893Y006388D01*
X044903Y006372D01*
X044908Y006353D01*
X044910Y006334D01*
X044908Y006315D01*
X044903Y006296D01*
X044893Y006280D01*
X044881Y006265D01*
X044866Y006253D01*
X044850Y006243D01*
X044831Y006238D01*
X044812Y006236D01*
X044793Y006238D01*
X044774Y006243D01*
X044758Y006253D01*
X044743Y006265D01*
X044731Y006280D01*
X044721Y006296D01*
X044716Y006315D01*
X044714Y006334D01*
X044714Y006834D02*
X044716Y006853D01*
X044721Y006872D01*
X044731Y006888D01*
X044743Y006903D01*
X044758Y006915D01*
X044774Y006925D01*
X044793Y006930D01*
X044812Y006932D01*
X044831Y006930D01*
X044850Y006925D01*
X044866Y006915D01*
X044881Y006903D01*
X044893Y006888D01*
X044903Y006872D01*
X044908Y006853D01*
X044910Y006834D01*
X044908Y006815D01*
X044903Y006796D01*
X044893Y006780D01*
X044881Y006765D01*
X044866Y006753D01*
X044850Y006743D01*
X044831Y006738D01*
X044812Y006736D01*
X044793Y006738D01*
X044774Y006743D01*
X044758Y006753D01*
X044743Y006765D01*
X044731Y006780D01*
X044721Y006796D01*
X044716Y006815D01*
X044714Y006834D01*
X044714Y007334D02*
X044716Y007353D01*
X044721Y007372D01*
X044731Y007388D01*
X044743Y007403D01*
X044758Y007415D01*
X044774Y007425D01*
X044793Y007430D01*
X044812Y007432D01*
X044831Y007430D01*
X044850Y007425D01*
X044866Y007415D01*
X044881Y007403D01*
X044893Y007388D01*
X044903Y007372D01*
X044908Y007353D01*
X044910Y007334D01*
X044908Y007315D01*
X044903Y007296D01*
X044893Y007280D01*
X044881Y007265D01*
X044866Y007253D01*
X044850Y007243D01*
X044831Y007238D01*
X044812Y007236D01*
X044793Y007238D01*
X044774Y007243D01*
X044758Y007253D01*
X044743Y007265D01*
X044731Y007280D01*
X044721Y007296D01*
X044716Y007315D01*
X044714Y007334D01*
X044812Y007834D02*
X044790Y007836D01*
X044768Y007840D01*
X044747Y007848D01*
X044727Y007859D01*
X044709Y007872D01*
X044693Y007888D01*
X044680Y007906D01*
X044669Y007926D01*
X044661Y007947D01*
X044657Y007969D01*
X044655Y007991D01*
X039812Y007834D02*
X039790Y007836D01*
X039768Y007840D01*
X039747Y007848D01*
X039727Y007859D01*
X039709Y007872D01*
X039693Y007888D01*
X039680Y007906D01*
X039669Y007926D01*
X039661Y007947D01*
X039657Y007969D01*
X039655Y007991D01*
X039714Y007334D02*
X039716Y007353D01*
X039721Y007372D01*
X039731Y007388D01*
X039743Y007403D01*
X039758Y007415D01*
X039774Y007425D01*
X039793Y007430D01*
X039812Y007432D01*
X039831Y007430D01*
X039850Y007425D01*
X039866Y007415D01*
X039881Y007403D01*
X039893Y007388D01*
X039903Y007372D01*
X039908Y007353D01*
X039910Y007334D01*
X039908Y007315D01*
X039903Y007296D01*
X039893Y007280D01*
X039881Y007265D01*
X039866Y007253D01*
X039850Y007243D01*
X039831Y007238D01*
X039812Y007236D01*
X039793Y007238D01*
X039774Y007243D01*
X039758Y007253D01*
X039743Y007265D01*
X039731Y007280D01*
X039721Y007296D01*
X039716Y007315D01*
X039714Y007334D01*
X039714Y006834D02*
X039716Y006853D01*
X039721Y006872D01*
X039731Y006888D01*
X039743Y006903D01*
X039758Y006915D01*
X039774Y006925D01*
X039793Y006930D01*
X039812Y006932D01*
X039831Y006930D01*
X039850Y006925D01*
X039866Y006915D01*
X039881Y006903D01*
X039893Y006888D01*
X039903Y006872D01*
X039908Y006853D01*
X039910Y006834D01*
X039908Y006815D01*
X039903Y006796D01*
X039893Y006780D01*
X039881Y006765D01*
X039866Y006753D01*
X039850Y006743D01*
X039831Y006738D01*
X039812Y006736D01*
X039793Y006738D01*
X039774Y006743D01*
X039758Y006753D01*
X039743Y006765D01*
X039731Y006780D01*
X039721Y006796D01*
X039716Y006815D01*
X039714Y006834D01*
X039714Y006334D02*
X039716Y006353D01*
X039721Y006372D01*
X039731Y006388D01*
X039743Y006403D01*
X039758Y006415D01*
X039774Y006425D01*
X039793Y006430D01*
X039812Y006432D01*
X039831Y006430D01*
X039850Y006425D01*
X039866Y006415D01*
X039881Y006403D01*
X039893Y006388D01*
X039903Y006372D01*
X039908Y006353D01*
X039910Y006334D01*
X039908Y006315D01*
X039903Y006296D01*
X039893Y006280D01*
X039881Y006265D01*
X039866Y006253D01*
X039850Y006243D01*
X039831Y006238D01*
X039812Y006236D01*
X039793Y006238D01*
X039774Y006243D01*
X039758Y006253D01*
X039743Y006265D01*
X039731Y006280D01*
X039721Y006296D01*
X039716Y006315D01*
X039714Y006334D01*
X039714Y005834D02*
X039716Y005853D01*
X039721Y005872D01*
X039731Y005888D01*
X039743Y005903D01*
X039758Y005915D01*
X039774Y005925D01*
X039793Y005930D01*
X039812Y005932D01*
X039831Y005930D01*
X039850Y005925D01*
X039866Y005915D01*
X039881Y005903D01*
X039893Y005888D01*
X039903Y005872D01*
X039908Y005853D01*
X039910Y005834D01*
X039908Y005815D01*
X039903Y005796D01*
X039893Y005780D01*
X039881Y005765D01*
X039866Y005753D01*
X039850Y005743D01*
X039831Y005738D01*
X039812Y005736D01*
X039793Y005738D01*
X039774Y005743D01*
X039758Y005753D01*
X039743Y005765D01*
X039731Y005780D01*
X039721Y005796D01*
X039716Y005815D01*
X039714Y005834D01*
X039714Y005334D02*
X039716Y005353D01*
X039721Y005372D01*
X039731Y005388D01*
X039743Y005403D01*
X039758Y005415D01*
X039774Y005425D01*
X039793Y005430D01*
X039812Y005432D01*
X039831Y005430D01*
X039850Y005425D01*
X039866Y005415D01*
X039881Y005403D01*
X039893Y005388D01*
X039903Y005372D01*
X039908Y005353D01*
X039910Y005334D01*
X039908Y005315D01*
X039903Y005296D01*
X039893Y005280D01*
X039881Y005265D01*
X039866Y005253D01*
X039850Y005243D01*
X039831Y005238D01*
X039812Y005236D01*
X039793Y005238D01*
X039774Y005243D01*
X039758Y005253D01*
X039743Y005265D01*
X039731Y005280D01*
X039721Y005296D01*
X039716Y005315D01*
X039714Y005334D01*
X039714Y004834D02*
X039716Y004853D01*
X039721Y004872D01*
X039731Y004888D01*
X039743Y004903D01*
X039758Y004915D01*
X039774Y004925D01*
X039793Y004930D01*
X039812Y004932D01*
X039831Y004930D01*
X039850Y004925D01*
X039866Y004915D01*
X039881Y004903D01*
X039893Y004888D01*
X039903Y004872D01*
X039908Y004853D01*
X039910Y004834D01*
X039908Y004815D01*
X039903Y004796D01*
X039893Y004780D01*
X039881Y004765D01*
X039866Y004753D01*
X039850Y004743D01*
X039831Y004738D01*
X039812Y004736D01*
X039793Y004738D01*
X039774Y004743D01*
X039758Y004753D01*
X039743Y004765D01*
X039731Y004780D01*
X039721Y004796D01*
X039716Y004815D01*
X039714Y004834D01*
X039714Y004334D02*
X039716Y004353D01*
X039721Y004372D01*
X039731Y004388D01*
X039743Y004403D01*
X039758Y004415D01*
X039774Y004425D01*
X039793Y004430D01*
X039812Y004432D01*
X039831Y004430D01*
X039850Y004425D01*
X039866Y004415D01*
X039881Y004403D01*
X039893Y004388D01*
X039903Y004372D01*
X039908Y004353D01*
X039910Y004334D01*
X039908Y004315D01*
X039903Y004296D01*
X039893Y004280D01*
X039881Y004265D01*
X039866Y004253D01*
X039850Y004243D01*
X039831Y004238D01*
X039812Y004236D01*
X039793Y004238D01*
X039774Y004243D01*
X039758Y004253D01*
X039743Y004265D01*
X039731Y004280D01*
X039721Y004296D01*
X039716Y004315D01*
X039714Y004334D01*
X039812Y003833D02*
X039790Y003831D01*
X039768Y003827D01*
X039747Y003819D01*
X039727Y003808D01*
X039709Y003795D01*
X039693Y003779D01*
X039680Y003761D01*
X039669Y003741D01*
X039661Y003720D01*
X039657Y003698D01*
X039655Y003676D01*
X034812Y003833D02*
X034790Y003831D01*
X034768Y003827D01*
X034747Y003819D01*
X034727Y003808D01*
X034709Y003795D01*
X034693Y003779D01*
X034680Y003761D01*
X034669Y003741D01*
X034661Y003720D01*
X034657Y003698D01*
X034655Y003676D01*
X034714Y004334D02*
X034716Y004353D01*
X034721Y004372D01*
X034731Y004388D01*
X034743Y004403D01*
X034758Y004415D01*
X034774Y004425D01*
X034793Y004430D01*
X034812Y004432D01*
X034831Y004430D01*
X034850Y004425D01*
X034866Y004415D01*
X034881Y004403D01*
X034893Y004388D01*
X034903Y004372D01*
X034908Y004353D01*
X034910Y004334D01*
X034908Y004315D01*
X034903Y004296D01*
X034893Y004280D01*
X034881Y004265D01*
X034866Y004253D01*
X034850Y004243D01*
X034831Y004238D01*
X034812Y004236D01*
X034793Y004238D01*
X034774Y004243D01*
X034758Y004253D01*
X034743Y004265D01*
X034731Y004280D01*
X034721Y004296D01*
X034716Y004315D01*
X034714Y004334D01*
X034714Y004834D02*
X034716Y004853D01*
X034721Y004872D01*
X034731Y004888D01*
X034743Y004903D01*
X034758Y004915D01*
X034774Y004925D01*
X034793Y004930D01*
X034812Y004932D01*
X034831Y004930D01*
X034850Y004925D01*
X034866Y004915D01*
X034881Y004903D01*
X034893Y004888D01*
X034903Y004872D01*
X034908Y004853D01*
X034910Y004834D01*
X034908Y004815D01*
X034903Y004796D01*
X034893Y004780D01*
X034881Y004765D01*
X034866Y004753D01*
X034850Y004743D01*
X034831Y004738D01*
X034812Y004736D01*
X034793Y004738D01*
X034774Y004743D01*
X034758Y004753D01*
X034743Y004765D01*
X034731Y004780D01*
X034721Y004796D01*
X034716Y004815D01*
X034714Y004834D01*
X034714Y005334D02*
X034716Y005353D01*
X034721Y005372D01*
X034731Y005388D01*
X034743Y005403D01*
X034758Y005415D01*
X034774Y005425D01*
X034793Y005430D01*
X034812Y005432D01*
X034831Y005430D01*
X034850Y005425D01*
X034866Y005415D01*
X034881Y005403D01*
X034893Y005388D01*
X034903Y005372D01*
X034908Y005353D01*
X034910Y005334D01*
X034908Y005315D01*
X034903Y005296D01*
X034893Y005280D01*
X034881Y005265D01*
X034866Y005253D01*
X034850Y005243D01*
X034831Y005238D01*
X034812Y005236D01*
X034793Y005238D01*
X034774Y005243D01*
X034758Y005253D01*
X034743Y005265D01*
X034731Y005280D01*
X034721Y005296D01*
X034716Y005315D01*
X034714Y005334D01*
X034714Y005834D02*
X034716Y005853D01*
X034721Y005872D01*
X034731Y005888D01*
X034743Y005903D01*
X034758Y005915D01*
X034774Y005925D01*
X034793Y005930D01*
X034812Y005932D01*
X034831Y005930D01*
X034850Y005925D01*
X034866Y005915D01*
X034881Y005903D01*
X034893Y005888D01*
X034903Y005872D01*
X034908Y005853D01*
X034910Y005834D01*
X034908Y005815D01*
X034903Y005796D01*
X034893Y005780D01*
X034881Y005765D01*
X034866Y005753D01*
X034850Y005743D01*
X034831Y005738D01*
X034812Y005736D01*
X034793Y005738D01*
X034774Y005743D01*
X034758Y005753D01*
X034743Y005765D01*
X034731Y005780D01*
X034721Y005796D01*
X034716Y005815D01*
X034714Y005834D01*
X034714Y006334D02*
X034716Y006353D01*
X034721Y006372D01*
X034731Y006388D01*
X034743Y006403D01*
X034758Y006415D01*
X034774Y006425D01*
X034793Y006430D01*
X034812Y006432D01*
X034831Y006430D01*
X034850Y006425D01*
X034866Y006415D01*
X034881Y006403D01*
X034893Y006388D01*
X034903Y006372D01*
X034908Y006353D01*
X034910Y006334D01*
X034908Y006315D01*
X034903Y006296D01*
X034893Y006280D01*
X034881Y006265D01*
X034866Y006253D01*
X034850Y006243D01*
X034831Y006238D01*
X034812Y006236D01*
X034793Y006238D01*
X034774Y006243D01*
X034758Y006253D01*
X034743Y006265D01*
X034731Y006280D01*
X034721Y006296D01*
X034716Y006315D01*
X034714Y006334D01*
X034714Y006834D02*
X034716Y006853D01*
X034721Y006872D01*
X034731Y006888D01*
X034743Y006903D01*
X034758Y006915D01*
X034774Y006925D01*
X034793Y006930D01*
X034812Y006932D01*
X034831Y006930D01*
X034850Y006925D01*
X034866Y006915D01*
X034881Y006903D01*
X034893Y006888D01*
X034903Y006872D01*
X034908Y006853D01*
X034910Y006834D01*
X034908Y006815D01*
X034903Y006796D01*
X034893Y006780D01*
X034881Y006765D01*
X034866Y006753D01*
X034850Y006743D01*
X034831Y006738D01*
X034812Y006736D01*
X034793Y006738D01*
X034774Y006743D01*
X034758Y006753D01*
X034743Y006765D01*
X034731Y006780D01*
X034721Y006796D01*
X034716Y006815D01*
X034714Y006834D01*
X034714Y007334D02*
X034716Y007353D01*
X034721Y007372D01*
X034731Y007388D01*
X034743Y007403D01*
X034758Y007415D01*
X034774Y007425D01*
X034793Y007430D01*
X034812Y007432D01*
X034831Y007430D01*
X034850Y007425D01*
X034866Y007415D01*
X034881Y007403D01*
X034893Y007388D01*
X034903Y007372D01*
X034908Y007353D01*
X034910Y007334D01*
X034908Y007315D01*
X034903Y007296D01*
X034893Y007280D01*
X034881Y007265D01*
X034866Y007253D01*
X034850Y007243D01*
X034831Y007238D01*
X034812Y007236D01*
X034793Y007238D01*
X034774Y007243D01*
X034758Y007253D01*
X034743Y007265D01*
X034731Y007280D01*
X034721Y007296D01*
X034716Y007315D01*
X034714Y007334D01*
X034812Y007834D02*
X034790Y007836D01*
X034768Y007840D01*
X034747Y007848D01*
X034727Y007859D01*
X034709Y007872D01*
X034693Y007888D01*
X034680Y007906D01*
X034669Y007926D01*
X034661Y007947D01*
X034657Y007969D01*
X034655Y007991D01*
X029812Y007834D02*
X029790Y007836D01*
X029768Y007840D01*
X029747Y007848D01*
X029727Y007859D01*
X029709Y007872D01*
X029693Y007888D01*
X029680Y007906D01*
X029669Y007926D01*
X029661Y007947D01*
X029657Y007969D01*
X029655Y007991D01*
X029714Y007334D02*
X029716Y007353D01*
X029721Y007372D01*
X029731Y007388D01*
X029743Y007403D01*
X029758Y007415D01*
X029774Y007425D01*
X029793Y007430D01*
X029812Y007432D01*
X029831Y007430D01*
X029850Y007425D01*
X029866Y007415D01*
X029881Y007403D01*
X029893Y007388D01*
X029903Y007372D01*
X029908Y007353D01*
X029910Y007334D01*
X029908Y007315D01*
X029903Y007296D01*
X029893Y007280D01*
X029881Y007265D01*
X029866Y007253D01*
X029850Y007243D01*
X029831Y007238D01*
X029812Y007236D01*
X029793Y007238D01*
X029774Y007243D01*
X029758Y007253D01*
X029743Y007265D01*
X029731Y007280D01*
X029721Y007296D01*
X029716Y007315D01*
X029714Y007334D01*
X029714Y006834D02*
X029716Y006853D01*
X029721Y006872D01*
X029731Y006888D01*
X029743Y006903D01*
X029758Y006915D01*
X029774Y006925D01*
X029793Y006930D01*
X029812Y006932D01*
X029831Y006930D01*
X029850Y006925D01*
X029866Y006915D01*
X029881Y006903D01*
X029893Y006888D01*
X029903Y006872D01*
X029908Y006853D01*
X029910Y006834D01*
X029908Y006815D01*
X029903Y006796D01*
X029893Y006780D01*
X029881Y006765D01*
X029866Y006753D01*
X029850Y006743D01*
X029831Y006738D01*
X029812Y006736D01*
X029793Y006738D01*
X029774Y006743D01*
X029758Y006753D01*
X029743Y006765D01*
X029731Y006780D01*
X029721Y006796D01*
X029716Y006815D01*
X029714Y006834D01*
X029714Y006334D02*
X029716Y006353D01*
X029721Y006372D01*
X029731Y006388D01*
X029743Y006403D01*
X029758Y006415D01*
X029774Y006425D01*
X029793Y006430D01*
X029812Y006432D01*
X029831Y006430D01*
X029850Y006425D01*
X029866Y006415D01*
X029881Y006403D01*
X029893Y006388D01*
X029903Y006372D01*
X029908Y006353D01*
X029910Y006334D01*
X029908Y006315D01*
X029903Y006296D01*
X029893Y006280D01*
X029881Y006265D01*
X029866Y006253D01*
X029850Y006243D01*
X029831Y006238D01*
X029812Y006236D01*
X029793Y006238D01*
X029774Y006243D01*
X029758Y006253D01*
X029743Y006265D01*
X029731Y006280D01*
X029721Y006296D01*
X029716Y006315D01*
X029714Y006334D01*
X029714Y005834D02*
X029716Y005853D01*
X029721Y005872D01*
X029731Y005888D01*
X029743Y005903D01*
X029758Y005915D01*
X029774Y005925D01*
X029793Y005930D01*
X029812Y005932D01*
X029831Y005930D01*
X029850Y005925D01*
X029866Y005915D01*
X029881Y005903D01*
X029893Y005888D01*
X029903Y005872D01*
X029908Y005853D01*
X029910Y005834D01*
X029908Y005815D01*
X029903Y005796D01*
X029893Y005780D01*
X029881Y005765D01*
X029866Y005753D01*
X029850Y005743D01*
X029831Y005738D01*
X029812Y005736D01*
X029793Y005738D01*
X029774Y005743D01*
X029758Y005753D01*
X029743Y005765D01*
X029731Y005780D01*
X029721Y005796D01*
X029716Y005815D01*
X029714Y005834D01*
X029714Y005334D02*
X029716Y005353D01*
X029721Y005372D01*
X029731Y005388D01*
X029743Y005403D01*
X029758Y005415D01*
X029774Y005425D01*
X029793Y005430D01*
X029812Y005432D01*
X029831Y005430D01*
X029850Y005425D01*
X029866Y005415D01*
X029881Y005403D01*
X029893Y005388D01*
X029903Y005372D01*
X029908Y005353D01*
X029910Y005334D01*
X029908Y005315D01*
X029903Y005296D01*
X029893Y005280D01*
X029881Y005265D01*
X029866Y005253D01*
X029850Y005243D01*
X029831Y005238D01*
X029812Y005236D01*
X029793Y005238D01*
X029774Y005243D01*
X029758Y005253D01*
X029743Y005265D01*
X029731Y005280D01*
X029721Y005296D01*
X029716Y005315D01*
X029714Y005334D01*
X029714Y004834D02*
X029716Y004853D01*
X029721Y004872D01*
X029731Y004888D01*
X029743Y004903D01*
X029758Y004915D01*
X029774Y004925D01*
X029793Y004930D01*
X029812Y004932D01*
X029831Y004930D01*
X029850Y004925D01*
X029866Y004915D01*
X029881Y004903D01*
X029893Y004888D01*
X029903Y004872D01*
X029908Y004853D01*
X029910Y004834D01*
X029908Y004815D01*
X029903Y004796D01*
X029893Y004780D01*
X029881Y004765D01*
X029866Y004753D01*
X029850Y004743D01*
X029831Y004738D01*
X029812Y004736D01*
X029793Y004738D01*
X029774Y004743D01*
X029758Y004753D01*
X029743Y004765D01*
X029731Y004780D01*
X029721Y004796D01*
X029716Y004815D01*
X029714Y004834D01*
X029714Y004334D02*
X029716Y004353D01*
X029721Y004372D01*
X029731Y004388D01*
X029743Y004403D01*
X029758Y004415D01*
X029774Y004425D01*
X029793Y004430D01*
X029812Y004432D01*
X029831Y004430D01*
X029850Y004425D01*
X029866Y004415D01*
X029881Y004403D01*
X029893Y004388D01*
X029903Y004372D01*
X029908Y004353D01*
X029910Y004334D01*
X029908Y004315D01*
X029903Y004296D01*
X029893Y004280D01*
X029881Y004265D01*
X029866Y004253D01*
X029850Y004243D01*
X029831Y004238D01*
X029812Y004236D01*
X029793Y004238D01*
X029774Y004243D01*
X029758Y004253D01*
X029743Y004265D01*
X029731Y004280D01*
X029721Y004296D01*
X029716Y004315D01*
X029714Y004334D01*
X029812Y003833D02*
X029790Y003831D01*
X029768Y003827D01*
X029747Y003819D01*
X029727Y003808D01*
X029709Y003795D01*
X029693Y003779D01*
X029680Y003761D01*
X029669Y003741D01*
X029661Y003720D01*
X029657Y003698D01*
X029655Y003676D01*
X024812Y003833D02*
X024790Y003831D01*
X024768Y003827D01*
X024747Y003819D01*
X024727Y003808D01*
X024709Y003795D01*
X024693Y003779D01*
X024680Y003761D01*
X024669Y003741D01*
X024661Y003720D01*
X024657Y003698D01*
X024655Y003676D01*
X024714Y004334D02*
X024716Y004353D01*
X024721Y004372D01*
X024731Y004388D01*
X024743Y004403D01*
X024758Y004415D01*
X024774Y004425D01*
X024793Y004430D01*
X024812Y004432D01*
X024831Y004430D01*
X024850Y004425D01*
X024866Y004415D01*
X024881Y004403D01*
X024893Y004388D01*
X024903Y004372D01*
X024908Y004353D01*
X024910Y004334D01*
X024908Y004315D01*
X024903Y004296D01*
X024893Y004280D01*
X024881Y004265D01*
X024866Y004253D01*
X024850Y004243D01*
X024831Y004238D01*
X024812Y004236D01*
X024793Y004238D01*
X024774Y004243D01*
X024758Y004253D01*
X024743Y004265D01*
X024731Y004280D01*
X024721Y004296D01*
X024716Y004315D01*
X024714Y004334D01*
X024714Y004834D02*
X024716Y004853D01*
X024721Y004872D01*
X024731Y004888D01*
X024743Y004903D01*
X024758Y004915D01*
X024774Y004925D01*
X024793Y004930D01*
X024812Y004932D01*
X024831Y004930D01*
X024850Y004925D01*
X024866Y004915D01*
X024881Y004903D01*
X024893Y004888D01*
X024903Y004872D01*
X024908Y004853D01*
X024910Y004834D01*
X024908Y004815D01*
X024903Y004796D01*
X024893Y004780D01*
X024881Y004765D01*
X024866Y004753D01*
X024850Y004743D01*
X024831Y004738D01*
X024812Y004736D01*
X024793Y004738D01*
X024774Y004743D01*
X024758Y004753D01*
X024743Y004765D01*
X024731Y004780D01*
X024721Y004796D01*
X024716Y004815D01*
X024714Y004834D01*
X024714Y005334D02*
X024716Y005353D01*
X024721Y005372D01*
X024731Y005388D01*
X024743Y005403D01*
X024758Y005415D01*
X024774Y005425D01*
X024793Y005430D01*
X024812Y005432D01*
X024831Y005430D01*
X024850Y005425D01*
X024866Y005415D01*
X024881Y005403D01*
X024893Y005388D01*
X024903Y005372D01*
X024908Y005353D01*
X024910Y005334D01*
X024908Y005315D01*
X024903Y005296D01*
X024893Y005280D01*
X024881Y005265D01*
X024866Y005253D01*
X024850Y005243D01*
X024831Y005238D01*
X024812Y005236D01*
X024793Y005238D01*
X024774Y005243D01*
X024758Y005253D01*
X024743Y005265D01*
X024731Y005280D01*
X024721Y005296D01*
X024716Y005315D01*
X024714Y005334D01*
X024714Y005834D02*
X024716Y005853D01*
X024721Y005872D01*
X024731Y005888D01*
X024743Y005903D01*
X024758Y005915D01*
X024774Y005925D01*
X024793Y005930D01*
X024812Y005932D01*
X024831Y005930D01*
X024850Y005925D01*
X024866Y005915D01*
X024881Y005903D01*
X024893Y005888D01*
X024903Y005872D01*
X024908Y005853D01*
X024910Y005834D01*
X024908Y005815D01*
X024903Y005796D01*
X024893Y005780D01*
X024881Y005765D01*
X024866Y005753D01*
X024850Y005743D01*
X024831Y005738D01*
X024812Y005736D01*
X024793Y005738D01*
X024774Y005743D01*
X024758Y005753D01*
X024743Y005765D01*
X024731Y005780D01*
X024721Y005796D01*
X024716Y005815D01*
X024714Y005834D01*
X024714Y006334D02*
X024716Y006353D01*
X024721Y006372D01*
X024731Y006388D01*
X024743Y006403D01*
X024758Y006415D01*
X024774Y006425D01*
X024793Y006430D01*
X024812Y006432D01*
X024831Y006430D01*
X024850Y006425D01*
X024866Y006415D01*
X024881Y006403D01*
X024893Y006388D01*
X024903Y006372D01*
X024908Y006353D01*
X024910Y006334D01*
X024908Y006315D01*
X024903Y006296D01*
X024893Y006280D01*
X024881Y006265D01*
X024866Y006253D01*
X024850Y006243D01*
X024831Y006238D01*
X024812Y006236D01*
X024793Y006238D01*
X024774Y006243D01*
X024758Y006253D01*
X024743Y006265D01*
X024731Y006280D01*
X024721Y006296D01*
X024716Y006315D01*
X024714Y006334D01*
X024714Y006834D02*
X024716Y006853D01*
X024721Y006872D01*
X024731Y006888D01*
X024743Y006903D01*
X024758Y006915D01*
X024774Y006925D01*
X024793Y006930D01*
X024812Y006932D01*
X024831Y006930D01*
X024850Y006925D01*
X024866Y006915D01*
X024881Y006903D01*
X024893Y006888D01*
X024903Y006872D01*
X024908Y006853D01*
X024910Y006834D01*
X024908Y006815D01*
X024903Y006796D01*
X024893Y006780D01*
X024881Y006765D01*
X024866Y006753D01*
X024850Y006743D01*
X024831Y006738D01*
X024812Y006736D01*
X024793Y006738D01*
X024774Y006743D01*
X024758Y006753D01*
X024743Y006765D01*
X024731Y006780D01*
X024721Y006796D01*
X024716Y006815D01*
X024714Y006834D01*
X024714Y007334D02*
X024716Y007353D01*
X024721Y007372D01*
X024731Y007388D01*
X024743Y007403D01*
X024758Y007415D01*
X024774Y007425D01*
X024793Y007430D01*
X024812Y007432D01*
X024831Y007430D01*
X024850Y007425D01*
X024866Y007415D01*
X024881Y007403D01*
X024893Y007388D01*
X024903Y007372D01*
X024908Y007353D01*
X024910Y007334D01*
X024908Y007315D01*
X024903Y007296D01*
X024893Y007280D01*
X024881Y007265D01*
X024866Y007253D01*
X024850Y007243D01*
X024831Y007238D01*
X024812Y007236D01*
X024793Y007238D01*
X024774Y007243D01*
X024758Y007253D01*
X024743Y007265D01*
X024731Y007280D01*
X024721Y007296D01*
X024716Y007315D01*
X024714Y007334D01*
X024812Y007834D02*
X024790Y007836D01*
X024768Y007840D01*
X024747Y007848D01*
X024727Y007859D01*
X024709Y007872D01*
X024693Y007888D01*
X024680Y007906D01*
X024669Y007926D01*
X024661Y007947D01*
X024657Y007969D01*
X024655Y007991D01*
X019812Y003833D02*
X019790Y003831D01*
X019768Y003827D01*
X019747Y003819D01*
X019727Y003808D01*
X019709Y003795D01*
X019693Y003779D01*
X019680Y003761D01*
X019669Y003741D01*
X019661Y003720D01*
X019657Y003698D01*
X019655Y003676D01*
M02*
