G75*
G70*
%OFA0B0*%
%FSLAX24Y24*%
%IPPOS*%
%LPD*%
%AMOC8*
5,1,8,0,0,1.08239X$1,22.5*
%
%ADD10C,0.0050*%
%ADD11C,0.0080*%
D10*
X001262Y001306D02*
X001264Y001375D01*
X001270Y001443D01*
X001280Y001511D01*
X001294Y001578D01*
X001312Y001645D01*
X001333Y001710D01*
X001359Y001774D01*
X001388Y001836D01*
X001420Y001896D01*
X001456Y001955D01*
X001496Y002011D01*
X001538Y002065D01*
X001584Y002116D01*
X001633Y002165D01*
X001684Y002211D01*
X001738Y002253D01*
X001794Y002293D01*
X001852Y002329D01*
X001913Y002361D01*
X001975Y002390D01*
X002039Y002416D01*
X002104Y002437D01*
X002171Y002455D01*
X002238Y002469D01*
X002306Y002479D01*
X002374Y002485D01*
X002443Y002487D01*
X002512Y002485D01*
X002580Y002479D01*
X002648Y002469D01*
X002715Y002455D01*
X002782Y002437D01*
X002847Y002416D01*
X002911Y002390D01*
X002973Y002361D01*
X003033Y002329D01*
X003092Y002293D01*
X003148Y002253D01*
X003202Y002211D01*
X003253Y002165D01*
X003302Y002116D01*
X003348Y002065D01*
X003390Y002011D01*
X003430Y001955D01*
X003466Y001896D01*
X003498Y001836D01*
X003527Y001774D01*
X003553Y001710D01*
X003574Y001645D01*
X003592Y001578D01*
X003606Y001511D01*
X003616Y001443D01*
X003622Y001375D01*
X003624Y001306D01*
X003622Y001237D01*
X003616Y001169D01*
X003606Y001101D01*
X003592Y001034D01*
X003574Y000967D01*
X003553Y000902D01*
X003527Y000838D01*
X003498Y000776D01*
X003466Y000715D01*
X003430Y000657D01*
X003390Y000601D01*
X003348Y000547D01*
X003302Y000496D01*
X003253Y000447D01*
X003202Y000401D01*
X003148Y000359D01*
X003092Y000319D01*
X003034Y000283D01*
X002973Y000251D01*
X002911Y000222D01*
X002847Y000196D01*
X002782Y000175D01*
X002715Y000157D01*
X002648Y000143D01*
X002580Y000133D01*
X002512Y000127D01*
X002443Y000125D01*
X002374Y000127D01*
X002306Y000133D01*
X002238Y000143D01*
X002171Y000157D01*
X002104Y000175D01*
X002039Y000196D01*
X001975Y000222D01*
X001913Y000251D01*
X001852Y000283D01*
X001794Y000319D01*
X001738Y000359D01*
X001684Y000401D01*
X001633Y000447D01*
X001584Y000496D01*
X001538Y000547D01*
X001496Y000601D01*
X001456Y000657D01*
X001420Y000715D01*
X001388Y000776D01*
X001359Y000838D01*
X001333Y000902D01*
X001312Y000967D01*
X001294Y001034D01*
X001280Y001101D01*
X001270Y001169D01*
X001264Y001237D01*
X001262Y001306D01*
X006667Y001306D02*
X006669Y001362D01*
X006675Y001417D01*
X006685Y001471D01*
X006698Y001525D01*
X006716Y001578D01*
X006737Y001629D01*
X006761Y001679D01*
X006789Y001727D01*
X006821Y001773D01*
X006855Y001817D01*
X006893Y001858D01*
X006933Y001896D01*
X006976Y001931D01*
X007021Y001963D01*
X007069Y001992D01*
X007118Y002018D01*
X007169Y002040D01*
X007221Y002058D01*
X007275Y002072D01*
X007330Y002083D01*
X007385Y002090D01*
X007440Y002093D01*
X007496Y002092D01*
X007551Y002087D01*
X007606Y002078D01*
X007660Y002066D01*
X007713Y002049D01*
X007765Y002029D01*
X007815Y002005D01*
X007863Y001978D01*
X007910Y001948D01*
X007954Y001914D01*
X007996Y001877D01*
X008034Y001837D01*
X008071Y001795D01*
X008104Y001750D01*
X008133Y001704D01*
X008160Y001655D01*
X008182Y001604D01*
X008202Y001552D01*
X008217Y001498D01*
X008229Y001444D01*
X008237Y001389D01*
X008241Y001334D01*
X008241Y001278D01*
X008237Y001223D01*
X008229Y001168D01*
X008217Y001114D01*
X008202Y001060D01*
X008182Y001008D01*
X008160Y000957D01*
X008133Y000908D01*
X008104Y000862D01*
X008071Y000817D01*
X008034Y000775D01*
X007996Y000735D01*
X007954Y000698D01*
X007910Y000664D01*
X007863Y000634D01*
X007815Y000607D01*
X007765Y000583D01*
X007713Y000563D01*
X007660Y000546D01*
X007606Y000534D01*
X007551Y000525D01*
X007496Y000520D01*
X007440Y000519D01*
X007385Y000522D01*
X007330Y000529D01*
X007275Y000540D01*
X007221Y000554D01*
X007169Y000572D01*
X007118Y000594D01*
X007069Y000620D01*
X007021Y000649D01*
X006976Y000681D01*
X006933Y000716D01*
X006893Y000754D01*
X006855Y000795D01*
X006821Y000839D01*
X006789Y000885D01*
X006761Y000933D01*
X006737Y000983D01*
X006716Y001034D01*
X006698Y001087D01*
X006685Y001141D01*
X006675Y001195D01*
X006669Y001250D01*
X006667Y001306D01*
X011667Y001306D02*
X011669Y001362D01*
X011675Y001417D01*
X011685Y001471D01*
X011698Y001525D01*
X011716Y001578D01*
X011737Y001629D01*
X011761Y001679D01*
X011789Y001727D01*
X011821Y001773D01*
X011855Y001817D01*
X011893Y001858D01*
X011933Y001896D01*
X011976Y001931D01*
X012021Y001963D01*
X012069Y001992D01*
X012118Y002018D01*
X012169Y002040D01*
X012221Y002058D01*
X012275Y002072D01*
X012330Y002083D01*
X012385Y002090D01*
X012440Y002093D01*
X012496Y002092D01*
X012551Y002087D01*
X012606Y002078D01*
X012660Y002066D01*
X012713Y002049D01*
X012765Y002029D01*
X012815Y002005D01*
X012863Y001978D01*
X012910Y001948D01*
X012954Y001914D01*
X012996Y001877D01*
X013034Y001837D01*
X013071Y001795D01*
X013104Y001750D01*
X013133Y001704D01*
X013160Y001655D01*
X013182Y001604D01*
X013202Y001552D01*
X013217Y001498D01*
X013229Y001444D01*
X013237Y001389D01*
X013241Y001334D01*
X013241Y001278D01*
X013237Y001223D01*
X013229Y001168D01*
X013217Y001114D01*
X013202Y001060D01*
X013182Y001008D01*
X013160Y000957D01*
X013133Y000908D01*
X013104Y000862D01*
X013071Y000817D01*
X013034Y000775D01*
X012996Y000735D01*
X012954Y000698D01*
X012910Y000664D01*
X012863Y000634D01*
X012815Y000607D01*
X012765Y000583D01*
X012713Y000563D01*
X012660Y000546D01*
X012606Y000534D01*
X012551Y000525D01*
X012496Y000520D01*
X012440Y000519D01*
X012385Y000522D01*
X012330Y000529D01*
X012275Y000540D01*
X012221Y000554D01*
X012169Y000572D01*
X012118Y000594D01*
X012069Y000620D01*
X012021Y000649D01*
X011976Y000681D01*
X011933Y000716D01*
X011893Y000754D01*
X011855Y000795D01*
X011821Y000839D01*
X011789Y000885D01*
X011761Y000933D01*
X011737Y000983D01*
X011716Y001034D01*
X011698Y001087D01*
X011685Y001141D01*
X011675Y001195D01*
X011669Y001250D01*
X011667Y001306D01*
X016667Y001306D02*
X016669Y001362D01*
X016675Y001417D01*
X016685Y001471D01*
X016698Y001525D01*
X016716Y001578D01*
X016737Y001629D01*
X016761Y001679D01*
X016789Y001727D01*
X016821Y001773D01*
X016855Y001817D01*
X016893Y001858D01*
X016933Y001896D01*
X016976Y001931D01*
X017021Y001963D01*
X017069Y001992D01*
X017118Y002018D01*
X017169Y002040D01*
X017221Y002058D01*
X017275Y002072D01*
X017330Y002083D01*
X017385Y002090D01*
X017440Y002093D01*
X017496Y002092D01*
X017551Y002087D01*
X017606Y002078D01*
X017660Y002066D01*
X017713Y002049D01*
X017765Y002029D01*
X017815Y002005D01*
X017863Y001978D01*
X017910Y001948D01*
X017954Y001914D01*
X017996Y001877D01*
X018034Y001837D01*
X018071Y001795D01*
X018104Y001750D01*
X018133Y001704D01*
X018160Y001655D01*
X018182Y001604D01*
X018202Y001552D01*
X018217Y001498D01*
X018229Y001444D01*
X018237Y001389D01*
X018241Y001334D01*
X018241Y001278D01*
X018237Y001223D01*
X018229Y001168D01*
X018217Y001114D01*
X018202Y001060D01*
X018182Y001008D01*
X018160Y000957D01*
X018133Y000908D01*
X018104Y000862D01*
X018071Y000817D01*
X018034Y000775D01*
X017996Y000735D01*
X017954Y000698D01*
X017910Y000664D01*
X017863Y000634D01*
X017815Y000607D01*
X017765Y000583D01*
X017713Y000563D01*
X017660Y000546D01*
X017606Y000534D01*
X017551Y000525D01*
X017496Y000520D01*
X017440Y000519D01*
X017385Y000522D01*
X017330Y000529D01*
X017275Y000540D01*
X017221Y000554D01*
X017169Y000572D01*
X017118Y000594D01*
X017069Y000620D01*
X017021Y000649D01*
X016976Y000681D01*
X016933Y000716D01*
X016893Y000754D01*
X016855Y000795D01*
X016821Y000839D01*
X016789Y000885D01*
X016761Y000933D01*
X016737Y000983D01*
X016716Y001034D01*
X016698Y001087D01*
X016685Y001141D01*
X016675Y001195D01*
X016669Y001250D01*
X016667Y001306D01*
X021667Y001306D02*
X021669Y001362D01*
X021675Y001417D01*
X021685Y001471D01*
X021698Y001525D01*
X021716Y001578D01*
X021737Y001629D01*
X021761Y001679D01*
X021789Y001727D01*
X021821Y001773D01*
X021855Y001817D01*
X021893Y001858D01*
X021933Y001896D01*
X021976Y001931D01*
X022021Y001963D01*
X022069Y001992D01*
X022118Y002018D01*
X022169Y002040D01*
X022221Y002058D01*
X022275Y002072D01*
X022330Y002083D01*
X022385Y002090D01*
X022440Y002093D01*
X022496Y002092D01*
X022551Y002087D01*
X022606Y002078D01*
X022660Y002066D01*
X022713Y002049D01*
X022765Y002029D01*
X022815Y002005D01*
X022863Y001978D01*
X022910Y001948D01*
X022954Y001914D01*
X022996Y001877D01*
X023034Y001837D01*
X023071Y001795D01*
X023104Y001750D01*
X023133Y001704D01*
X023160Y001655D01*
X023182Y001604D01*
X023202Y001552D01*
X023217Y001498D01*
X023229Y001444D01*
X023237Y001389D01*
X023241Y001334D01*
X023241Y001278D01*
X023237Y001223D01*
X023229Y001168D01*
X023217Y001114D01*
X023202Y001060D01*
X023182Y001008D01*
X023160Y000957D01*
X023133Y000908D01*
X023104Y000862D01*
X023071Y000817D01*
X023034Y000775D01*
X022996Y000735D01*
X022954Y000698D01*
X022910Y000664D01*
X022863Y000634D01*
X022815Y000607D01*
X022765Y000583D01*
X022713Y000563D01*
X022660Y000546D01*
X022606Y000534D01*
X022551Y000525D01*
X022496Y000520D01*
X022440Y000519D01*
X022385Y000522D01*
X022330Y000529D01*
X022275Y000540D01*
X022221Y000554D01*
X022169Y000572D01*
X022118Y000594D01*
X022069Y000620D01*
X022021Y000649D01*
X021976Y000681D01*
X021933Y000716D01*
X021893Y000754D01*
X021855Y000795D01*
X021821Y000839D01*
X021789Y000885D01*
X021761Y000933D01*
X021737Y000983D01*
X021716Y001034D01*
X021698Y001087D01*
X021685Y001141D01*
X021675Y001195D01*
X021669Y001250D01*
X021667Y001306D01*
X026667Y001306D02*
X026669Y001362D01*
X026675Y001417D01*
X026685Y001471D01*
X026698Y001525D01*
X026716Y001578D01*
X026737Y001629D01*
X026761Y001679D01*
X026789Y001727D01*
X026821Y001773D01*
X026855Y001817D01*
X026893Y001858D01*
X026933Y001896D01*
X026976Y001931D01*
X027021Y001963D01*
X027069Y001992D01*
X027118Y002018D01*
X027169Y002040D01*
X027221Y002058D01*
X027275Y002072D01*
X027330Y002083D01*
X027385Y002090D01*
X027440Y002093D01*
X027496Y002092D01*
X027551Y002087D01*
X027606Y002078D01*
X027660Y002066D01*
X027713Y002049D01*
X027765Y002029D01*
X027815Y002005D01*
X027863Y001978D01*
X027910Y001948D01*
X027954Y001914D01*
X027996Y001877D01*
X028034Y001837D01*
X028071Y001795D01*
X028104Y001750D01*
X028133Y001704D01*
X028160Y001655D01*
X028182Y001604D01*
X028202Y001552D01*
X028217Y001498D01*
X028229Y001444D01*
X028237Y001389D01*
X028241Y001334D01*
X028241Y001278D01*
X028237Y001223D01*
X028229Y001168D01*
X028217Y001114D01*
X028202Y001060D01*
X028182Y001008D01*
X028160Y000957D01*
X028133Y000908D01*
X028104Y000862D01*
X028071Y000817D01*
X028034Y000775D01*
X027996Y000735D01*
X027954Y000698D01*
X027910Y000664D01*
X027863Y000634D01*
X027815Y000607D01*
X027765Y000583D01*
X027713Y000563D01*
X027660Y000546D01*
X027606Y000534D01*
X027551Y000525D01*
X027496Y000520D01*
X027440Y000519D01*
X027385Y000522D01*
X027330Y000529D01*
X027275Y000540D01*
X027221Y000554D01*
X027169Y000572D01*
X027118Y000594D01*
X027069Y000620D01*
X027021Y000649D01*
X026976Y000681D01*
X026933Y000716D01*
X026893Y000754D01*
X026855Y000795D01*
X026821Y000839D01*
X026789Y000885D01*
X026761Y000933D01*
X026737Y000983D01*
X026716Y001034D01*
X026698Y001087D01*
X026685Y001141D01*
X026675Y001195D01*
X026669Y001250D01*
X026667Y001306D01*
X031667Y001306D02*
X031669Y001362D01*
X031675Y001417D01*
X031685Y001471D01*
X031698Y001525D01*
X031716Y001578D01*
X031737Y001629D01*
X031761Y001679D01*
X031789Y001727D01*
X031821Y001773D01*
X031855Y001817D01*
X031893Y001858D01*
X031933Y001896D01*
X031976Y001931D01*
X032021Y001963D01*
X032069Y001992D01*
X032118Y002018D01*
X032169Y002040D01*
X032221Y002058D01*
X032275Y002072D01*
X032330Y002083D01*
X032385Y002090D01*
X032440Y002093D01*
X032496Y002092D01*
X032551Y002087D01*
X032606Y002078D01*
X032660Y002066D01*
X032713Y002049D01*
X032765Y002029D01*
X032815Y002005D01*
X032863Y001978D01*
X032910Y001948D01*
X032954Y001914D01*
X032996Y001877D01*
X033034Y001837D01*
X033071Y001795D01*
X033104Y001750D01*
X033133Y001704D01*
X033160Y001655D01*
X033182Y001604D01*
X033202Y001552D01*
X033217Y001498D01*
X033229Y001444D01*
X033237Y001389D01*
X033241Y001334D01*
X033241Y001278D01*
X033237Y001223D01*
X033229Y001168D01*
X033217Y001114D01*
X033202Y001060D01*
X033182Y001008D01*
X033160Y000957D01*
X033133Y000908D01*
X033104Y000862D01*
X033071Y000817D01*
X033034Y000775D01*
X032996Y000735D01*
X032954Y000698D01*
X032910Y000664D01*
X032863Y000634D01*
X032815Y000607D01*
X032765Y000583D01*
X032713Y000563D01*
X032660Y000546D01*
X032606Y000534D01*
X032551Y000525D01*
X032496Y000520D01*
X032440Y000519D01*
X032385Y000522D01*
X032330Y000529D01*
X032275Y000540D01*
X032221Y000554D01*
X032169Y000572D01*
X032118Y000594D01*
X032069Y000620D01*
X032021Y000649D01*
X031976Y000681D01*
X031933Y000716D01*
X031893Y000754D01*
X031855Y000795D01*
X031821Y000839D01*
X031789Y000885D01*
X031761Y000933D01*
X031737Y000983D01*
X031716Y001034D01*
X031698Y001087D01*
X031685Y001141D01*
X031675Y001195D01*
X031669Y001250D01*
X031667Y001306D01*
X036667Y001306D02*
X036669Y001362D01*
X036675Y001417D01*
X036685Y001471D01*
X036698Y001525D01*
X036716Y001578D01*
X036737Y001629D01*
X036761Y001679D01*
X036789Y001727D01*
X036821Y001773D01*
X036855Y001817D01*
X036893Y001858D01*
X036933Y001896D01*
X036976Y001931D01*
X037021Y001963D01*
X037069Y001992D01*
X037118Y002018D01*
X037169Y002040D01*
X037221Y002058D01*
X037275Y002072D01*
X037330Y002083D01*
X037385Y002090D01*
X037440Y002093D01*
X037496Y002092D01*
X037551Y002087D01*
X037606Y002078D01*
X037660Y002066D01*
X037713Y002049D01*
X037765Y002029D01*
X037815Y002005D01*
X037863Y001978D01*
X037910Y001948D01*
X037954Y001914D01*
X037996Y001877D01*
X038034Y001837D01*
X038071Y001795D01*
X038104Y001750D01*
X038133Y001704D01*
X038160Y001655D01*
X038182Y001604D01*
X038202Y001552D01*
X038217Y001498D01*
X038229Y001444D01*
X038237Y001389D01*
X038241Y001334D01*
X038241Y001278D01*
X038237Y001223D01*
X038229Y001168D01*
X038217Y001114D01*
X038202Y001060D01*
X038182Y001008D01*
X038160Y000957D01*
X038133Y000908D01*
X038104Y000862D01*
X038071Y000817D01*
X038034Y000775D01*
X037996Y000735D01*
X037954Y000698D01*
X037910Y000664D01*
X037863Y000634D01*
X037815Y000607D01*
X037765Y000583D01*
X037713Y000563D01*
X037660Y000546D01*
X037606Y000534D01*
X037551Y000525D01*
X037496Y000520D01*
X037440Y000519D01*
X037385Y000522D01*
X037330Y000529D01*
X037275Y000540D01*
X037221Y000554D01*
X037169Y000572D01*
X037118Y000594D01*
X037069Y000620D01*
X037021Y000649D01*
X036976Y000681D01*
X036933Y000716D01*
X036893Y000754D01*
X036855Y000795D01*
X036821Y000839D01*
X036789Y000885D01*
X036761Y000933D01*
X036737Y000983D01*
X036716Y001034D01*
X036698Y001087D01*
X036685Y001141D01*
X036675Y001195D01*
X036669Y001250D01*
X036667Y001306D01*
X041667Y001306D02*
X041669Y001362D01*
X041675Y001417D01*
X041685Y001471D01*
X041698Y001525D01*
X041716Y001578D01*
X041737Y001629D01*
X041761Y001679D01*
X041789Y001727D01*
X041821Y001773D01*
X041855Y001817D01*
X041893Y001858D01*
X041933Y001896D01*
X041976Y001931D01*
X042021Y001963D01*
X042069Y001992D01*
X042118Y002018D01*
X042169Y002040D01*
X042221Y002058D01*
X042275Y002072D01*
X042330Y002083D01*
X042385Y002090D01*
X042440Y002093D01*
X042496Y002092D01*
X042551Y002087D01*
X042606Y002078D01*
X042660Y002066D01*
X042713Y002049D01*
X042765Y002029D01*
X042815Y002005D01*
X042863Y001978D01*
X042910Y001948D01*
X042954Y001914D01*
X042996Y001877D01*
X043034Y001837D01*
X043071Y001795D01*
X043104Y001750D01*
X043133Y001704D01*
X043160Y001655D01*
X043182Y001604D01*
X043202Y001552D01*
X043217Y001498D01*
X043229Y001444D01*
X043237Y001389D01*
X043241Y001334D01*
X043241Y001278D01*
X043237Y001223D01*
X043229Y001168D01*
X043217Y001114D01*
X043202Y001060D01*
X043182Y001008D01*
X043160Y000957D01*
X043133Y000908D01*
X043104Y000862D01*
X043071Y000817D01*
X043034Y000775D01*
X042996Y000735D01*
X042954Y000698D01*
X042910Y000664D01*
X042863Y000634D01*
X042815Y000607D01*
X042765Y000583D01*
X042713Y000563D01*
X042660Y000546D01*
X042606Y000534D01*
X042551Y000525D01*
X042496Y000520D01*
X042440Y000519D01*
X042385Y000522D01*
X042330Y000529D01*
X042275Y000540D01*
X042221Y000554D01*
X042169Y000572D01*
X042118Y000594D01*
X042069Y000620D01*
X042021Y000649D01*
X041976Y000681D01*
X041933Y000716D01*
X041893Y000754D01*
X041855Y000795D01*
X041821Y000839D01*
X041789Y000885D01*
X041761Y000933D01*
X041737Y000983D01*
X041716Y001034D01*
X041698Y001087D01*
X041685Y001141D01*
X041675Y001195D01*
X041669Y001250D01*
X041667Y001306D01*
X046262Y001306D02*
X046264Y001375D01*
X046270Y001443D01*
X046280Y001511D01*
X046294Y001578D01*
X046312Y001645D01*
X046333Y001710D01*
X046359Y001774D01*
X046388Y001836D01*
X046420Y001896D01*
X046456Y001955D01*
X046496Y002011D01*
X046538Y002065D01*
X046584Y002116D01*
X046633Y002165D01*
X046684Y002211D01*
X046738Y002253D01*
X046794Y002293D01*
X046852Y002329D01*
X046913Y002361D01*
X046975Y002390D01*
X047039Y002416D01*
X047104Y002437D01*
X047171Y002455D01*
X047238Y002469D01*
X047306Y002479D01*
X047374Y002485D01*
X047443Y002487D01*
X047512Y002485D01*
X047580Y002479D01*
X047648Y002469D01*
X047715Y002455D01*
X047782Y002437D01*
X047847Y002416D01*
X047911Y002390D01*
X047973Y002361D01*
X048033Y002329D01*
X048092Y002293D01*
X048148Y002253D01*
X048202Y002211D01*
X048253Y002165D01*
X048302Y002116D01*
X048348Y002065D01*
X048390Y002011D01*
X048430Y001955D01*
X048466Y001896D01*
X048498Y001836D01*
X048527Y001774D01*
X048553Y001710D01*
X048574Y001645D01*
X048592Y001578D01*
X048606Y001511D01*
X048616Y001443D01*
X048622Y001375D01*
X048624Y001306D01*
X048622Y001237D01*
X048616Y001169D01*
X048606Y001101D01*
X048592Y001034D01*
X048574Y000967D01*
X048553Y000902D01*
X048527Y000838D01*
X048498Y000776D01*
X048466Y000715D01*
X048430Y000657D01*
X048390Y000601D01*
X048348Y000547D01*
X048302Y000496D01*
X048253Y000447D01*
X048202Y000401D01*
X048148Y000359D01*
X048092Y000319D01*
X048034Y000283D01*
X047973Y000251D01*
X047911Y000222D01*
X047847Y000196D01*
X047782Y000175D01*
X047715Y000157D01*
X047648Y000143D01*
X047580Y000133D01*
X047512Y000127D01*
X047443Y000125D01*
X047374Y000127D01*
X047306Y000133D01*
X047238Y000143D01*
X047171Y000157D01*
X047104Y000175D01*
X047039Y000196D01*
X046975Y000222D01*
X046913Y000251D01*
X046852Y000283D01*
X046794Y000319D01*
X046738Y000359D01*
X046684Y000401D01*
X046633Y000447D01*
X046584Y000496D01*
X046538Y000547D01*
X046496Y000601D01*
X046456Y000657D01*
X046420Y000715D01*
X046388Y000776D01*
X046359Y000838D01*
X046333Y000902D01*
X046312Y000967D01*
X046294Y001034D01*
X046280Y001101D01*
X046270Y001169D01*
X046264Y001237D01*
X046262Y001306D01*
X046265Y010361D02*
X046267Y010430D01*
X046273Y010498D01*
X046283Y010566D01*
X046297Y010633D01*
X046315Y010700D01*
X046336Y010765D01*
X046362Y010829D01*
X046391Y010891D01*
X046423Y010951D01*
X046459Y011010D01*
X046499Y011066D01*
X046541Y011120D01*
X046587Y011171D01*
X046636Y011220D01*
X046687Y011266D01*
X046741Y011308D01*
X046797Y011348D01*
X046855Y011384D01*
X046916Y011416D01*
X046978Y011445D01*
X047042Y011471D01*
X047107Y011492D01*
X047174Y011510D01*
X047241Y011524D01*
X047309Y011534D01*
X047377Y011540D01*
X047446Y011542D01*
X047515Y011540D01*
X047583Y011534D01*
X047651Y011524D01*
X047718Y011510D01*
X047785Y011492D01*
X047850Y011471D01*
X047914Y011445D01*
X047976Y011416D01*
X048036Y011384D01*
X048095Y011348D01*
X048151Y011308D01*
X048205Y011266D01*
X048256Y011220D01*
X048305Y011171D01*
X048351Y011120D01*
X048393Y011066D01*
X048433Y011010D01*
X048469Y010951D01*
X048501Y010891D01*
X048530Y010829D01*
X048556Y010765D01*
X048577Y010700D01*
X048595Y010633D01*
X048609Y010566D01*
X048619Y010498D01*
X048625Y010430D01*
X048627Y010361D01*
X048625Y010292D01*
X048619Y010224D01*
X048609Y010156D01*
X048595Y010089D01*
X048577Y010022D01*
X048556Y009957D01*
X048530Y009893D01*
X048501Y009831D01*
X048469Y009770D01*
X048433Y009712D01*
X048393Y009656D01*
X048351Y009602D01*
X048305Y009551D01*
X048256Y009502D01*
X048205Y009456D01*
X048151Y009414D01*
X048095Y009374D01*
X048037Y009338D01*
X047976Y009306D01*
X047914Y009277D01*
X047850Y009251D01*
X047785Y009230D01*
X047718Y009212D01*
X047651Y009198D01*
X047583Y009188D01*
X047515Y009182D01*
X047446Y009180D01*
X047377Y009182D01*
X047309Y009188D01*
X047241Y009198D01*
X047174Y009212D01*
X047107Y009230D01*
X047042Y009251D01*
X046978Y009277D01*
X046916Y009306D01*
X046855Y009338D01*
X046797Y009374D01*
X046741Y009414D01*
X046687Y009456D01*
X046636Y009502D01*
X046587Y009551D01*
X046541Y009602D01*
X046499Y009656D01*
X046459Y009712D01*
X046423Y009770D01*
X046391Y009831D01*
X046362Y009893D01*
X046336Y009957D01*
X046315Y010022D01*
X046297Y010089D01*
X046283Y010156D01*
X046273Y010224D01*
X046267Y010292D01*
X046265Y010361D01*
X041667Y010361D02*
X041669Y010417D01*
X041675Y010472D01*
X041685Y010526D01*
X041698Y010580D01*
X041716Y010633D01*
X041737Y010684D01*
X041761Y010734D01*
X041789Y010782D01*
X041821Y010828D01*
X041855Y010872D01*
X041893Y010913D01*
X041933Y010951D01*
X041976Y010986D01*
X042021Y011018D01*
X042069Y011047D01*
X042118Y011073D01*
X042169Y011095D01*
X042221Y011113D01*
X042275Y011127D01*
X042330Y011138D01*
X042385Y011145D01*
X042440Y011148D01*
X042496Y011147D01*
X042551Y011142D01*
X042606Y011133D01*
X042660Y011121D01*
X042713Y011104D01*
X042765Y011084D01*
X042815Y011060D01*
X042863Y011033D01*
X042910Y011003D01*
X042954Y010969D01*
X042996Y010932D01*
X043034Y010892D01*
X043071Y010850D01*
X043104Y010805D01*
X043133Y010759D01*
X043160Y010710D01*
X043182Y010659D01*
X043202Y010607D01*
X043217Y010553D01*
X043229Y010499D01*
X043237Y010444D01*
X043241Y010389D01*
X043241Y010333D01*
X043237Y010278D01*
X043229Y010223D01*
X043217Y010169D01*
X043202Y010115D01*
X043182Y010063D01*
X043160Y010012D01*
X043133Y009963D01*
X043104Y009917D01*
X043071Y009872D01*
X043034Y009830D01*
X042996Y009790D01*
X042954Y009753D01*
X042910Y009719D01*
X042863Y009689D01*
X042815Y009662D01*
X042765Y009638D01*
X042713Y009618D01*
X042660Y009601D01*
X042606Y009589D01*
X042551Y009580D01*
X042496Y009575D01*
X042440Y009574D01*
X042385Y009577D01*
X042330Y009584D01*
X042275Y009595D01*
X042221Y009609D01*
X042169Y009627D01*
X042118Y009649D01*
X042069Y009675D01*
X042021Y009704D01*
X041976Y009736D01*
X041933Y009771D01*
X041893Y009809D01*
X041855Y009850D01*
X041821Y009894D01*
X041789Y009940D01*
X041761Y009988D01*
X041737Y010038D01*
X041716Y010089D01*
X041698Y010142D01*
X041685Y010196D01*
X041675Y010250D01*
X041669Y010305D01*
X041667Y010361D01*
X036667Y010361D02*
X036669Y010417D01*
X036675Y010472D01*
X036685Y010526D01*
X036698Y010580D01*
X036716Y010633D01*
X036737Y010684D01*
X036761Y010734D01*
X036789Y010782D01*
X036821Y010828D01*
X036855Y010872D01*
X036893Y010913D01*
X036933Y010951D01*
X036976Y010986D01*
X037021Y011018D01*
X037069Y011047D01*
X037118Y011073D01*
X037169Y011095D01*
X037221Y011113D01*
X037275Y011127D01*
X037330Y011138D01*
X037385Y011145D01*
X037440Y011148D01*
X037496Y011147D01*
X037551Y011142D01*
X037606Y011133D01*
X037660Y011121D01*
X037713Y011104D01*
X037765Y011084D01*
X037815Y011060D01*
X037863Y011033D01*
X037910Y011003D01*
X037954Y010969D01*
X037996Y010932D01*
X038034Y010892D01*
X038071Y010850D01*
X038104Y010805D01*
X038133Y010759D01*
X038160Y010710D01*
X038182Y010659D01*
X038202Y010607D01*
X038217Y010553D01*
X038229Y010499D01*
X038237Y010444D01*
X038241Y010389D01*
X038241Y010333D01*
X038237Y010278D01*
X038229Y010223D01*
X038217Y010169D01*
X038202Y010115D01*
X038182Y010063D01*
X038160Y010012D01*
X038133Y009963D01*
X038104Y009917D01*
X038071Y009872D01*
X038034Y009830D01*
X037996Y009790D01*
X037954Y009753D01*
X037910Y009719D01*
X037863Y009689D01*
X037815Y009662D01*
X037765Y009638D01*
X037713Y009618D01*
X037660Y009601D01*
X037606Y009589D01*
X037551Y009580D01*
X037496Y009575D01*
X037440Y009574D01*
X037385Y009577D01*
X037330Y009584D01*
X037275Y009595D01*
X037221Y009609D01*
X037169Y009627D01*
X037118Y009649D01*
X037069Y009675D01*
X037021Y009704D01*
X036976Y009736D01*
X036933Y009771D01*
X036893Y009809D01*
X036855Y009850D01*
X036821Y009894D01*
X036789Y009940D01*
X036761Y009988D01*
X036737Y010038D01*
X036716Y010089D01*
X036698Y010142D01*
X036685Y010196D01*
X036675Y010250D01*
X036669Y010305D01*
X036667Y010361D01*
X031667Y010361D02*
X031669Y010417D01*
X031675Y010472D01*
X031685Y010526D01*
X031698Y010580D01*
X031716Y010633D01*
X031737Y010684D01*
X031761Y010734D01*
X031789Y010782D01*
X031821Y010828D01*
X031855Y010872D01*
X031893Y010913D01*
X031933Y010951D01*
X031976Y010986D01*
X032021Y011018D01*
X032069Y011047D01*
X032118Y011073D01*
X032169Y011095D01*
X032221Y011113D01*
X032275Y011127D01*
X032330Y011138D01*
X032385Y011145D01*
X032440Y011148D01*
X032496Y011147D01*
X032551Y011142D01*
X032606Y011133D01*
X032660Y011121D01*
X032713Y011104D01*
X032765Y011084D01*
X032815Y011060D01*
X032863Y011033D01*
X032910Y011003D01*
X032954Y010969D01*
X032996Y010932D01*
X033034Y010892D01*
X033071Y010850D01*
X033104Y010805D01*
X033133Y010759D01*
X033160Y010710D01*
X033182Y010659D01*
X033202Y010607D01*
X033217Y010553D01*
X033229Y010499D01*
X033237Y010444D01*
X033241Y010389D01*
X033241Y010333D01*
X033237Y010278D01*
X033229Y010223D01*
X033217Y010169D01*
X033202Y010115D01*
X033182Y010063D01*
X033160Y010012D01*
X033133Y009963D01*
X033104Y009917D01*
X033071Y009872D01*
X033034Y009830D01*
X032996Y009790D01*
X032954Y009753D01*
X032910Y009719D01*
X032863Y009689D01*
X032815Y009662D01*
X032765Y009638D01*
X032713Y009618D01*
X032660Y009601D01*
X032606Y009589D01*
X032551Y009580D01*
X032496Y009575D01*
X032440Y009574D01*
X032385Y009577D01*
X032330Y009584D01*
X032275Y009595D01*
X032221Y009609D01*
X032169Y009627D01*
X032118Y009649D01*
X032069Y009675D01*
X032021Y009704D01*
X031976Y009736D01*
X031933Y009771D01*
X031893Y009809D01*
X031855Y009850D01*
X031821Y009894D01*
X031789Y009940D01*
X031761Y009988D01*
X031737Y010038D01*
X031716Y010089D01*
X031698Y010142D01*
X031685Y010196D01*
X031675Y010250D01*
X031669Y010305D01*
X031667Y010361D01*
X026667Y010361D02*
X026669Y010417D01*
X026675Y010472D01*
X026685Y010526D01*
X026698Y010580D01*
X026716Y010633D01*
X026737Y010684D01*
X026761Y010734D01*
X026789Y010782D01*
X026821Y010828D01*
X026855Y010872D01*
X026893Y010913D01*
X026933Y010951D01*
X026976Y010986D01*
X027021Y011018D01*
X027069Y011047D01*
X027118Y011073D01*
X027169Y011095D01*
X027221Y011113D01*
X027275Y011127D01*
X027330Y011138D01*
X027385Y011145D01*
X027440Y011148D01*
X027496Y011147D01*
X027551Y011142D01*
X027606Y011133D01*
X027660Y011121D01*
X027713Y011104D01*
X027765Y011084D01*
X027815Y011060D01*
X027863Y011033D01*
X027910Y011003D01*
X027954Y010969D01*
X027996Y010932D01*
X028034Y010892D01*
X028071Y010850D01*
X028104Y010805D01*
X028133Y010759D01*
X028160Y010710D01*
X028182Y010659D01*
X028202Y010607D01*
X028217Y010553D01*
X028229Y010499D01*
X028237Y010444D01*
X028241Y010389D01*
X028241Y010333D01*
X028237Y010278D01*
X028229Y010223D01*
X028217Y010169D01*
X028202Y010115D01*
X028182Y010063D01*
X028160Y010012D01*
X028133Y009963D01*
X028104Y009917D01*
X028071Y009872D01*
X028034Y009830D01*
X027996Y009790D01*
X027954Y009753D01*
X027910Y009719D01*
X027863Y009689D01*
X027815Y009662D01*
X027765Y009638D01*
X027713Y009618D01*
X027660Y009601D01*
X027606Y009589D01*
X027551Y009580D01*
X027496Y009575D01*
X027440Y009574D01*
X027385Y009577D01*
X027330Y009584D01*
X027275Y009595D01*
X027221Y009609D01*
X027169Y009627D01*
X027118Y009649D01*
X027069Y009675D01*
X027021Y009704D01*
X026976Y009736D01*
X026933Y009771D01*
X026893Y009809D01*
X026855Y009850D01*
X026821Y009894D01*
X026789Y009940D01*
X026761Y009988D01*
X026737Y010038D01*
X026716Y010089D01*
X026698Y010142D01*
X026685Y010196D01*
X026675Y010250D01*
X026669Y010305D01*
X026667Y010361D01*
X021667Y010361D02*
X021669Y010417D01*
X021675Y010472D01*
X021685Y010526D01*
X021698Y010580D01*
X021716Y010633D01*
X021737Y010684D01*
X021761Y010734D01*
X021789Y010782D01*
X021821Y010828D01*
X021855Y010872D01*
X021893Y010913D01*
X021933Y010951D01*
X021976Y010986D01*
X022021Y011018D01*
X022069Y011047D01*
X022118Y011073D01*
X022169Y011095D01*
X022221Y011113D01*
X022275Y011127D01*
X022330Y011138D01*
X022385Y011145D01*
X022440Y011148D01*
X022496Y011147D01*
X022551Y011142D01*
X022606Y011133D01*
X022660Y011121D01*
X022713Y011104D01*
X022765Y011084D01*
X022815Y011060D01*
X022863Y011033D01*
X022910Y011003D01*
X022954Y010969D01*
X022996Y010932D01*
X023034Y010892D01*
X023071Y010850D01*
X023104Y010805D01*
X023133Y010759D01*
X023160Y010710D01*
X023182Y010659D01*
X023202Y010607D01*
X023217Y010553D01*
X023229Y010499D01*
X023237Y010444D01*
X023241Y010389D01*
X023241Y010333D01*
X023237Y010278D01*
X023229Y010223D01*
X023217Y010169D01*
X023202Y010115D01*
X023182Y010063D01*
X023160Y010012D01*
X023133Y009963D01*
X023104Y009917D01*
X023071Y009872D01*
X023034Y009830D01*
X022996Y009790D01*
X022954Y009753D01*
X022910Y009719D01*
X022863Y009689D01*
X022815Y009662D01*
X022765Y009638D01*
X022713Y009618D01*
X022660Y009601D01*
X022606Y009589D01*
X022551Y009580D01*
X022496Y009575D01*
X022440Y009574D01*
X022385Y009577D01*
X022330Y009584D01*
X022275Y009595D01*
X022221Y009609D01*
X022169Y009627D01*
X022118Y009649D01*
X022069Y009675D01*
X022021Y009704D01*
X021976Y009736D01*
X021933Y009771D01*
X021893Y009809D01*
X021855Y009850D01*
X021821Y009894D01*
X021789Y009940D01*
X021761Y009988D01*
X021737Y010038D01*
X021716Y010089D01*
X021698Y010142D01*
X021685Y010196D01*
X021675Y010250D01*
X021669Y010305D01*
X021667Y010361D01*
X016667Y010361D02*
X016669Y010417D01*
X016675Y010472D01*
X016685Y010526D01*
X016698Y010580D01*
X016716Y010633D01*
X016737Y010684D01*
X016761Y010734D01*
X016789Y010782D01*
X016821Y010828D01*
X016855Y010872D01*
X016893Y010913D01*
X016933Y010951D01*
X016976Y010986D01*
X017021Y011018D01*
X017069Y011047D01*
X017118Y011073D01*
X017169Y011095D01*
X017221Y011113D01*
X017275Y011127D01*
X017330Y011138D01*
X017385Y011145D01*
X017440Y011148D01*
X017496Y011147D01*
X017551Y011142D01*
X017606Y011133D01*
X017660Y011121D01*
X017713Y011104D01*
X017765Y011084D01*
X017815Y011060D01*
X017863Y011033D01*
X017910Y011003D01*
X017954Y010969D01*
X017996Y010932D01*
X018034Y010892D01*
X018071Y010850D01*
X018104Y010805D01*
X018133Y010759D01*
X018160Y010710D01*
X018182Y010659D01*
X018202Y010607D01*
X018217Y010553D01*
X018229Y010499D01*
X018237Y010444D01*
X018241Y010389D01*
X018241Y010333D01*
X018237Y010278D01*
X018229Y010223D01*
X018217Y010169D01*
X018202Y010115D01*
X018182Y010063D01*
X018160Y010012D01*
X018133Y009963D01*
X018104Y009917D01*
X018071Y009872D01*
X018034Y009830D01*
X017996Y009790D01*
X017954Y009753D01*
X017910Y009719D01*
X017863Y009689D01*
X017815Y009662D01*
X017765Y009638D01*
X017713Y009618D01*
X017660Y009601D01*
X017606Y009589D01*
X017551Y009580D01*
X017496Y009575D01*
X017440Y009574D01*
X017385Y009577D01*
X017330Y009584D01*
X017275Y009595D01*
X017221Y009609D01*
X017169Y009627D01*
X017118Y009649D01*
X017069Y009675D01*
X017021Y009704D01*
X016976Y009736D01*
X016933Y009771D01*
X016893Y009809D01*
X016855Y009850D01*
X016821Y009894D01*
X016789Y009940D01*
X016761Y009988D01*
X016737Y010038D01*
X016716Y010089D01*
X016698Y010142D01*
X016685Y010196D01*
X016675Y010250D01*
X016669Y010305D01*
X016667Y010361D01*
X011667Y010361D02*
X011669Y010417D01*
X011675Y010472D01*
X011685Y010526D01*
X011698Y010580D01*
X011716Y010633D01*
X011737Y010684D01*
X011761Y010734D01*
X011789Y010782D01*
X011821Y010828D01*
X011855Y010872D01*
X011893Y010913D01*
X011933Y010951D01*
X011976Y010986D01*
X012021Y011018D01*
X012069Y011047D01*
X012118Y011073D01*
X012169Y011095D01*
X012221Y011113D01*
X012275Y011127D01*
X012330Y011138D01*
X012385Y011145D01*
X012440Y011148D01*
X012496Y011147D01*
X012551Y011142D01*
X012606Y011133D01*
X012660Y011121D01*
X012713Y011104D01*
X012765Y011084D01*
X012815Y011060D01*
X012863Y011033D01*
X012910Y011003D01*
X012954Y010969D01*
X012996Y010932D01*
X013034Y010892D01*
X013071Y010850D01*
X013104Y010805D01*
X013133Y010759D01*
X013160Y010710D01*
X013182Y010659D01*
X013202Y010607D01*
X013217Y010553D01*
X013229Y010499D01*
X013237Y010444D01*
X013241Y010389D01*
X013241Y010333D01*
X013237Y010278D01*
X013229Y010223D01*
X013217Y010169D01*
X013202Y010115D01*
X013182Y010063D01*
X013160Y010012D01*
X013133Y009963D01*
X013104Y009917D01*
X013071Y009872D01*
X013034Y009830D01*
X012996Y009790D01*
X012954Y009753D01*
X012910Y009719D01*
X012863Y009689D01*
X012815Y009662D01*
X012765Y009638D01*
X012713Y009618D01*
X012660Y009601D01*
X012606Y009589D01*
X012551Y009580D01*
X012496Y009575D01*
X012440Y009574D01*
X012385Y009577D01*
X012330Y009584D01*
X012275Y009595D01*
X012221Y009609D01*
X012169Y009627D01*
X012118Y009649D01*
X012069Y009675D01*
X012021Y009704D01*
X011976Y009736D01*
X011933Y009771D01*
X011893Y009809D01*
X011855Y009850D01*
X011821Y009894D01*
X011789Y009940D01*
X011761Y009988D01*
X011737Y010038D01*
X011716Y010089D01*
X011698Y010142D01*
X011685Y010196D01*
X011675Y010250D01*
X011669Y010305D01*
X011667Y010361D01*
X006667Y010361D02*
X006669Y010417D01*
X006675Y010472D01*
X006685Y010526D01*
X006698Y010580D01*
X006716Y010633D01*
X006737Y010684D01*
X006761Y010734D01*
X006789Y010782D01*
X006821Y010828D01*
X006855Y010872D01*
X006893Y010913D01*
X006933Y010951D01*
X006976Y010986D01*
X007021Y011018D01*
X007069Y011047D01*
X007118Y011073D01*
X007169Y011095D01*
X007221Y011113D01*
X007275Y011127D01*
X007330Y011138D01*
X007385Y011145D01*
X007440Y011148D01*
X007496Y011147D01*
X007551Y011142D01*
X007606Y011133D01*
X007660Y011121D01*
X007713Y011104D01*
X007765Y011084D01*
X007815Y011060D01*
X007863Y011033D01*
X007910Y011003D01*
X007954Y010969D01*
X007996Y010932D01*
X008034Y010892D01*
X008071Y010850D01*
X008104Y010805D01*
X008133Y010759D01*
X008160Y010710D01*
X008182Y010659D01*
X008202Y010607D01*
X008217Y010553D01*
X008229Y010499D01*
X008237Y010444D01*
X008241Y010389D01*
X008241Y010333D01*
X008237Y010278D01*
X008229Y010223D01*
X008217Y010169D01*
X008202Y010115D01*
X008182Y010063D01*
X008160Y010012D01*
X008133Y009963D01*
X008104Y009917D01*
X008071Y009872D01*
X008034Y009830D01*
X007996Y009790D01*
X007954Y009753D01*
X007910Y009719D01*
X007863Y009689D01*
X007815Y009662D01*
X007765Y009638D01*
X007713Y009618D01*
X007660Y009601D01*
X007606Y009589D01*
X007551Y009580D01*
X007496Y009575D01*
X007440Y009574D01*
X007385Y009577D01*
X007330Y009584D01*
X007275Y009595D01*
X007221Y009609D01*
X007169Y009627D01*
X007118Y009649D01*
X007069Y009675D01*
X007021Y009704D01*
X006976Y009736D01*
X006933Y009771D01*
X006893Y009809D01*
X006855Y009850D01*
X006821Y009894D01*
X006789Y009940D01*
X006761Y009988D01*
X006737Y010038D01*
X006716Y010089D01*
X006698Y010142D01*
X006685Y010196D01*
X006675Y010250D01*
X006669Y010305D01*
X006667Y010361D01*
X001262Y010361D02*
X001264Y010430D01*
X001270Y010498D01*
X001280Y010566D01*
X001294Y010633D01*
X001312Y010700D01*
X001333Y010765D01*
X001359Y010829D01*
X001388Y010891D01*
X001420Y010951D01*
X001456Y011010D01*
X001496Y011066D01*
X001538Y011120D01*
X001584Y011171D01*
X001633Y011220D01*
X001684Y011266D01*
X001738Y011308D01*
X001794Y011348D01*
X001852Y011384D01*
X001913Y011416D01*
X001975Y011445D01*
X002039Y011471D01*
X002104Y011492D01*
X002171Y011510D01*
X002238Y011524D01*
X002306Y011534D01*
X002374Y011540D01*
X002443Y011542D01*
X002512Y011540D01*
X002580Y011534D01*
X002648Y011524D01*
X002715Y011510D01*
X002782Y011492D01*
X002847Y011471D01*
X002911Y011445D01*
X002973Y011416D01*
X003033Y011384D01*
X003092Y011348D01*
X003148Y011308D01*
X003202Y011266D01*
X003253Y011220D01*
X003302Y011171D01*
X003348Y011120D01*
X003390Y011066D01*
X003430Y011010D01*
X003466Y010951D01*
X003498Y010891D01*
X003527Y010829D01*
X003553Y010765D01*
X003574Y010700D01*
X003592Y010633D01*
X003606Y010566D01*
X003616Y010498D01*
X003622Y010430D01*
X003624Y010361D01*
X003622Y010292D01*
X003616Y010224D01*
X003606Y010156D01*
X003592Y010089D01*
X003574Y010022D01*
X003553Y009957D01*
X003527Y009893D01*
X003498Y009831D01*
X003466Y009770D01*
X003430Y009712D01*
X003390Y009656D01*
X003348Y009602D01*
X003302Y009551D01*
X003253Y009502D01*
X003202Y009456D01*
X003148Y009414D01*
X003092Y009374D01*
X003034Y009338D01*
X002973Y009306D01*
X002911Y009277D01*
X002847Y009251D01*
X002782Y009230D01*
X002715Y009212D01*
X002648Y009198D01*
X002580Y009188D01*
X002512Y009182D01*
X002443Y009180D01*
X002374Y009182D01*
X002306Y009188D01*
X002238Y009198D01*
X002171Y009212D01*
X002104Y009230D01*
X002039Y009251D01*
X001975Y009277D01*
X001913Y009306D01*
X001852Y009338D01*
X001794Y009374D01*
X001738Y009414D01*
X001684Y009456D01*
X001633Y009502D01*
X001584Y009551D01*
X001538Y009602D01*
X001496Y009656D01*
X001456Y009712D01*
X001420Y009770D01*
X001388Y009831D01*
X001359Y009893D01*
X001333Y009957D01*
X001312Y010022D01*
X001294Y010089D01*
X001280Y010156D01*
X001270Y010224D01*
X001264Y010292D01*
X001262Y010361D01*
D11*
X005013Y009180D02*
X005013Y002487D01*
X009895Y002487D01*
X009895Y009180D01*
X005013Y009180D01*
X010013Y009180D02*
X010013Y002487D01*
X014895Y002487D01*
X014895Y009180D01*
X010013Y009180D01*
X015013Y009180D02*
X015013Y002487D01*
X019895Y002487D01*
X019895Y009180D01*
X015013Y009180D01*
X020013Y009180D02*
X020013Y002487D01*
X024895Y002487D01*
X024895Y009180D01*
X020013Y009180D01*
X025013Y009180D02*
X025013Y002487D01*
X029895Y002487D01*
X029895Y009180D01*
X025013Y009180D01*
X030013Y009180D02*
X030013Y002487D01*
X034895Y002487D01*
X034895Y009180D01*
X030013Y009180D01*
X035013Y009180D02*
X035013Y002487D01*
X039895Y002487D01*
X039895Y009180D01*
X035013Y009180D01*
X040013Y009180D02*
X040013Y002487D01*
X044895Y002487D01*
X044895Y009180D01*
X040013Y009180D01*
X040250Y003471D02*
X040252Y003501D01*
X040258Y003531D01*
X040267Y003560D01*
X040280Y003587D01*
X040297Y003612D01*
X040316Y003635D01*
X040339Y003656D01*
X040364Y003673D01*
X040390Y003687D01*
X040419Y003697D01*
X040448Y003704D01*
X040478Y003707D01*
X040509Y003706D01*
X040539Y003701D01*
X040568Y003692D01*
X040595Y003680D01*
X040621Y003665D01*
X040645Y003646D01*
X040666Y003624D01*
X040684Y003600D01*
X040699Y003573D01*
X040710Y003545D01*
X040718Y003516D01*
X040722Y003486D01*
X040722Y003456D01*
X040718Y003426D01*
X040710Y003397D01*
X040699Y003369D01*
X040684Y003342D01*
X040666Y003318D01*
X040645Y003296D01*
X040621Y003277D01*
X040595Y003262D01*
X040568Y003250D01*
X040539Y003241D01*
X040509Y003236D01*
X040478Y003235D01*
X040448Y003238D01*
X040419Y003245D01*
X040390Y003255D01*
X040364Y003269D01*
X040339Y003286D01*
X040316Y003307D01*
X040297Y003330D01*
X040280Y003355D01*
X040267Y003382D01*
X040258Y003411D01*
X040252Y003441D01*
X040250Y003471D01*
X035250Y003471D02*
X035252Y003501D01*
X035258Y003531D01*
X035267Y003560D01*
X035280Y003587D01*
X035297Y003612D01*
X035316Y003635D01*
X035339Y003656D01*
X035364Y003673D01*
X035390Y003687D01*
X035419Y003697D01*
X035448Y003704D01*
X035478Y003707D01*
X035509Y003706D01*
X035539Y003701D01*
X035568Y003692D01*
X035595Y003680D01*
X035621Y003665D01*
X035645Y003646D01*
X035666Y003624D01*
X035684Y003600D01*
X035699Y003573D01*
X035710Y003545D01*
X035718Y003516D01*
X035722Y003486D01*
X035722Y003456D01*
X035718Y003426D01*
X035710Y003397D01*
X035699Y003369D01*
X035684Y003342D01*
X035666Y003318D01*
X035645Y003296D01*
X035621Y003277D01*
X035595Y003262D01*
X035568Y003250D01*
X035539Y003241D01*
X035509Y003236D01*
X035478Y003235D01*
X035448Y003238D01*
X035419Y003245D01*
X035390Y003255D01*
X035364Y003269D01*
X035339Y003286D01*
X035316Y003307D01*
X035297Y003330D01*
X035280Y003355D01*
X035267Y003382D01*
X035258Y003411D01*
X035252Y003441D01*
X035250Y003471D01*
X030250Y003471D02*
X030252Y003501D01*
X030258Y003531D01*
X030267Y003560D01*
X030280Y003587D01*
X030297Y003612D01*
X030316Y003635D01*
X030339Y003656D01*
X030364Y003673D01*
X030390Y003687D01*
X030419Y003697D01*
X030448Y003704D01*
X030478Y003707D01*
X030509Y003706D01*
X030539Y003701D01*
X030568Y003692D01*
X030595Y003680D01*
X030621Y003665D01*
X030645Y003646D01*
X030666Y003624D01*
X030684Y003600D01*
X030699Y003573D01*
X030710Y003545D01*
X030718Y003516D01*
X030722Y003486D01*
X030722Y003456D01*
X030718Y003426D01*
X030710Y003397D01*
X030699Y003369D01*
X030684Y003342D01*
X030666Y003318D01*
X030645Y003296D01*
X030621Y003277D01*
X030595Y003262D01*
X030568Y003250D01*
X030539Y003241D01*
X030509Y003236D01*
X030478Y003235D01*
X030448Y003238D01*
X030419Y003245D01*
X030390Y003255D01*
X030364Y003269D01*
X030339Y003286D01*
X030316Y003307D01*
X030297Y003330D01*
X030280Y003355D01*
X030267Y003382D01*
X030258Y003411D01*
X030252Y003441D01*
X030250Y003471D01*
X025250Y003471D02*
X025252Y003501D01*
X025258Y003531D01*
X025267Y003560D01*
X025280Y003587D01*
X025297Y003612D01*
X025316Y003635D01*
X025339Y003656D01*
X025364Y003673D01*
X025390Y003687D01*
X025419Y003697D01*
X025448Y003704D01*
X025478Y003707D01*
X025509Y003706D01*
X025539Y003701D01*
X025568Y003692D01*
X025595Y003680D01*
X025621Y003665D01*
X025645Y003646D01*
X025666Y003624D01*
X025684Y003600D01*
X025699Y003573D01*
X025710Y003545D01*
X025718Y003516D01*
X025722Y003486D01*
X025722Y003456D01*
X025718Y003426D01*
X025710Y003397D01*
X025699Y003369D01*
X025684Y003342D01*
X025666Y003318D01*
X025645Y003296D01*
X025621Y003277D01*
X025595Y003262D01*
X025568Y003250D01*
X025539Y003241D01*
X025509Y003236D01*
X025478Y003235D01*
X025448Y003238D01*
X025419Y003245D01*
X025390Y003255D01*
X025364Y003269D01*
X025339Y003286D01*
X025316Y003307D01*
X025297Y003330D01*
X025280Y003355D01*
X025267Y003382D01*
X025258Y003411D01*
X025252Y003441D01*
X025250Y003471D01*
X020250Y003471D02*
X020252Y003501D01*
X020258Y003531D01*
X020267Y003560D01*
X020280Y003587D01*
X020297Y003612D01*
X020316Y003635D01*
X020339Y003656D01*
X020364Y003673D01*
X020390Y003687D01*
X020419Y003697D01*
X020448Y003704D01*
X020478Y003707D01*
X020509Y003706D01*
X020539Y003701D01*
X020568Y003692D01*
X020595Y003680D01*
X020621Y003665D01*
X020645Y003646D01*
X020666Y003624D01*
X020684Y003600D01*
X020699Y003573D01*
X020710Y003545D01*
X020718Y003516D01*
X020722Y003486D01*
X020722Y003456D01*
X020718Y003426D01*
X020710Y003397D01*
X020699Y003369D01*
X020684Y003342D01*
X020666Y003318D01*
X020645Y003296D01*
X020621Y003277D01*
X020595Y003262D01*
X020568Y003250D01*
X020539Y003241D01*
X020509Y003236D01*
X020478Y003235D01*
X020448Y003238D01*
X020419Y003245D01*
X020390Y003255D01*
X020364Y003269D01*
X020339Y003286D01*
X020316Y003307D01*
X020297Y003330D01*
X020280Y003355D01*
X020267Y003382D01*
X020258Y003411D01*
X020252Y003441D01*
X020250Y003471D01*
X015250Y003471D02*
X015252Y003501D01*
X015258Y003531D01*
X015267Y003560D01*
X015280Y003587D01*
X015297Y003612D01*
X015316Y003635D01*
X015339Y003656D01*
X015364Y003673D01*
X015390Y003687D01*
X015419Y003697D01*
X015448Y003704D01*
X015478Y003707D01*
X015509Y003706D01*
X015539Y003701D01*
X015568Y003692D01*
X015595Y003680D01*
X015621Y003665D01*
X015645Y003646D01*
X015666Y003624D01*
X015684Y003600D01*
X015699Y003573D01*
X015710Y003545D01*
X015718Y003516D01*
X015722Y003486D01*
X015722Y003456D01*
X015718Y003426D01*
X015710Y003397D01*
X015699Y003369D01*
X015684Y003342D01*
X015666Y003318D01*
X015645Y003296D01*
X015621Y003277D01*
X015595Y003262D01*
X015568Y003250D01*
X015539Y003241D01*
X015509Y003236D01*
X015478Y003235D01*
X015448Y003238D01*
X015419Y003245D01*
X015390Y003255D01*
X015364Y003269D01*
X015339Y003286D01*
X015316Y003307D01*
X015297Y003330D01*
X015280Y003355D01*
X015267Y003382D01*
X015258Y003411D01*
X015252Y003441D01*
X015250Y003471D01*
X010250Y003471D02*
X010252Y003501D01*
X010258Y003531D01*
X010267Y003560D01*
X010280Y003587D01*
X010297Y003612D01*
X010316Y003635D01*
X010339Y003656D01*
X010364Y003673D01*
X010390Y003687D01*
X010419Y003697D01*
X010448Y003704D01*
X010478Y003707D01*
X010509Y003706D01*
X010539Y003701D01*
X010568Y003692D01*
X010595Y003680D01*
X010621Y003665D01*
X010645Y003646D01*
X010666Y003624D01*
X010684Y003600D01*
X010699Y003573D01*
X010710Y003545D01*
X010718Y003516D01*
X010722Y003486D01*
X010722Y003456D01*
X010718Y003426D01*
X010710Y003397D01*
X010699Y003369D01*
X010684Y003342D01*
X010666Y003318D01*
X010645Y003296D01*
X010621Y003277D01*
X010595Y003262D01*
X010568Y003250D01*
X010539Y003241D01*
X010509Y003236D01*
X010478Y003235D01*
X010448Y003238D01*
X010419Y003245D01*
X010390Y003255D01*
X010364Y003269D01*
X010339Y003286D01*
X010316Y003307D01*
X010297Y003330D01*
X010280Y003355D01*
X010267Y003382D01*
X010258Y003411D01*
X010252Y003441D01*
X010250Y003471D01*
X005250Y003471D02*
X005252Y003501D01*
X005258Y003531D01*
X005267Y003560D01*
X005280Y003587D01*
X005297Y003612D01*
X005316Y003635D01*
X005339Y003656D01*
X005364Y003673D01*
X005390Y003687D01*
X005419Y003697D01*
X005448Y003704D01*
X005478Y003707D01*
X005509Y003706D01*
X005539Y003701D01*
X005568Y003692D01*
X005595Y003680D01*
X005621Y003665D01*
X005645Y003646D01*
X005666Y003624D01*
X005684Y003600D01*
X005699Y003573D01*
X005710Y003545D01*
X005718Y003516D01*
X005722Y003486D01*
X005722Y003456D01*
X005718Y003426D01*
X005710Y003397D01*
X005699Y003369D01*
X005684Y003342D01*
X005666Y003318D01*
X005645Y003296D01*
X005621Y003277D01*
X005595Y003262D01*
X005568Y003250D01*
X005539Y003241D01*
X005509Y003236D01*
X005478Y003235D01*
X005448Y003238D01*
X005419Y003245D01*
X005390Y003255D01*
X005364Y003269D01*
X005339Y003286D01*
X005316Y003307D01*
X005297Y003330D01*
X005280Y003355D01*
X005267Y003382D01*
X005258Y003411D01*
X005252Y003441D01*
X005250Y003471D01*
M02*
