%
M48
M72
T01C0.0118
T02C0.0197
T03C0.0256
T04C0.0354
T05C0.0400
T06C0.0827
T07C0.1260
%
T01
X11308Y5084
X11603Y5084
X12666Y5584
X12430Y6084
X12193Y6365
X17193Y6365
X17430Y6084
X17666Y5584
X16603Y5084
X16308Y5084
X21308Y5084
X21603Y5084
X22666Y5584
X22430Y6084
X22193Y6365
X27193Y6365
X27430Y6084
X27666Y5584
X26603Y5084
X26308Y5084
X31308Y5084
X31603Y5084
X32666Y5584
X32430Y6084
X32193Y6365
X37193Y6365
X37430Y6084
X37666Y5584
X36603Y5084
X36308Y5084
X41308Y5084
X41603Y5084
X42666Y5584
X42430Y6084
X42193Y6365
X47193Y6365
X47430Y6084
X47666Y5584
X46603Y5084
X46308Y5084
X47548Y7664
X42548Y7664
X37548Y7664
X32548Y7664
X27548Y7664
X22548Y7664
X17548Y7664
X12548Y7664
T02
X14812Y7334
X14812Y6834
X14812Y6334
X14812Y5834
X14812Y5334
X14812Y4834
X14812Y4334
X19812Y4334
X19812Y4834
X19812Y5334
X19812Y5834
X19812Y6334
X19812Y6834
X19812Y7334
X24812Y7334
X24812Y6834
X24812Y6334
X24812Y5834
X24812Y5334
X24812Y4834
X24812Y4334
X29812Y4334
X29812Y4834
X29812Y5334
X29812Y5834
X29812Y6334
X29812Y6834
X29812Y7334
X34812Y7334
X34812Y6834
X34812Y6334
X34812Y5834
X34812Y5334
X34812Y4834
X34812Y4334
X39812Y4334
X39812Y4834
X39812Y5334
X39812Y5834
X39812Y6334
X39812Y6834
X39812Y7334
X44812Y7334
X44812Y6834
X44812Y6334
X44812Y5834
X44812Y5334
X44812Y4834
X44812Y4334
X49812Y4334
X49812Y4834
X49812Y5334
X49812Y5834
X49812Y6334
X49812Y6834
X49812Y7334
X48099Y9475
X47705Y9475
X47312Y9475
X46918Y9475
X46524Y9475
X43099Y9475
X42705Y9475
X42312Y9475
X41918Y9475
X41524Y9475
X38099Y9475
X37705Y9475
X37312Y9475
X36918Y9475
X36524Y9475
X33099Y9475
X32705Y9475
X32312Y9475
X31918Y9475
X31524Y9475
X28099Y9475
X27705Y9475
X27312Y9475
X26918Y9475
X26524Y9475
X23099Y9475
X22705Y9475
X22312Y9475
X21918Y9475
X21524Y9475
X18099Y9475
X17705Y9475
X17312Y9475
X16918Y9475
X16524Y9475
X13099Y9475
X12705Y9475
X12312Y9475
X11918Y9475
X11524Y9475
X9800Y7334
X9800Y6834
X9800Y6334
X9800Y5834
X9800Y5334
X9800Y4834
X9800Y4334
X11524Y2192
X11918Y2192
X12312Y2192
X12705Y2192
X13099Y2192
X16524Y2192
X16918Y2192
X17312Y2192
X17705Y2192
X18099Y2192
X21524Y2192
X21918Y2192
X22312Y2192
X22705Y2192
X23099Y2192
X26524Y2192
X26918Y2192
X27312Y2192
X27705Y2192
X28099Y2192
X31524Y2192
X31918Y2192
X32312Y2192
X32705Y2192
X33099Y2192
X36524Y2192
X36918Y2192
X37312Y2192
X37705Y2192
X38099Y2192
X41524Y2192
X41918Y2192
X42312Y2192
X42705Y2192
X43099Y2192
X46524Y2192
X46918Y2192
X47312Y2192
X47705Y2192
X48099Y2192
T03
X49312Y4084
X50300Y4084
X50300Y4584
X49312Y4584
X49312Y5084
X50300Y5084
X50300Y5584
X49312Y5584
X49312Y6084
X50300Y6084
X50300Y6584
X49312Y6584
X49312Y7084
X50300Y7084
X50300Y7584
X49312Y7584
X45312Y7584
X44312Y7584
X44312Y7084
X45312Y7084
X45312Y6584
X44312Y6584
X44312Y6084
X45312Y6084
X45312Y5584
X44312Y5584
X44312Y5084
X45312Y5084
X45312Y4584
X44312Y4584
X44312Y4084
X45312Y4084
X40312Y4084
X39312Y4084
X39312Y4584
X40312Y4584
X40312Y5084
X39312Y5084
X39312Y5584
X40312Y5584
X40312Y6084
X39312Y6084
X39312Y6584
X40312Y6584
X40312Y7084
X39312Y7084
X39312Y7584
X40312Y7584
X35312Y7584
X34312Y7584
X34312Y7084
X35312Y7084
X35312Y6584
X34312Y6584
X34312Y6084
X35312Y6084
X35312Y5584
X34312Y5584
X34312Y5084
X35312Y5084
X35312Y4584
X34312Y4584
X34312Y4084
X35312Y4084
X30312Y4084
X29312Y4084
X29312Y4584
X30312Y4584
X30312Y5084
X29312Y5084
X29312Y5584
X30312Y5584
X30312Y6084
X29312Y6084
X29312Y6584
X30312Y6584
X30312Y7084
X29312Y7084
X29312Y7584
X30312Y7584
X25312Y7584
X24312Y7584
X24312Y7084
X25312Y7084
X25312Y6584
X24312Y6584
X24312Y6084
X25312Y6084
X25312Y5584
X24312Y5584
X24312Y5084
X25312Y5084
X25312Y4584
X24312Y4584
X24312Y4084
X25312Y4084
X20312Y4084
X19312Y4084
X19312Y4584
X20312Y4584
X20312Y5084
X19312Y5084
X19312Y5584
X20312Y5584
X20312Y6084
X19312Y6084
X19312Y6584
X20312Y6584
X20312Y7084
X19312Y7084
X19312Y7584
X20312Y7584
X15312Y7584
X14312Y7584
X14312Y7084
X15312Y7084
X15312Y6584
X14312Y6584
X14312Y6084
X15312Y6084
X15312Y5584
X14312Y5584
X14312Y5084
X15312Y5084
X15312Y4584
X14312Y4584
X14312Y4084
X15312Y4084
X10312Y4084
X9300Y4084
X9300Y4584
X10312Y4584
X10312Y5084
X9300Y5084
X9300Y5584
X10312Y5584
X10312Y6084
X9300Y6084
X9300Y6584
X10312Y6584
X10312Y7084
X9300Y7084
X9300Y7584
X10312Y7584
T04
X10312Y8834
X11312Y8834
X12312Y8834
X13312Y8834
X14312Y8834
X15312Y8834
X16312Y8834
X17312Y8834
X18312Y8834
X19312Y8834
X20312Y8834
X21312Y8834
X22312Y8834
X23312Y8834
X24312Y8834
X25312Y8834
X26312Y8834
X27312Y8834
X28312Y8834
X29312Y8834
X30312Y8834
X31312Y8834
X32312Y8834
X33312Y8834
X34312Y8834
X35312Y8834
X36312Y8834
X37312Y8834
X38312Y8834
X39312Y8834
X40312Y8834
X41312Y8834
X42312Y8834
X43312Y8834
X44312Y8834
X45312Y8834
X46312Y8834
X47312Y8834
X48312Y8834
X49312Y8834
X49312Y2834
X48312Y2834
X47312Y2834
X46312Y2834
X45312Y2834
X44312Y2834
X43312Y2834
X42312Y2834
X41312Y2834
X40312Y2834
X39312Y2834
X38312Y2834
X37312Y2834
X36312Y2834
X35312Y2834
X34312Y2834
X33312Y2834
X32312Y2834
X31312Y2834
X30312Y2834
X29312Y2834
X28312Y2834
X27312Y2834
X26312Y2834
X25312Y2834
X24312Y2834
X23312Y2834
X22312Y2834
X21312Y2834
X20312Y2834
X19312Y2834
X18312Y2834
X17312Y2834
X16312Y2834
X15312Y2834
X14312Y2834
X13312Y2834
X12312Y2834
X11312Y2834
X10312Y2834
T05
X7800Y4334
X6800Y4334
X6800Y5334
X7800Y5334
X7800Y6334
X6800Y6334
X6800Y7334
X7800Y7334
X51800Y7334
X52800Y7334
X52800Y6334
X51800Y6334
X51800Y5334
X52800Y5334
X52800Y4334
X51800Y4334
T06
X47312Y1306
X42312Y1306
X37312Y1306
X32312Y1306
X27312Y1306
X22312Y1306
X17312Y1306
X12312Y1306
X12312Y10361
X17312Y10361
X22312Y10361
X27312Y10361
X32312Y10361
X37312Y10361
X42312Y10361
X47312Y10361
T07
X7300Y1306
X7300Y10361
X52304Y10361
X52300Y1306
M30
