G75*
G70*
%OFA0B0*%
%FSLAX24Y24*%
%IPPOS*%
%LPD*%
%AMOC8*
5,1,8,0,0,1.08239X$1,22.5*
%
%ADD10C,0.0236*%
%ADD11C,0.0453*%
%ADD12C,0.1299*%
%ADD13R,0.0289X0.0539*%
%ADD14C,0.0779*%
%ADD15R,0.0197X0.0669*%
%ADD16C,0.0571*%
%ADD17R,0.0433X0.0354*%
%ADD18R,0.0354X0.0433*%
%ADD19C,0.0866*%
%ADD20C,0.0394*%
%ADD21C,0.0098*%
D10*
X006667Y002192D03*
X007061Y002192D03*
X007454Y002192D03*
X007848Y002192D03*
X008242Y002192D03*
X011667Y002192D03*
X012061Y002192D03*
X012454Y002192D03*
X012848Y002192D03*
X013242Y002192D03*
X016667Y002192D03*
X017061Y002192D03*
X017454Y002192D03*
X017848Y002192D03*
X018242Y002192D03*
X021667Y002192D03*
X022061Y002192D03*
X022454Y002192D03*
X022848Y002192D03*
X023242Y002192D03*
X026667Y002192D03*
X027061Y002192D03*
X027454Y002192D03*
X027848Y002192D03*
X028242Y002192D03*
X031667Y002192D03*
X032061Y002192D03*
X032454Y002192D03*
X032848Y002192D03*
X033242Y002192D03*
X036667Y002192D03*
X037061Y002192D03*
X037454Y002192D03*
X037848Y002192D03*
X038242Y002192D03*
X041667Y002192D03*
X042061Y002192D03*
X042454Y002192D03*
X042848Y002192D03*
X043242Y002192D03*
X044954Y004334D03*
X044954Y004834D03*
X044954Y005334D03*
X044954Y005834D03*
X044954Y006334D03*
X044954Y006834D03*
X044954Y007334D03*
X039954Y007334D03*
X039954Y006834D03*
X039954Y006334D03*
X039954Y005834D03*
X039954Y005334D03*
X039954Y004834D03*
X039954Y004334D03*
X034954Y004334D03*
X034954Y004834D03*
X034954Y005334D03*
X034954Y005834D03*
X034954Y006334D03*
X034954Y006834D03*
X034954Y007334D03*
X029954Y007334D03*
X029954Y006834D03*
X029954Y006334D03*
X029954Y005834D03*
X029954Y005334D03*
X029954Y004834D03*
X029954Y004334D03*
X024954Y004334D03*
X024954Y004834D03*
X024954Y005334D03*
X024954Y005834D03*
X024954Y006334D03*
X024954Y006834D03*
X024954Y007334D03*
X019954Y007334D03*
X019954Y006834D03*
X019954Y006334D03*
X019954Y005834D03*
X019954Y005334D03*
X019954Y004834D03*
X019954Y004334D03*
X014954Y004334D03*
X014954Y004834D03*
X014954Y005334D03*
X014954Y005834D03*
X014954Y006334D03*
X014954Y006834D03*
X014954Y007334D03*
X009954Y007334D03*
X009954Y006834D03*
X009954Y006334D03*
X009954Y005834D03*
X009954Y005334D03*
X009954Y004834D03*
X009954Y004334D03*
X004943Y004334D03*
X004943Y004834D03*
X004943Y005334D03*
X004943Y005834D03*
X004943Y006334D03*
X004943Y006834D03*
X004943Y007334D03*
X006667Y009475D03*
X007061Y009475D03*
X007454Y009475D03*
X007848Y009475D03*
X008242Y009475D03*
X011667Y009475D03*
X012061Y009475D03*
X012454Y009475D03*
X012848Y009475D03*
X013242Y009475D03*
X016667Y009475D03*
X017061Y009475D03*
X017454Y009475D03*
X017848Y009475D03*
X018242Y009475D03*
X021667Y009475D03*
X022061Y009475D03*
X022454Y009475D03*
X022848Y009475D03*
X023242Y009475D03*
X026667Y009475D03*
X027061Y009475D03*
X027454Y009475D03*
X027848Y009475D03*
X028242Y009475D03*
X031667Y009475D03*
X032061Y009475D03*
X032454Y009475D03*
X032848Y009475D03*
X033242Y009475D03*
X036667Y009475D03*
X037061Y009475D03*
X037454Y009475D03*
X037848Y009475D03*
X038242Y009475D03*
X041667Y009475D03*
X042061Y009475D03*
X042454Y009475D03*
X042848Y009475D03*
X043242Y009475D03*
D11*
X044454Y007584D03*
X045443Y007584D03*
X045443Y007084D03*
X044454Y007084D03*
X044454Y006584D03*
X045443Y006584D03*
X045443Y006084D03*
X044454Y006084D03*
X044454Y005584D03*
X045443Y005584D03*
X045443Y005084D03*
X044454Y005084D03*
X044454Y004584D03*
X045443Y004584D03*
X045443Y004084D03*
X044454Y004084D03*
X040454Y004084D03*
X039454Y004084D03*
X039454Y004584D03*
X040454Y004584D03*
X040454Y005084D03*
X039454Y005084D03*
X039454Y005584D03*
X040454Y005584D03*
X040454Y006084D03*
X039454Y006084D03*
X039454Y006584D03*
X040454Y006584D03*
X040454Y007084D03*
X039454Y007084D03*
X039454Y007584D03*
X040454Y007584D03*
X035454Y007584D03*
X034454Y007584D03*
X034454Y007084D03*
X035454Y007084D03*
X035454Y006584D03*
X034454Y006584D03*
X034454Y006084D03*
X035454Y006084D03*
X035454Y005584D03*
X034454Y005584D03*
X034454Y005084D03*
X035454Y005084D03*
X035454Y004584D03*
X034454Y004584D03*
X034454Y004084D03*
X035454Y004084D03*
X030454Y004084D03*
X029454Y004084D03*
X029454Y004584D03*
X030454Y004584D03*
X030454Y005084D03*
X029454Y005084D03*
X029454Y005584D03*
X030454Y005584D03*
X030454Y006084D03*
X029454Y006084D03*
X029454Y006584D03*
X030454Y006584D03*
X030454Y007084D03*
X029454Y007084D03*
X029454Y007584D03*
X030454Y007584D03*
X025454Y007584D03*
X024454Y007584D03*
X024454Y007084D03*
X025454Y007084D03*
X025454Y006584D03*
X024454Y006584D03*
X024454Y006084D03*
X025454Y006084D03*
X025454Y005584D03*
X024454Y005584D03*
X024454Y005084D03*
X025454Y005084D03*
X025454Y004584D03*
X024454Y004584D03*
X024454Y004084D03*
X025454Y004084D03*
X020454Y004084D03*
X019454Y004084D03*
X019454Y004584D03*
X020454Y004584D03*
X020454Y005084D03*
X019454Y005084D03*
X019454Y005584D03*
X020454Y005584D03*
X020454Y006084D03*
X019454Y006084D03*
X019454Y006584D03*
X020454Y006584D03*
X020454Y007084D03*
X019454Y007084D03*
X019454Y007584D03*
X020454Y007584D03*
X015454Y007584D03*
X014454Y007584D03*
X014454Y007084D03*
X015454Y007084D03*
X015454Y006584D03*
X014454Y006584D03*
X014454Y006084D03*
X015454Y006084D03*
X015454Y005584D03*
X014454Y005584D03*
X014454Y005084D03*
X015454Y005084D03*
X015454Y004584D03*
X014454Y004584D03*
X014454Y004084D03*
X015454Y004084D03*
X010454Y004084D03*
X009454Y004084D03*
X009454Y004584D03*
X010454Y004584D03*
X010454Y005084D03*
X009454Y005084D03*
X009454Y005584D03*
X010454Y005584D03*
X010454Y006084D03*
X009454Y006084D03*
X009454Y006584D03*
X010454Y006584D03*
X010454Y007084D03*
X009454Y007084D03*
X009454Y007584D03*
X010454Y007584D03*
X005454Y007584D03*
X004443Y007584D03*
X004443Y007084D03*
X005454Y007084D03*
X005454Y006584D03*
X004443Y006584D03*
X004443Y006084D03*
X005454Y006084D03*
X005454Y005584D03*
X004443Y005584D03*
X004443Y005084D03*
X005454Y005084D03*
X005454Y004584D03*
X004443Y004584D03*
X004443Y004084D03*
X005454Y004084D03*
D12*
X002443Y001306D03*
X002443Y010361D03*
X047446Y010361D03*
X047443Y001306D03*
D13*
X047620Y003353D03*
X047265Y003353D03*
X047265Y008255D03*
X047620Y008255D03*
X002620Y008314D03*
X002265Y008314D03*
X002265Y003353D03*
X002620Y003353D03*
D14*
X002943Y004334D03*
X001943Y004334D03*
X001943Y005334D03*
X002943Y005334D03*
X002943Y006334D03*
X001943Y006334D03*
X001943Y007334D03*
X002943Y007334D03*
X046943Y007334D03*
X047943Y007334D03*
X047943Y006334D03*
X046943Y006334D03*
X046943Y005334D03*
X047943Y005334D03*
X047943Y004334D03*
X046943Y004334D03*
D15*
X043822Y004712D03*
X043567Y004712D03*
X043311Y004712D03*
X043055Y004712D03*
X042799Y004712D03*
X042543Y004712D03*
X042287Y004712D03*
X042031Y004712D03*
X038822Y004712D03*
X038567Y004712D03*
X038311Y004712D03*
X038055Y004712D03*
X037799Y004712D03*
X037543Y004712D03*
X037287Y004712D03*
X037031Y004712D03*
X033822Y004712D03*
X033567Y004712D03*
X033311Y004712D03*
X033055Y004712D03*
X032799Y004712D03*
X032543Y004712D03*
X032287Y004712D03*
X032031Y004712D03*
X028822Y004712D03*
X028567Y004712D03*
X028311Y004712D03*
X028055Y004712D03*
X027799Y004712D03*
X027543Y004712D03*
X027287Y004712D03*
X027031Y004712D03*
X023822Y004712D03*
X023567Y004712D03*
X023311Y004712D03*
X023055Y004712D03*
X022799Y004712D03*
X022543Y004712D03*
X022287Y004712D03*
X022031Y004712D03*
X018822Y004712D03*
X018567Y004712D03*
X018311Y004712D03*
X018055Y004712D03*
X017799Y004712D03*
X017543Y004712D03*
X017287Y004712D03*
X017031Y004712D03*
X013822Y004712D03*
X013567Y004712D03*
X013311Y004712D03*
X013055Y004712D03*
X012799Y004712D03*
X012543Y004712D03*
X012287Y004712D03*
X012031Y004712D03*
X008822Y004712D03*
X008567Y004712D03*
X008311Y004712D03*
X008055Y004712D03*
X007799Y004712D03*
X007543Y004712D03*
X007287Y004712D03*
X007031Y004712D03*
X007031Y007034D03*
X007287Y007034D03*
X007543Y007034D03*
X007799Y007034D03*
X008055Y007034D03*
X008311Y007034D03*
X008567Y007034D03*
X008822Y007034D03*
X012031Y007034D03*
X012287Y007034D03*
X012543Y007034D03*
X012799Y007034D03*
X013055Y007034D03*
X013311Y007034D03*
X013567Y007034D03*
X013822Y007034D03*
X017031Y007034D03*
X017287Y007034D03*
X017543Y007034D03*
X017799Y007034D03*
X018055Y007034D03*
X018311Y007034D03*
X018567Y007034D03*
X018822Y007034D03*
X022031Y007034D03*
X022287Y007034D03*
X022543Y007034D03*
X022799Y007034D03*
X023055Y007034D03*
X023311Y007034D03*
X023567Y007034D03*
X023822Y007034D03*
X027031Y007034D03*
X027287Y007034D03*
X027543Y007034D03*
X027799Y007034D03*
X028055Y007034D03*
X028311Y007034D03*
X028567Y007034D03*
X028822Y007034D03*
X032031Y007034D03*
X032287Y007034D03*
X032543Y007034D03*
X032799Y007034D03*
X033055Y007034D03*
X033311Y007034D03*
X033567Y007034D03*
X033822Y007034D03*
X037031Y007034D03*
X037287Y007034D03*
X037543Y007034D03*
X037799Y007034D03*
X038055Y007034D03*
X038311Y007034D03*
X038567Y007034D03*
X038822Y007034D03*
X042031Y007034D03*
X042287Y007034D03*
X042543Y007034D03*
X042799Y007034D03*
X043055Y007034D03*
X043311Y007034D03*
X043567Y007034D03*
X043822Y007034D03*
D16*
X043454Y008834D03*
X042454Y008834D03*
X041454Y008834D03*
X040454Y008834D03*
X039454Y008834D03*
X038454Y008834D03*
X037454Y008834D03*
X036454Y008834D03*
X035454Y008834D03*
X034454Y008834D03*
X033454Y008834D03*
X032454Y008834D03*
X031454Y008834D03*
X030454Y008834D03*
X029454Y008834D03*
X028454Y008834D03*
X027454Y008834D03*
X026454Y008834D03*
X025454Y008834D03*
X024454Y008834D03*
X023454Y008834D03*
X022454Y008834D03*
X021454Y008834D03*
X020454Y008834D03*
X019454Y008834D03*
X018454Y008834D03*
X017454Y008834D03*
X016454Y008834D03*
X015454Y008834D03*
X014454Y008834D03*
X013454Y008834D03*
X012454Y008834D03*
X011454Y008834D03*
X010454Y008834D03*
X009454Y008834D03*
X008454Y008834D03*
X007454Y008834D03*
X006454Y008834D03*
X005454Y008834D03*
X005454Y002834D03*
X006454Y002834D03*
X007454Y002834D03*
X008454Y002834D03*
X009454Y002834D03*
X010454Y002834D03*
X011454Y002834D03*
X012454Y002834D03*
X013454Y002834D03*
X014454Y002834D03*
X015454Y002834D03*
X016454Y002834D03*
X017454Y002834D03*
X018454Y002834D03*
X019454Y002834D03*
X020454Y002834D03*
X021454Y002834D03*
X022454Y002834D03*
X023454Y002834D03*
X024454Y002834D03*
X025454Y002834D03*
X026454Y002834D03*
X027454Y002834D03*
X028454Y002834D03*
X029454Y002834D03*
X030454Y002834D03*
X031454Y002834D03*
X032454Y002834D03*
X033454Y002834D03*
X034454Y002834D03*
X035454Y002834D03*
X036454Y002834D03*
X037454Y002834D03*
X038454Y002834D03*
X039454Y002834D03*
X040454Y002834D03*
X041454Y002834D03*
X042454Y002834D03*
X043454Y002834D03*
X044454Y002834D03*
X044454Y008834D03*
D17*
X041324Y006351D03*
X041324Y005682D03*
X036324Y005682D03*
X036324Y006351D03*
X031324Y006351D03*
X031324Y005682D03*
X026324Y005682D03*
X026324Y006351D03*
X021324Y006351D03*
X021324Y005682D03*
X016324Y005682D03*
X016324Y006351D03*
X011324Y006351D03*
X011324Y005682D03*
X006324Y005682D03*
X006324Y006351D03*
D18*
X005998Y004475D03*
X006667Y004475D03*
X010998Y004475D03*
X011667Y004475D03*
X015998Y004475D03*
X016667Y004475D03*
X020998Y004475D03*
X021667Y004475D03*
X025998Y004475D03*
X026667Y004475D03*
X030998Y004475D03*
X031667Y004475D03*
X035998Y004475D03*
X036667Y004475D03*
X040998Y004475D03*
X041667Y004475D03*
D19*
X042454Y001306D03*
X037454Y001306D03*
X032454Y001306D03*
X027454Y001306D03*
X022454Y001306D03*
X017454Y001306D03*
X012454Y001306D03*
X007454Y001306D03*
X007454Y010361D03*
X012454Y010361D03*
X017454Y010361D03*
X022454Y010361D03*
X027454Y010361D03*
X032454Y010361D03*
X037454Y010361D03*
X042454Y010361D03*
D20*
X041863Y010361D02*
X041865Y010409D01*
X041871Y010457D01*
X041881Y010504D01*
X041894Y010550D01*
X041912Y010595D01*
X041932Y010639D01*
X041957Y010681D01*
X041985Y010720D01*
X042015Y010757D01*
X042049Y010791D01*
X042086Y010823D01*
X042124Y010852D01*
X042165Y010877D01*
X042208Y010899D01*
X042253Y010917D01*
X042299Y010931D01*
X042346Y010942D01*
X042394Y010949D01*
X042442Y010952D01*
X042490Y010951D01*
X042538Y010946D01*
X042586Y010937D01*
X042632Y010925D01*
X042677Y010908D01*
X042721Y010888D01*
X042763Y010865D01*
X042803Y010838D01*
X042841Y010808D01*
X042876Y010775D01*
X042908Y010739D01*
X042938Y010701D01*
X042964Y010660D01*
X042986Y010617D01*
X043006Y010573D01*
X043021Y010528D01*
X043033Y010481D01*
X043041Y010433D01*
X043045Y010385D01*
X043045Y010337D01*
X043041Y010289D01*
X043033Y010241D01*
X043021Y010194D01*
X043006Y010149D01*
X042986Y010105D01*
X042964Y010062D01*
X042938Y010021D01*
X042908Y009983D01*
X042876Y009947D01*
X042841Y009914D01*
X042803Y009884D01*
X042763Y009857D01*
X042721Y009834D01*
X042677Y009814D01*
X042632Y009797D01*
X042586Y009785D01*
X042538Y009776D01*
X042490Y009771D01*
X042442Y009770D01*
X042394Y009773D01*
X042346Y009780D01*
X042299Y009791D01*
X042253Y009805D01*
X042208Y009823D01*
X042165Y009845D01*
X042124Y009870D01*
X042086Y009899D01*
X042049Y009931D01*
X042015Y009965D01*
X041985Y010002D01*
X041957Y010041D01*
X041932Y010083D01*
X041912Y010127D01*
X041894Y010172D01*
X041881Y010218D01*
X041871Y010265D01*
X041865Y010313D01*
X041863Y010361D01*
X036863Y010361D02*
X036865Y010409D01*
X036871Y010457D01*
X036881Y010504D01*
X036894Y010550D01*
X036912Y010595D01*
X036932Y010639D01*
X036957Y010681D01*
X036985Y010720D01*
X037015Y010757D01*
X037049Y010791D01*
X037086Y010823D01*
X037124Y010852D01*
X037165Y010877D01*
X037208Y010899D01*
X037253Y010917D01*
X037299Y010931D01*
X037346Y010942D01*
X037394Y010949D01*
X037442Y010952D01*
X037490Y010951D01*
X037538Y010946D01*
X037586Y010937D01*
X037632Y010925D01*
X037677Y010908D01*
X037721Y010888D01*
X037763Y010865D01*
X037803Y010838D01*
X037841Y010808D01*
X037876Y010775D01*
X037908Y010739D01*
X037938Y010701D01*
X037964Y010660D01*
X037986Y010617D01*
X038006Y010573D01*
X038021Y010528D01*
X038033Y010481D01*
X038041Y010433D01*
X038045Y010385D01*
X038045Y010337D01*
X038041Y010289D01*
X038033Y010241D01*
X038021Y010194D01*
X038006Y010149D01*
X037986Y010105D01*
X037964Y010062D01*
X037938Y010021D01*
X037908Y009983D01*
X037876Y009947D01*
X037841Y009914D01*
X037803Y009884D01*
X037763Y009857D01*
X037721Y009834D01*
X037677Y009814D01*
X037632Y009797D01*
X037586Y009785D01*
X037538Y009776D01*
X037490Y009771D01*
X037442Y009770D01*
X037394Y009773D01*
X037346Y009780D01*
X037299Y009791D01*
X037253Y009805D01*
X037208Y009823D01*
X037165Y009845D01*
X037124Y009870D01*
X037086Y009899D01*
X037049Y009931D01*
X037015Y009965D01*
X036985Y010002D01*
X036957Y010041D01*
X036932Y010083D01*
X036912Y010127D01*
X036894Y010172D01*
X036881Y010218D01*
X036871Y010265D01*
X036865Y010313D01*
X036863Y010361D01*
X031863Y010361D02*
X031865Y010409D01*
X031871Y010457D01*
X031881Y010504D01*
X031894Y010550D01*
X031912Y010595D01*
X031932Y010639D01*
X031957Y010681D01*
X031985Y010720D01*
X032015Y010757D01*
X032049Y010791D01*
X032086Y010823D01*
X032124Y010852D01*
X032165Y010877D01*
X032208Y010899D01*
X032253Y010917D01*
X032299Y010931D01*
X032346Y010942D01*
X032394Y010949D01*
X032442Y010952D01*
X032490Y010951D01*
X032538Y010946D01*
X032586Y010937D01*
X032632Y010925D01*
X032677Y010908D01*
X032721Y010888D01*
X032763Y010865D01*
X032803Y010838D01*
X032841Y010808D01*
X032876Y010775D01*
X032908Y010739D01*
X032938Y010701D01*
X032964Y010660D01*
X032986Y010617D01*
X033006Y010573D01*
X033021Y010528D01*
X033033Y010481D01*
X033041Y010433D01*
X033045Y010385D01*
X033045Y010337D01*
X033041Y010289D01*
X033033Y010241D01*
X033021Y010194D01*
X033006Y010149D01*
X032986Y010105D01*
X032964Y010062D01*
X032938Y010021D01*
X032908Y009983D01*
X032876Y009947D01*
X032841Y009914D01*
X032803Y009884D01*
X032763Y009857D01*
X032721Y009834D01*
X032677Y009814D01*
X032632Y009797D01*
X032586Y009785D01*
X032538Y009776D01*
X032490Y009771D01*
X032442Y009770D01*
X032394Y009773D01*
X032346Y009780D01*
X032299Y009791D01*
X032253Y009805D01*
X032208Y009823D01*
X032165Y009845D01*
X032124Y009870D01*
X032086Y009899D01*
X032049Y009931D01*
X032015Y009965D01*
X031985Y010002D01*
X031957Y010041D01*
X031932Y010083D01*
X031912Y010127D01*
X031894Y010172D01*
X031881Y010218D01*
X031871Y010265D01*
X031865Y010313D01*
X031863Y010361D01*
X026863Y010361D02*
X026865Y010409D01*
X026871Y010457D01*
X026881Y010504D01*
X026894Y010550D01*
X026912Y010595D01*
X026932Y010639D01*
X026957Y010681D01*
X026985Y010720D01*
X027015Y010757D01*
X027049Y010791D01*
X027086Y010823D01*
X027124Y010852D01*
X027165Y010877D01*
X027208Y010899D01*
X027253Y010917D01*
X027299Y010931D01*
X027346Y010942D01*
X027394Y010949D01*
X027442Y010952D01*
X027490Y010951D01*
X027538Y010946D01*
X027586Y010937D01*
X027632Y010925D01*
X027677Y010908D01*
X027721Y010888D01*
X027763Y010865D01*
X027803Y010838D01*
X027841Y010808D01*
X027876Y010775D01*
X027908Y010739D01*
X027938Y010701D01*
X027964Y010660D01*
X027986Y010617D01*
X028006Y010573D01*
X028021Y010528D01*
X028033Y010481D01*
X028041Y010433D01*
X028045Y010385D01*
X028045Y010337D01*
X028041Y010289D01*
X028033Y010241D01*
X028021Y010194D01*
X028006Y010149D01*
X027986Y010105D01*
X027964Y010062D01*
X027938Y010021D01*
X027908Y009983D01*
X027876Y009947D01*
X027841Y009914D01*
X027803Y009884D01*
X027763Y009857D01*
X027721Y009834D01*
X027677Y009814D01*
X027632Y009797D01*
X027586Y009785D01*
X027538Y009776D01*
X027490Y009771D01*
X027442Y009770D01*
X027394Y009773D01*
X027346Y009780D01*
X027299Y009791D01*
X027253Y009805D01*
X027208Y009823D01*
X027165Y009845D01*
X027124Y009870D01*
X027086Y009899D01*
X027049Y009931D01*
X027015Y009965D01*
X026985Y010002D01*
X026957Y010041D01*
X026932Y010083D01*
X026912Y010127D01*
X026894Y010172D01*
X026881Y010218D01*
X026871Y010265D01*
X026865Y010313D01*
X026863Y010361D01*
X021863Y010361D02*
X021865Y010409D01*
X021871Y010457D01*
X021881Y010504D01*
X021894Y010550D01*
X021912Y010595D01*
X021932Y010639D01*
X021957Y010681D01*
X021985Y010720D01*
X022015Y010757D01*
X022049Y010791D01*
X022086Y010823D01*
X022124Y010852D01*
X022165Y010877D01*
X022208Y010899D01*
X022253Y010917D01*
X022299Y010931D01*
X022346Y010942D01*
X022394Y010949D01*
X022442Y010952D01*
X022490Y010951D01*
X022538Y010946D01*
X022586Y010937D01*
X022632Y010925D01*
X022677Y010908D01*
X022721Y010888D01*
X022763Y010865D01*
X022803Y010838D01*
X022841Y010808D01*
X022876Y010775D01*
X022908Y010739D01*
X022938Y010701D01*
X022964Y010660D01*
X022986Y010617D01*
X023006Y010573D01*
X023021Y010528D01*
X023033Y010481D01*
X023041Y010433D01*
X023045Y010385D01*
X023045Y010337D01*
X023041Y010289D01*
X023033Y010241D01*
X023021Y010194D01*
X023006Y010149D01*
X022986Y010105D01*
X022964Y010062D01*
X022938Y010021D01*
X022908Y009983D01*
X022876Y009947D01*
X022841Y009914D01*
X022803Y009884D01*
X022763Y009857D01*
X022721Y009834D01*
X022677Y009814D01*
X022632Y009797D01*
X022586Y009785D01*
X022538Y009776D01*
X022490Y009771D01*
X022442Y009770D01*
X022394Y009773D01*
X022346Y009780D01*
X022299Y009791D01*
X022253Y009805D01*
X022208Y009823D01*
X022165Y009845D01*
X022124Y009870D01*
X022086Y009899D01*
X022049Y009931D01*
X022015Y009965D01*
X021985Y010002D01*
X021957Y010041D01*
X021932Y010083D01*
X021912Y010127D01*
X021894Y010172D01*
X021881Y010218D01*
X021871Y010265D01*
X021865Y010313D01*
X021863Y010361D01*
X016863Y010361D02*
X016865Y010409D01*
X016871Y010457D01*
X016881Y010504D01*
X016894Y010550D01*
X016912Y010595D01*
X016932Y010639D01*
X016957Y010681D01*
X016985Y010720D01*
X017015Y010757D01*
X017049Y010791D01*
X017086Y010823D01*
X017124Y010852D01*
X017165Y010877D01*
X017208Y010899D01*
X017253Y010917D01*
X017299Y010931D01*
X017346Y010942D01*
X017394Y010949D01*
X017442Y010952D01*
X017490Y010951D01*
X017538Y010946D01*
X017586Y010937D01*
X017632Y010925D01*
X017677Y010908D01*
X017721Y010888D01*
X017763Y010865D01*
X017803Y010838D01*
X017841Y010808D01*
X017876Y010775D01*
X017908Y010739D01*
X017938Y010701D01*
X017964Y010660D01*
X017986Y010617D01*
X018006Y010573D01*
X018021Y010528D01*
X018033Y010481D01*
X018041Y010433D01*
X018045Y010385D01*
X018045Y010337D01*
X018041Y010289D01*
X018033Y010241D01*
X018021Y010194D01*
X018006Y010149D01*
X017986Y010105D01*
X017964Y010062D01*
X017938Y010021D01*
X017908Y009983D01*
X017876Y009947D01*
X017841Y009914D01*
X017803Y009884D01*
X017763Y009857D01*
X017721Y009834D01*
X017677Y009814D01*
X017632Y009797D01*
X017586Y009785D01*
X017538Y009776D01*
X017490Y009771D01*
X017442Y009770D01*
X017394Y009773D01*
X017346Y009780D01*
X017299Y009791D01*
X017253Y009805D01*
X017208Y009823D01*
X017165Y009845D01*
X017124Y009870D01*
X017086Y009899D01*
X017049Y009931D01*
X017015Y009965D01*
X016985Y010002D01*
X016957Y010041D01*
X016932Y010083D01*
X016912Y010127D01*
X016894Y010172D01*
X016881Y010218D01*
X016871Y010265D01*
X016865Y010313D01*
X016863Y010361D01*
X011863Y010361D02*
X011865Y010409D01*
X011871Y010457D01*
X011881Y010504D01*
X011894Y010550D01*
X011912Y010595D01*
X011932Y010639D01*
X011957Y010681D01*
X011985Y010720D01*
X012015Y010757D01*
X012049Y010791D01*
X012086Y010823D01*
X012124Y010852D01*
X012165Y010877D01*
X012208Y010899D01*
X012253Y010917D01*
X012299Y010931D01*
X012346Y010942D01*
X012394Y010949D01*
X012442Y010952D01*
X012490Y010951D01*
X012538Y010946D01*
X012586Y010937D01*
X012632Y010925D01*
X012677Y010908D01*
X012721Y010888D01*
X012763Y010865D01*
X012803Y010838D01*
X012841Y010808D01*
X012876Y010775D01*
X012908Y010739D01*
X012938Y010701D01*
X012964Y010660D01*
X012986Y010617D01*
X013006Y010573D01*
X013021Y010528D01*
X013033Y010481D01*
X013041Y010433D01*
X013045Y010385D01*
X013045Y010337D01*
X013041Y010289D01*
X013033Y010241D01*
X013021Y010194D01*
X013006Y010149D01*
X012986Y010105D01*
X012964Y010062D01*
X012938Y010021D01*
X012908Y009983D01*
X012876Y009947D01*
X012841Y009914D01*
X012803Y009884D01*
X012763Y009857D01*
X012721Y009834D01*
X012677Y009814D01*
X012632Y009797D01*
X012586Y009785D01*
X012538Y009776D01*
X012490Y009771D01*
X012442Y009770D01*
X012394Y009773D01*
X012346Y009780D01*
X012299Y009791D01*
X012253Y009805D01*
X012208Y009823D01*
X012165Y009845D01*
X012124Y009870D01*
X012086Y009899D01*
X012049Y009931D01*
X012015Y009965D01*
X011985Y010002D01*
X011957Y010041D01*
X011932Y010083D01*
X011912Y010127D01*
X011894Y010172D01*
X011881Y010218D01*
X011871Y010265D01*
X011865Y010313D01*
X011863Y010361D01*
X006863Y010361D02*
X006865Y010409D01*
X006871Y010457D01*
X006881Y010504D01*
X006894Y010550D01*
X006912Y010595D01*
X006932Y010639D01*
X006957Y010681D01*
X006985Y010720D01*
X007015Y010757D01*
X007049Y010791D01*
X007086Y010823D01*
X007124Y010852D01*
X007165Y010877D01*
X007208Y010899D01*
X007253Y010917D01*
X007299Y010931D01*
X007346Y010942D01*
X007394Y010949D01*
X007442Y010952D01*
X007490Y010951D01*
X007538Y010946D01*
X007586Y010937D01*
X007632Y010925D01*
X007677Y010908D01*
X007721Y010888D01*
X007763Y010865D01*
X007803Y010838D01*
X007841Y010808D01*
X007876Y010775D01*
X007908Y010739D01*
X007938Y010701D01*
X007964Y010660D01*
X007986Y010617D01*
X008006Y010573D01*
X008021Y010528D01*
X008033Y010481D01*
X008041Y010433D01*
X008045Y010385D01*
X008045Y010337D01*
X008041Y010289D01*
X008033Y010241D01*
X008021Y010194D01*
X008006Y010149D01*
X007986Y010105D01*
X007964Y010062D01*
X007938Y010021D01*
X007908Y009983D01*
X007876Y009947D01*
X007841Y009914D01*
X007803Y009884D01*
X007763Y009857D01*
X007721Y009834D01*
X007677Y009814D01*
X007632Y009797D01*
X007586Y009785D01*
X007538Y009776D01*
X007490Y009771D01*
X007442Y009770D01*
X007394Y009773D01*
X007346Y009780D01*
X007299Y009791D01*
X007253Y009805D01*
X007208Y009823D01*
X007165Y009845D01*
X007124Y009870D01*
X007086Y009899D01*
X007049Y009931D01*
X007015Y009965D01*
X006985Y010002D01*
X006957Y010041D01*
X006932Y010083D01*
X006912Y010127D01*
X006894Y010172D01*
X006881Y010218D01*
X006871Y010265D01*
X006865Y010313D01*
X006863Y010361D01*
X006863Y001306D02*
X006865Y001354D01*
X006871Y001402D01*
X006881Y001449D01*
X006894Y001495D01*
X006912Y001540D01*
X006932Y001584D01*
X006957Y001626D01*
X006985Y001665D01*
X007015Y001702D01*
X007049Y001736D01*
X007086Y001768D01*
X007124Y001797D01*
X007165Y001822D01*
X007208Y001844D01*
X007253Y001862D01*
X007299Y001876D01*
X007346Y001887D01*
X007394Y001894D01*
X007442Y001897D01*
X007490Y001896D01*
X007538Y001891D01*
X007586Y001882D01*
X007632Y001870D01*
X007677Y001853D01*
X007721Y001833D01*
X007763Y001810D01*
X007803Y001783D01*
X007841Y001753D01*
X007876Y001720D01*
X007908Y001684D01*
X007938Y001646D01*
X007964Y001605D01*
X007986Y001562D01*
X008006Y001518D01*
X008021Y001473D01*
X008033Y001426D01*
X008041Y001378D01*
X008045Y001330D01*
X008045Y001282D01*
X008041Y001234D01*
X008033Y001186D01*
X008021Y001139D01*
X008006Y001094D01*
X007986Y001050D01*
X007964Y001007D01*
X007938Y000966D01*
X007908Y000928D01*
X007876Y000892D01*
X007841Y000859D01*
X007803Y000829D01*
X007763Y000802D01*
X007721Y000779D01*
X007677Y000759D01*
X007632Y000742D01*
X007586Y000730D01*
X007538Y000721D01*
X007490Y000716D01*
X007442Y000715D01*
X007394Y000718D01*
X007346Y000725D01*
X007299Y000736D01*
X007253Y000750D01*
X007208Y000768D01*
X007165Y000790D01*
X007124Y000815D01*
X007086Y000844D01*
X007049Y000876D01*
X007015Y000910D01*
X006985Y000947D01*
X006957Y000986D01*
X006932Y001028D01*
X006912Y001072D01*
X006894Y001117D01*
X006881Y001163D01*
X006871Y001210D01*
X006865Y001258D01*
X006863Y001306D01*
X011863Y001306D02*
X011865Y001354D01*
X011871Y001402D01*
X011881Y001449D01*
X011894Y001495D01*
X011912Y001540D01*
X011932Y001584D01*
X011957Y001626D01*
X011985Y001665D01*
X012015Y001702D01*
X012049Y001736D01*
X012086Y001768D01*
X012124Y001797D01*
X012165Y001822D01*
X012208Y001844D01*
X012253Y001862D01*
X012299Y001876D01*
X012346Y001887D01*
X012394Y001894D01*
X012442Y001897D01*
X012490Y001896D01*
X012538Y001891D01*
X012586Y001882D01*
X012632Y001870D01*
X012677Y001853D01*
X012721Y001833D01*
X012763Y001810D01*
X012803Y001783D01*
X012841Y001753D01*
X012876Y001720D01*
X012908Y001684D01*
X012938Y001646D01*
X012964Y001605D01*
X012986Y001562D01*
X013006Y001518D01*
X013021Y001473D01*
X013033Y001426D01*
X013041Y001378D01*
X013045Y001330D01*
X013045Y001282D01*
X013041Y001234D01*
X013033Y001186D01*
X013021Y001139D01*
X013006Y001094D01*
X012986Y001050D01*
X012964Y001007D01*
X012938Y000966D01*
X012908Y000928D01*
X012876Y000892D01*
X012841Y000859D01*
X012803Y000829D01*
X012763Y000802D01*
X012721Y000779D01*
X012677Y000759D01*
X012632Y000742D01*
X012586Y000730D01*
X012538Y000721D01*
X012490Y000716D01*
X012442Y000715D01*
X012394Y000718D01*
X012346Y000725D01*
X012299Y000736D01*
X012253Y000750D01*
X012208Y000768D01*
X012165Y000790D01*
X012124Y000815D01*
X012086Y000844D01*
X012049Y000876D01*
X012015Y000910D01*
X011985Y000947D01*
X011957Y000986D01*
X011932Y001028D01*
X011912Y001072D01*
X011894Y001117D01*
X011881Y001163D01*
X011871Y001210D01*
X011865Y001258D01*
X011863Y001306D01*
X016863Y001306D02*
X016865Y001354D01*
X016871Y001402D01*
X016881Y001449D01*
X016894Y001495D01*
X016912Y001540D01*
X016932Y001584D01*
X016957Y001626D01*
X016985Y001665D01*
X017015Y001702D01*
X017049Y001736D01*
X017086Y001768D01*
X017124Y001797D01*
X017165Y001822D01*
X017208Y001844D01*
X017253Y001862D01*
X017299Y001876D01*
X017346Y001887D01*
X017394Y001894D01*
X017442Y001897D01*
X017490Y001896D01*
X017538Y001891D01*
X017586Y001882D01*
X017632Y001870D01*
X017677Y001853D01*
X017721Y001833D01*
X017763Y001810D01*
X017803Y001783D01*
X017841Y001753D01*
X017876Y001720D01*
X017908Y001684D01*
X017938Y001646D01*
X017964Y001605D01*
X017986Y001562D01*
X018006Y001518D01*
X018021Y001473D01*
X018033Y001426D01*
X018041Y001378D01*
X018045Y001330D01*
X018045Y001282D01*
X018041Y001234D01*
X018033Y001186D01*
X018021Y001139D01*
X018006Y001094D01*
X017986Y001050D01*
X017964Y001007D01*
X017938Y000966D01*
X017908Y000928D01*
X017876Y000892D01*
X017841Y000859D01*
X017803Y000829D01*
X017763Y000802D01*
X017721Y000779D01*
X017677Y000759D01*
X017632Y000742D01*
X017586Y000730D01*
X017538Y000721D01*
X017490Y000716D01*
X017442Y000715D01*
X017394Y000718D01*
X017346Y000725D01*
X017299Y000736D01*
X017253Y000750D01*
X017208Y000768D01*
X017165Y000790D01*
X017124Y000815D01*
X017086Y000844D01*
X017049Y000876D01*
X017015Y000910D01*
X016985Y000947D01*
X016957Y000986D01*
X016932Y001028D01*
X016912Y001072D01*
X016894Y001117D01*
X016881Y001163D01*
X016871Y001210D01*
X016865Y001258D01*
X016863Y001306D01*
X021863Y001306D02*
X021865Y001354D01*
X021871Y001402D01*
X021881Y001449D01*
X021894Y001495D01*
X021912Y001540D01*
X021932Y001584D01*
X021957Y001626D01*
X021985Y001665D01*
X022015Y001702D01*
X022049Y001736D01*
X022086Y001768D01*
X022124Y001797D01*
X022165Y001822D01*
X022208Y001844D01*
X022253Y001862D01*
X022299Y001876D01*
X022346Y001887D01*
X022394Y001894D01*
X022442Y001897D01*
X022490Y001896D01*
X022538Y001891D01*
X022586Y001882D01*
X022632Y001870D01*
X022677Y001853D01*
X022721Y001833D01*
X022763Y001810D01*
X022803Y001783D01*
X022841Y001753D01*
X022876Y001720D01*
X022908Y001684D01*
X022938Y001646D01*
X022964Y001605D01*
X022986Y001562D01*
X023006Y001518D01*
X023021Y001473D01*
X023033Y001426D01*
X023041Y001378D01*
X023045Y001330D01*
X023045Y001282D01*
X023041Y001234D01*
X023033Y001186D01*
X023021Y001139D01*
X023006Y001094D01*
X022986Y001050D01*
X022964Y001007D01*
X022938Y000966D01*
X022908Y000928D01*
X022876Y000892D01*
X022841Y000859D01*
X022803Y000829D01*
X022763Y000802D01*
X022721Y000779D01*
X022677Y000759D01*
X022632Y000742D01*
X022586Y000730D01*
X022538Y000721D01*
X022490Y000716D01*
X022442Y000715D01*
X022394Y000718D01*
X022346Y000725D01*
X022299Y000736D01*
X022253Y000750D01*
X022208Y000768D01*
X022165Y000790D01*
X022124Y000815D01*
X022086Y000844D01*
X022049Y000876D01*
X022015Y000910D01*
X021985Y000947D01*
X021957Y000986D01*
X021932Y001028D01*
X021912Y001072D01*
X021894Y001117D01*
X021881Y001163D01*
X021871Y001210D01*
X021865Y001258D01*
X021863Y001306D01*
X026863Y001306D02*
X026865Y001354D01*
X026871Y001402D01*
X026881Y001449D01*
X026894Y001495D01*
X026912Y001540D01*
X026932Y001584D01*
X026957Y001626D01*
X026985Y001665D01*
X027015Y001702D01*
X027049Y001736D01*
X027086Y001768D01*
X027124Y001797D01*
X027165Y001822D01*
X027208Y001844D01*
X027253Y001862D01*
X027299Y001876D01*
X027346Y001887D01*
X027394Y001894D01*
X027442Y001897D01*
X027490Y001896D01*
X027538Y001891D01*
X027586Y001882D01*
X027632Y001870D01*
X027677Y001853D01*
X027721Y001833D01*
X027763Y001810D01*
X027803Y001783D01*
X027841Y001753D01*
X027876Y001720D01*
X027908Y001684D01*
X027938Y001646D01*
X027964Y001605D01*
X027986Y001562D01*
X028006Y001518D01*
X028021Y001473D01*
X028033Y001426D01*
X028041Y001378D01*
X028045Y001330D01*
X028045Y001282D01*
X028041Y001234D01*
X028033Y001186D01*
X028021Y001139D01*
X028006Y001094D01*
X027986Y001050D01*
X027964Y001007D01*
X027938Y000966D01*
X027908Y000928D01*
X027876Y000892D01*
X027841Y000859D01*
X027803Y000829D01*
X027763Y000802D01*
X027721Y000779D01*
X027677Y000759D01*
X027632Y000742D01*
X027586Y000730D01*
X027538Y000721D01*
X027490Y000716D01*
X027442Y000715D01*
X027394Y000718D01*
X027346Y000725D01*
X027299Y000736D01*
X027253Y000750D01*
X027208Y000768D01*
X027165Y000790D01*
X027124Y000815D01*
X027086Y000844D01*
X027049Y000876D01*
X027015Y000910D01*
X026985Y000947D01*
X026957Y000986D01*
X026932Y001028D01*
X026912Y001072D01*
X026894Y001117D01*
X026881Y001163D01*
X026871Y001210D01*
X026865Y001258D01*
X026863Y001306D01*
X031863Y001306D02*
X031865Y001354D01*
X031871Y001402D01*
X031881Y001449D01*
X031894Y001495D01*
X031912Y001540D01*
X031932Y001584D01*
X031957Y001626D01*
X031985Y001665D01*
X032015Y001702D01*
X032049Y001736D01*
X032086Y001768D01*
X032124Y001797D01*
X032165Y001822D01*
X032208Y001844D01*
X032253Y001862D01*
X032299Y001876D01*
X032346Y001887D01*
X032394Y001894D01*
X032442Y001897D01*
X032490Y001896D01*
X032538Y001891D01*
X032586Y001882D01*
X032632Y001870D01*
X032677Y001853D01*
X032721Y001833D01*
X032763Y001810D01*
X032803Y001783D01*
X032841Y001753D01*
X032876Y001720D01*
X032908Y001684D01*
X032938Y001646D01*
X032964Y001605D01*
X032986Y001562D01*
X033006Y001518D01*
X033021Y001473D01*
X033033Y001426D01*
X033041Y001378D01*
X033045Y001330D01*
X033045Y001282D01*
X033041Y001234D01*
X033033Y001186D01*
X033021Y001139D01*
X033006Y001094D01*
X032986Y001050D01*
X032964Y001007D01*
X032938Y000966D01*
X032908Y000928D01*
X032876Y000892D01*
X032841Y000859D01*
X032803Y000829D01*
X032763Y000802D01*
X032721Y000779D01*
X032677Y000759D01*
X032632Y000742D01*
X032586Y000730D01*
X032538Y000721D01*
X032490Y000716D01*
X032442Y000715D01*
X032394Y000718D01*
X032346Y000725D01*
X032299Y000736D01*
X032253Y000750D01*
X032208Y000768D01*
X032165Y000790D01*
X032124Y000815D01*
X032086Y000844D01*
X032049Y000876D01*
X032015Y000910D01*
X031985Y000947D01*
X031957Y000986D01*
X031932Y001028D01*
X031912Y001072D01*
X031894Y001117D01*
X031881Y001163D01*
X031871Y001210D01*
X031865Y001258D01*
X031863Y001306D01*
X036863Y001306D02*
X036865Y001354D01*
X036871Y001402D01*
X036881Y001449D01*
X036894Y001495D01*
X036912Y001540D01*
X036932Y001584D01*
X036957Y001626D01*
X036985Y001665D01*
X037015Y001702D01*
X037049Y001736D01*
X037086Y001768D01*
X037124Y001797D01*
X037165Y001822D01*
X037208Y001844D01*
X037253Y001862D01*
X037299Y001876D01*
X037346Y001887D01*
X037394Y001894D01*
X037442Y001897D01*
X037490Y001896D01*
X037538Y001891D01*
X037586Y001882D01*
X037632Y001870D01*
X037677Y001853D01*
X037721Y001833D01*
X037763Y001810D01*
X037803Y001783D01*
X037841Y001753D01*
X037876Y001720D01*
X037908Y001684D01*
X037938Y001646D01*
X037964Y001605D01*
X037986Y001562D01*
X038006Y001518D01*
X038021Y001473D01*
X038033Y001426D01*
X038041Y001378D01*
X038045Y001330D01*
X038045Y001282D01*
X038041Y001234D01*
X038033Y001186D01*
X038021Y001139D01*
X038006Y001094D01*
X037986Y001050D01*
X037964Y001007D01*
X037938Y000966D01*
X037908Y000928D01*
X037876Y000892D01*
X037841Y000859D01*
X037803Y000829D01*
X037763Y000802D01*
X037721Y000779D01*
X037677Y000759D01*
X037632Y000742D01*
X037586Y000730D01*
X037538Y000721D01*
X037490Y000716D01*
X037442Y000715D01*
X037394Y000718D01*
X037346Y000725D01*
X037299Y000736D01*
X037253Y000750D01*
X037208Y000768D01*
X037165Y000790D01*
X037124Y000815D01*
X037086Y000844D01*
X037049Y000876D01*
X037015Y000910D01*
X036985Y000947D01*
X036957Y000986D01*
X036932Y001028D01*
X036912Y001072D01*
X036894Y001117D01*
X036881Y001163D01*
X036871Y001210D01*
X036865Y001258D01*
X036863Y001306D01*
X041863Y001306D02*
X041865Y001354D01*
X041871Y001402D01*
X041881Y001449D01*
X041894Y001495D01*
X041912Y001540D01*
X041932Y001584D01*
X041957Y001626D01*
X041985Y001665D01*
X042015Y001702D01*
X042049Y001736D01*
X042086Y001768D01*
X042124Y001797D01*
X042165Y001822D01*
X042208Y001844D01*
X042253Y001862D01*
X042299Y001876D01*
X042346Y001887D01*
X042394Y001894D01*
X042442Y001897D01*
X042490Y001896D01*
X042538Y001891D01*
X042586Y001882D01*
X042632Y001870D01*
X042677Y001853D01*
X042721Y001833D01*
X042763Y001810D01*
X042803Y001783D01*
X042841Y001753D01*
X042876Y001720D01*
X042908Y001684D01*
X042938Y001646D01*
X042964Y001605D01*
X042986Y001562D01*
X043006Y001518D01*
X043021Y001473D01*
X043033Y001426D01*
X043041Y001378D01*
X043045Y001330D01*
X043045Y001282D01*
X043041Y001234D01*
X043033Y001186D01*
X043021Y001139D01*
X043006Y001094D01*
X042986Y001050D01*
X042964Y001007D01*
X042938Y000966D01*
X042908Y000928D01*
X042876Y000892D01*
X042841Y000859D01*
X042803Y000829D01*
X042763Y000802D01*
X042721Y000779D01*
X042677Y000759D01*
X042632Y000742D01*
X042586Y000730D01*
X042538Y000721D01*
X042490Y000716D01*
X042442Y000715D01*
X042394Y000718D01*
X042346Y000725D01*
X042299Y000736D01*
X042253Y000750D01*
X042208Y000768D01*
X042165Y000790D01*
X042124Y000815D01*
X042086Y000844D01*
X042049Y000876D01*
X042015Y000910D01*
X041985Y000947D01*
X041957Y000986D01*
X041932Y001028D01*
X041912Y001072D01*
X041894Y001117D01*
X041881Y001163D01*
X041871Y001210D01*
X041865Y001258D01*
X041863Y001306D01*
D21*
X039208Y003459D02*
X039210Y003490D01*
X039216Y003520D01*
X039225Y003550D01*
X039238Y003578D01*
X039255Y003604D01*
X039275Y003627D01*
X039297Y003649D01*
X039322Y003667D01*
X039349Y003682D01*
X039378Y003693D01*
X039408Y003701D01*
X039439Y003705D01*
X039469Y003705D01*
X039500Y003701D01*
X039530Y003693D01*
X039559Y003682D01*
X039586Y003667D01*
X039611Y003649D01*
X039633Y003627D01*
X039653Y003604D01*
X039670Y003578D01*
X039683Y003550D01*
X039692Y003520D01*
X039698Y003490D01*
X039700Y003459D01*
X039698Y003428D01*
X039692Y003398D01*
X039683Y003368D01*
X039670Y003340D01*
X039653Y003314D01*
X039633Y003291D01*
X039611Y003269D01*
X039586Y003251D01*
X039559Y003236D01*
X039530Y003225D01*
X039500Y003217D01*
X039469Y003213D01*
X039439Y003213D01*
X039408Y003217D01*
X039378Y003225D01*
X039349Y003236D01*
X039322Y003251D01*
X039297Y003269D01*
X039275Y003291D01*
X039255Y003314D01*
X039238Y003340D01*
X039225Y003368D01*
X039216Y003398D01*
X039210Y003428D01*
X039208Y003459D01*
X034208Y003459D02*
X034210Y003490D01*
X034216Y003520D01*
X034225Y003550D01*
X034238Y003578D01*
X034255Y003604D01*
X034275Y003627D01*
X034297Y003649D01*
X034322Y003667D01*
X034349Y003682D01*
X034378Y003693D01*
X034408Y003701D01*
X034439Y003705D01*
X034469Y003705D01*
X034500Y003701D01*
X034530Y003693D01*
X034559Y003682D01*
X034586Y003667D01*
X034611Y003649D01*
X034633Y003627D01*
X034653Y003604D01*
X034670Y003578D01*
X034683Y003550D01*
X034692Y003520D01*
X034698Y003490D01*
X034700Y003459D01*
X034698Y003428D01*
X034692Y003398D01*
X034683Y003368D01*
X034670Y003340D01*
X034653Y003314D01*
X034633Y003291D01*
X034611Y003269D01*
X034586Y003251D01*
X034559Y003236D01*
X034530Y003225D01*
X034500Y003217D01*
X034469Y003213D01*
X034439Y003213D01*
X034408Y003217D01*
X034378Y003225D01*
X034349Y003236D01*
X034322Y003251D01*
X034297Y003269D01*
X034275Y003291D01*
X034255Y003314D01*
X034238Y003340D01*
X034225Y003368D01*
X034216Y003398D01*
X034210Y003428D01*
X034208Y003459D01*
X029208Y003459D02*
X029210Y003490D01*
X029216Y003520D01*
X029225Y003550D01*
X029238Y003578D01*
X029255Y003604D01*
X029275Y003627D01*
X029297Y003649D01*
X029322Y003667D01*
X029349Y003682D01*
X029378Y003693D01*
X029408Y003701D01*
X029439Y003705D01*
X029469Y003705D01*
X029500Y003701D01*
X029530Y003693D01*
X029559Y003682D01*
X029586Y003667D01*
X029611Y003649D01*
X029633Y003627D01*
X029653Y003604D01*
X029670Y003578D01*
X029683Y003550D01*
X029692Y003520D01*
X029698Y003490D01*
X029700Y003459D01*
X029698Y003428D01*
X029692Y003398D01*
X029683Y003368D01*
X029670Y003340D01*
X029653Y003314D01*
X029633Y003291D01*
X029611Y003269D01*
X029586Y003251D01*
X029559Y003236D01*
X029530Y003225D01*
X029500Y003217D01*
X029469Y003213D01*
X029439Y003213D01*
X029408Y003217D01*
X029378Y003225D01*
X029349Y003236D01*
X029322Y003251D01*
X029297Y003269D01*
X029275Y003291D01*
X029255Y003314D01*
X029238Y003340D01*
X029225Y003368D01*
X029216Y003398D01*
X029210Y003428D01*
X029208Y003459D01*
X024208Y003459D02*
X024210Y003490D01*
X024216Y003520D01*
X024225Y003550D01*
X024238Y003578D01*
X024255Y003604D01*
X024275Y003627D01*
X024297Y003649D01*
X024322Y003667D01*
X024349Y003682D01*
X024378Y003693D01*
X024408Y003701D01*
X024439Y003705D01*
X024469Y003705D01*
X024500Y003701D01*
X024530Y003693D01*
X024559Y003682D01*
X024586Y003667D01*
X024611Y003649D01*
X024633Y003627D01*
X024653Y003604D01*
X024670Y003578D01*
X024683Y003550D01*
X024692Y003520D01*
X024698Y003490D01*
X024700Y003459D01*
X024698Y003428D01*
X024692Y003398D01*
X024683Y003368D01*
X024670Y003340D01*
X024653Y003314D01*
X024633Y003291D01*
X024611Y003269D01*
X024586Y003251D01*
X024559Y003236D01*
X024530Y003225D01*
X024500Y003217D01*
X024469Y003213D01*
X024439Y003213D01*
X024408Y003217D01*
X024378Y003225D01*
X024349Y003236D01*
X024322Y003251D01*
X024297Y003269D01*
X024275Y003291D01*
X024255Y003314D01*
X024238Y003340D01*
X024225Y003368D01*
X024216Y003398D01*
X024210Y003428D01*
X024208Y003459D01*
X019208Y003459D02*
X019210Y003490D01*
X019216Y003520D01*
X019225Y003550D01*
X019238Y003578D01*
X019255Y003604D01*
X019275Y003627D01*
X019297Y003649D01*
X019322Y003667D01*
X019349Y003682D01*
X019378Y003693D01*
X019408Y003701D01*
X019439Y003705D01*
X019469Y003705D01*
X019500Y003701D01*
X019530Y003693D01*
X019559Y003682D01*
X019586Y003667D01*
X019611Y003649D01*
X019633Y003627D01*
X019653Y003604D01*
X019670Y003578D01*
X019683Y003550D01*
X019692Y003520D01*
X019698Y003490D01*
X019700Y003459D01*
X019698Y003428D01*
X019692Y003398D01*
X019683Y003368D01*
X019670Y003340D01*
X019653Y003314D01*
X019633Y003291D01*
X019611Y003269D01*
X019586Y003251D01*
X019559Y003236D01*
X019530Y003225D01*
X019500Y003217D01*
X019469Y003213D01*
X019439Y003213D01*
X019408Y003217D01*
X019378Y003225D01*
X019349Y003236D01*
X019322Y003251D01*
X019297Y003269D01*
X019275Y003291D01*
X019255Y003314D01*
X019238Y003340D01*
X019225Y003368D01*
X019216Y003398D01*
X019210Y003428D01*
X019208Y003459D01*
X014208Y003459D02*
X014210Y003490D01*
X014216Y003520D01*
X014225Y003550D01*
X014238Y003578D01*
X014255Y003604D01*
X014275Y003627D01*
X014297Y003649D01*
X014322Y003667D01*
X014349Y003682D01*
X014378Y003693D01*
X014408Y003701D01*
X014439Y003705D01*
X014469Y003705D01*
X014500Y003701D01*
X014530Y003693D01*
X014559Y003682D01*
X014586Y003667D01*
X014611Y003649D01*
X014633Y003627D01*
X014653Y003604D01*
X014670Y003578D01*
X014683Y003550D01*
X014692Y003520D01*
X014698Y003490D01*
X014700Y003459D01*
X014698Y003428D01*
X014692Y003398D01*
X014683Y003368D01*
X014670Y003340D01*
X014653Y003314D01*
X014633Y003291D01*
X014611Y003269D01*
X014586Y003251D01*
X014559Y003236D01*
X014530Y003225D01*
X014500Y003217D01*
X014469Y003213D01*
X014439Y003213D01*
X014408Y003217D01*
X014378Y003225D01*
X014349Y003236D01*
X014322Y003251D01*
X014297Y003269D01*
X014275Y003291D01*
X014255Y003314D01*
X014238Y003340D01*
X014225Y003368D01*
X014216Y003398D01*
X014210Y003428D01*
X014208Y003459D01*
X009208Y003459D02*
X009210Y003490D01*
X009216Y003520D01*
X009225Y003550D01*
X009238Y003578D01*
X009255Y003604D01*
X009275Y003627D01*
X009297Y003649D01*
X009322Y003667D01*
X009349Y003682D01*
X009378Y003693D01*
X009408Y003701D01*
X009439Y003705D01*
X009469Y003705D01*
X009500Y003701D01*
X009530Y003693D01*
X009559Y003682D01*
X009586Y003667D01*
X009611Y003649D01*
X009633Y003627D01*
X009653Y003604D01*
X009670Y003578D01*
X009683Y003550D01*
X009692Y003520D01*
X009698Y003490D01*
X009700Y003459D01*
X009698Y003428D01*
X009692Y003398D01*
X009683Y003368D01*
X009670Y003340D01*
X009653Y003314D01*
X009633Y003291D01*
X009611Y003269D01*
X009586Y003251D01*
X009559Y003236D01*
X009530Y003225D01*
X009500Y003217D01*
X009469Y003213D01*
X009439Y003213D01*
X009408Y003217D01*
X009378Y003225D01*
X009349Y003236D01*
X009322Y003251D01*
X009297Y003269D01*
X009275Y003291D01*
X009255Y003314D01*
X009238Y003340D01*
X009225Y003368D01*
X009216Y003398D01*
X009210Y003428D01*
X009208Y003459D01*
X044208Y003459D02*
X044210Y003490D01*
X044216Y003520D01*
X044225Y003550D01*
X044238Y003578D01*
X044255Y003604D01*
X044275Y003627D01*
X044297Y003649D01*
X044322Y003667D01*
X044349Y003682D01*
X044378Y003693D01*
X044408Y003701D01*
X044439Y003705D01*
X044469Y003705D01*
X044500Y003701D01*
X044530Y003693D01*
X044559Y003682D01*
X044586Y003667D01*
X044611Y003649D01*
X044633Y003627D01*
X044653Y003604D01*
X044670Y003578D01*
X044683Y003550D01*
X044692Y003520D01*
X044698Y003490D01*
X044700Y003459D01*
X044698Y003428D01*
X044692Y003398D01*
X044683Y003368D01*
X044670Y003340D01*
X044653Y003314D01*
X044633Y003291D01*
X044611Y003269D01*
X044586Y003251D01*
X044559Y003236D01*
X044530Y003225D01*
X044500Y003217D01*
X044469Y003213D01*
X044439Y003213D01*
X044408Y003217D01*
X044378Y003225D01*
X044349Y003236D01*
X044322Y003251D01*
X044297Y003269D01*
X044275Y003291D01*
X044255Y003314D01*
X044238Y003340D01*
X044225Y003368D01*
X044216Y003398D01*
X044210Y003428D01*
X044208Y003459D01*
M02*
