%
M48
M72
T01C0.0118
T02C0.0197
T03C0.0256
T04C0.0354
T05C0.0400
T06C0.0827
T07C0.1260
%
T01
X6450Y5084
X6746Y5084
X7809Y5584
X7572Y6084
X7336Y6365
X12336Y6365
X12572Y6084
X12809Y5584
X11746Y5084
X11450Y5084
X16450Y5084
X16746Y5084
X17809Y5584
X17572Y6084
X17336Y6365
X22336Y6365
X22572Y6084
X22809Y5584
X21746Y5084
X21450Y5084
X26450Y5084
X26746Y5084
X27809Y5584
X27572Y6084
X27336Y6365
X32336Y6365
X32572Y6084
X32809Y5584
X31746Y5084
X31450Y5084
X36450Y5084
X36746Y5084
X37809Y5584
X37572Y6084
X37336Y6365
X42336Y6365
X42572Y6084
X42809Y5584
X41746Y5084
X41450Y5084
X42691Y7664
X37691Y7664
X32691Y7664
X27691Y7664
X22691Y7664
X17691Y7664
X12691Y7664
X7691Y7664
T02
X9954Y7334
X9954Y6834
X9954Y6334
X9954Y5834
X9954Y5334
X9954Y4834
X9954Y4334
X14954Y4334
X14954Y4834
X14954Y5334
X14954Y5834
X14954Y6334
X14954Y6834
X14954Y7334
X19954Y7334
X19954Y6834
X19954Y6334
X19954Y5834
X19954Y5334
X19954Y4834
X19954Y4334
X24954Y4334
X24954Y4834
X24954Y5334
X24954Y5834
X24954Y6334
X24954Y6834
X24954Y7334
X29954Y7334
X29954Y6834
X29954Y6334
X29954Y5834
X29954Y5334
X29954Y4834
X29954Y4334
X34954Y4334
X34954Y4834
X34954Y5334
X34954Y5834
X34954Y6334
X34954Y6834
X34954Y7334
X39954Y7334
X39954Y6834
X39954Y6334
X39954Y5834
X39954Y5334
X39954Y4834
X39954Y4334
X44954Y4334
X44954Y4834
X44954Y5334
X44954Y5834
X44954Y6334
X44954Y6834
X44954Y7334
X43242Y9475
X42848Y9475
X42454Y9475
X42061Y9475
X41667Y9475
X38242Y9475
X37848Y9475
X37454Y9475
X37061Y9475
X36667Y9475
X33242Y9475
X32848Y9475
X32454Y9475
X32061Y9475
X31667Y9475
X28242Y9475
X27848Y9475
X27454Y9475
X27061Y9475
X26667Y9475
X23242Y9475
X22848Y9475
X22454Y9475
X22061Y9475
X21667Y9475
X18242Y9475
X17848Y9475
X17454Y9475
X17061Y9475
X16667Y9475
X13242Y9475
X12848Y9475
X12454Y9475
X12061Y9475
X11667Y9475
X8242Y9475
X7848Y9475
X7454Y9475
X7061Y9475
X6667Y9475
X4943Y7334
X4943Y6834
X4943Y6334
X4943Y5834
X4943Y5334
X4943Y4834
X4943Y4334
X6667Y2192
X7061Y2192
X7454Y2192
X7848Y2192
X8242Y2192
X11667Y2192
X12061Y2192
X12454Y2192
X12848Y2192
X13242Y2192
X16667Y2192
X17061Y2192
X17454Y2192
X17848Y2192
X18242Y2192
X21667Y2192
X22061Y2192
X22454Y2192
X22848Y2192
X23242Y2192
X26667Y2192
X27061Y2192
X27454Y2192
X27848Y2192
X28242Y2192
X31667Y2192
X32061Y2192
X32454Y2192
X32848Y2192
X33242Y2192
X36667Y2192
X37061Y2192
X37454Y2192
X37848Y2192
X38242Y2192
X41667Y2192
X42061Y2192
X42454Y2192
X42848Y2192
X43242Y2192
T03
X44454Y4084
X45443Y4084
X45443Y4584
X44454Y4584
X44454Y5084
X45443Y5084
X45443Y5584
X44454Y5584
X44454Y6084
X45443Y6084
X45443Y6584
X44454Y6584
X44454Y7084
X45443Y7084
X45443Y7584
X44454Y7584
X40454Y7584
X39454Y7584
X39454Y7084
X40454Y7084
X40454Y6584
X39454Y6584
X39454Y6084
X40454Y6084
X40454Y5584
X39454Y5584
X39454Y5084
X40454Y5084
X40454Y4584
X39454Y4584
X39454Y4084
X40454Y4084
X35454Y4084
X34454Y4084
X34454Y4584
X35454Y4584
X35454Y5084
X34454Y5084
X34454Y5584
X35454Y5584
X35454Y6084
X34454Y6084
X34454Y6584
X35454Y6584
X35454Y7084
X34454Y7084
X34454Y7584
X35454Y7584
X30454Y7584
X29454Y7584
X29454Y7084
X30454Y7084
X30454Y6584
X29454Y6584
X29454Y6084
X30454Y6084
X30454Y5584
X29454Y5584
X29454Y5084
X30454Y5084
X30454Y4584
X29454Y4584
X29454Y4084
X30454Y4084
X25454Y4084
X24454Y4084
X24454Y4584
X25454Y4584
X25454Y5084
X24454Y5084
X24454Y5584
X25454Y5584
X25454Y6084
X24454Y6084
X24454Y6584
X25454Y6584
X25454Y7084
X24454Y7084
X24454Y7584
X25454Y7584
X20454Y7584
X19454Y7584
X19454Y7084
X20454Y7084
X20454Y6584
X19454Y6584
X19454Y6084
X20454Y6084
X20454Y5584
X19454Y5584
X19454Y5084
X20454Y5084
X20454Y4584
X19454Y4584
X19454Y4084
X20454Y4084
X15454Y4084
X14454Y4084
X14454Y4584
X15454Y4584
X15454Y5084
X14454Y5084
X14454Y5584
X15454Y5584
X15454Y6084
X14454Y6084
X14454Y6584
X15454Y6584
X15454Y7084
X14454Y7084
X14454Y7584
X15454Y7584
X10454Y7584
X9454Y7584
X9454Y7084
X10454Y7084
X10454Y6584
X9454Y6584
X9454Y6084
X10454Y6084
X10454Y5584
X9454Y5584
X9454Y5084
X10454Y5084
X10454Y4584
X9454Y4584
X9454Y4084
X10454Y4084
X5454Y4084
X4443Y4084
X4443Y4584
X5454Y4584
X5454Y5084
X4443Y5084
X4443Y5584
X5454Y5584
X5454Y6084
X4443Y6084
X4443Y6584
X5454Y6584
X5454Y7084
X4443Y7084
X4443Y7584
X5454Y7584
T04
X5454Y8834
X6454Y8834
X7454Y8834
X8454Y8834
X9454Y8834
X10454Y8834
X11454Y8834
X12454Y8834
X13454Y8834
X14454Y8834
X15454Y8834
X16454Y8834
X17454Y8834
X18454Y8834
X19454Y8834
X20454Y8834
X21454Y8834
X22454Y8834
X23454Y8834
X24454Y8834
X25454Y8834
X26454Y8834
X27454Y8834
X28454Y8834
X29454Y8834
X30454Y8834
X31454Y8834
X32454Y8834
X33454Y8834
X34454Y8834
X35454Y8834
X36454Y8834
X37454Y8834
X38454Y8834
X39454Y8834
X40454Y8834
X41454Y8834
X42454Y8834
X43454Y8834
X44454Y8834
X44454Y2834
X43454Y2834
X42454Y2834
X41454Y2834
X40454Y2834
X39454Y2834
X38454Y2834
X37454Y2834
X36454Y2834
X35454Y2834
X34454Y2834
X33454Y2834
X32454Y2834
X31454Y2834
X30454Y2834
X29454Y2834
X28454Y2834
X27454Y2834
X26454Y2834
X25454Y2834
X24454Y2834
X23454Y2834
X22454Y2834
X21454Y2834
X20454Y2834
X19454Y2834
X18454Y2834
X17454Y2834
X16454Y2834
X15454Y2834
X14454Y2834
X13454Y2834
X12454Y2834
X11454Y2834
X10454Y2834
X9454Y2834
X8454Y2834
X7454Y2834
X6454Y2834
X5454Y2834
T05
X2943Y4334
X1943Y4334
X1943Y5334
X2943Y5334
X2943Y6334
X1943Y6334
X1943Y7334
X2943Y7334
X46943Y7334
X47943Y7334
X47943Y6334
X46943Y6334
X46943Y5334
X47943Y5334
X47943Y4334
X46943Y4334
T06
X42454Y1306
X37454Y1306
X32454Y1306
X27454Y1306
X22454Y1306
X17454Y1306
X12454Y1306
X7454Y1306
X7454Y10361
X12454Y10361
X17454Y10361
X22454Y10361
X27454Y10361
X32454Y10361
X37454Y10361
X42454Y10361
T07
X2443Y1306
X2443Y10361
X47446Y10361
X47443Y1306
M30
