G75*
G70*
%OFA0B0*%
%FSLAX24Y24*%
%IPPOS*%
%LPD*%
%AMOC8*
5,1,8,0,0,1.08239X$1,22.5*
%
%ADD10C,0.0413*%
%ADD11R,0.0250X0.0500*%
%ADD12C,0.0740*%
%ADD13R,0.0157X0.0630*%
%ADD14C,0.0531*%
%ADD15R,0.0394X0.0315*%
%ADD16R,0.0315X0.0394*%
%ADD17C,0.0394*%
%ADD18C,0.0197*%
%ADD19C,0.0394*%
%ADD20C,0.0118*%
%ADD21C,0.0315*%
%ADD22C,0.0126*%
%ADD23C,0.0157*%
%ADD24C,0.0236*%
D10*
X004443Y004084D03*
X005454Y004084D03*
X005454Y004584D03*
X004443Y004584D03*
X004443Y005084D03*
X005454Y005084D03*
X005454Y005584D03*
X004443Y005584D03*
X004443Y006084D03*
X005454Y006084D03*
X005454Y006584D03*
X004443Y006584D03*
X004443Y007084D03*
X005454Y007084D03*
X005454Y007584D03*
X004443Y007584D03*
X009454Y007584D03*
X010454Y007584D03*
X010454Y007084D03*
X009454Y007084D03*
X009454Y006584D03*
X010454Y006584D03*
X010454Y006084D03*
X009454Y006084D03*
X009454Y005584D03*
X010454Y005584D03*
X010454Y005084D03*
X009454Y005084D03*
X009454Y004584D03*
X010454Y004584D03*
X010454Y004084D03*
X009454Y004084D03*
X014454Y004084D03*
X015454Y004084D03*
X015454Y004584D03*
X014454Y004584D03*
X014454Y005084D03*
X015454Y005084D03*
X015454Y005584D03*
X014454Y005584D03*
X014454Y006084D03*
X015454Y006084D03*
X015454Y006584D03*
X014454Y006584D03*
X014454Y007084D03*
X015454Y007084D03*
X015454Y007584D03*
X014454Y007584D03*
X019454Y007584D03*
X020454Y007584D03*
X020454Y007084D03*
X019454Y007084D03*
X019454Y006584D03*
X020454Y006584D03*
X020454Y006084D03*
X019454Y006084D03*
X019454Y005584D03*
X020454Y005584D03*
X020454Y005084D03*
X019454Y005084D03*
X019454Y004584D03*
X020454Y004584D03*
X020454Y004084D03*
X019454Y004084D03*
X024454Y004084D03*
X025454Y004084D03*
X025454Y004584D03*
X024454Y004584D03*
X024454Y005084D03*
X025454Y005084D03*
X025454Y005584D03*
X024454Y005584D03*
X024454Y006084D03*
X025454Y006084D03*
X025454Y006584D03*
X024454Y006584D03*
X024454Y007084D03*
X025454Y007084D03*
X025454Y007584D03*
X024454Y007584D03*
X029454Y007584D03*
X030454Y007584D03*
X030454Y007084D03*
X029454Y007084D03*
X029454Y006584D03*
X030454Y006584D03*
X030454Y006084D03*
X029454Y006084D03*
X029454Y005584D03*
X030454Y005584D03*
X030454Y005084D03*
X029454Y005084D03*
X029454Y004584D03*
X030454Y004584D03*
X030454Y004084D03*
X029454Y004084D03*
X034454Y004084D03*
X035454Y004084D03*
X035454Y004584D03*
X034454Y004584D03*
X034454Y005084D03*
X035454Y005084D03*
X035454Y005584D03*
X034454Y005584D03*
X034454Y006084D03*
X035454Y006084D03*
X035454Y006584D03*
X034454Y006584D03*
X034454Y007084D03*
X035454Y007084D03*
X035454Y007584D03*
X034454Y007584D03*
X039454Y007584D03*
X040454Y007584D03*
X040454Y007084D03*
X039454Y007084D03*
X039454Y006584D03*
X040454Y006584D03*
X040454Y006084D03*
X039454Y006084D03*
X039454Y005584D03*
X040454Y005584D03*
X040454Y005084D03*
X039454Y005084D03*
X039454Y004584D03*
X040454Y004584D03*
X040454Y004084D03*
X039454Y004084D03*
X044454Y004084D03*
X045443Y004084D03*
X045443Y004584D03*
X044454Y004584D03*
X044454Y005084D03*
X045443Y005084D03*
X045443Y005584D03*
X044454Y005584D03*
X044454Y006084D03*
X045443Y006084D03*
X045443Y006584D03*
X044454Y006584D03*
X044454Y007084D03*
X045443Y007084D03*
X045443Y007584D03*
X044454Y007584D03*
D11*
X047265Y008255D03*
X047620Y008255D03*
X047620Y003353D03*
X047265Y003353D03*
X002620Y003353D03*
X002265Y003353D03*
X002265Y008314D03*
X002620Y008314D03*
D12*
X002943Y007334D03*
X001943Y007334D03*
X001943Y006334D03*
X002943Y006334D03*
X002943Y005334D03*
X001943Y005334D03*
X001943Y004334D03*
X002943Y004334D03*
X046943Y004334D03*
X047943Y004334D03*
X047943Y005334D03*
X046943Y005334D03*
X046943Y006334D03*
X047943Y006334D03*
X047943Y007334D03*
X046943Y007334D03*
D13*
X043822Y007034D03*
X043567Y007034D03*
X043311Y007034D03*
X043055Y007034D03*
X042799Y007034D03*
X042543Y007034D03*
X042287Y007034D03*
X042031Y007034D03*
X038822Y007034D03*
X038567Y007034D03*
X038311Y007034D03*
X038055Y007034D03*
X037799Y007034D03*
X037543Y007034D03*
X037287Y007034D03*
X037031Y007034D03*
X033822Y007034D03*
X033567Y007034D03*
X033311Y007034D03*
X033055Y007034D03*
X032799Y007034D03*
X032543Y007034D03*
X032287Y007034D03*
X032031Y007034D03*
X028822Y007034D03*
X028567Y007034D03*
X028311Y007034D03*
X028055Y007034D03*
X027799Y007034D03*
X027543Y007034D03*
X027287Y007034D03*
X027031Y007034D03*
X023822Y007034D03*
X023567Y007034D03*
X023311Y007034D03*
X023055Y007034D03*
X022799Y007034D03*
X022543Y007034D03*
X022287Y007034D03*
X022031Y007034D03*
X018822Y007034D03*
X018567Y007034D03*
X018311Y007034D03*
X018055Y007034D03*
X017799Y007034D03*
X017543Y007034D03*
X017287Y007034D03*
X017031Y007034D03*
X013822Y007034D03*
X013567Y007034D03*
X013311Y007034D03*
X013055Y007034D03*
X012799Y007034D03*
X012543Y007034D03*
X012287Y007034D03*
X012031Y007034D03*
X008822Y007034D03*
X008567Y007034D03*
X008311Y007034D03*
X008055Y007034D03*
X007799Y007034D03*
X007543Y007034D03*
X007287Y007034D03*
X007031Y007034D03*
X007031Y004712D03*
X007287Y004712D03*
X007543Y004712D03*
X007799Y004712D03*
X008055Y004712D03*
X008311Y004712D03*
X008567Y004712D03*
X008822Y004712D03*
X012031Y004712D03*
X012287Y004712D03*
X012543Y004712D03*
X012799Y004712D03*
X013055Y004712D03*
X013311Y004712D03*
X013567Y004712D03*
X013822Y004712D03*
X017031Y004712D03*
X017287Y004712D03*
X017543Y004712D03*
X017799Y004712D03*
X018055Y004712D03*
X018311Y004712D03*
X018567Y004712D03*
X018822Y004712D03*
X022031Y004712D03*
X022287Y004712D03*
X022543Y004712D03*
X022799Y004712D03*
X023055Y004712D03*
X023311Y004712D03*
X023567Y004712D03*
X023822Y004712D03*
X027031Y004712D03*
X027287Y004712D03*
X027543Y004712D03*
X027799Y004712D03*
X028055Y004712D03*
X028311Y004712D03*
X028567Y004712D03*
X028822Y004712D03*
X032031Y004712D03*
X032287Y004712D03*
X032543Y004712D03*
X032799Y004712D03*
X033055Y004712D03*
X033311Y004712D03*
X033567Y004712D03*
X033822Y004712D03*
X037031Y004712D03*
X037287Y004712D03*
X037543Y004712D03*
X037799Y004712D03*
X038055Y004712D03*
X038311Y004712D03*
X038567Y004712D03*
X038822Y004712D03*
X042031Y004712D03*
X042287Y004712D03*
X042543Y004712D03*
X042799Y004712D03*
X043055Y004712D03*
X043311Y004712D03*
X043567Y004712D03*
X043822Y004712D03*
D14*
X005454Y002834D03*
X006454Y002834D03*
X007454Y002834D03*
X008454Y002834D03*
X009454Y002834D03*
X010454Y002834D03*
X011454Y002834D03*
X012454Y002834D03*
X013454Y002834D03*
X014454Y002834D03*
X015454Y002834D03*
X016454Y002834D03*
X017454Y002834D03*
X018454Y002834D03*
X019454Y002834D03*
X020454Y002834D03*
X021454Y002834D03*
X022454Y002834D03*
X023454Y002834D03*
X024454Y002834D03*
X025454Y002834D03*
X026454Y002834D03*
X027454Y002834D03*
X028454Y002834D03*
X029454Y002834D03*
X030454Y002834D03*
X031454Y002834D03*
X032454Y002834D03*
X033454Y002834D03*
X034454Y002834D03*
X035454Y002834D03*
X036454Y002834D03*
X037454Y002834D03*
X038454Y002834D03*
X039454Y002834D03*
X040454Y002834D03*
X041454Y002834D03*
X042454Y002834D03*
X043454Y002834D03*
X044454Y002834D03*
X044454Y008834D03*
X043454Y008834D03*
X042454Y008834D03*
X041454Y008834D03*
X040454Y008834D03*
X039454Y008834D03*
X038454Y008834D03*
X037454Y008834D03*
X036454Y008834D03*
X035454Y008834D03*
X034454Y008834D03*
X033454Y008834D03*
X032454Y008834D03*
X031454Y008834D03*
X030454Y008834D03*
X029454Y008834D03*
X028454Y008834D03*
X027454Y008834D03*
X026454Y008834D03*
X025454Y008834D03*
X024454Y008834D03*
X023454Y008834D03*
X022454Y008834D03*
X021454Y008834D03*
X020454Y008834D03*
X019454Y008834D03*
X018454Y008834D03*
X017454Y008834D03*
X016454Y008834D03*
X015454Y008834D03*
X014454Y008834D03*
X013454Y008834D03*
X012454Y008834D03*
X011454Y008834D03*
X010454Y008834D03*
X009454Y008834D03*
X008454Y008834D03*
X007454Y008834D03*
X006454Y008834D03*
X005454Y008834D03*
D15*
X006324Y006351D03*
X006324Y005682D03*
X011324Y005682D03*
X011324Y006351D03*
X016324Y006351D03*
X016324Y005682D03*
X021324Y005682D03*
X021324Y006351D03*
X026324Y006351D03*
X026324Y005682D03*
X031324Y005682D03*
X031324Y006351D03*
X036324Y006351D03*
X036324Y005682D03*
X041324Y005682D03*
X041324Y006351D03*
D16*
X040998Y004475D03*
X041667Y004475D03*
X036667Y004475D03*
X035998Y004475D03*
X031667Y004475D03*
X030998Y004475D03*
X026667Y004475D03*
X025998Y004475D03*
X021667Y004475D03*
X020998Y004475D03*
X016667Y004475D03*
X015998Y004475D03*
X011667Y004475D03*
X010998Y004475D03*
X006667Y004475D03*
X005998Y004475D03*
D17*
X009454Y003459D03*
X014454Y003459D03*
X019454Y003459D03*
X024454Y003459D03*
X029454Y003459D03*
X034454Y003459D03*
X039454Y003459D03*
X044454Y003459D03*
D18*
X047053Y003353D02*
X047265Y003353D01*
X047620Y003353D02*
X047880Y003353D01*
X045454Y004084D02*
X044454Y004084D01*
X044454Y004584D02*
X045454Y004584D01*
X045454Y005084D02*
X044454Y005084D01*
X044454Y005584D02*
X045454Y005584D01*
X045454Y006084D02*
X044454Y006084D01*
X044454Y006584D02*
X045454Y006584D01*
X045454Y007084D02*
X044454Y007084D01*
X044454Y007584D02*
X045454Y007584D01*
X042031Y007034D02*
X041116Y007034D01*
X040860Y006779D01*
X040860Y005243D01*
X040978Y005125D01*
X040978Y004495D01*
X040889Y004584D02*
X040454Y004584D01*
X039454Y004584D01*
X039454Y005084D02*
X040454Y005084D01*
X041450Y005084D02*
X041746Y005084D01*
X041746Y004712D01*
X041903Y004712D01*
X041746Y004712D02*
X041746Y004554D01*
X041667Y004475D01*
X040454Y004084D02*
X039454Y004084D01*
X036903Y004712D02*
X036746Y004712D01*
X036746Y005084D01*
X036450Y005084D01*
X035978Y005125D02*
X035978Y004495D01*
X035889Y004584D02*
X035454Y004584D01*
X034454Y004584D01*
X034454Y005084D02*
X035454Y005084D01*
X035860Y005243D02*
X035978Y005125D01*
X035860Y005243D02*
X035860Y006779D01*
X036116Y007034D01*
X037031Y007034D01*
X035454Y007084D02*
X034454Y007084D01*
X034454Y007584D02*
X035454Y007584D01*
X032031Y007034D02*
X031116Y007034D01*
X030860Y006779D01*
X030860Y005243D01*
X030978Y005125D01*
X030978Y004495D01*
X030889Y004584D02*
X030454Y004584D01*
X029454Y004584D01*
X029454Y005084D02*
X030454Y005084D01*
X031450Y005084D02*
X031746Y005084D01*
X031746Y004712D01*
X031903Y004712D01*
X031746Y004712D02*
X031746Y004554D01*
X031667Y004475D01*
X030454Y004084D02*
X029454Y004084D01*
X026903Y004712D02*
X026746Y004712D01*
X026746Y005084D01*
X026450Y005084D01*
X025978Y005125D02*
X025978Y004495D01*
X025889Y004584D02*
X025454Y004584D01*
X024454Y004584D01*
X024454Y005084D02*
X025454Y005084D01*
X025860Y005243D02*
X025978Y005125D01*
X025860Y005243D02*
X025860Y006779D01*
X026116Y007034D01*
X027031Y007034D01*
X025454Y007084D02*
X024454Y007084D01*
X024454Y007584D02*
X025454Y007584D01*
X022031Y007034D02*
X021116Y007034D01*
X020860Y006779D01*
X020860Y005243D01*
X020978Y005125D01*
X020978Y004495D01*
X020889Y004584D02*
X020454Y004584D01*
X019454Y004584D01*
X019454Y005084D02*
X020454Y005084D01*
X021450Y005084D02*
X021746Y005084D01*
X021746Y004712D01*
X021903Y004712D01*
X021746Y004712D02*
X021746Y004554D01*
X021667Y004475D01*
X020454Y004084D02*
X019454Y004084D01*
X016903Y004712D02*
X016746Y004712D01*
X016746Y005084D01*
X016450Y005084D01*
X015978Y005125D02*
X015978Y004495D01*
X015889Y004584D02*
X015454Y004584D01*
X014454Y004584D01*
X014454Y005084D02*
X015454Y005084D01*
X015860Y005243D02*
X015978Y005125D01*
X015860Y005243D02*
X015860Y006779D01*
X016116Y007034D01*
X017031Y007034D01*
X015454Y007084D02*
X014454Y007084D01*
X014454Y007584D02*
X015454Y007584D01*
X012031Y007034D02*
X011116Y007034D01*
X010860Y006779D01*
X010860Y005243D01*
X010978Y005125D01*
X010978Y004495D01*
X010889Y004584D02*
X010454Y004584D01*
X009454Y004584D01*
X009454Y005084D02*
X010454Y005084D01*
X011450Y005084D02*
X011746Y005084D01*
X011746Y004712D01*
X011903Y004712D01*
X011746Y004712D02*
X011746Y004554D01*
X011667Y004475D01*
X010454Y004084D02*
X009454Y004084D01*
X006903Y004712D02*
X006746Y004712D01*
X006746Y005084D01*
X006450Y005084D01*
X005978Y005125D02*
X005860Y005243D01*
X005860Y006779D01*
X006116Y007034D01*
X007031Y007034D01*
X005443Y007084D02*
X004443Y007084D01*
X004443Y007584D02*
X005443Y007584D01*
X009454Y007584D02*
X010454Y007584D01*
X010454Y007084D02*
X009454Y007084D01*
X009454Y006584D02*
X010454Y006584D01*
X010454Y006084D02*
X009454Y006084D01*
X009454Y005584D02*
X010454Y005584D01*
X006746Y004712D02*
X006746Y004554D01*
X006667Y004475D01*
X005978Y004495D02*
X005978Y005125D01*
X005443Y005084D02*
X004443Y005084D01*
X004443Y005584D02*
X005443Y005584D01*
X005443Y006084D02*
X004443Y006084D01*
X004443Y006584D02*
X005443Y006584D01*
X005443Y004584D02*
X004443Y004584D01*
X005454Y004584D02*
X005889Y004584D01*
X005443Y004084D02*
X004443Y004084D01*
X002856Y003353D02*
X002620Y003353D01*
X002265Y003353D02*
X002029Y003353D01*
X014454Y004084D02*
X015454Y004084D01*
X016667Y004475D02*
X016746Y004554D01*
X016746Y004712D01*
X015454Y005584D02*
X014454Y005584D01*
X014454Y006084D02*
X015454Y006084D01*
X015454Y006584D02*
X014454Y006584D01*
X019454Y006584D02*
X020454Y006584D01*
X020454Y007084D02*
X019454Y007084D01*
X019454Y007584D02*
X020454Y007584D01*
X024454Y006584D02*
X025454Y006584D01*
X025454Y006084D02*
X024454Y006084D01*
X024454Y005584D02*
X025454Y005584D01*
X026746Y004712D02*
X026746Y004554D01*
X026667Y004475D01*
X025454Y004084D02*
X024454Y004084D01*
X020454Y005584D02*
X019454Y005584D01*
X019454Y006084D02*
X020454Y006084D01*
X029454Y006084D02*
X030454Y006084D01*
X030454Y006584D02*
X029454Y006584D01*
X029454Y007084D02*
X030454Y007084D01*
X030454Y007584D02*
X029454Y007584D01*
X034454Y006584D02*
X035454Y006584D01*
X035454Y006084D02*
X034454Y006084D01*
X034454Y005584D02*
X035454Y005584D01*
X036746Y004712D02*
X036746Y004554D01*
X036667Y004475D01*
X035454Y004084D02*
X034454Y004084D01*
X030454Y005584D02*
X029454Y005584D01*
X039454Y005584D02*
X040454Y005584D01*
X040454Y006084D02*
X039454Y006084D01*
X039454Y006584D02*
X040454Y006584D01*
X040454Y007084D02*
X039454Y007084D01*
X039454Y007584D02*
X040454Y007584D01*
D19*
X046693Y004084D02*
X046943Y004334D01*
X046943Y003464D01*
X047053Y003353D01*
X047880Y003353D02*
X047943Y003416D01*
X047943Y004334D01*
X046693Y004084D02*
X045443Y004084D01*
X004443Y004584D02*
X003193Y004584D01*
X002943Y004334D01*
X002943Y003440D01*
X002856Y003353D01*
X002029Y003353D02*
X001943Y003440D01*
X001943Y003767D01*
X001943Y004334D01*
X002943Y005334D02*
X003193Y005084D01*
X004443Y005084D01*
D20*
X004443Y005584D02*
X003519Y005584D01*
X003269Y005834D01*
X002443Y005834D01*
X001943Y005334D01*
X002943Y006334D02*
X003193Y006084D01*
X004443Y006084D01*
X004443Y006584D02*
X003464Y006584D01*
X003210Y006838D01*
X002446Y006838D01*
X002446Y007668D01*
X002620Y007842D01*
X002620Y008314D01*
X002265Y008314D02*
X002265Y007656D01*
X001943Y007334D01*
X002943Y007334D02*
X003193Y007584D01*
X004443Y007584D01*
X007287Y007034D02*
X007287Y006670D01*
X006968Y006351D01*
X006324Y006351D01*
X007277Y006306D02*
X007336Y006365D01*
X007277Y006306D02*
X007277Y004721D01*
X007287Y004712D01*
X007543Y004712D02*
X007543Y006054D01*
X007572Y006084D01*
X007590Y006584D02*
X007543Y006631D01*
X007543Y007034D01*
X007799Y007034D02*
X007799Y007556D01*
X007691Y007664D01*
X007590Y006584D02*
X009454Y006584D01*
X011324Y006351D02*
X011968Y006351D01*
X012287Y006670D01*
X012287Y007034D01*
X012543Y007034D02*
X012543Y006631D01*
X012590Y006584D01*
X014454Y006584D01*
X012799Y007034D02*
X012799Y007556D01*
X012691Y007664D01*
X016968Y006351D02*
X017287Y006670D01*
X017287Y007034D01*
X017543Y007034D02*
X017543Y006631D01*
X017590Y006584D01*
X019454Y006584D01*
X017799Y007034D02*
X017799Y007556D01*
X017691Y007664D01*
X021968Y006351D02*
X022287Y006670D01*
X022287Y007034D01*
X022543Y007034D02*
X022543Y006631D01*
X022590Y006584D01*
X024454Y006584D01*
X026324Y006351D02*
X026968Y006351D01*
X027287Y006670D01*
X027287Y007034D01*
X027543Y007034D02*
X027543Y006631D01*
X027590Y006584D01*
X029454Y006584D01*
X031324Y006351D02*
X031968Y006351D01*
X032287Y006670D01*
X032287Y007034D01*
X032543Y007034D02*
X032543Y006631D01*
X032590Y006584D01*
X034454Y006584D01*
X036324Y006351D02*
X036968Y006351D01*
X037287Y006670D01*
X037287Y007034D01*
X037543Y007034D02*
X037543Y006631D01*
X037590Y006584D01*
X039454Y006584D01*
X041324Y006351D02*
X041968Y006351D01*
X042287Y006670D01*
X042287Y007034D01*
X042543Y007034D02*
X042543Y006631D01*
X042590Y006584D01*
X044454Y006584D01*
X045443Y006584D02*
X046693Y006584D01*
X046943Y006334D01*
X047446Y006838D01*
X047446Y007763D01*
X047620Y007936D01*
X047620Y008255D01*
X047265Y008255D02*
X047254Y007645D01*
X046943Y007334D01*
X046693Y007084D01*
X045443Y007084D01*
X047443Y005834D02*
X047943Y006334D01*
X046698Y005834D02*
X046448Y006084D01*
X045443Y006084D01*
X046698Y005834D02*
X047443Y005834D01*
X046943Y005334D02*
X046693Y005584D01*
X045443Y005584D01*
X042809Y005584D02*
X042799Y005574D01*
X042799Y004712D01*
X042543Y004712D02*
X042543Y006054D01*
X042572Y006084D01*
X042336Y006365D02*
X042277Y006306D01*
X042277Y004721D01*
X042287Y004712D01*
X041450Y005084D02*
X041324Y005210D01*
X041324Y005682D01*
X037809Y005584D02*
X037799Y005574D01*
X037799Y004712D01*
X037543Y004712D02*
X037543Y006054D01*
X037572Y006084D01*
X037336Y006365D02*
X037277Y006306D01*
X037277Y004721D01*
X037287Y004712D01*
X036450Y005084D02*
X036324Y005210D01*
X036324Y005682D01*
X032809Y005584D02*
X032799Y005574D01*
X032799Y004712D01*
X032543Y004712D02*
X032543Y006054D01*
X032572Y006084D01*
X032336Y006365D02*
X032277Y006306D01*
X032277Y004721D01*
X032287Y004712D01*
X031450Y005084D02*
X031324Y005210D01*
X031324Y005682D01*
X027809Y005584D02*
X027799Y005574D01*
X027799Y004712D01*
X027543Y004712D02*
X027543Y006054D01*
X027572Y006084D01*
X027336Y006365D02*
X027277Y006306D01*
X027277Y004721D01*
X027287Y004712D01*
X026450Y005084D02*
X026324Y005210D01*
X026324Y005682D01*
X022809Y005584D02*
X022799Y005574D01*
X022799Y004712D01*
X022543Y004712D02*
X022543Y006054D01*
X022572Y006084D01*
X022336Y006365D02*
X022277Y006306D01*
X022277Y004721D01*
X022287Y004712D01*
X021450Y005084D02*
X021324Y005210D01*
X021324Y005682D01*
X021324Y006351D02*
X021968Y006351D01*
X022799Y007034D02*
X022799Y007556D01*
X022691Y007664D01*
X027691Y007664D02*
X027799Y007556D01*
X027799Y007034D01*
X032691Y007664D02*
X032799Y007556D01*
X032799Y007034D01*
X037691Y007664D02*
X037799Y007556D01*
X037799Y007034D01*
X042691Y007664D02*
X042799Y007556D01*
X042799Y007034D01*
X017809Y005584D02*
X017799Y005574D01*
X017799Y004712D01*
X017543Y004712D02*
X017543Y006054D01*
X017572Y006084D01*
X017336Y006365D02*
X017277Y006306D01*
X017277Y004721D01*
X017287Y004712D01*
X016450Y005084D02*
X016324Y005210D01*
X016324Y005682D01*
X016324Y006351D02*
X016968Y006351D01*
X012809Y005584D02*
X012799Y005574D01*
X012799Y004712D01*
X012543Y004712D02*
X012543Y006054D01*
X012572Y006084D01*
X012336Y006365D02*
X012277Y006306D01*
X012277Y004721D01*
X012287Y004712D01*
X011450Y005084D02*
X011324Y005210D01*
X011324Y005682D01*
X007809Y005584D02*
X007799Y005574D01*
X007799Y004712D01*
X006450Y005084D02*
X006324Y005210D01*
X006324Y005682D01*
X002446Y006838D02*
X001943Y006334D01*
X002943Y004389D02*
X002943Y004334D01*
X001943Y003767D02*
X001923Y003786D01*
D21*
X045443Y005084D02*
X046090Y005084D01*
X046344Y004830D01*
X046521Y004830D01*
X047348Y004830D02*
X047439Y004830D01*
X047943Y005334D01*
D22*
X047348Y004830D02*
X046521Y004830D01*
D23*
X043822Y004712D02*
X043822Y003466D01*
X044454Y002834D01*
X043567Y002946D02*
X043454Y002834D01*
X043567Y002946D02*
X043567Y004712D01*
X043311Y004712D02*
X043311Y003678D01*
X042927Y003294D01*
X041915Y003294D01*
X041454Y002834D01*
X040915Y003294D02*
X040454Y002834D01*
X039454Y002834D02*
X038822Y003466D01*
X038822Y004712D01*
X038567Y004712D02*
X038567Y002946D01*
X038454Y002834D01*
X037927Y003294D02*
X036915Y003294D01*
X036454Y002834D01*
X035915Y003294D02*
X035454Y002834D01*
X034454Y002834D02*
X033822Y003466D01*
X033822Y004712D01*
X033567Y004712D02*
X033567Y002946D01*
X033454Y002834D01*
X032927Y003294D02*
X031915Y003294D01*
X031454Y002834D01*
X030915Y003294D02*
X030454Y002834D01*
X029454Y002834D02*
X028822Y003466D01*
X028822Y004712D01*
X028567Y004712D02*
X028567Y002946D01*
X028454Y002834D01*
X027927Y003294D02*
X026915Y003294D01*
X026454Y002834D01*
X025915Y003294D02*
X025454Y002834D01*
X024454Y002834D02*
X023822Y003466D01*
X023822Y004712D01*
X023567Y004712D02*
X023567Y002946D01*
X023454Y002834D01*
X022927Y003294D02*
X021915Y003294D01*
X021454Y002834D01*
X020915Y003294D02*
X020454Y002834D01*
X019454Y002834D02*
X018822Y003466D01*
X018822Y004712D01*
X018567Y004712D02*
X018567Y002946D01*
X018454Y002834D01*
X017927Y003294D02*
X016915Y003294D01*
X016454Y002834D01*
X015915Y003294D02*
X015454Y002834D01*
X014454Y002834D02*
X013822Y003466D01*
X013822Y004712D01*
X013567Y004712D02*
X013567Y002946D01*
X013454Y002834D01*
X012927Y003294D02*
X011915Y003294D01*
X011454Y002834D01*
X010915Y003294D02*
X010454Y002834D01*
X009454Y002834D02*
X008822Y003466D01*
X008822Y004712D01*
X008567Y004712D02*
X008567Y002946D01*
X008454Y002834D01*
X007927Y003294D02*
X006915Y003294D01*
X006454Y002834D01*
X005915Y003294D02*
X005454Y002834D01*
X005915Y003294D02*
X006391Y003294D01*
X006687Y003590D01*
X007809Y003590D01*
X008055Y003836D01*
X008055Y004712D01*
X008311Y004712D02*
X008311Y003678D01*
X007927Y003294D01*
X010915Y003294D02*
X011391Y003294D01*
X011687Y003590D01*
X012809Y003590D01*
X013055Y003836D01*
X013055Y004712D01*
X013311Y004712D02*
X013311Y003678D01*
X012927Y003294D01*
X015915Y003294D02*
X016391Y003294D01*
X016687Y003590D01*
X017809Y003590D01*
X018055Y003836D01*
X018055Y004712D01*
X018311Y004712D02*
X018311Y003678D01*
X017927Y003294D01*
X020915Y003294D02*
X021391Y003294D01*
X021687Y003590D01*
X022809Y003590D01*
X023055Y003836D01*
X023055Y004712D01*
X023311Y004712D02*
X023311Y003678D01*
X022927Y003294D01*
X025915Y003294D02*
X026391Y003294D01*
X026687Y003590D01*
X027809Y003590D01*
X028055Y003836D01*
X028055Y004712D01*
X028311Y004712D02*
X028311Y003678D01*
X027927Y003294D01*
X030915Y003294D02*
X031391Y003294D01*
X031687Y003590D01*
X032809Y003590D01*
X033055Y003836D01*
X033055Y004712D01*
X033311Y004712D02*
X033311Y003678D01*
X032927Y003294D01*
X035915Y003294D02*
X036391Y003294D01*
X036687Y003590D01*
X037809Y003590D01*
X038055Y003836D01*
X038055Y004712D01*
X038311Y004712D02*
X038311Y003678D01*
X037927Y003294D01*
X040915Y003294D02*
X041391Y003294D01*
X041687Y003590D01*
X042809Y003590D01*
X043055Y003836D01*
X043055Y004712D01*
X042031Y004712D02*
X041903Y004712D01*
X040998Y004613D02*
X040998Y004475D01*
X040978Y004495D01*
X040998Y004475D02*
X040889Y004584D01*
X037031Y004712D02*
X036903Y004712D01*
X035998Y004613D02*
X035998Y004475D01*
X035978Y004495D01*
X035998Y004475D02*
X035889Y004584D01*
X032031Y004712D02*
X031903Y004712D01*
X030998Y004613D02*
X030998Y004475D01*
X030978Y004495D01*
X030998Y004475D02*
X030889Y004584D01*
X027031Y004712D02*
X026903Y004712D01*
X025998Y004613D02*
X025998Y004475D01*
X025978Y004495D01*
X025998Y004475D02*
X025889Y004584D01*
X022031Y004712D02*
X021903Y004712D01*
X020998Y004613D02*
X020998Y004475D01*
X020978Y004495D01*
X020998Y004475D02*
X020889Y004584D01*
X017031Y004712D02*
X016903Y004712D01*
X015998Y004613D02*
X015998Y004475D01*
X015978Y004495D01*
X015998Y004475D02*
X015889Y004584D01*
X012031Y004712D02*
X011903Y004712D01*
X010998Y004613D02*
X010998Y004475D01*
X010978Y004495D01*
X010998Y004475D02*
X010889Y004584D01*
X007031Y004712D02*
X006903Y004712D01*
X005998Y004613D02*
X005998Y004475D01*
X005978Y004495D01*
X005998Y004475D02*
X005889Y004584D01*
X008055Y007034D02*
X008055Y007773D01*
X007750Y008078D01*
X006746Y008078D01*
X006509Y008314D01*
X005974Y008314D01*
X005454Y008834D01*
X006454Y008834D02*
X006915Y008373D01*
X007927Y008373D01*
X008311Y007989D01*
X008311Y007034D01*
X008567Y007034D02*
X008567Y008721D01*
X008454Y008834D01*
X008822Y008202D02*
X009454Y008834D01*
X010454Y008834D02*
X010974Y008314D01*
X011509Y008314D01*
X011746Y008078D01*
X012750Y008078D01*
X013055Y007773D01*
X013055Y007034D01*
X013311Y007034D02*
X013311Y007989D01*
X012927Y008373D01*
X011915Y008373D01*
X011454Y008834D01*
X013454Y008834D02*
X013567Y008721D01*
X013567Y007034D01*
X013822Y007034D02*
X013822Y008202D01*
X014454Y008834D01*
X015454Y008834D02*
X015974Y008314D01*
X016509Y008314D01*
X016746Y008078D01*
X017750Y008078D01*
X018055Y007773D01*
X018055Y007034D01*
X018311Y007034D02*
X018311Y007989D01*
X017927Y008373D01*
X016915Y008373D01*
X016454Y008834D01*
X018454Y008834D02*
X018567Y008721D01*
X018567Y007034D01*
X018822Y007034D02*
X018822Y008202D01*
X019454Y008834D01*
X020454Y008834D02*
X020974Y008314D01*
X021509Y008314D01*
X021746Y008078D01*
X022750Y008078D01*
X023055Y007773D01*
X023055Y007034D01*
X023311Y007034D02*
X023311Y007989D01*
X022927Y008373D01*
X021915Y008373D01*
X021454Y008834D01*
X023454Y008834D02*
X023567Y008721D01*
X023567Y007034D01*
X023822Y007034D02*
X023822Y008202D01*
X024454Y008834D01*
X025454Y008834D02*
X025974Y008314D01*
X026509Y008314D01*
X026746Y008078D01*
X027750Y008078D01*
X028055Y007773D01*
X028055Y007034D01*
X028311Y007034D02*
X028311Y007989D01*
X027927Y008373D01*
X026915Y008373D01*
X026454Y008834D01*
X028454Y008834D02*
X028567Y008721D01*
X028567Y007034D01*
X028822Y007034D02*
X028822Y008202D01*
X029454Y008834D01*
X030454Y008834D02*
X030974Y008314D01*
X031509Y008314D01*
X031746Y008078D01*
X032750Y008078D01*
X033055Y007773D01*
X033055Y007034D01*
X033311Y007034D02*
X033311Y007989D01*
X032927Y008373D01*
X031915Y008373D01*
X031454Y008834D01*
X033454Y008834D02*
X033567Y008721D01*
X033567Y007034D01*
X033822Y007034D02*
X033822Y008202D01*
X034454Y008834D01*
X035454Y008834D02*
X035974Y008314D01*
X036509Y008314D01*
X036746Y008078D01*
X037750Y008078D01*
X038055Y007773D01*
X038055Y007034D01*
X038311Y007034D02*
X038311Y007989D01*
X037927Y008373D01*
X036915Y008373D01*
X036454Y008834D01*
X038454Y008834D02*
X038567Y008721D01*
X038567Y007034D01*
X038822Y007034D02*
X038822Y008202D01*
X039454Y008834D01*
X040454Y008834D02*
X040974Y008314D01*
X041509Y008314D01*
X041746Y008078D01*
X042750Y008078D01*
X043055Y007773D01*
X043055Y007034D01*
X043311Y007034D02*
X043311Y007989D01*
X042927Y008373D01*
X041915Y008373D01*
X041454Y008834D01*
X043454Y008834D02*
X043567Y008721D01*
X043567Y007034D01*
X043822Y007034D02*
X043822Y008202D01*
X044454Y008834D01*
X008822Y008202D02*
X008822Y007034D01*
D24*
X007691Y007664D03*
X012691Y007664D03*
X017691Y007664D03*
X022691Y007664D03*
X027691Y007664D03*
X032691Y007664D03*
X037691Y007664D03*
X042691Y007664D03*
X042336Y006365D03*
X042572Y006084D03*
X042809Y005584D03*
X041746Y005084D03*
X041450Y005084D03*
X037809Y005584D03*
X036746Y005084D03*
X036450Y005084D03*
X032809Y005584D03*
X031746Y005084D03*
X031450Y005084D03*
X027809Y005584D03*
X026746Y005084D03*
X026450Y005084D03*
X022809Y005584D03*
X021746Y005084D03*
X021450Y005084D03*
X017809Y005584D03*
X016746Y005084D03*
X016450Y005084D03*
X012809Y005584D03*
X011746Y005084D03*
X011450Y005084D03*
X007809Y005584D03*
X006746Y005084D03*
X006450Y005084D03*
X007572Y006084D03*
X007336Y006365D03*
X012336Y006365D03*
X012572Y006084D03*
X017336Y006365D03*
X017572Y006084D03*
X022336Y006365D03*
X022572Y006084D03*
X027336Y006365D03*
X027572Y006084D03*
X032336Y006365D03*
X032572Y006084D03*
X037336Y006365D03*
X037572Y006084D03*
M02*
