G75*
G70*
%OFA0B0*%
%FSLAX24Y24*%
%IPPOS*%
%LPD*%
%AMOC8*
5,1,8,0,0,1.08239X$1,22.5*
%
%ADD10C,0.0413*%
%ADD11C,0.0740*%
%ADD12C,0.0531*%
%ADD13C,0.0394*%
%ADD14C,0.0197*%
%ADD15C,0.0315*%
%ADD16C,0.0130*%
%ADD17C,0.0118*%
%ADD18C,0.0236*%
D10*
X009300Y004084D03*
X010312Y004084D03*
X010312Y004584D03*
X009300Y004584D03*
X009300Y005084D03*
X010312Y005084D03*
X010312Y005584D03*
X009300Y005584D03*
X009300Y006084D03*
X010312Y006084D03*
X010312Y006584D03*
X009300Y006584D03*
X009300Y007084D03*
X010312Y007084D03*
X010312Y007584D03*
X009300Y007584D03*
X014312Y007584D03*
X015312Y007584D03*
X015312Y007084D03*
X014312Y007084D03*
X014312Y006584D03*
X015312Y006584D03*
X015312Y006084D03*
X014312Y006084D03*
X014312Y005584D03*
X015312Y005584D03*
X015312Y005084D03*
X014312Y005084D03*
X014312Y004584D03*
X015312Y004584D03*
X015312Y004084D03*
X014312Y004084D03*
X019312Y004084D03*
X020312Y004084D03*
X020312Y004584D03*
X019312Y004584D03*
X019312Y005084D03*
X020312Y005084D03*
X020312Y005584D03*
X019312Y005584D03*
X019312Y006084D03*
X020312Y006084D03*
X020312Y006584D03*
X019312Y006584D03*
X019312Y007084D03*
X020312Y007084D03*
X020312Y007584D03*
X019312Y007584D03*
X024312Y007584D03*
X025312Y007584D03*
X025312Y007084D03*
X024312Y007084D03*
X024312Y006584D03*
X025312Y006584D03*
X025312Y006084D03*
X024312Y006084D03*
X024312Y005584D03*
X025312Y005584D03*
X025312Y005084D03*
X024312Y005084D03*
X024312Y004584D03*
X025312Y004584D03*
X025312Y004084D03*
X024312Y004084D03*
X029312Y004084D03*
X030312Y004084D03*
X030312Y004584D03*
X029312Y004584D03*
X029312Y005084D03*
X030312Y005084D03*
X030312Y005584D03*
X029312Y005584D03*
X029312Y006084D03*
X030312Y006084D03*
X030312Y006584D03*
X029312Y006584D03*
X029312Y007084D03*
X030312Y007084D03*
X030312Y007584D03*
X029312Y007584D03*
X034312Y007584D03*
X035312Y007584D03*
X035312Y007084D03*
X034312Y007084D03*
X034312Y006584D03*
X035312Y006584D03*
X035312Y006084D03*
X034312Y006084D03*
X034312Y005584D03*
X035312Y005584D03*
X035312Y005084D03*
X034312Y005084D03*
X034312Y004584D03*
X035312Y004584D03*
X035312Y004084D03*
X034312Y004084D03*
X039312Y004084D03*
X040312Y004084D03*
X040312Y004584D03*
X039312Y004584D03*
X039312Y005084D03*
X040312Y005084D03*
X040312Y005584D03*
X039312Y005584D03*
X039312Y006084D03*
X040312Y006084D03*
X040312Y006584D03*
X039312Y006584D03*
X039312Y007084D03*
X040312Y007084D03*
X040312Y007584D03*
X039312Y007584D03*
X044312Y007584D03*
X045312Y007584D03*
X045312Y007084D03*
X044312Y007084D03*
X044312Y006584D03*
X045312Y006584D03*
X045312Y006084D03*
X044312Y006084D03*
X044312Y005584D03*
X045312Y005584D03*
X045312Y005084D03*
X044312Y005084D03*
X044312Y004584D03*
X045312Y004584D03*
X045312Y004084D03*
X044312Y004084D03*
X049312Y004084D03*
X050300Y004084D03*
X050300Y004584D03*
X049312Y004584D03*
X049312Y005084D03*
X050300Y005084D03*
X050300Y005584D03*
X049312Y005584D03*
X049312Y006084D03*
X050300Y006084D03*
X050300Y006584D03*
X049312Y006584D03*
X049312Y007084D03*
X050300Y007084D03*
X050300Y007584D03*
X049312Y007584D03*
D11*
X051800Y007334D03*
X052800Y007334D03*
X052800Y006334D03*
X051800Y006334D03*
X051800Y005334D03*
X052800Y005334D03*
X052800Y004334D03*
X051800Y004334D03*
X007800Y004334D03*
X006800Y004334D03*
X006800Y005334D03*
X007800Y005334D03*
X007800Y006334D03*
X006800Y006334D03*
X006800Y007334D03*
X007800Y007334D03*
D12*
X010312Y002834D03*
X011312Y002834D03*
X012312Y002834D03*
X013312Y002834D03*
X014312Y002834D03*
X015312Y002834D03*
X016312Y002834D03*
X017312Y002834D03*
X018312Y002834D03*
X019312Y002834D03*
X020312Y002834D03*
X021312Y002834D03*
X022312Y002834D03*
X023312Y002834D03*
X024312Y002834D03*
X025312Y002834D03*
X026312Y002834D03*
X027312Y002834D03*
X028312Y002834D03*
X029312Y002834D03*
X030312Y002834D03*
X031312Y002834D03*
X032312Y002834D03*
X033312Y002834D03*
X034312Y002834D03*
X035312Y002834D03*
X036312Y002834D03*
X037312Y002834D03*
X038312Y002834D03*
X039312Y002834D03*
X040312Y002834D03*
X041312Y002834D03*
X042312Y002834D03*
X043312Y002834D03*
X044312Y002834D03*
X045312Y002834D03*
X046312Y002834D03*
X047312Y002834D03*
X048312Y002834D03*
X049312Y002834D03*
X049312Y008834D03*
X048312Y008834D03*
X047312Y008834D03*
X046312Y008834D03*
X045312Y008834D03*
X044312Y008834D03*
X043312Y008834D03*
X042312Y008834D03*
X041312Y008834D03*
X040312Y008834D03*
X039312Y008834D03*
X038312Y008834D03*
X037312Y008834D03*
X036312Y008834D03*
X035312Y008834D03*
X034312Y008834D03*
X033312Y008834D03*
X032312Y008834D03*
X031312Y008834D03*
X030312Y008834D03*
X029312Y008834D03*
X028312Y008834D03*
X027312Y008834D03*
X026312Y008834D03*
X025312Y008834D03*
X024312Y008834D03*
X023312Y008834D03*
X022312Y008834D03*
X021312Y008834D03*
X020312Y008834D03*
X019312Y008834D03*
X018312Y008834D03*
X017312Y008834D03*
X016312Y008834D03*
X015312Y008834D03*
X014312Y008834D03*
X013312Y008834D03*
X012312Y008834D03*
X011312Y008834D03*
X010312Y008834D03*
D13*
X010312Y005084D02*
X011603Y005084D01*
X014312Y005084D01*
X015312Y005084D02*
X016603Y005084D01*
X019312Y005084D01*
X020312Y005084D02*
X021603Y005084D01*
X024312Y005084D01*
X025312Y005084D02*
X026603Y005084D01*
X029312Y005084D01*
X030312Y005084D02*
X031603Y005084D01*
X034312Y005084D01*
X035312Y005084D02*
X036603Y005084D01*
X039312Y005084D01*
X040312Y005084D02*
X041603Y005084D01*
X044312Y005084D01*
X045312Y005084D02*
X046603Y005084D01*
X049312Y005084D01*
X049312Y004584D02*
X045312Y004584D01*
X044312Y004584D02*
X040312Y004584D01*
X039312Y004584D02*
X035312Y004584D01*
X034312Y004584D02*
X030312Y004584D01*
X029312Y004584D02*
X025312Y004584D01*
X024312Y004584D02*
X020312Y004584D01*
X019312Y004584D02*
X015312Y004584D01*
X014312Y004584D02*
X010312Y004584D01*
X010312Y004084D02*
X012187Y004084D01*
X012312Y003959D01*
X012312Y002834D01*
X009300Y004084D02*
X008747Y003531D01*
X007064Y003531D01*
X006800Y003794D01*
X006800Y004334D01*
X012187Y004084D02*
X014312Y004084D01*
X015312Y004084D02*
X017187Y004084D01*
X017312Y003959D01*
X017312Y002834D01*
X022312Y002834D02*
X022312Y003959D01*
X022187Y004084D01*
X024312Y004084D01*
X025312Y004084D02*
X027187Y004084D01*
X027312Y003959D01*
X027312Y002834D01*
X032312Y002834D02*
X032312Y003959D01*
X032187Y004084D01*
X034312Y004084D01*
X035312Y004084D02*
X037187Y004084D01*
X037312Y003959D01*
X037312Y002834D01*
X042312Y002834D02*
X042312Y003959D01*
X042187Y004084D01*
X044312Y004084D01*
X045312Y004084D02*
X047187Y004084D01*
X047312Y003959D01*
X047312Y002834D01*
X050965Y004062D02*
X051497Y003531D01*
X052560Y003531D01*
X052800Y003771D01*
X052800Y004334D01*
X050965Y004357D02*
X050965Y004062D01*
X050965Y004357D02*
X050739Y004584D01*
X050300Y004584D01*
X049312Y004084D02*
X047187Y004084D01*
X042187Y004084D02*
X040312Y004084D01*
X039312Y004084D02*
X037187Y004084D01*
X032187Y004084D02*
X030312Y004084D01*
X029312Y004084D02*
X027187Y004084D01*
X022187Y004084D02*
X020312Y004084D01*
X019312Y004084D02*
X017187Y004084D01*
D14*
X015312Y004084D02*
X014312Y004084D01*
X014312Y004584D02*
X015312Y004584D01*
X015312Y005084D02*
X014312Y005084D01*
X014312Y005584D02*
X015312Y005584D01*
X015312Y006084D02*
X014312Y006084D01*
X014312Y006584D02*
X015312Y006584D01*
X015312Y007084D02*
X014312Y007084D01*
X014312Y007584D02*
X015312Y007584D01*
X019312Y007584D02*
X020312Y007584D01*
X020312Y007084D02*
X019312Y007084D01*
X019312Y006584D02*
X020312Y006584D01*
X020312Y006084D02*
X019312Y006084D01*
X019312Y005584D02*
X020312Y005584D01*
X020312Y005084D02*
X019312Y005084D01*
X019312Y004584D02*
X020312Y004584D01*
X020312Y004084D02*
X019312Y004084D01*
X024312Y004084D02*
X025312Y004084D01*
X025312Y004584D02*
X024312Y004584D01*
X024312Y005084D02*
X025312Y005084D01*
X025312Y005584D02*
X024312Y005584D01*
X024312Y006084D02*
X025312Y006084D01*
X025312Y006584D02*
X024312Y006584D01*
X024312Y007084D02*
X025312Y007084D01*
X025312Y007584D02*
X024312Y007584D01*
X029312Y007584D02*
X030312Y007584D01*
X030312Y007084D02*
X029312Y007084D01*
X029312Y006584D02*
X030312Y006584D01*
X030312Y006084D02*
X029312Y006084D01*
X029312Y005584D02*
X030312Y005584D01*
X030312Y005084D02*
X029312Y005084D01*
X029312Y004584D02*
X030312Y004584D01*
X030312Y004084D02*
X029312Y004084D01*
X034312Y004084D02*
X035312Y004084D01*
X035312Y004584D02*
X034312Y004584D01*
X034312Y005084D02*
X035312Y005084D01*
X035312Y005584D02*
X034312Y005584D01*
X034312Y006084D02*
X035312Y006084D01*
X035312Y006584D02*
X034312Y006584D01*
X034312Y007084D02*
X035312Y007084D01*
X035312Y007584D02*
X034312Y007584D01*
X039312Y007584D02*
X040312Y007584D01*
X040312Y007084D02*
X039312Y007084D01*
X039312Y006584D02*
X040312Y006584D01*
X040312Y006084D02*
X039312Y006084D01*
X039312Y005584D02*
X040312Y005584D01*
X040312Y005084D02*
X039312Y005084D01*
X039312Y004584D02*
X040312Y004584D01*
X040312Y004084D02*
X039312Y004084D01*
X044312Y004084D02*
X045312Y004084D01*
X045312Y004584D02*
X044312Y004584D01*
X044312Y005084D02*
X045312Y005084D01*
X045312Y005584D02*
X044312Y005584D01*
X044312Y006084D02*
X045312Y006084D01*
X045312Y006584D02*
X044312Y006584D01*
X044312Y007084D02*
X045312Y007084D01*
X045312Y007584D02*
X044312Y007584D01*
X049312Y007584D02*
X050312Y007584D01*
X050312Y007084D02*
X049312Y007084D01*
X049312Y006584D02*
X050312Y006584D01*
X050312Y006084D02*
X049312Y006084D01*
X049312Y005584D02*
X050312Y005584D01*
X050312Y005084D02*
X049312Y005084D01*
X049312Y004584D02*
X050312Y004584D01*
X050312Y004084D02*
X049312Y004084D01*
X010300Y004084D02*
X009300Y004084D01*
X009300Y004584D02*
X010300Y004584D01*
X010300Y005084D02*
X009300Y005084D01*
X009300Y005584D02*
X010300Y005584D01*
X010300Y006084D02*
X009300Y006084D01*
X009300Y006584D02*
X010300Y006584D01*
X010300Y007084D02*
X009300Y007084D01*
X009300Y007584D02*
X010300Y007584D01*
D15*
X050300Y005084D02*
X050947Y005084D01*
X051201Y004830D01*
X051378Y004830D01*
X052205Y004830D02*
X052296Y004830D01*
X052800Y005334D01*
D16*
X052205Y004830D02*
X051378Y004830D01*
D17*
X049312Y005584D02*
X047666Y005584D01*
X045312Y005584D01*
X044312Y005584D02*
X042666Y005584D01*
X040312Y005584D01*
X039312Y005584D02*
X037666Y005584D01*
X035312Y005584D01*
X034312Y005584D02*
X032666Y005584D01*
X030312Y005584D01*
X029312Y005584D02*
X027666Y005584D01*
X025312Y005584D01*
X024312Y005584D02*
X022666Y005584D01*
X020312Y005584D01*
X019312Y005584D02*
X017666Y005584D01*
X015312Y005584D01*
X014312Y005584D02*
X012666Y005584D01*
X010312Y005584D01*
X010312Y006084D02*
X012430Y006084D01*
X014312Y006084D01*
X015312Y006084D02*
X017430Y006084D01*
X019312Y006084D01*
X020312Y006084D02*
X022430Y006084D01*
X024312Y006084D01*
X025312Y006084D02*
X027430Y006084D01*
X029312Y006084D01*
X030312Y006084D02*
X032430Y006084D01*
X034312Y006084D01*
X035312Y006084D02*
X037430Y006084D01*
X039312Y006084D01*
X040312Y006084D02*
X042430Y006084D01*
X044312Y006084D01*
X045312Y006084D02*
X047430Y006084D01*
X049312Y006084D01*
X047193Y006365D02*
X046975Y006584D01*
X045312Y006584D01*
X045312Y007084D02*
X049312Y007084D01*
X050691Y007584D02*
X051438Y006838D01*
X052304Y006838D01*
X052800Y007334D01*
X050691Y007584D02*
X050300Y007584D01*
X049312Y007584D02*
X047548Y007584D01*
X047548Y007664D01*
X047548Y007584D02*
X045312Y007584D01*
X044312Y007584D02*
X042548Y007584D01*
X042548Y007664D01*
X042548Y007584D02*
X040312Y007584D01*
X039312Y007584D02*
X037548Y007584D01*
X037548Y007664D01*
X037548Y007584D02*
X035312Y007584D01*
X034312Y007584D02*
X032548Y007584D01*
X032548Y007664D01*
X032548Y007584D02*
X030312Y007584D01*
X029312Y007584D02*
X027548Y007584D01*
X027548Y007664D01*
X027548Y007584D02*
X025312Y007584D01*
X024312Y007584D02*
X022548Y007584D01*
X022548Y007664D01*
X022548Y007584D02*
X020312Y007584D01*
X019312Y007584D02*
X017548Y007584D01*
X017548Y007664D01*
X017548Y007584D02*
X015312Y007584D01*
X014312Y007584D02*
X012548Y007584D01*
X012548Y007664D01*
X012548Y007584D02*
X010312Y007584D01*
X010312Y007084D02*
X014312Y007084D01*
X015312Y007084D02*
X019312Y007084D01*
X020312Y007084D02*
X024312Y007084D01*
X025312Y007084D02*
X029312Y007084D01*
X030312Y007084D02*
X034312Y007084D01*
X035312Y007084D02*
X039312Y007084D01*
X040312Y007084D02*
X044312Y007084D01*
X042193Y006365D02*
X041975Y006584D01*
X040312Y006584D01*
X037193Y006365D02*
X036975Y006584D01*
X035312Y006584D01*
X032193Y006365D02*
X031975Y006584D01*
X030312Y006584D01*
X027193Y006365D02*
X026975Y006584D01*
X025312Y006584D01*
X022193Y006365D02*
X021975Y006584D01*
X020312Y006584D01*
X017193Y006365D02*
X016975Y006584D01*
X015312Y006584D01*
X012193Y006365D02*
X011975Y006584D01*
X010312Y006584D01*
X009300Y007084D02*
X008314Y007084D01*
X008067Y006838D01*
X007296Y006838D01*
X006800Y007334D01*
D18*
X012193Y006365D03*
X012430Y006084D03*
X012666Y005584D03*
X011603Y005084D03*
X011308Y005084D03*
X016308Y005084D03*
X016603Y005084D03*
X017666Y005584D03*
X017430Y006084D03*
X017193Y006365D03*
X022193Y006365D03*
X022430Y006084D03*
X022666Y005584D03*
X021603Y005084D03*
X021308Y005084D03*
X026308Y005084D03*
X026603Y005084D03*
X027666Y005584D03*
X027430Y006084D03*
X027193Y006365D03*
X032193Y006365D03*
X032430Y006084D03*
X032666Y005584D03*
X031603Y005084D03*
X031308Y005084D03*
X036308Y005084D03*
X036603Y005084D03*
X037666Y005584D03*
X037430Y006084D03*
X037193Y006365D03*
X042193Y006365D03*
X042430Y006084D03*
X042666Y005584D03*
X041603Y005084D03*
X041308Y005084D03*
X046308Y005084D03*
X046603Y005084D03*
X047666Y005584D03*
X047430Y006084D03*
X047193Y006365D03*
X047548Y007664D03*
X042548Y007664D03*
X037548Y007664D03*
X032548Y007664D03*
X027548Y007664D03*
X022548Y007664D03*
X017548Y007664D03*
X012548Y007664D03*
M02*
