G75*
G70*
%OFA0B0*%
%FSLAX24Y24*%
%IPPOS*%
%LPD*%
%AMOC8*
5,1,8,0,0,1.08239X$1,22.5*
%
%ADD10C,0.0236*%
%ADD11C,0.0453*%
%ADD12C,0.1299*%
%ADD13C,0.0779*%
%ADD14C,0.0571*%
%ADD15C,0.0866*%
%ADD16C,0.0394*%
D10*
X011524Y002192D03*
X011918Y002192D03*
X012312Y002192D03*
X012705Y002192D03*
X013099Y002192D03*
X016524Y002192D03*
X016918Y002192D03*
X017312Y002192D03*
X017705Y002192D03*
X018099Y002192D03*
X021524Y002192D03*
X021918Y002192D03*
X022312Y002192D03*
X022705Y002192D03*
X023099Y002192D03*
X026524Y002192D03*
X026918Y002192D03*
X027312Y002192D03*
X027705Y002192D03*
X028099Y002192D03*
X031524Y002192D03*
X031918Y002192D03*
X032312Y002192D03*
X032705Y002192D03*
X033099Y002192D03*
X036524Y002192D03*
X036918Y002192D03*
X037312Y002192D03*
X037705Y002192D03*
X038099Y002192D03*
X041524Y002192D03*
X041918Y002192D03*
X042312Y002192D03*
X042705Y002192D03*
X043099Y002192D03*
X046524Y002192D03*
X046918Y002192D03*
X047312Y002192D03*
X047705Y002192D03*
X048099Y002192D03*
X049812Y004334D03*
X049812Y004834D03*
X049812Y005334D03*
X049812Y005834D03*
X049812Y006334D03*
X049812Y006834D03*
X049812Y007334D03*
X044812Y007334D03*
X044812Y006834D03*
X044812Y006334D03*
X044812Y005834D03*
X044812Y005334D03*
X044812Y004834D03*
X044812Y004334D03*
X039812Y004334D03*
X039812Y004834D03*
X039812Y005334D03*
X039812Y005834D03*
X039812Y006334D03*
X039812Y006834D03*
X039812Y007334D03*
X034812Y007334D03*
X034812Y006834D03*
X034812Y006334D03*
X034812Y005834D03*
X034812Y005334D03*
X034812Y004834D03*
X034812Y004334D03*
X029812Y004334D03*
X029812Y004834D03*
X029812Y005334D03*
X029812Y005834D03*
X029812Y006334D03*
X029812Y006834D03*
X029812Y007334D03*
X024812Y007334D03*
X024812Y006834D03*
X024812Y006334D03*
X024812Y005834D03*
X024812Y005334D03*
X024812Y004834D03*
X024812Y004334D03*
X019812Y004334D03*
X019812Y004834D03*
X019812Y005334D03*
X019812Y005834D03*
X019812Y006334D03*
X019812Y006834D03*
X019812Y007334D03*
X014812Y007334D03*
X014812Y006834D03*
X014812Y006334D03*
X014812Y005834D03*
X014812Y005334D03*
X014812Y004834D03*
X014812Y004334D03*
X009800Y004334D03*
X009800Y004834D03*
X009800Y005334D03*
X009800Y005834D03*
X009800Y006334D03*
X009800Y006834D03*
X009800Y007334D03*
X011524Y009475D03*
X011918Y009475D03*
X012312Y009475D03*
X012705Y009475D03*
X013099Y009475D03*
X016524Y009475D03*
X016918Y009475D03*
X017312Y009475D03*
X017705Y009475D03*
X018099Y009475D03*
X021524Y009475D03*
X021918Y009475D03*
X022312Y009475D03*
X022705Y009475D03*
X023099Y009475D03*
X026524Y009475D03*
X026918Y009475D03*
X027312Y009475D03*
X027705Y009475D03*
X028099Y009475D03*
X031524Y009475D03*
X031918Y009475D03*
X032312Y009475D03*
X032705Y009475D03*
X033099Y009475D03*
X036524Y009475D03*
X036918Y009475D03*
X037312Y009475D03*
X037705Y009475D03*
X038099Y009475D03*
X041524Y009475D03*
X041918Y009475D03*
X042312Y009475D03*
X042705Y009475D03*
X043099Y009475D03*
X046524Y009475D03*
X046918Y009475D03*
X047312Y009475D03*
X047705Y009475D03*
X048099Y009475D03*
D11*
X049312Y007584D03*
X050300Y007584D03*
X050300Y007084D03*
X049312Y007084D03*
X049312Y006584D03*
X050300Y006584D03*
X050300Y006084D03*
X049312Y006084D03*
X049312Y005584D03*
X050300Y005584D03*
X050300Y005084D03*
X049312Y005084D03*
X049312Y004584D03*
X050300Y004584D03*
X050300Y004084D03*
X049312Y004084D03*
X045312Y004084D03*
X044312Y004084D03*
X044312Y004584D03*
X045312Y004584D03*
X045312Y005084D03*
X044312Y005084D03*
X044312Y005584D03*
X045312Y005584D03*
X045312Y006084D03*
X044312Y006084D03*
X044312Y006584D03*
X045312Y006584D03*
X045312Y007084D03*
X044312Y007084D03*
X044312Y007584D03*
X045312Y007584D03*
X040312Y007584D03*
X039312Y007584D03*
X039312Y007084D03*
X040312Y007084D03*
X040312Y006584D03*
X039312Y006584D03*
X039312Y006084D03*
X040312Y006084D03*
X040312Y005584D03*
X039312Y005584D03*
X039312Y005084D03*
X040312Y005084D03*
X040312Y004584D03*
X039312Y004584D03*
X039312Y004084D03*
X040312Y004084D03*
X035312Y004084D03*
X034312Y004084D03*
X034312Y004584D03*
X035312Y004584D03*
X035312Y005084D03*
X034312Y005084D03*
X034312Y005584D03*
X035312Y005584D03*
X035312Y006084D03*
X034312Y006084D03*
X034312Y006584D03*
X035312Y006584D03*
X035312Y007084D03*
X034312Y007084D03*
X034312Y007584D03*
X035312Y007584D03*
X030312Y007584D03*
X029312Y007584D03*
X029312Y007084D03*
X030312Y007084D03*
X030312Y006584D03*
X029312Y006584D03*
X029312Y006084D03*
X030312Y006084D03*
X030312Y005584D03*
X029312Y005584D03*
X029312Y005084D03*
X030312Y005084D03*
X030312Y004584D03*
X029312Y004584D03*
X029312Y004084D03*
X030312Y004084D03*
X025312Y004084D03*
X024312Y004084D03*
X024312Y004584D03*
X025312Y004584D03*
X025312Y005084D03*
X024312Y005084D03*
X024312Y005584D03*
X025312Y005584D03*
X025312Y006084D03*
X024312Y006084D03*
X024312Y006584D03*
X025312Y006584D03*
X025312Y007084D03*
X024312Y007084D03*
X024312Y007584D03*
X025312Y007584D03*
X020312Y007584D03*
X019312Y007584D03*
X019312Y007084D03*
X020312Y007084D03*
X020312Y006584D03*
X019312Y006584D03*
X019312Y006084D03*
X020312Y006084D03*
X020312Y005584D03*
X019312Y005584D03*
X019312Y005084D03*
X020312Y005084D03*
X020312Y004584D03*
X019312Y004584D03*
X019312Y004084D03*
X020312Y004084D03*
X015312Y004084D03*
X014312Y004084D03*
X014312Y004584D03*
X015312Y004584D03*
X015312Y005084D03*
X014312Y005084D03*
X014312Y005584D03*
X015312Y005584D03*
X015312Y006084D03*
X014312Y006084D03*
X014312Y006584D03*
X015312Y006584D03*
X015312Y007084D03*
X014312Y007084D03*
X014312Y007584D03*
X015312Y007584D03*
X010312Y007584D03*
X009300Y007584D03*
X009300Y007084D03*
X010312Y007084D03*
X010312Y006584D03*
X009300Y006584D03*
X009300Y006084D03*
X010312Y006084D03*
X010312Y005584D03*
X009300Y005584D03*
X009300Y005084D03*
X010312Y005084D03*
X010312Y004584D03*
X009300Y004584D03*
X009300Y004084D03*
X010312Y004084D03*
D12*
X007300Y001306D03*
X007300Y010361D03*
X052304Y010361D03*
X052300Y001306D03*
D13*
X052800Y004334D03*
X051800Y004334D03*
X051800Y005334D03*
X052800Y005334D03*
X052800Y006334D03*
X051800Y006334D03*
X051800Y007334D03*
X052800Y007334D03*
X007800Y007334D03*
X006800Y007334D03*
X006800Y006334D03*
X007800Y006334D03*
X007800Y005334D03*
X006800Y005334D03*
X006800Y004334D03*
X007800Y004334D03*
D14*
X010312Y002834D03*
X011312Y002834D03*
X012312Y002834D03*
X013312Y002834D03*
X014312Y002834D03*
X015312Y002834D03*
X016312Y002834D03*
X017312Y002834D03*
X018312Y002834D03*
X019312Y002834D03*
X020312Y002834D03*
X021312Y002834D03*
X022312Y002834D03*
X023312Y002834D03*
X024312Y002834D03*
X025312Y002834D03*
X026312Y002834D03*
X027312Y002834D03*
X028312Y002834D03*
X029312Y002834D03*
X030312Y002834D03*
X031312Y002834D03*
X032312Y002834D03*
X033312Y002834D03*
X034312Y002834D03*
X035312Y002834D03*
X036312Y002834D03*
X037312Y002834D03*
X038312Y002834D03*
X039312Y002834D03*
X040312Y002834D03*
X041312Y002834D03*
X042312Y002834D03*
X043312Y002834D03*
X044312Y002834D03*
X045312Y002834D03*
X046312Y002834D03*
X047312Y002834D03*
X048312Y002834D03*
X049312Y002834D03*
X049312Y008834D03*
X048312Y008834D03*
X047312Y008834D03*
X046312Y008834D03*
X045312Y008834D03*
X044312Y008834D03*
X043312Y008834D03*
X042312Y008834D03*
X041312Y008834D03*
X040312Y008834D03*
X039312Y008834D03*
X038312Y008834D03*
X037312Y008834D03*
X036312Y008834D03*
X035312Y008834D03*
X034312Y008834D03*
X033312Y008834D03*
X032312Y008834D03*
X031312Y008834D03*
X030312Y008834D03*
X029312Y008834D03*
X028312Y008834D03*
X027312Y008834D03*
X026312Y008834D03*
X025312Y008834D03*
X024312Y008834D03*
X023312Y008834D03*
X022312Y008834D03*
X021312Y008834D03*
X020312Y008834D03*
X019312Y008834D03*
X018312Y008834D03*
X017312Y008834D03*
X016312Y008834D03*
X015312Y008834D03*
X014312Y008834D03*
X013312Y008834D03*
X012312Y008834D03*
X011312Y008834D03*
X010312Y008834D03*
D15*
X012312Y010361D03*
X017312Y010361D03*
X022312Y010361D03*
X027312Y010361D03*
X032312Y010361D03*
X037312Y010361D03*
X042312Y010361D03*
X047312Y010361D03*
X047312Y001306D03*
X042312Y001306D03*
X037312Y001306D03*
X032312Y001306D03*
X027312Y001306D03*
X022312Y001306D03*
X017312Y001306D03*
X012312Y001306D03*
D16*
X011721Y001306D02*
X011723Y001354D01*
X011729Y001402D01*
X011739Y001449D01*
X011752Y001495D01*
X011770Y001540D01*
X011790Y001584D01*
X011815Y001626D01*
X011843Y001665D01*
X011873Y001702D01*
X011907Y001736D01*
X011944Y001768D01*
X011982Y001797D01*
X012023Y001822D01*
X012066Y001844D01*
X012111Y001862D01*
X012157Y001876D01*
X012204Y001887D01*
X012252Y001894D01*
X012300Y001897D01*
X012348Y001896D01*
X012396Y001891D01*
X012444Y001882D01*
X012490Y001870D01*
X012535Y001853D01*
X012579Y001833D01*
X012621Y001810D01*
X012661Y001783D01*
X012699Y001753D01*
X012734Y001720D01*
X012766Y001684D01*
X012796Y001646D01*
X012822Y001605D01*
X012844Y001562D01*
X012864Y001518D01*
X012879Y001473D01*
X012891Y001426D01*
X012899Y001378D01*
X012903Y001330D01*
X012903Y001282D01*
X012899Y001234D01*
X012891Y001186D01*
X012879Y001139D01*
X012864Y001094D01*
X012844Y001050D01*
X012822Y001007D01*
X012796Y000966D01*
X012766Y000928D01*
X012734Y000892D01*
X012699Y000859D01*
X012661Y000829D01*
X012621Y000802D01*
X012579Y000779D01*
X012535Y000759D01*
X012490Y000742D01*
X012444Y000730D01*
X012396Y000721D01*
X012348Y000716D01*
X012300Y000715D01*
X012252Y000718D01*
X012204Y000725D01*
X012157Y000736D01*
X012111Y000750D01*
X012066Y000768D01*
X012023Y000790D01*
X011982Y000815D01*
X011944Y000844D01*
X011907Y000876D01*
X011873Y000910D01*
X011843Y000947D01*
X011815Y000986D01*
X011790Y001028D01*
X011770Y001072D01*
X011752Y001117D01*
X011739Y001163D01*
X011729Y001210D01*
X011723Y001258D01*
X011721Y001306D01*
X016721Y001306D02*
X016723Y001354D01*
X016729Y001402D01*
X016739Y001449D01*
X016752Y001495D01*
X016770Y001540D01*
X016790Y001584D01*
X016815Y001626D01*
X016843Y001665D01*
X016873Y001702D01*
X016907Y001736D01*
X016944Y001768D01*
X016982Y001797D01*
X017023Y001822D01*
X017066Y001844D01*
X017111Y001862D01*
X017157Y001876D01*
X017204Y001887D01*
X017252Y001894D01*
X017300Y001897D01*
X017348Y001896D01*
X017396Y001891D01*
X017444Y001882D01*
X017490Y001870D01*
X017535Y001853D01*
X017579Y001833D01*
X017621Y001810D01*
X017661Y001783D01*
X017699Y001753D01*
X017734Y001720D01*
X017766Y001684D01*
X017796Y001646D01*
X017822Y001605D01*
X017844Y001562D01*
X017864Y001518D01*
X017879Y001473D01*
X017891Y001426D01*
X017899Y001378D01*
X017903Y001330D01*
X017903Y001282D01*
X017899Y001234D01*
X017891Y001186D01*
X017879Y001139D01*
X017864Y001094D01*
X017844Y001050D01*
X017822Y001007D01*
X017796Y000966D01*
X017766Y000928D01*
X017734Y000892D01*
X017699Y000859D01*
X017661Y000829D01*
X017621Y000802D01*
X017579Y000779D01*
X017535Y000759D01*
X017490Y000742D01*
X017444Y000730D01*
X017396Y000721D01*
X017348Y000716D01*
X017300Y000715D01*
X017252Y000718D01*
X017204Y000725D01*
X017157Y000736D01*
X017111Y000750D01*
X017066Y000768D01*
X017023Y000790D01*
X016982Y000815D01*
X016944Y000844D01*
X016907Y000876D01*
X016873Y000910D01*
X016843Y000947D01*
X016815Y000986D01*
X016790Y001028D01*
X016770Y001072D01*
X016752Y001117D01*
X016739Y001163D01*
X016729Y001210D01*
X016723Y001258D01*
X016721Y001306D01*
X021721Y001306D02*
X021723Y001354D01*
X021729Y001402D01*
X021739Y001449D01*
X021752Y001495D01*
X021770Y001540D01*
X021790Y001584D01*
X021815Y001626D01*
X021843Y001665D01*
X021873Y001702D01*
X021907Y001736D01*
X021944Y001768D01*
X021982Y001797D01*
X022023Y001822D01*
X022066Y001844D01*
X022111Y001862D01*
X022157Y001876D01*
X022204Y001887D01*
X022252Y001894D01*
X022300Y001897D01*
X022348Y001896D01*
X022396Y001891D01*
X022444Y001882D01*
X022490Y001870D01*
X022535Y001853D01*
X022579Y001833D01*
X022621Y001810D01*
X022661Y001783D01*
X022699Y001753D01*
X022734Y001720D01*
X022766Y001684D01*
X022796Y001646D01*
X022822Y001605D01*
X022844Y001562D01*
X022864Y001518D01*
X022879Y001473D01*
X022891Y001426D01*
X022899Y001378D01*
X022903Y001330D01*
X022903Y001282D01*
X022899Y001234D01*
X022891Y001186D01*
X022879Y001139D01*
X022864Y001094D01*
X022844Y001050D01*
X022822Y001007D01*
X022796Y000966D01*
X022766Y000928D01*
X022734Y000892D01*
X022699Y000859D01*
X022661Y000829D01*
X022621Y000802D01*
X022579Y000779D01*
X022535Y000759D01*
X022490Y000742D01*
X022444Y000730D01*
X022396Y000721D01*
X022348Y000716D01*
X022300Y000715D01*
X022252Y000718D01*
X022204Y000725D01*
X022157Y000736D01*
X022111Y000750D01*
X022066Y000768D01*
X022023Y000790D01*
X021982Y000815D01*
X021944Y000844D01*
X021907Y000876D01*
X021873Y000910D01*
X021843Y000947D01*
X021815Y000986D01*
X021790Y001028D01*
X021770Y001072D01*
X021752Y001117D01*
X021739Y001163D01*
X021729Y001210D01*
X021723Y001258D01*
X021721Y001306D01*
X026721Y001306D02*
X026723Y001354D01*
X026729Y001402D01*
X026739Y001449D01*
X026752Y001495D01*
X026770Y001540D01*
X026790Y001584D01*
X026815Y001626D01*
X026843Y001665D01*
X026873Y001702D01*
X026907Y001736D01*
X026944Y001768D01*
X026982Y001797D01*
X027023Y001822D01*
X027066Y001844D01*
X027111Y001862D01*
X027157Y001876D01*
X027204Y001887D01*
X027252Y001894D01*
X027300Y001897D01*
X027348Y001896D01*
X027396Y001891D01*
X027444Y001882D01*
X027490Y001870D01*
X027535Y001853D01*
X027579Y001833D01*
X027621Y001810D01*
X027661Y001783D01*
X027699Y001753D01*
X027734Y001720D01*
X027766Y001684D01*
X027796Y001646D01*
X027822Y001605D01*
X027844Y001562D01*
X027864Y001518D01*
X027879Y001473D01*
X027891Y001426D01*
X027899Y001378D01*
X027903Y001330D01*
X027903Y001282D01*
X027899Y001234D01*
X027891Y001186D01*
X027879Y001139D01*
X027864Y001094D01*
X027844Y001050D01*
X027822Y001007D01*
X027796Y000966D01*
X027766Y000928D01*
X027734Y000892D01*
X027699Y000859D01*
X027661Y000829D01*
X027621Y000802D01*
X027579Y000779D01*
X027535Y000759D01*
X027490Y000742D01*
X027444Y000730D01*
X027396Y000721D01*
X027348Y000716D01*
X027300Y000715D01*
X027252Y000718D01*
X027204Y000725D01*
X027157Y000736D01*
X027111Y000750D01*
X027066Y000768D01*
X027023Y000790D01*
X026982Y000815D01*
X026944Y000844D01*
X026907Y000876D01*
X026873Y000910D01*
X026843Y000947D01*
X026815Y000986D01*
X026790Y001028D01*
X026770Y001072D01*
X026752Y001117D01*
X026739Y001163D01*
X026729Y001210D01*
X026723Y001258D01*
X026721Y001306D01*
X031721Y001306D02*
X031723Y001354D01*
X031729Y001402D01*
X031739Y001449D01*
X031752Y001495D01*
X031770Y001540D01*
X031790Y001584D01*
X031815Y001626D01*
X031843Y001665D01*
X031873Y001702D01*
X031907Y001736D01*
X031944Y001768D01*
X031982Y001797D01*
X032023Y001822D01*
X032066Y001844D01*
X032111Y001862D01*
X032157Y001876D01*
X032204Y001887D01*
X032252Y001894D01*
X032300Y001897D01*
X032348Y001896D01*
X032396Y001891D01*
X032444Y001882D01*
X032490Y001870D01*
X032535Y001853D01*
X032579Y001833D01*
X032621Y001810D01*
X032661Y001783D01*
X032699Y001753D01*
X032734Y001720D01*
X032766Y001684D01*
X032796Y001646D01*
X032822Y001605D01*
X032844Y001562D01*
X032864Y001518D01*
X032879Y001473D01*
X032891Y001426D01*
X032899Y001378D01*
X032903Y001330D01*
X032903Y001282D01*
X032899Y001234D01*
X032891Y001186D01*
X032879Y001139D01*
X032864Y001094D01*
X032844Y001050D01*
X032822Y001007D01*
X032796Y000966D01*
X032766Y000928D01*
X032734Y000892D01*
X032699Y000859D01*
X032661Y000829D01*
X032621Y000802D01*
X032579Y000779D01*
X032535Y000759D01*
X032490Y000742D01*
X032444Y000730D01*
X032396Y000721D01*
X032348Y000716D01*
X032300Y000715D01*
X032252Y000718D01*
X032204Y000725D01*
X032157Y000736D01*
X032111Y000750D01*
X032066Y000768D01*
X032023Y000790D01*
X031982Y000815D01*
X031944Y000844D01*
X031907Y000876D01*
X031873Y000910D01*
X031843Y000947D01*
X031815Y000986D01*
X031790Y001028D01*
X031770Y001072D01*
X031752Y001117D01*
X031739Y001163D01*
X031729Y001210D01*
X031723Y001258D01*
X031721Y001306D01*
X036721Y001306D02*
X036723Y001354D01*
X036729Y001402D01*
X036739Y001449D01*
X036752Y001495D01*
X036770Y001540D01*
X036790Y001584D01*
X036815Y001626D01*
X036843Y001665D01*
X036873Y001702D01*
X036907Y001736D01*
X036944Y001768D01*
X036982Y001797D01*
X037023Y001822D01*
X037066Y001844D01*
X037111Y001862D01*
X037157Y001876D01*
X037204Y001887D01*
X037252Y001894D01*
X037300Y001897D01*
X037348Y001896D01*
X037396Y001891D01*
X037444Y001882D01*
X037490Y001870D01*
X037535Y001853D01*
X037579Y001833D01*
X037621Y001810D01*
X037661Y001783D01*
X037699Y001753D01*
X037734Y001720D01*
X037766Y001684D01*
X037796Y001646D01*
X037822Y001605D01*
X037844Y001562D01*
X037864Y001518D01*
X037879Y001473D01*
X037891Y001426D01*
X037899Y001378D01*
X037903Y001330D01*
X037903Y001282D01*
X037899Y001234D01*
X037891Y001186D01*
X037879Y001139D01*
X037864Y001094D01*
X037844Y001050D01*
X037822Y001007D01*
X037796Y000966D01*
X037766Y000928D01*
X037734Y000892D01*
X037699Y000859D01*
X037661Y000829D01*
X037621Y000802D01*
X037579Y000779D01*
X037535Y000759D01*
X037490Y000742D01*
X037444Y000730D01*
X037396Y000721D01*
X037348Y000716D01*
X037300Y000715D01*
X037252Y000718D01*
X037204Y000725D01*
X037157Y000736D01*
X037111Y000750D01*
X037066Y000768D01*
X037023Y000790D01*
X036982Y000815D01*
X036944Y000844D01*
X036907Y000876D01*
X036873Y000910D01*
X036843Y000947D01*
X036815Y000986D01*
X036790Y001028D01*
X036770Y001072D01*
X036752Y001117D01*
X036739Y001163D01*
X036729Y001210D01*
X036723Y001258D01*
X036721Y001306D01*
X041721Y001306D02*
X041723Y001354D01*
X041729Y001402D01*
X041739Y001449D01*
X041752Y001495D01*
X041770Y001540D01*
X041790Y001584D01*
X041815Y001626D01*
X041843Y001665D01*
X041873Y001702D01*
X041907Y001736D01*
X041944Y001768D01*
X041982Y001797D01*
X042023Y001822D01*
X042066Y001844D01*
X042111Y001862D01*
X042157Y001876D01*
X042204Y001887D01*
X042252Y001894D01*
X042300Y001897D01*
X042348Y001896D01*
X042396Y001891D01*
X042444Y001882D01*
X042490Y001870D01*
X042535Y001853D01*
X042579Y001833D01*
X042621Y001810D01*
X042661Y001783D01*
X042699Y001753D01*
X042734Y001720D01*
X042766Y001684D01*
X042796Y001646D01*
X042822Y001605D01*
X042844Y001562D01*
X042864Y001518D01*
X042879Y001473D01*
X042891Y001426D01*
X042899Y001378D01*
X042903Y001330D01*
X042903Y001282D01*
X042899Y001234D01*
X042891Y001186D01*
X042879Y001139D01*
X042864Y001094D01*
X042844Y001050D01*
X042822Y001007D01*
X042796Y000966D01*
X042766Y000928D01*
X042734Y000892D01*
X042699Y000859D01*
X042661Y000829D01*
X042621Y000802D01*
X042579Y000779D01*
X042535Y000759D01*
X042490Y000742D01*
X042444Y000730D01*
X042396Y000721D01*
X042348Y000716D01*
X042300Y000715D01*
X042252Y000718D01*
X042204Y000725D01*
X042157Y000736D01*
X042111Y000750D01*
X042066Y000768D01*
X042023Y000790D01*
X041982Y000815D01*
X041944Y000844D01*
X041907Y000876D01*
X041873Y000910D01*
X041843Y000947D01*
X041815Y000986D01*
X041790Y001028D01*
X041770Y001072D01*
X041752Y001117D01*
X041739Y001163D01*
X041729Y001210D01*
X041723Y001258D01*
X041721Y001306D01*
X046721Y001306D02*
X046723Y001354D01*
X046729Y001402D01*
X046739Y001449D01*
X046752Y001495D01*
X046770Y001540D01*
X046790Y001584D01*
X046815Y001626D01*
X046843Y001665D01*
X046873Y001702D01*
X046907Y001736D01*
X046944Y001768D01*
X046982Y001797D01*
X047023Y001822D01*
X047066Y001844D01*
X047111Y001862D01*
X047157Y001876D01*
X047204Y001887D01*
X047252Y001894D01*
X047300Y001897D01*
X047348Y001896D01*
X047396Y001891D01*
X047444Y001882D01*
X047490Y001870D01*
X047535Y001853D01*
X047579Y001833D01*
X047621Y001810D01*
X047661Y001783D01*
X047699Y001753D01*
X047734Y001720D01*
X047766Y001684D01*
X047796Y001646D01*
X047822Y001605D01*
X047844Y001562D01*
X047864Y001518D01*
X047879Y001473D01*
X047891Y001426D01*
X047899Y001378D01*
X047903Y001330D01*
X047903Y001282D01*
X047899Y001234D01*
X047891Y001186D01*
X047879Y001139D01*
X047864Y001094D01*
X047844Y001050D01*
X047822Y001007D01*
X047796Y000966D01*
X047766Y000928D01*
X047734Y000892D01*
X047699Y000859D01*
X047661Y000829D01*
X047621Y000802D01*
X047579Y000779D01*
X047535Y000759D01*
X047490Y000742D01*
X047444Y000730D01*
X047396Y000721D01*
X047348Y000716D01*
X047300Y000715D01*
X047252Y000718D01*
X047204Y000725D01*
X047157Y000736D01*
X047111Y000750D01*
X047066Y000768D01*
X047023Y000790D01*
X046982Y000815D01*
X046944Y000844D01*
X046907Y000876D01*
X046873Y000910D01*
X046843Y000947D01*
X046815Y000986D01*
X046790Y001028D01*
X046770Y001072D01*
X046752Y001117D01*
X046739Y001163D01*
X046729Y001210D01*
X046723Y001258D01*
X046721Y001306D01*
X046721Y010361D02*
X046723Y010409D01*
X046729Y010457D01*
X046739Y010504D01*
X046752Y010550D01*
X046770Y010595D01*
X046790Y010639D01*
X046815Y010681D01*
X046843Y010720D01*
X046873Y010757D01*
X046907Y010791D01*
X046944Y010823D01*
X046982Y010852D01*
X047023Y010877D01*
X047066Y010899D01*
X047111Y010917D01*
X047157Y010931D01*
X047204Y010942D01*
X047252Y010949D01*
X047300Y010952D01*
X047348Y010951D01*
X047396Y010946D01*
X047444Y010937D01*
X047490Y010925D01*
X047535Y010908D01*
X047579Y010888D01*
X047621Y010865D01*
X047661Y010838D01*
X047699Y010808D01*
X047734Y010775D01*
X047766Y010739D01*
X047796Y010701D01*
X047822Y010660D01*
X047844Y010617D01*
X047864Y010573D01*
X047879Y010528D01*
X047891Y010481D01*
X047899Y010433D01*
X047903Y010385D01*
X047903Y010337D01*
X047899Y010289D01*
X047891Y010241D01*
X047879Y010194D01*
X047864Y010149D01*
X047844Y010105D01*
X047822Y010062D01*
X047796Y010021D01*
X047766Y009983D01*
X047734Y009947D01*
X047699Y009914D01*
X047661Y009884D01*
X047621Y009857D01*
X047579Y009834D01*
X047535Y009814D01*
X047490Y009797D01*
X047444Y009785D01*
X047396Y009776D01*
X047348Y009771D01*
X047300Y009770D01*
X047252Y009773D01*
X047204Y009780D01*
X047157Y009791D01*
X047111Y009805D01*
X047066Y009823D01*
X047023Y009845D01*
X046982Y009870D01*
X046944Y009899D01*
X046907Y009931D01*
X046873Y009965D01*
X046843Y010002D01*
X046815Y010041D01*
X046790Y010083D01*
X046770Y010127D01*
X046752Y010172D01*
X046739Y010218D01*
X046729Y010265D01*
X046723Y010313D01*
X046721Y010361D01*
X041721Y010361D02*
X041723Y010409D01*
X041729Y010457D01*
X041739Y010504D01*
X041752Y010550D01*
X041770Y010595D01*
X041790Y010639D01*
X041815Y010681D01*
X041843Y010720D01*
X041873Y010757D01*
X041907Y010791D01*
X041944Y010823D01*
X041982Y010852D01*
X042023Y010877D01*
X042066Y010899D01*
X042111Y010917D01*
X042157Y010931D01*
X042204Y010942D01*
X042252Y010949D01*
X042300Y010952D01*
X042348Y010951D01*
X042396Y010946D01*
X042444Y010937D01*
X042490Y010925D01*
X042535Y010908D01*
X042579Y010888D01*
X042621Y010865D01*
X042661Y010838D01*
X042699Y010808D01*
X042734Y010775D01*
X042766Y010739D01*
X042796Y010701D01*
X042822Y010660D01*
X042844Y010617D01*
X042864Y010573D01*
X042879Y010528D01*
X042891Y010481D01*
X042899Y010433D01*
X042903Y010385D01*
X042903Y010337D01*
X042899Y010289D01*
X042891Y010241D01*
X042879Y010194D01*
X042864Y010149D01*
X042844Y010105D01*
X042822Y010062D01*
X042796Y010021D01*
X042766Y009983D01*
X042734Y009947D01*
X042699Y009914D01*
X042661Y009884D01*
X042621Y009857D01*
X042579Y009834D01*
X042535Y009814D01*
X042490Y009797D01*
X042444Y009785D01*
X042396Y009776D01*
X042348Y009771D01*
X042300Y009770D01*
X042252Y009773D01*
X042204Y009780D01*
X042157Y009791D01*
X042111Y009805D01*
X042066Y009823D01*
X042023Y009845D01*
X041982Y009870D01*
X041944Y009899D01*
X041907Y009931D01*
X041873Y009965D01*
X041843Y010002D01*
X041815Y010041D01*
X041790Y010083D01*
X041770Y010127D01*
X041752Y010172D01*
X041739Y010218D01*
X041729Y010265D01*
X041723Y010313D01*
X041721Y010361D01*
X036721Y010361D02*
X036723Y010409D01*
X036729Y010457D01*
X036739Y010504D01*
X036752Y010550D01*
X036770Y010595D01*
X036790Y010639D01*
X036815Y010681D01*
X036843Y010720D01*
X036873Y010757D01*
X036907Y010791D01*
X036944Y010823D01*
X036982Y010852D01*
X037023Y010877D01*
X037066Y010899D01*
X037111Y010917D01*
X037157Y010931D01*
X037204Y010942D01*
X037252Y010949D01*
X037300Y010952D01*
X037348Y010951D01*
X037396Y010946D01*
X037444Y010937D01*
X037490Y010925D01*
X037535Y010908D01*
X037579Y010888D01*
X037621Y010865D01*
X037661Y010838D01*
X037699Y010808D01*
X037734Y010775D01*
X037766Y010739D01*
X037796Y010701D01*
X037822Y010660D01*
X037844Y010617D01*
X037864Y010573D01*
X037879Y010528D01*
X037891Y010481D01*
X037899Y010433D01*
X037903Y010385D01*
X037903Y010337D01*
X037899Y010289D01*
X037891Y010241D01*
X037879Y010194D01*
X037864Y010149D01*
X037844Y010105D01*
X037822Y010062D01*
X037796Y010021D01*
X037766Y009983D01*
X037734Y009947D01*
X037699Y009914D01*
X037661Y009884D01*
X037621Y009857D01*
X037579Y009834D01*
X037535Y009814D01*
X037490Y009797D01*
X037444Y009785D01*
X037396Y009776D01*
X037348Y009771D01*
X037300Y009770D01*
X037252Y009773D01*
X037204Y009780D01*
X037157Y009791D01*
X037111Y009805D01*
X037066Y009823D01*
X037023Y009845D01*
X036982Y009870D01*
X036944Y009899D01*
X036907Y009931D01*
X036873Y009965D01*
X036843Y010002D01*
X036815Y010041D01*
X036790Y010083D01*
X036770Y010127D01*
X036752Y010172D01*
X036739Y010218D01*
X036729Y010265D01*
X036723Y010313D01*
X036721Y010361D01*
X031721Y010361D02*
X031723Y010409D01*
X031729Y010457D01*
X031739Y010504D01*
X031752Y010550D01*
X031770Y010595D01*
X031790Y010639D01*
X031815Y010681D01*
X031843Y010720D01*
X031873Y010757D01*
X031907Y010791D01*
X031944Y010823D01*
X031982Y010852D01*
X032023Y010877D01*
X032066Y010899D01*
X032111Y010917D01*
X032157Y010931D01*
X032204Y010942D01*
X032252Y010949D01*
X032300Y010952D01*
X032348Y010951D01*
X032396Y010946D01*
X032444Y010937D01*
X032490Y010925D01*
X032535Y010908D01*
X032579Y010888D01*
X032621Y010865D01*
X032661Y010838D01*
X032699Y010808D01*
X032734Y010775D01*
X032766Y010739D01*
X032796Y010701D01*
X032822Y010660D01*
X032844Y010617D01*
X032864Y010573D01*
X032879Y010528D01*
X032891Y010481D01*
X032899Y010433D01*
X032903Y010385D01*
X032903Y010337D01*
X032899Y010289D01*
X032891Y010241D01*
X032879Y010194D01*
X032864Y010149D01*
X032844Y010105D01*
X032822Y010062D01*
X032796Y010021D01*
X032766Y009983D01*
X032734Y009947D01*
X032699Y009914D01*
X032661Y009884D01*
X032621Y009857D01*
X032579Y009834D01*
X032535Y009814D01*
X032490Y009797D01*
X032444Y009785D01*
X032396Y009776D01*
X032348Y009771D01*
X032300Y009770D01*
X032252Y009773D01*
X032204Y009780D01*
X032157Y009791D01*
X032111Y009805D01*
X032066Y009823D01*
X032023Y009845D01*
X031982Y009870D01*
X031944Y009899D01*
X031907Y009931D01*
X031873Y009965D01*
X031843Y010002D01*
X031815Y010041D01*
X031790Y010083D01*
X031770Y010127D01*
X031752Y010172D01*
X031739Y010218D01*
X031729Y010265D01*
X031723Y010313D01*
X031721Y010361D01*
X026721Y010361D02*
X026723Y010409D01*
X026729Y010457D01*
X026739Y010504D01*
X026752Y010550D01*
X026770Y010595D01*
X026790Y010639D01*
X026815Y010681D01*
X026843Y010720D01*
X026873Y010757D01*
X026907Y010791D01*
X026944Y010823D01*
X026982Y010852D01*
X027023Y010877D01*
X027066Y010899D01*
X027111Y010917D01*
X027157Y010931D01*
X027204Y010942D01*
X027252Y010949D01*
X027300Y010952D01*
X027348Y010951D01*
X027396Y010946D01*
X027444Y010937D01*
X027490Y010925D01*
X027535Y010908D01*
X027579Y010888D01*
X027621Y010865D01*
X027661Y010838D01*
X027699Y010808D01*
X027734Y010775D01*
X027766Y010739D01*
X027796Y010701D01*
X027822Y010660D01*
X027844Y010617D01*
X027864Y010573D01*
X027879Y010528D01*
X027891Y010481D01*
X027899Y010433D01*
X027903Y010385D01*
X027903Y010337D01*
X027899Y010289D01*
X027891Y010241D01*
X027879Y010194D01*
X027864Y010149D01*
X027844Y010105D01*
X027822Y010062D01*
X027796Y010021D01*
X027766Y009983D01*
X027734Y009947D01*
X027699Y009914D01*
X027661Y009884D01*
X027621Y009857D01*
X027579Y009834D01*
X027535Y009814D01*
X027490Y009797D01*
X027444Y009785D01*
X027396Y009776D01*
X027348Y009771D01*
X027300Y009770D01*
X027252Y009773D01*
X027204Y009780D01*
X027157Y009791D01*
X027111Y009805D01*
X027066Y009823D01*
X027023Y009845D01*
X026982Y009870D01*
X026944Y009899D01*
X026907Y009931D01*
X026873Y009965D01*
X026843Y010002D01*
X026815Y010041D01*
X026790Y010083D01*
X026770Y010127D01*
X026752Y010172D01*
X026739Y010218D01*
X026729Y010265D01*
X026723Y010313D01*
X026721Y010361D01*
X021721Y010361D02*
X021723Y010409D01*
X021729Y010457D01*
X021739Y010504D01*
X021752Y010550D01*
X021770Y010595D01*
X021790Y010639D01*
X021815Y010681D01*
X021843Y010720D01*
X021873Y010757D01*
X021907Y010791D01*
X021944Y010823D01*
X021982Y010852D01*
X022023Y010877D01*
X022066Y010899D01*
X022111Y010917D01*
X022157Y010931D01*
X022204Y010942D01*
X022252Y010949D01*
X022300Y010952D01*
X022348Y010951D01*
X022396Y010946D01*
X022444Y010937D01*
X022490Y010925D01*
X022535Y010908D01*
X022579Y010888D01*
X022621Y010865D01*
X022661Y010838D01*
X022699Y010808D01*
X022734Y010775D01*
X022766Y010739D01*
X022796Y010701D01*
X022822Y010660D01*
X022844Y010617D01*
X022864Y010573D01*
X022879Y010528D01*
X022891Y010481D01*
X022899Y010433D01*
X022903Y010385D01*
X022903Y010337D01*
X022899Y010289D01*
X022891Y010241D01*
X022879Y010194D01*
X022864Y010149D01*
X022844Y010105D01*
X022822Y010062D01*
X022796Y010021D01*
X022766Y009983D01*
X022734Y009947D01*
X022699Y009914D01*
X022661Y009884D01*
X022621Y009857D01*
X022579Y009834D01*
X022535Y009814D01*
X022490Y009797D01*
X022444Y009785D01*
X022396Y009776D01*
X022348Y009771D01*
X022300Y009770D01*
X022252Y009773D01*
X022204Y009780D01*
X022157Y009791D01*
X022111Y009805D01*
X022066Y009823D01*
X022023Y009845D01*
X021982Y009870D01*
X021944Y009899D01*
X021907Y009931D01*
X021873Y009965D01*
X021843Y010002D01*
X021815Y010041D01*
X021790Y010083D01*
X021770Y010127D01*
X021752Y010172D01*
X021739Y010218D01*
X021729Y010265D01*
X021723Y010313D01*
X021721Y010361D01*
X016721Y010361D02*
X016723Y010409D01*
X016729Y010457D01*
X016739Y010504D01*
X016752Y010550D01*
X016770Y010595D01*
X016790Y010639D01*
X016815Y010681D01*
X016843Y010720D01*
X016873Y010757D01*
X016907Y010791D01*
X016944Y010823D01*
X016982Y010852D01*
X017023Y010877D01*
X017066Y010899D01*
X017111Y010917D01*
X017157Y010931D01*
X017204Y010942D01*
X017252Y010949D01*
X017300Y010952D01*
X017348Y010951D01*
X017396Y010946D01*
X017444Y010937D01*
X017490Y010925D01*
X017535Y010908D01*
X017579Y010888D01*
X017621Y010865D01*
X017661Y010838D01*
X017699Y010808D01*
X017734Y010775D01*
X017766Y010739D01*
X017796Y010701D01*
X017822Y010660D01*
X017844Y010617D01*
X017864Y010573D01*
X017879Y010528D01*
X017891Y010481D01*
X017899Y010433D01*
X017903Y010385D01*
X017903Y010337D01*
X017899Y010289D01*
X017891Y010241D01*
X017879Y010194D01*
X017864Y010149D01*
X017844Y010105D01*
X017822Y010062D01*
X017796Y010021D01*
X017766Y009983D01*
X017734Y009947D01*
X017699Y009914D01*
X017661Y009884D01*
X017621Y009857D01*
X017579Y009834D01*
X017535Y009814D01*
X017490Y009797D01*
X017444Y009785D01*
X017396Y009776D01*
X017348Y009771D01*
X017300Y009770D01*
X017252Y009773D01*
X017204Y009780D01*
X017157Y009791D01*
X017111Y009805D01*
X017066Y009823D01*
X017023Y009845D01*
X016982Y009870D01*
X016944Y009899D01*
X016907Y009931D01*
X016873Y009965D01*
X016843Y010002D01*
X016815Y010041D01*
X016790Y010083D01*
X016770Y010127D01*
X016752Y010172D01*
X016739Y010218D01*
X016729Y010265D01*
X016723Y010313D01*
X016721Y010361D01*
X011721Y010361D02*
X011723Y010409D01*
X011729Y010457D01*
X011739Y010504D01*
X011752Y010550D01*
X011770Y010595D01*
X011790Y010639D01*
X011815Y010681D01*
X011843Y010720D01*
X011873Y010757D01*
X011907Y010791D01*
X011944Y010823D01*
X011982Y010852D01*
X012023Y010877D01*
X012066Y010899D01*
X012111Y010917D01*
X012157Y010931D01*
X012204Y010942D01*
X012252Y010949D01*
X012300Y010952D01*
X012348Y010951D01*
X012396Y010946D01*
X012444Y010937D01*
X012490Y010925D01*
X012535Y010908D01*
X012579Y010888D01*
X012621Y010865D01*
X012661Y010838D01*
X012699Y010808D01*
X012734Y010775D01*
X012766Y010739D01*
X012796Y010701D01*
X012822Y010660D01*
X012844Y010617D01*
X012864Y010573D01*
X012879Y010528D01*
X012891Y010481D01*
X012899Y010433D01*
X012903Y010385D01*
X012903Y010337D01*
X012899Y010289D01*
X012891Y010241D01*
X012879Y010194D01*
X012864Y010149D01*
X012844Y010105D01*
X012822Y010062D01*
X012796Y010021D01*
X012766Y009983D01*
X012734Y009947D01*
X012699Y009914D01*
X012661Y009884D01*
X012621Y009857D01*
X012579Y009834D01*
X012535Y009814D01*
X012490Y009797D01*
X012444Y009785D01*
X012396Y009776D01*
X012348Y009771D01*
X012300Y009770D01*
X012252Y009773D01*
X012204Y009780D01*
X012157Y009791D01*
X012111Y009805D01*
X012066Y009823D01*
X012023Y009845D01*
X011982Y009870D01*
X011944Y009899D01*
X011907Y009931D01*
X011873Y009965D01*
X011843Y010002D01*
X011815Y010041D01*
X011790Y010083D01*
X011770Y010127D01*
X011752Y010172D01*
X011739Y010218D01*
X011729Y010265D01*
X011723Y010313D01*
X011721Y010361D01*
M02*
