G75*
G70*
%OFA0B0*%
%FSLAX24Y24*%
%IPPOS*%
%LPD*%
%AMOC8*
5,1,8,0,0,1.08239X$1,22.5*
%
%ADD10C,0.0413*%
%ADD11C,0.0740*%
%ADD12C,0.0531*%
%ADD13C,0.0394*%
%ADD14C,0.0197*%
%ADD15C,0.0315*%
%ADD16C,0.0130*%
%ADD17C,0.0118*%
%ADD18C,0.0236*%
D10*
X004443Y004084D03*
X005454Y004084D03*
X005454Y004584D03*
X004443Y004584D03*
X004443Y005084D03*
X005454Y005084D03*
X005454Y005584D03*
X004443Y005584D03*
X004443Y006084D03*
X005454Y006084D03*
X005454Y006584D03*
X004443Y006584D03*
X004443Y007084D03*
X005454Y007084D03*
X005454Y007584D03*
X004443Y007584D03*
X009454Y007584D03*
X010454Y007584D03*
X010454Y007084D03*
X009454Y007084D03*
X009454Y006584D03*
X010454Y006584D03*
X010454Y006084D03*
X009454Y006084D03*
X009454Y005584D03*
X010454Y005584D03*
X010454Y005084D03*
X009454Y005084D03*
X009454Y004584D03*
X010454Y004584D03*
X010454Y004084D03*
X009454Y004084D03*
X014454Y004084D03*
X015454Y004084D03*
X015454Y004584D03*
X014454Y004584D03*
X014454Y005084D03*
X015454Y005084D03*
X015454Y005584D03*
X014454Y005584D03*
X014454Y006084D03*
X015454Y006084D03*
X015454Y006584D03*
X014454Y006584D03*
X014454Y007084D03*
X015454Y007084D03*
X015454Y007584D03*
X014454Y007584D03*
X019454Y007584D03*
X020454Y007584D03*
X020454Y007084D03*
X019454Y007084D03*
X019454Y006584D03*
X020454Y006584D03*
X020454Y006084D03*
X019454Y006084D03*
X019454Y005584D03*
X020454Y005584D03*
X020454Y005084D03*
X019454Y005084D03*
X019454Y004584D03*
X020454Y004584D03*
X020454Y004084D03*
X019454Y004084D03*
X024454Y004084D03*
X025454Y004084D03*
X025454Y004584D03*
X024454Y004584D03*
X024454Y005084D03*
X025454Y005084D03*
X025454Y005584D03*
X024454Y005584D03*
X024454Y006084D03*
X025454Y006084D03*
X025454Y006584D03*
X024454Y006584D03*
X024454Y007084D03*
X025454Y007084D03*
X025454Y007584D03*
X024454Y007584D03*
X029454Y007584D03*
X030454Y007584D03*
X030454Y007084D03*
X029454Y007084D03*
X029454Y006584D03*
X030454Y006584D03*
X030454Y006084D03*
X029454Y006084D03*
X029454Y005584D03*
X030454Y005584D03*
X030454Y005084D03*
X029454Y005084D03*
X029454Y004584D03*
X030454Y004584D03*
X030454Y004084D03*
X029454Y004084D03*
X034454Y004084D03*
X035454Y004084D03*
X035454Y004584D03*
X034454Y004584D03*
X034454Y005084D03*
X035454Y005084D03*
X035454Y005584D03*
X034454Y005584D03*
X034454Y006084D03*
X035454Y006084D03*
X035454Y006584D03*
X034454Y006584D03*
X034454Y007084D03*
X035454Y007084D03*
X035454Y007584D03*
X034454Y007584D03*
X039454Y007584D03*
X040454Y007584D03*
X040454Y007084D03*
X039454Y007084D03*
X039454Y006584D03*
X040454Y006584D03*
X040454Y006084D03*
X039454Y006084D03*
X039454Y005584D03*
X040454Y005584D03*
X040454Y005084D03*
X039454Y005084D03*
X039454Y004584D03*
X040454Y004584D03*
X040454Y004084D03*
X039454Y004084D03*
X044454Y004084D03*
X045443Y004084D03*
X045443Y004584D03*
X044454Y004584D03*
X044454Y005084D03*
X045443Y005084D03*
X045443Y005584D03*
X044454Y005584D03*
X044454Y006084D03*
X045443Y006084D03*
X045443Y006584D03*
X044454Y006584D03*
X044454Y007084D03*
X045443Y007084D03*
X045443Y007584D03*
X044454Y007584D03*
D11*
X046943Y007334D03*
X047943Y007334D03*
X047943Y006334D03*
X046943Y006334D03*
X046943Y005334D03*
X047943Y005334D03*
X047943Y004334D03*
X046943Y004334D03*
X002943Y004334D03*
X001943Y004334D03*
X001943Y005334D03*
X002943Y005334D03*
X002943Y006334D03*
X001943Y006334D03*
X001943Y007334D03*
X002943Y007334D03*
D12*
X005454Y002834D03*
X006454Y002834D03*
X007454Y002834D03*
X008454Y002834D03*
X009454Y002834D03*
X010454Y002834D03*
X011454Y002834D03*
X012454Y002834D03*
X013454Y002834D03*
X014454Y002834D03*
X015454Y002834D03*
X016454Y002834D03*
X017454Y002834D03*
X018454Y002834D03*
X019454Y002834D03*
X020454Y002834D03*
X021454Y002834D03*
X022454Y002834D03*
X023454Y002834D03*
X024454Y002834D03*
X025454Y002834D03*
X026454Y002834D03*
X027454Y002834D03*
X028454Y002834D03*
X029454Y002834D03*
X030454Y002834D03*
X031454Y002834D03*
X032454Y002834D03*
X033454Y002834D03*
X034454Y002834D03*
X035454Y002834D03*
X036454Y002834D03*
X037454Y002834D03*
X038454Y002834D03*
X039454Y002834D03*
X040454Y002834D03*
X041454Y002834D03*
X042454Y002834D03*
X043454Y002834D03*
X044454Y002834D03*
X044454Y008834D03*
X043454Y008834D03*
X042454Y008834D03*
X041454Y008834D03*
X040454Y008834D03*
X039454Y008834D03*
X038454Y008834D03*
X037454Y008834D03*
X036454Y008834D03*
X035454Y008834D03*
X034454Y008834D03*
X033454Y008834D03*
X032454Y008834D03*
X031454Y008834D03*
X030454Y008834D03*
X029454Y008834D03*
X028454Y008834D03*
X027454Y008834D03*
X026454Y008834D03*
X025454Y008834D03*
X024454Y008834D03*
X023454Y008834D03*
X022454Y008834D03*
X021454Y008834D03*
X020454Y008834D03*
X019454Y008834D03*
X018454Y008834D03*
X017454Y008834D03*
X016454Y008834D03*
X015454Y008834D03*
X014454Y008834D03*
X013454Y008834D03*
X012454Y008834D03*
X011454Y008834D03*
X010454Y008834D03*
X009454Y008834D03*
X008454Y008834D03*
X007454Y008834D03*
X006454Y008834D03*
X005454Y008834D03*
D13*
X005454Y005084D02*
X006746Y005084D01*
X009454Y005084D01*
X010454Y005084D02*
X011746Y005084D01*
X014454Y005084D01*
X015454Y005084D02*
X016746Y005084D01*
X019454Y005084D01*
X020454Y005084D02*
X021746Y005084D01*
X024454Y005084D01*
X025454Y005084D02*
X026746Y005084D01*
X029454Y005084D01*
X030454Y005084D02*
X031746Y005084D01*
X034454Y005084D01*
X035454Y005084D02*
X036746Y005084D01*
X039454Y005084D01*
X040454Y005084D02*
X041746Y005084D01*
X044454Y005084D01*
X044454Y004584D02*
X040454Y004584D01*
X039454Y004584D02*
X035454Y004584D01*
X034454Y004584D02*
X030454Y004584D01*
X029454Y004584D02*
X025454Y004584D01*
X024454Y004584D02*
X020454Y004584D01*
X019454Y004584D02*
X015454Y004584D01*
X014454Y004584D02*
X010454Y004584D01*
X009454Y004584D02*
X005454Y004584D01*
X005454Y004084D02*
X007329Y004084D01*
X007454Y003959D01*
X007454Y002834D01*
X004443Y004084D02*
X003889Y003531D01*
X002206Y003531D01*
X001943Y003794D01*
X001943Y004334D01*
X007329Y004084D02*
X009454Y004084D01*
X010454Y004084D02*
X012329Y004084D01*
X012454Y003959D01*
X012454Y002834D01*
X017454Y002834D02*
X017454Y003959D01*
X017329Y004084D01*
X019454Y004084D01*
X020454Y004084D02*
X022329Y004084D01*
X022454Y003959D01*
X022454Y002834D01*
X027454Y002834D02*
X027454Y003959D01*
X027329Y004084D01*
X029454Y004084D01*
X030454Y004084D02*
X032329Y004084D01*
X032454Y003959D01*
X032454Y002834D01*
X037454Y002834D02*
X037454Y003959D01*
X037329Y004084D01*
X039454Y004084D01*
X040454Y004084D02*
X042329Y004084D01*
X042454Y003959D01*
X042454Y002834D01*
X046108Y004062D02*
X046639Y003531D01*
X047702Y003531D01*
X047943Y003771D01*
X047943Y004334D01*
X046108Y004357D02*
X046108Y004062D01*
X046108Y004357D02*
X045881Y004584D01*
X045443Y004584D01*
X044454Y004084D02*
X042329Y004084D01*
X037329Y004084D02*
X035454Y004084D01*
X034454Y004084D02*
X032329Y004084D01*
X027329Y004084D02*
X025454Y004084D01*
X024454Y004084D02*
X022329Y004084D01*
X017329Y004084D02*
X015454Y004084D01*
X014454Y004084D02*
X012329Y004084D01*
D14*
X010454Y004084D02*
X009454Y004084D01*
X009454Y004584D02*
X010454Y004584D01*
X010454Y005084D02*
X009454Y005084D01*
X009454Y005584D02*
X010454Y005584D01*
X010454Y006084D02*
X009454Y006084D01*
X009454Y006584D02*
X010454Y006584D01*
X010454Y007084D02*
X009454Y007084D01*
X009454Y007584D02*
X010454Y007584D01*
X014454Y007584D02*
X015454Y007584D01*
X015454Y007084D02*
X014454Y007084D01*
X014454Y006584D02*
X015454Y006584D01*
X015454Y006084D02*
X014454Y006084D01*
X014454Y005584D02*
X015454Y005584D01*
X015454Y005084D02*
X014454Y005084D01*
X014454Y004584D02*
X015454Y004584D01*
X015454Y004084D02*
X014454Y004084D01*
X019454Y004084D02*
X020454Y004084D01*
X020454Y004584D02*
X019454Y004584D01*
X019454Y005084D02*
X020454Y005084D01*
X020454Y005584D02*
X019454Y005584D01*
X019454Y006084D02*
X020454Y006084D01*
X020454Y006584D02*
X019454Y006584D01*
X019454Y007084D02*
X020454Y007084D01*
X020454Y007584D02*
X019454Y007584D01*
X024454Y007584D02*
X025454Y007584D01*
X025454Y007084D02*
X024454Y007084D01*
X024454Y006584D02*
X025454Y006584D01*
X025454Y006084D02*
X024454Y006084D01*
X024454Y005584D02*
X025454Y005584D01*
X025454Y005084D02*
X024454Y005084D01*
X024454Y004584D02*
X025454Y004584D01*
X025454Y004084D02*
X024454Y004084D01*
X029454Y004084D02*
X030454Y004084D01*
X030454Y004584D02*
X029454Y004584D01*
X029454Y005084D02*
X030454Y005084D01*
X030454Y005584D02*
X029454Y005584D01*
X029454Y006084D02*
X030454Y006084D01*
X030454Y006584D02*
X029454Y006584D01*
X029454Y007084D02*
X030454Y007084D01*
X030454Y007584D02*
X029454Y007584D01*
X034454Y007584D02*
X035454Y007584D01*
X035454Y007084D02*
X034454Y007084D01*
X034454Y006584D02*
X035454Y006584D01*
X035454Y006084D02*
X034454Y006084D01*
X034454Y005584D02*
X035454Y005584D01*
X035454Y005084D02*
X034454Y005084D01*
X034454Y004584D02*
X035454Y004584D01*
X035454Y004084D02*
X034454Y004084D01*
X039454Y004084D02*
X040454Y004084D01*
X040454Y004584D02*
X039454Y004584D01*
X039454Y005084D02*
X040454Y005084D01*
X040454Y005584D02*
X039454Y005584D01*
X039454Y006084D02*
X040454Y006084D01*
X040454Y006584D02*
X039454Y006584D01*
X039454Y007084D02*
X040454Y007084D01*
X040454Y007584D02*
X039454Y007584D01*
X044454Y007584D02*
X045454Y007584D01*
X045454Y007084D02*
X044454Y007084D01*
X044454Y006584D02*
X045454Y006584D01*
X045454Y006084D02*
X044454Y006084D01*
X044454Y005584D02*
X045454Y005584D01*
X045454Y005084D02*
X044454Y005084D01*
X044454Y004584D02*
X045454Y004584D01*
X045454Y004084D02*
X044454Y004084D01*
X005443Y004084D02*
X004443Y004084D01*
X004443Y004584D02*
X005443Y004584D01*
X005443Y005084D02*
X004443Y005084D01*
X004443Y005584D02*
X005443Y005584D01*
X005443Y006084D02*
X004443Y006084D01*
X004443Y006584D02*
X005443Y006584D01*
X005443Y007084D02*
X004443Y007084D01*
X004443Y007584D02*
X005443Y007584D01*
D15*
X045443Y005084D02*
X046090Y005084D01*
X046344Y004830D01*
X046521Y004830D01*
X047348Y004830D02*
X047439Y004830D01*
X047943Y005334D01*
D16*
X047348Y004830D02*
X046521Y004830D01*
D17*
X044454Y005584D02*
X042809Y005584D01*
X040454Y005584D01*
X039454Y005584D02*
X037809Y005584D01*
X035454Y005584D01*
X034454Y005584D02*
X032809Y005584D01*
X030454Y005584D01*
X029454Y005584D02*
X027809Y005584D01*
X025454Y005584D01*
X024454Y005584D02*
X022809Y005584D01*
X020454Y005584D01*
X019454Y005584D02*
X017809Y005584D01*
X015454Y005584D01*
X014454Y005584D02*
X012809Y005584D01*
X010454Y005584D01*
X009454Y005584D02*
X007809Y005584D01*
X005454Y005584D01*
X005454Y006084D02*
X007572Y006084D01*
X009454Y006084D01*
X010454Y006084D02*
X012572Y006084D01*
X014454Y006084D01*
X015454Y006084D02*
X017572Y006084D01*
X019454Y006084D01*
X020454Y006084D02*
X022572Y006084D01*
X024454Y006084D01*
X025454Y006084D02*
X027572Y006084D01*
X029454Y006084D01*
X030454Y006084D02*
X032572Y006084D01*
X034454Y006084D01*
X035454Y006084D02*
X037572Y006084D01*
X039454Y006084D01*
X040454Y006084D02*
X042572Y006084D01*
X044454Y006084D01*
X042336Y006365D02*
X042118Y006584D01*
X040454Y006584D01*
X040454Y007084D02*
X044454Y007084D01*
X044454Y007584D02*
X042691Y007584D01*
X042691Y007664D01*
X042691Y007584D02*
X040454Y007584D01*
X039454Y007584D02*
X037691Y007584D01*
X037691Y007664D01*
X037691Y007584D02*
X035454Y007584D01*
X034454Y007584D02*
X032691Y007584D01*
X032691Y007664D01*
X032691Y007584D02*
X030454Y007584D01*
X029454Y007584D02*
X027691Y007584D01*
X027691Y007664D01*
X027691Y007584D02*
X025454Y007584D01*
X024454Y007584D02*
X022691Y007584D01*
X022691Y007664D01*
X022691Y007584D02*
X020454Y007584D01*
X019454Y007584D02*
X017691Y007584D01*
X017691Y007664D01*
X017691Y007584D02*
X015454Y007584D01*
X014454Y007584D02*
X012691Y007584D01*
X012691Y007664D01*
X012691Y007584D02*
X010454Y007584D01*
X009454Y007584D02*
X007691Y007584D01*
X007691Y007664D01*
X007691Y007584D02*
X005454Y007584D01*
X005454Y007084D02*
X009454Y007084D01*
X010454Y007084D02*
X014454Y007084D01*
X015454Y007084D02*
X019454Y007084D01*
X020454Y007084D02*
X024454Y007084D01*
X025454Y007084D02*
X029454Y007084D01*
X030454Y007084D02*
X034454Y007084D01*
X035454Y007084D02*
X039454Y007084D01*
X037336Y006365D02*
X037118Y006584D01*
X035454Y006584D01*
X032336Y006365D02*
X032118Y006584D01*
X030454Y006584D01*
X027336Y006365D02*
X027118Y006584D01*
X025454Y006584D01*
X022336Y006365D02*
X022118Y006584D01*
X020454Y006584D01*
X017336Y006365D02*
X017118Y006584D01*
X015454Y006584D01*
X012336Y006365D02*
X012118Y006584D01*
X010454Y006584D01*
X007336Y006365D02*
X007118Y006584D01*
X005454Y006584D01*
X004443Y007084D02*
X003456Y007084D01*
X003210Y006838D01*
X002439Y006838D01*
X001943Y007334D01*
X045443Y007584D02*
X045834Y007584D01*
X046580Y006838D01*
X047446Y006838D01*
X047943Y007334D01*
D18*
X042691Y007664D03*
X037691Y007664D03*
X032691Y007664D03*
X027691Y007664D03*
X022691Y007664D03*
X017691Y007664D03*
X012691Y007664D03*
X007691Y007664D03*
X007336Y006365D03*
X007572Y006084D03*
X007809Y005584D03*
X006746Y005084D03*
X006450Y005084D03*
X011450Y005084D03*
X011746Y005084D03*
X012809Y005584D03*
X012572Y006084D03*
X012336Y006365D03*
X017336Y006365D03*
X017572Y006084D03*
X017809Y005584D03*
X016746Y005084D03*
X016450Y005084D03*
X021450Y005084D03*
X021746Y005084D03*
X022809Y005584D03*
X022572Y006084D03*
X022336Y006365D03*
X027336Y006365D03*
X027572Y006084D03*
X027809Y005584D03*
X026746Y005084D03*
X026450Y005084D03*
X031450Y005084D03*
X031746Y005084D03*
X032809Y005584D03*
X032572Y006084D03*
X032336Y006365D03*
X037336Y006365D03*
X037572Y006084D03*
X037809Y005584D03*
X036746Y005084D03*
X036450Y005084D03*
X041450Y005084D03*
X041746Y005084D03*
X042809Y005584D03*
X042572Y006084D03*
X042336Y006365D03*
M02*
